# Blender v2.78 (sub 0) OBJ File: 'Emmet_body.blend'
# www.blender.org
mtllib Emmet_body.mtl
o Mesh_0215.rip
v 0.150496 0.343974 -0.085992
v 0.150488 0.343974 -0.000003
v 0.150488 0.312762 -0.025203
v 0.150488 0.315533 0.015312
v 0.150488 0.343974 0.085999
v -0.150484 0.315533 0.015312
v -0.150492 0.296677 0.049514
v -0.150484 0.296677 0.085999
v 0.150488 0.296677 0.085999
v 0.150496 0.296677 0.049514
v -0.150484 0.343974 0.085999
v -0.150484 0.343974 -0.000003
v -0.150484 0.312762 -0.025203
v -0.150492 0.343974 -0.085992
v -0.150492 0.296677 -0.085992
v 0.150496 0.296677 -0.085992
v 0.150488 0.296677 -0.049507
v -0.150484 0.296677 -0.049507
v -0.014062 0.296677 0.049514
v 0.014059 0.296677 -0.049507
v -0.014055 0.296677 -0.049507
v 0.014052 0.296677 0.049514
v 0.014052 0.263976 0.071363
v 0.014059 0.217603 -0.071356
v 0.014059 0.263976 -0.071356
v 0.014052 0.217603 0.071363
v 0.014052 0.180087 -0.044101
v 0.014052 0.180087 0.044105
v 0.014059 0.165757 -0.000003
v -0.014062 0.180087 0.044105
v -0.014055 0.217603 -0.071356
v -0.014062 0.180087 -0.044101
v -0.014062 0.217603 0.071363
v -0.014055 0.263976 -0.071356
v -0.014062 0.263976 0.071363
v -0.014055 0.165757 -0.000003
v -0.153532 0.343974 0.074988
v 0.153536 0.343974 -0.074994
v 0.153536 0.343974 0.074988
v -0.153532 0.343974 -0.074994
v -0.121274 0.548979 -0.085992
v -0.142826 0.484593 -0.074994
v -0.132418 0.548979 -0.074994
v -0.131683 0.484593 -0.085992
v 0.121271 0.548979 0.085999
v 0.142816 0.484593 0.074988
v 0.132422 0.548979 0.074988
v 0.131679 0.484593 0.085999
v 0.121278 0.548979 -0.085992
v -0.111014 0.612453 -0.085999
v 0.111018 0.612453 -0.085999
v 0.110176 0.623457 -0.074994
v -0.110172 0.623457 0.074988
v 0.110176 0.623457 0.074988
v -0.110172 0.623457 -0.074994
v -0.152620 0.354978 -0.085999
v 0.152610 0.354978 -0.085999
v -0.153221 0.420207 0.074988
v -0.153221 0.420207 -0.074994
v -0.142826 0.484593 0.074988
v 0.153225 0.420207 -0.074994
v 0.153225 0.420207 0.074988
v 0.142816 0.484593 -0.074994
v 0.142074 0.420207 0.085999
v 0.142081 0.420207 -0.085992
v 0.131672 0.484593 -0.085992
v -0.142084 0.420207 0.085999
v -0.131675 0.484593 0.085999
v -0.132418 0.548979 0.074988
v 0.132422 0.548979 -0.074994
v -0.121281 0.548979 0.085999
v -0.142077 0.420207 -0.085992
v -0.122023 0.613365 0.074988
v -0.111021 0.612453 0.085992
v 0.163619 0.355821 -0.074994
v 0.122013 0.613365 -0.074994
v 0.111025 0.612453 0.085992
v 0.152617 0.354978 0.085992
v -0.152613 0.354978 0.085992
v -0.122023 0.613365 -0.074994
v 0.122013 0.613365 0.074988
v -0.163630 0.355821 0.074988
v -0.163630 0.355821 -0.074994
v 0.163619 0.355821 0.074988
v 0.064547 0.617407 0.037278
v 0.037274 0.617407 0.064554
v 0.074545 0.617407 -0.000003
v 0.064554 0.617407 -0.037272
v 0.037267 0.617407 -0.064547
v 0.000002 0.617407 -0.074541
v -0.037277 0.617407 -0.064547
v -0.064550 0.617407 -0.037272
v -0.074541 0.617407 -0.000003
v -0.064557 0.617407 0.037278
v -0.037270 0.617407 0.064554
v -0.000005 0.617407 0.074547
v 0.014059 0.289345 -0.058369
v 0.014059 0.262163 0.072458
v 0.014052 0.296850 0.051356
v 0.149032 0.289345 -0.058369
v 0.014059 0.181161 0.045190
v 0.014059 0.312762 -0.025203
v 0.014059 0.315533 0.015312
v 0.148586 0.296850 0.051356
v 0.147632 0.312762 -0.025203
v 0.147462 0.315533 0.015312
v 0.014052 0.181115 -0.075239
v 0.014059 0.221564 0.072458
v -0.014055 0.289345 -0.058369
v -0.014062 0.296850 0.051356
v -0.014055 0.262163 0.072458
v -0.149042 0.289345 -0.058369
v -0.014055 0.181161 0.045190
v -0.014055 0.312762 -0.025203
v -0.014055 0.315533 0.015312
v -0.148582 0.296850 0.051356
v -0.147628 0.312762 -0.025203
v -0.147472 0.315533 0.015312
v -0.014062 0.181115 -0.075239
vt 0.5493 0.5581
vt 0.5493 0.5405
vt 0.5640 0.5459
vt 0.5625 0.5376
vt 0.5493 0.5232
vt 0.5625 0.5376
vt 0.5713 0.5305
vt 0.5713 0.5232
vt 0.5713 0.5232
vt 0.5713 0.5305
vt 0.5493 0.5232
vt 0.5493 0.5405
vt 0.5640 0.5459
vt 0.5493 0.5581
vt 0.5713 0.5581
vt 0.5713 0.5581
vt 0.5713 0.5508
vt 0.5713 0.5508
vt 0.2137 0.5588
vt 0.1731 0.0420
vt 0.1731 0.5588
vt 0.2137 0.0420
vt 0.6221 0.4668
vt 0.6221 0.4736
vt 0.6221 0.4668
vt 0.6221 0.4736
vt 0.5991 0.4736
vt 0.5669 0.4736
vt 0.5991 0.4736
vt 0.5669 0.4736
vt 0.5405 0.4736
vt 0.5405 0.4736
vt 0.5303 0.4736
vt 0.5405 0.4668
vt 0.5669 0.4668
vt 0.5405 0.4668
vt 0.5669 0.4668
vt 0.5991 0.4668
vt 0.5991 0.4668
vt 0.5303 0.4668
vt 0.2524 0.0278
vt 0.1210 0.5627
vt 0.2524 0.5627
vt 0.1210 0.0278
vt 0.6489 0.0850
vt 0.6523 0.0396
vt 0.6489 0.0576
vt 0.6523 0.0669
vt 0.4329 0.5056
vt 0.3777 0.5508
vt 0.4338 0.5327
vt 0.3772 0.5237
vt 0.6489 0.5056
vt 0.6445 0.1025
vt 0.6445 0.4878
vt 0.6318 0.4873
vt 0.5005 0.1030
vt 0.5005 0.4873
vt 0.6318 0.1030
vt 0.6592 0.0303
vt 0.6597 0.5627
vt 0.6597 0.0278
vt 0.6592 0.5601
vt 0.5005 0.5640
vt 0.6318 0.5623
vt 0.6318 0.5640
vt 0.5005 0.5623
vt 0.6318 0.5640
vt 0.5005 0.5623
vt 0.5005 0.5640
vt 0.6318 0.5623
vt 0.3218 0.5688
vt 0.3213 0.5417
vt 0.6523 0.5508
vt 0.6558 0.5417
vt 0.6523 0.5237
vt 0.6558 0.5688
vt 0.3777 0.0396
vt 0.3213 0.0488
vt 0.3772 0.0669
vt 0.3218 0.0215
vt 0.6318 0.5605
vt 0.5005 0.5605
vt 0.5005 0.5605
vt 0.6318 0.5605
vt 0.4338 0.0576
vt 0.4329 0.0850
vt 0.6489 0.5327
vt 0.6558 0.0215
vt 0.6558 0.0488
vt 0.4902 0.0781
vt 0.4880 0.1025
vt 0.6592 0.5845
vt 0.6426 0.5125
vt 0.4880 0.4878
vt 0.2646 0.5601
vt 0.2646 0.0303
vt 0.6318 0.5146
vt 0.5005 0.5146
vt 0.5005 0.5146
vt 0.6318 0.5146
vt 0.2649 0.0059
vt 0.4902 0.5125
vt 0.5005 0.0762
vt 0.6318 0.0762
vt 0.6426 0.0781
vt 0.6592 0.0059
vt 0.6318 0.5657
vt 0.5005 0.5662
vt 0.5005 0.5657
vt 0.6318 0.5662
vt 0.5005 0.5657
vt 0.6318 0.5662
vt 0.6318 0.5657
vt 0.5005 0.5662
vt 0.2649 0.5845
vt 1.5732 0.5974
vt 1.5732 0.5847
vt 1.5732 0.6008
vt 1.5732 0.6082
vt 1.5732 0.6096
vt 1.5107 0.6008
vt 1.5098 0.5974
vt 1.5107 0.6082
vt 0.0212 0.6316
vt 0.1028 0.5815
vt 0.1028 0.6316
vt 0.0202 0.5815
vt 1.5107 0.6096
vt 1.5732 0.5659
vt 1.5859 0.5974
vt 1.5859 0.6008
vt 1.5859 0.5847
vt 1.5859 0.6082
vt 1.5859 0.6096
vt 1.6484 0.6008
vt 1.6475 0.6082
vt 1.6484 0.5974
vt 0.0212 0.6316
vt 0.1028 0.5815
vt 0.0202 0.5815
vt 0.1028 0.6316
vt 1.6475 0.6096
vn 1.0000 -0.0000 0.0001
vn 1.0000 -0.0000 0.0000
vn 1.0000 -0.0001 0.0001
vn 1.0000 0.0001 0.0000
vn -1.0000 0.0001 0.0000
vn -1.0000 0.0008 0.0002
vn 1.0000 0.0008 0.0002
vn -1.0000 -0.0000 0.0000
vn -1.0000 -0.0001 0.0001
vn -1.0000 -0.0000 0.0001
vn 1.0000 -0.0003 0.0002
vn 0.0000 0.0000 -1.0000
vn 0.0000 -1.0000 -0.0000
vn 0.0000 -0.9816 0.1912
vn -0.0000 -0.9240 0.3823
vn 0.0000 -0.0000 1.0000
vn 0.0000 1.0000 0.0000
vn 0.0000 -0.9472 0.3207
vn 0.0000 -0.9436 -0.3311
vn 0.0000 -0.9764 -0.2161
vn -0.0000 -0.9862 -0.1656
vn -1.0000 -0.0003 0.0002
vn 0.0000 0.8819 0.4714
vn 0.0000 0.8819 -0.4714
vn 1.0000 -0.0001 0.0000
vn 1.0000 0.0005 0.0000
vn -1.0000 -0.0000 -0.0001
vn 0.0000 -0.7410 0.6715
vn 0.0000 -0.4097 0.9122
vn 0.0000 -0.8676 0.4972
vn 0.0000 -0.2048 0.9788
vn -0.0000 -0.9942 0.1077
vn -0.0000 -0.9942 -0.1077
vn 0.0000 0.1925 0.9813
vn 0.0000 0.3850 0.9229
vn 0.0000 -0.8676 -0.4973
vn 0.0000 -0.7410 -0.6715
vn -0.0000 -0.4096 -0.9123
vn 0.0000 -0.2048 -0.9788
vn 0.0000 0.1925 -0.9813
vn 0.0000 0.3850 -0.9229
vn -1.0000 -0.0005 0.0000
vn -0.3569 -0.8731 0.3323
vn 0.3572 -0.8729 -0.3323
vn 0.4010 -0.8365 0.3734
vn -0.4006 -0.8367 -0.3733
vn -0.4309 0.0696 -0.8997
vn -0.9120 0.1473 -0.3827
vn -0.9401 0.1519 -0.3052
vn -0.4517 0.0730 -0.8892
vn 0.3778 0.0611 0.9239
vn 0.9122 0.1474 0.3824
vn 0.9401 0.1519 0.3051
vn 0.4521 0.0730 0.8890
vn 0.3778 0.0610 -0.9239
vn -0.2774 0.3258 -0.9038
vn 0.2757 0.4824 -0.8315
vn 0.2649 0.9198 -0.2895
vn -0.2647 0.9198 0.2895
vn 0.3447 0.8600 0.3763
vn -0.3444 0.8601 -0.3763
vn -0.3348 -0.2851 -0.8981
vn 0.4652 -0.2329 -0.8540
vn -0.9122 0.1473 0.3824
vn -0.8881 0.1435 -0.4366
vn -0.9121 0.1474 0.3826
vn 0.9120 0.1474 -0.3827
vn 0.8882 0.1434 0.4364
vn 0.9120 0.1473 -0.3828
vn 0.3012 0.0486 0.9523
vn 0.3777 0.0611 -0.9239
vn 0.3232 0.0522 -0.9449
vn -0.3781 0.0610 0.9237
vn -0.3234 0.0523 0.9448
vn 0.9120 0.1473 -0.3827
vn -0.4520 0.0731 0.8890
vn -0.3012 0.0487 -0.9523
vn -0.7943 0.4771 0.3762
vn -0.2309 0.4043 0.8850
vn 0.9389 -0.1724 -0.2980
vn 0.7944 0.4769 -0.3762
vn 0.3465 0.4067 0.8453
vn 0.3349 -0.2851 0.8981
vn -0.4652 -0.2331 0.8540
vn -0.8538 0.3616 -0.3745
vn 0.8539 0.3616 0.3742
vn -0.9388 -0.1726 0.2982
vn -0.8846 -0.3590 -0.2975
vn 0.8848 -0.3587 0.2973
vn -1.0000 -0.0001 -0.0000
vn -1.0000 0.0001 -0.0001
vn -1.0000 0.0003 -0.0000
vn 0.2900 0.8944 0.3404
vn 0.3244 0.8298 -0.4542
vn 0.5527 0.7617 -0.3382
vn 0.0000 0.8628 -0.5056
vn 0.0000 0.9693 -0.2459
vn 0.3194 0.9419 0.1036
vn -0.0000 0.9559 0.2937
vn 0.0846 0.8846 0.4585
vn 1.0000 0.0002 0.0000
vn 1.0000 -0.0003 0.0000
vn -0.2900 0.8945 0.3403
vn -0.5528 0.7616 -0.3383
vn -0.3244 0.8298 -0.4541
vn -0.3196 0.9419 0.1036
vn -0.0846 0.8846 0.4585
usemtl lego
s 1
f 1/1/1 2/2/2 3/3/3
f 4/4/4 2/2/2 5/5/2
f 6/6/5 7/7/6 8/8/5
f 9/9/4 10/10/7 4/4/4
f 6/6/5 8/8/5 11/11/8
f 11/11/8 12/12/8 6/6/5
f 13/13/9 14/14/10 15/15/9
f 16/16/3 3/3/3 17/17/11
f 13/13/9 12/12/8 14/14/10
f 4/4/4 3/3/3 2/2/2
f 14/14/12 16/16/12 15/15/12
f 1/1/12 16/16/12 14/14/12
f 15/15/13 17/17/14 18/18/15
f 16/16/13 17/17/14 15/15/13
f 5/19/16 8/20/16 9/21/16
f 11/22/16 8/20/16 5/19/16
f 2/2/17 14/14/17 12/12/17
f 1/1/17 14/14/17 2/2/17
f 3/3/18 18/18/15 17/17/14
f 13/13/18 18/18/15 3/3/18
f 10/10/19 6/6/20 4/4/20
f 7/7/21 6/6/20 10/10/19
f 13/13/9 6/6/5 12/12/8
f 15/15/9 18/18/22 13/13/9
f 4/4/4 5/5/2 9/9/4
f 9/9/13 7/7/21 10/10/19
f 8/8/13 7/7/21 9/9/13
f 6/6/20 3/3/18 4/4/20
f 13/13/18 3/3/18 6/6/20
f 16/16/3 1/1/1 3/3/3
f 2/2/17 11/11/17 5/5/17
f 12/12/17 11/11/17 2/2/17
f 19/23/23 20/24/24 21/25/24
f 22/26/23 20/24/24 19/23/23
f 23/27/2 24/28/25 25/29/1
f 26/30/2 24/28/25 23/27/2
f 26/30/2 27/31/25 24/28/25
f 28/32/4 27/31/25 26/30/2
f 28/32/4 29/33/26 27/31/25
f 30/34/8 31/35/5 32/36/5
f 33/37/8 31/35/5 30/34/8
f 33/37/8 34/38/8 31/35/5
f 35/39/27 34/38/8 33/37/8
f 35/39/27 21/25/27 34/38/8
f 19/23/27 21/25/27 35/39/27
f 28/32/28 33/37/29 30/34/30
f 26/30/31 33/37/29 28/32/28
f 30/34/30 29/33/32 28/32/28
f 36/40/33 29/33/32 30/34/30
f 26/30/31 35/39/34 33/37/29
f 23/27/35 35/39/34 26/30/31
f 27/31/36 36/40/33 32/36/37
f 29/33/32 36/40/33 27/31/36
f 32/36/37 24/28/38 27/31/36
f 31/35/39 24/28/38 32/36/37
f 31/35/39 25/29/40 24/28/38
f 34/38/41 25/29/40 31/35/39
f 34/38/41 20/24/24 25/29/40
f 21/25/24 20/24/24 34/38/41
f 32/36/5 36/40/42 30/34/8
f 25/29/1 22/26/1 23/27/2
f 20/24/1 22/26/1 25/29/1
f 23/27/35 19/23/23 35/39/34
f 22/26/23 19/23/23 23/27/35
f 37/41/43 38/42/44 39/43/45
f 40/44/46 38/42/44 37/41/43
f 41/45/47 42/46/48 43/47/49
f 44/48/50 42/46/48 41/45/47
f 45/49/51 46/50/52 47/51/53
f 48/52/54 46/50/52 45/49/51
f 49/53/55 50/54/56 51/55/57
f 41/45/47 50/54/56 49/53/55
f 52/56/58 53/57/59 54/58/60
f 55/59/61 53/57/59 52/56/58
f 56/60/62 38/61/44 40/62/46
f 57/63/63 38/61/44 56/60/62
f 58/64/64 42/65/48 59/66/65
f 60/67/66 42/65/48 58/64/64
f 61/68/67 46/69/52 62/70/68
f 63/71/69 46/69/52 61/68/67
f 48/52/54 62/72/68 46/50/52
f 64/73/70 62/72/68 48/52/54
f 63/74/69 65/75/71 66/76/72
f 61/77/67 65/75/71 63/74/69
f 60/78/66 67/79/73 68/80/74
f 58/81/64 67/79/73 60/78/66
f 43/82/49 60/67/66 69/83/64
f 42/65/48 60/67/66 43/82/49
f 47/84/53 63/71/69 70/85/75
f 46/69/52 63/71/69 47/84/53
f 68/80/74 69/86/64 60/78/66
f 71/87/76 69/86/64 68/80/74
f 66/76/72 70/88/75 63/74/69
f 49/53/55 70/88/75 66/76/72
f 44/48/50 59/89/65 42/46/48
f 72/90/77 59/89/65 44/48/50
f 71/87/76 73/91/78 69/86/64
f 74/92/79 73/91/78 71/87/76
f 55/59/61 51/55/57 50/54/56
f 52/56/58 51/55/57 55/59/61
f 57/63/63 61/77/67 75/93/80
f 65/75/71 61/77/67 57/63/63
f 49/53/55 76/94/81 70/88/75
f 51/55/57 76/94/81 49/53/55
f 74/92/79 54/58/60 53/57/59
f 77/95/82 54/58/60 74/92/79
f 78/96/83 37/41/43 39/43/45
f 79/97/84 37/41/43 78/96/83
f 69/83/64 80/98/85 43/82/49
f 73/99/78 80/98/85 69/83/64
f 70/85/75 81/100/86 47/84/53
f 76/101/81 81/100/86 70/85/75
f 65/75/71 56/60/62 72/90/77
f 57/63/63 56/60/62 65/75/71
f 79/97/84 58/81/64 82/102/87
f 67/79/73 58/81/64 79/97/84
f 74/92/79 45/49/51 77/95/82
f 71/87/76 45/49/51 74/92/79
f 45/49/51 81/103/86 77/95/82
f 47/51/53 81/103/86 45/49/51
f 55/59/61 73/104/78 53/57/59
f 80/105/85 73/104/78 55/59/61
f 67/79/73 78/96/83 64/73/70
f 79/97/84 78/96/83 67/79/73
f 54/58/60 76/101/81 52/56/58
f 81/100/86 76/101/81 54/58/60
f 41/45/47 80/106/85 50/54/56
f 43/47/49 80/106/85 41/45/47
f 68/80/74 64/73/70 48/52/54
f 67/79/73 64/73/70 68/80/74
f 59/89/65 56/60/62 83/107/88
f 72/90/77 56/60/62 59/89/65
f 83/108/88 37/109/43 82/110/87
f 40/111/46 37/109/43 83/108/88
f 84/112/89 38/113/44 75/114/80
f 39/115/45 38/113/44 84/112/89
f 73/91/78 74/92/79 53/57/59
f 54/58/60 77/95/82 81/103/86
f 80/106/85 55/59/61 50/54/56
f 51/55/57 52/56/58 76/94/81
f 83/107/88 56/60/62 40/62/46
f 37/41/43 79/97/84 82/102/87
f 39/43/45 84/116/89 78/96/83
f 38/61/44 57/63/63 75/93/80
f 62/72/68 78/96/83 84/116/89
f 64/73/70 78/96/83 62/72/68
f 72/90/77 66/76/72 65/75/71
f 44/48/50 66/76/72 72/90/77
f 41/45/47 66/76/72 44/48/50
f 49/53/55 66/76/72 41/45/47
f 59/66/65 82/110/87 58/64/64
f 83/108/88 82/110/87 59/66/65
f 62/70/68 75/114/80 61/68/67
f 84/112/89 75/114/80 62/70/68
f 45/49/51 68/80/74 48/52/54
f 71/87/76 68/80/74 45/49/51
f 97/117/8 98/118/90 99/119/90
f 102/120/91 99/119/90 103/121/92
f 99/119/90 102/120/91 97/117/8
f 104/122/93 100/123/94 105/124/95
f 105/125/95 97/126/96 102/127/97
f 100/128/94 97/126/96 105/125/95
f 106/129/98 102/120/97 103/121/99
f 105/124/95 102/120/97 106/129/98
f 104/122/93 103/121/99 99/119/100
f 106/129/98 103/121/99 104/122/93
f 97/117/8 108/130/8 98/118/90
f 104/122/93 105/124/95 106/129/98
f 109/131/1 110/132/4 111/133/101
f 114/134/3 115/135/102 110/132/4
f 110/132/4 109/131/1 114/134/3
f 116/136/103 117/137/104 112/138/105
f 117/139/104 109/140/96 112/141/105
f 114/142/97 109/140/96 117/139/104
f 118/143/106 114/134/97 117/137/104
f 115/135/99 114/134/97 118/143/106
f 116/136/103 115/135/99 118/143/106
f 110/132/107 115/135/99 116/136/103
f 116/136/103 118/143/106 117/137/104
l 85 86
l 89 90
l 90 91
l 101 108
l 93 94
l 113 119
l 92 93
l 91 92
l 101 107
l 94 95
l 95 96
l 86 96
l 88 89
l 87 88
l 85 87
