# Blender v2.78 (sub 0) OBJ File: 'armL.blend'
# www.blender.org
mtllib emmet_armL.mtl
o Mesh_0215.rip
v 0.224841 0.505193 0.244958
v 0.168753 0.538679 0.196997
v 0.189733 0.448174 0.168645
v 0.168753 0.447308 0.172508
v 0.189733 0.539765 0.192968
v 0.209659 0.532940 0.218448
v 0.228496 0.535608 0.208473
v 0.210713 0.538679 0.196997
v 0.150969 0.535608 0.208473
v 0.150962 0.444236 0.183996
v 0.139076 0.439629 0.201174
v 0.139076 0.531001 0.225649
v 0.134911 0.434202 0.221443
v 0.134911 0.525573 0.245919
v 0.240376 0.520146 0.266189
v 0.244555 0.525573 0.245919
v 0.220605 0.527098 0.240224
v 0.244555 0.434202 0.221443
v 0.240383 0.428775 0.241701
v 0.220605 0.435726 0.215748
v 0.219820 0.430634 0.234749
v 0.139083 0.428775 0.241701
v 0.139076 0.520146 0.266189
v 0.159631 0.430634 0.234749
v 0.159624 0.438705 0.268780
v 0.219827 0.514038 0.288964
v 0.158846 0.527098 0.240224
v 0.169800 0.441569 0.193960
v 0.169793 0.532940 0.218448
v 0.158846 0.435726 0.215748
v 0.189733 0.448174 0.180451
v 0.160706 0.477203 0.146195
v 0.189726 0.448174 0.146195
v 0.160699 0.477203 0.187947
v 0.159624 0.514038 0.288964
v 0.209666 0.441569 0.193960
v 0.219827 0.438705 0.268780
v 0.240376 0.531001 0.225649
v 0.240376 0.439629 0.201174
v 0.228489 0.444236 0.183996
v 0.208457 0.447400 0.172104
v 0.218745 0.477203 0.146195
v 0.218753 0.477203 0.187947
v 0.189733 0.506221 0.146188
v 0.189733 0.506221 0.194002
v 0.145567 0.479836 -0.021852
v 0.150411 0.452365 0.006751
v 0.137739 0.524246 0.065043
v 0.147731 0.573921 0.046464
v 0.144132 0.592638 0.017259
v 0.126369 0.588759 0.020566
v 0.143410 0.492087 0.078692
v 0.150269 0.453162 0.045888
v 0.221623 0.487203 0.034731
v 0.205233 0.531301 0.025722
v 0.218802 0.511913 0.051351
v 0.205063 0.512606 0.008326
v 0.163895 0.522340 -0.051118
v 0.139946 0.511717 -0.050102
v 0.133483 0.548379 -0.054296
v 0.224982 0.501717 0.076806
v 0.230017 0.472076 0.062986
v 0.191197 0.477457 0.167089
v 0.154512 0.501867 0.167089
v 0.145419 0.480690 0.167089
v 0.165069 0.441973 0.167082
v 0.191586 0.434606 0.167082
v 0.149293 0.458774 0.167089
v 0.195468 0.528102 0.097132
v 0.168590 0.535781 0.088429
v 0.171398 0.526174 0.098705
v 0.189005 0.540146 0.084571
v 0.217367 0.444259 0.167082
v 0.230130 0.462492 0.167089
v 0.220025 0.509800 0.117333
v 0.229720 0.488461 0.107719
v 0.216971 0.516671 0.084015
v 0.129664 0.569995 0.043219
v 0.232067 0.484662 0.167089
v 0.222670 0.504835 0.167082
v 0.198982 0.522433 0.121914
v 0.204441 0.517606 0.167082
v 0.176906 0.517860 0.167082
v 0.174297 0.521451 0.121970
v 0.157029 0.441072 0.084155
v 0.189104 0.435091 0.088637
v 0.217070 0.444144 0.090830
v 0.150085 0.510759 0.092159
v 0.147731 0.517063 0.083304
v 0.180703 0.451268 0.013825
v 0.187958 0.435472 0.043023
v 0.144414 0.486406 0.114749
v 0.149845 0.455633 0.082239
v 0.141261 0.528899 0.069482
v 0.155049 0.441049 0.045061
v 0.162686 0.549025 0.070775
v 0.161894 0.577743 0.043444
v 0.159419 0.553032 -0.049073
v 0.150807 0.504985 0.119863
v 0.228836 0.462827 0.098080
v 0.217536 0.446315 0.050315
v 0.211243 0.462296 0.022930
v 0.209631 0.528749 0.066721
v 0.188467 0.556196 -0.000892
v 0.191027 0.536127 -0.015785
v 0.153600 0.580687 -0.032042
v 0.186197 0.509858 -0.024253
v 0.165543 0.487815 -0.024015
v 0.198254 0.486983 -0.002190
v 0.148961 0.593354 -0.004407
v 0.180498 0.572708 0.020995
v 0.196839 0.548344 0.046335
v 0.178334 0.556658 0.067020
v 0.127854 0.580295 -0.036218
v 0.125719 0.592373 -0.011552
vt 0.4624 0.7229
vt 0.4768 0.7170
vt 0.4714 0.7229
vt 0.4680 0.7170
vt 0.4321 0.7117
vt 0.4460 0.7065
vt 0.4624 0.7114
vt 0.4460 0.7275
vt 0.4551 0.7275
vt 0.4309 0.7310
vt 0.4219 0.7310
vt 0.4023 0.7319
vt 0.3933 0.7319
vt 0.3647 0.7034
vt 0.3933 0.7021
vt 0.4014 0.7087
vt 0.4023 0.7021
vt 0.3738 0.7034
vt 0.4104 0.7087
vt 0.3835 0.7090
vt 0.3738 0.7310
vt 0.3647 0.7310
vt 0.3835 0.7253
vt 0.3401 0.7253
vt 0.3328 0.7090
vt 0.4014 0.7256
vt 0.4412 0.7224
vt 0.4321 0.7224
vt 0.4104 0.7256
vt 0.4761 0.7063
vt 0.4294 0.6916
vt 0.4294 0.7063
vt 0.4761 0.6916
vt 0.3328 0.7253
vt 0.4412 0.7117
vt 0.3401 0.7090
vt 0.4219 0.7034
vt 0.4309 0.7034
vt 0.4551 0.7065
vt 0.4719 0.7119
vt 0.4294 0.7419
vt 0.4761 0.7419
vt 0.4294 0.7273
vt 0.4761 0.7273
vt 0.3152 0.8043
vt 0.2498 0.8004
vt 0.3135 0.8107
vt 0.2493 0.8177
vt 0.2484 0.8203
vt 0.3110 0.8198
vt 0.2483 0.8060
vt 0.2498 0.8004
vt 0.2649 0.8053
vt 0.2615 0.8116
vt 0.2644 0.8088
vt 0.2615 0.8090
vt 0.2527 0.8103
vt 0.3140 0.8088
vt 0.3125 0.8141
vt 0.2656 0.8074
vt 0.2668 0.8032
vt 0.3838 0.8087
vt 0.3809 0.8121
vt 0.3801 0.8092
vt 0.3818 0.8037
vt 0.3838 0.8026
vt 0.3804 0.8060
vt 0.2593 0.8112
vt 0.2537 0.8123
vt 0.2544 0.8109
vt 0.2581 0.8129
vt 0.3860 0.8040
vt 0.3870 0.8065
vt 0.2646 0.8086
vt 0.2666 0.8055
vt 0.2639 0.8096
vt 0.3118 0.8171
vt 0.3872 0.8097
vt 0.2671 0.8049
vt 0.2651 0.8079
vt 0.2603 0.8103
vt 0.2612 0.8097
vt 0.3850 0.8145
vt 0.3828 0.8145
vt 0.2549 0.8102
vt 0.2554 0.8097
vt 0.2512 0.7987
vt 0.2585 0.7979
vt 0.2529 0.7988
vt 0.2581 0.7979
vt 0.2639 0.7992
vt 0.2642 0.7992
vt 0.2498 0.8087
vt 0.2493 0.8096
vt 0.2563 0.8002
vt 0.2578 0.7980
vt 0.2485 0.8052
vt 0.2495 0.8013
vt 0.2488 0.8044
vt 0.2496 0.8008
vt 0.2478 0.8113
vt 0.2507 0.7987
vt 0.2524 0.8141
vt 0.2522 0.8182
vt 0.2517 0.8147
vt 0.3865 0.8126
vt 0.2507 0.8074
vt 0.2499 0.8079
vt 0.2668 0.8018
vt 0.2666 0.8019
vt 0.2642 0.7996
vt 0.2627 0.8018
vt 0.2625 0.8113
vt 0.2578 0.8152
vt 0.2585 0.8123
vt 0.2505 0.8186
vt 0.2573 0.8086
vt 0.2529 0.8054
vt 0.2600 0.8053
vt 0.2495 0.8204
vt 0.2561 0.8175
vt 0.2598 0.8141
vt 0.2559 0.8152
vt 0.3115 0.8186
vt 0.3110 0.8203
vn -0.3175 0.2445 -0.9162
vn -0.0659 0.2575 -0.9640
vn -0.4400 0.2325 -0.8674
vn 0.0630 0.2569 -0.9644
vn 0.0002 0.9660 0.2587
vn 0.0002 0.9659 0.2588
vn 0.0002 0.9660 0.2585
vn -0.7069 0.1831 -0.6832
vn -0.7071 0.1830 -0.6830
vn -0.8965 0.1146 -0.4279
vn -0.9472 0.0829 -0.3097
vn -0.9978 0.0170 -0.0636
vn -0.9978 -0.0172 0.0639
vn -0.0002 0.9659 0.2588
vn 0.0000 0.9660 0.2586
vn 0.0001 0.9659 0.2588
vn 0.9978 -0.0171 0.0639
vn 0.8975 -0.1141 0.4259
vn 0.9978 0.0172 -0.0640
vn -0.0000 -0.9659 -0.2588
vn -0.0562 -0.9934 -0.0996
vn -0.0846 -0.9963 -0.0161
vn 0.0001 -0.9660 -0.2587
vn -0.9331 -0.0931 0.3473
vn -0.8552 -0.1342 0.5006
vn -0.2613 -0.9276 0.2670
vn 0.7379 -0.6702 -0.0798
vn -0.1710 -0.6461 0.7439
vn -1.0000 0.0044 -0.0067
vn -0.9776 -0.0532 0.2036
vn -0.9572 -0.2847 0.0532
vn 0.9776 -0.0532 0.2038
vn 0.6926 -0.1867 0.6967
vn 0.3463 -0.2429 0.9061
vn 0.9788 -0.0529 0.1976
vn -0.7071 -0.7071 0.0000
vn -0.7072 -0.7070 0.0001
vn -0.7071 -0.7072 -0.0001
vn 1.0000 0.0044 -0.0067
vn 0.9572 -0.2847 0.0532
vn -0.5309 -0.2194 0.8186
vn -0.9789 -0.0529 0.1974
vn -0.5306 -0.2195 0.8187
vn 0.7628 -0.6292 0.1493
vn -0.8562 -0.5162 -0.0225
vn 0.1882 -0.9760 0.1099
vn 0.1710 -0.6460 0.7439
vn -0.5612 -0.5428 0.6249
vn -0.7539 -0.1700 0.6346
vn -0.8253 -0.3981 0.4006
vn 0.8975 -0.1141 0.4260
vn 0.5611 -0.5427 0.6249
vn 0.7050 -0.5297 0.4716
vn 0.7539 -0.1700 0.6346
vn -0.0002 0.9660 0.2587
vn -0.0001 0.9659 0.2588
vn -0.0001 -0.9659 -0.2588
vn 0.0014 -0.9664 -0.2572
vn 0.0000 -0.9660 -0.2585
vn -0.0001 -0.9659 -0.2587
vn 0.0562 -0.9934 -0.0996
vn 0.0847 -0.9963 -0.0161
vn 0.0001 -0.9659 -0.2588
vn -0.0039 -0.9661 -0.2583
vn -0.0017 -0.9664 -0.2570
vn 0.0001 -0.9659 -0.2587
vn 0.0000 -0.9666 -0.2563
vn 0.0042 -0.9661 -0.2580
vn -0.0002 0.9660 0.2585
vn 0.9471 0.0830 -0.3100
vn 0.8965 0.1146 -0.4279
vn -0.0003 0.9659 0.2588
vn 0.0003 0.9659 0.2588
vn 0.7072 -0.7070 -0.0001
vn -0.7070 0.7073 -0.0001
vn -0.7069 0.7073 0.0000
vn -0.7070 0.7072 -0.0001
vn 0.7072 0.7070 -0.0001
vn 0.7071 0.7071 0.0000
vn -0.7628 -0.6292 0.1494
vn 0.3716 0.2373 -0.8975
vn 0.3827 0.2343 -0.8937
vn 0.6491 0.1937 -0.7357
vn 0.7440 0.1728 -0.6454
vn -0.9848 -0.1737 0.0000
vn -0.7501 -0.6344 -0.1867
vn -0.9707 -0.0570 0.2334
vn -0.2013 0.6870 0.6983
vn 0.0163 0.9565 0.2913
vn -0.1878 0.8743 0.4475
vn -0.9879 -0.0123 0.1543
vn -0.9676 -0.2525 0.0037
vn 0.9433 0.0717 -0.3241
vn 0.8981 0.3991 -0.1846
vn 0.9067 0.4065 -0.1122
vn 0.9010 0.1260 -0.4151
vn 0.4624 -0.1695 -0.8703
vn 0.1427 -0.4658 -0.8733
vn 0.0941 0.1668 -0.9815
vn 0.9317 0.3592 -0.0542
vn 0.9827 -0.1372 -0.1247
vn 0.0000 -0.0000 1.0000
vn -0.6698 0.4122 0.6176
vn -0.4006 0.1720 0.9000
vn -0.3479 -0.5759 0.7398
vn -0.1179 -0.4246 0.8977
vn -0.3153 -0.2962 0.9016
vn 0.2352 0.8962 0.3763
vn -0.3205 0.6572 0.6822
vn -0.4075 0.7636 0.5008
vn 0.2985 0.7904 0.5349
vn -0.0000 -0.0002 1.0000
vn -0.0001 -0.0002 1.0000
vn 0.7736 0.6317 0.0494
vn 0.9891 0.1465 -0.0144
vn 0.7264 0.6705 0.1506
vn -0.8931 0.1620 0.4196
vn -0.9848 -0.1736 -0.0000
vn -0.0000 0.0002 1.0000
vn 0.9658 0.2586 -0.0207
vn 0.6915 0.7220 0.0239
vn 0.3250 0.9391 0.1115
vn 0.5627 0.5877 0.5813
vn 0.1505 0.7773 0.6109
vn -0.3137 0.7166 0.6229
vn -0.2847 0.9435 0.1696
vn -0.5750 -0.8175 0.0328
vn 0.0482 -0.8836 0.4657
vn 0.0171 -0.9998 -0.0053
vn 0.0544 -0.9985 0.0054
vn 0.6332 -0.7735 -0.0285
vn 0.6125 -0.7905 -0.0012
vn -0.8243 0.5028 0.2603
vn -0.7674 0.3196 0.5558
vn -0.5109 -0.7524 -0.4158
vn 0.3003 -0.7380 -0.6044
vn 0.1423 -0.9618 -0.2341
vn -0.9925 0.1128 0.0465
vn -0.9252 -0.3789 0.0227
vn -0.9929 0.1147 0.0316
vn -0.9547 -0.2972 0.0119
vn -0.6176 0.3839 0.6864
vn -0.6260 -0.7790 -0.0360
vn -0.2841 0.6438 0.7105
vn -0.8256 0.4743 0.3057
vn 0.3566 0.8545 0.3776
vn 0.4822 0.4000 -0.7794
vn 0.3807 0.5797 0.7204
vn -0.8150 -0.3338 0.4736
vn -0.7632 0.6354 0.1178
vn -0.6762 0.0782 0.7326
vn 0.9489 -0.3148 -0.0219
vn 0.9583 -0.2841 -0.0306
vn 0.7161 -0.6115 -0.3366
vn 0.7017 -0.3789 -0.6033
vn 0.7711 0.6245 0.1236
vn 0.8131 0.4966 -0.3037
vn 0.8447 0.1608 -0.5106
vn 0.4441 0.7200 -0.5332
vn 0.7052 -0.2418 -0.6665
vn 0.3368 -0.5874 -0.7359
vn 0.7521 -0.2129 -0.6237
vn 0.3703 0.9162 -0.1532
vn 0.7182 0.6956 0.0174
vn 0.7595 0.6402 0.1152
vn 0.2874 0.7835 0.5509
vn 0.0932 0.7442 -0.6614
vn -0.0505 0.9935 -0.1023
vn 0.0163 0.9565 0.2912
vn -0.6399 0.7632 -0.0894
vn -0.8255 0.4744 0.3058
vn -0.9259 0.3184 0.2034
vn -0.9848 -0.1737 0.0001
vn -0.9592 0.2783 0.0504
vn -0.9848 -0.1735 -0.0003
vn 0.1865 -0.6633 -0.7247
vn -0.1616 -0.8437 -0.5119
usemtl lego
s 1
f 2/1/1 3/2/2 4/3/3
f 5/4/4 3/2/2 2/1/1
f 6/5/5 7/6/6 8/7/7
f 9/8/8 4/3/3 10/9/9
f 2/1/1 4/3/3 9/8/8
f 11/10/10 9/8/8 10/9/9
f 12/11/11 9/8/8 11/10/10
f 13/12/12 12/11/11 11/10/10
f 14/13/13 12/11/11 13/12/12
f 15/14/14 16/15/15 17/16/16
f 18/17/17 15/14/18 19/18/18
f 16/15/19 15/14/18 18/17/17
f 20/19/20 19/18/21 21/20/22
f 18/17/23 19/18/21 20/19/20
f 22/21/24 14/13/13 13/12/12
f 23/22/25 14/13/13 22/21/24
f 22/21/26 24/23/27 25/24/28
f 26/25/29 17/16/30 21/20/31
f 27/26/32 28/27/33 29/28/34
f 30/29/35 28/27/33 27/26/32
f 31/30/36 32/31/36 33/32/37
f 34/33/38 32/31/36 31/30/36
f 35/34/39 24/23/40 27/26/32
f 17/16/30 36/35/41 20/19/42
f 6/5/43 36/35/41 17/16/30
f 20/19/42 21/20/31 17/16/30
f 24/23/40 30/29/35 27/26/32
f 35/34/39 25/24/44 24/23/40
f 21/20/45 19/18/46 37/36/47
f 23/22/25 25/24/48 35/34/49
f 22/21/50 25/24/48 23/22/25
f 15/14/51 37/36/52 19/18/53
f 26/25/54 37/36/52 15/14/51
f 29/28/55 12/11/14 27/26/56
f 9/8/55 12/11/14 29/28/55
f 27/26/56 12/11/14 14/13/15
f 27/26/56 14/13/15 23/22/6
f 17/16/16 7/6/6 6/5/5
f 38/37/16 7/6/6 17/16/16
f 17/16/16 16/15/15 38/37/16
f 39/38/57 36/35/58 40/39/59
f 20/19/20 36/35/58 39/38/57
f 20/19/20 39/38/57 18/17/23
f 13/12/60 24/23/61 22/21/62
f 30/29/20 24/23/61 13/12/60
f 11/10/63 30/29/20 13/12/60
f 4/3/64 28/27/65 10/9/66
f 28/27/65 3/2/67 36/35/58
f 41/40/68 36/35/58 3/2/67
f 40/39/59 36/35/58 41/40/68
f 29/28/55 2/1/69 9/8/55
f 5/4/15 29/28/55 6/5/5
f 6/5/5 8/7/7 5/4/15
f 29/28/34 36/35/41 6/5/43
f 28/27/33 36/35/41 29/28/34
f 39/38/70 16/15/19 18/17/17
f 38/37/71 16/15/19 39/38/70
f 15/14/14 17/16/16 26/25/72
f 27/26/56 23/22/6 35/34/73
f 5/4/15 2/1/69 29/28/55
f 3/2/67 28/27/65 4/3/64
f 10/9/66 30/29/20 11/10/63
f 28/27/65 30/29/20 10/9/66
f 42/41/74 31/30/74 33/32/74
f 43/42/74 31/30/74 42/41/74
f 44/43/75 34/33/75 45/44/76
f 32/31/77 34/33/75 44/43/75
f 44/43/78 43/42/78 42/41/78
f 45/44/79 43/42/79 44/43/79
f 26/25/29 21/20/31 37/36/80
f 5/4/4 41/40/81 3/2/2
f 8/7/82 41/40/81 5/4/4
f 7/6/83 41/40/81 8/7/82
f 40/39/84 41/40/81 7/6/83
f 40/39/84 38/37/71 39/38/70
f 7/6/83 38/37/71 40/39/84
f 46/45/85 47/46/86 48/47/87
f 49/48/88 50/49/89 51/50/90
f 52/51/91 48/47/87 53/52/92
f 54/53/93 55/54/94 56/55/95
f 57/56/96 55/54/94 54/53/93
f 58/57/97 59/58/98 60/59/99
f 61/60/100 54/53/93 56/55/95
f 62/61/101 54/53/93 61/60/100
f 63/62/102 64/63/103 65/64/104
f 63/62/102 66/65/105 67/66/106
f 68/67/107 66/65/105 63/62/102
f 69/68/108 70/69/109 71/70/110
f 72/71/111 70/69/109 69/68/108
f 73/72/112 74/73/113 63/62/102
f 61/60/100 75/74/114 76/75/115
f 77/76/116 75/74/114 61/60/100
f 46/45/85 78/77/117 59/58/118
f 48/47/87 78/77/117 46/45/85
f 63/62/102 74/73/113 79/78/119
f 75/74/114 79/79/120 76/75/115
f 80/80/121 79/79/120 75/74/114
f 81/81/122 80/80/123 75/74/114
f 82/82/124 80/80/123 81/81/122
f 82/83/124 83/84/125 63/62/102
f 84/85/126 82/82/124 81/81/122
f 83/86/125 82/82/124 84/85/126
f 85/87/127 67/88/128 66/89/105
f 86/90/129 67/88/130 85/87/127
f 87/91/131 67/88/130 86/90/129
f 73/92/132 67/88/130 87/91/131
f 88/93/133 89/94/134 52/51/91
f 47/46/135 90/95/136 91/96/137
f 63/62/102 67/66/106 73/72/112
f 92/97/138 68/98/139 65/99/140
f 93/100/141 68/98/139 92/97/138
f 92/97/138 52/51/91 93/100/141
f 89/94/134 48/47/87 52/51/91
f 94/101/142 48/47/87 89/94/134
f 86/90/129 95/102/143 91/96/137
f 85/87/127 95/102/143 86/90/129
f 78/77/117 48/47/87 94/101/142
f 49/48/88 94/101/142 96/103/144
f 78/77/117 94/101/142 49/48/88
f 48/47/87 47/46/86 53/52/92
f 49/48/88 51/50/145 78/77/117
f 68/67/107 63/62/102 65/64/104
f 49/48/88 97/104/146 50/49/89
f 60/59/99 98/105/147 58/57/97
f 63/62/102 79/78/119 80/106/148
f 53/52/92 47/46/135 95/102/143
f 93/100/141 95/102/143 85/87/127
f 53/52/92 95/102/143 93/100/141
f 68/98/149 85/87/127 66/89/105
f 93/100/141 85/87/127 68/98/139
f 92/97/138 64/107/103 99/108/150
f 65/99/151 64/107/103 92/97/138
f 99/108/150 83/86/125 84/85/126
f 64/107/103 83/86/125 99/108/150
f 74/109/152 87/91/131 100/110/153
f 73/92/132 87/91/131 74/109/152
f 76/75/115 74/109/152 100/110/153
f 79/79/120 74/109/152 76/75/115
f 91/96/137 87/91/131 86/90/129
f 101/111/154 87/91/131 91/96/137
f 101/111/154 90/95/136 102/112/155
f 91/96/137 90/95/136 101/111/154
f 62/61/101 87/91/131 101/111/154
f 100/110/153 87/91/131 62/61/101
f 54/53/93 101/111/154 102/112/155
f 62/61/101 101/111/154 54/53/93
f 76/75/115 62/61/101 61/60/100
f 100/110/153 62/61/101 76/75/115
f 103/113/156 61/60/100 56/55/95
f 77/76/116 61/60/100 103/113/156
f 98/105/147 104/114/157 105/115/158
f 106/116/159 104/114/157 98/105/147
f 57/56/96 104/114/157 55/54/94
f 105/115/158 104/114/157 57/56/96
f 58/57/97 107/117/160 108/118/161
f 58/57/97 105/115/158 107/117/160
f 98/105/147 105/115/158 58/57/97
f 102/112/155 108/118/161 109/119/162
f 90/95/136 108/118/161 102/112/155
f 109/119/162 108/118/161 107/117/160
f 109/119/162 105/115/158 57/56/96
f 107/117/160 105/115/158 109/119/162
f 102/112/155 57/56/96 54/53/93
f 109/119/162 57/56/96 102/112/155
f 97/104/146 110/120/163 50/49/89
f 111/121/164 110/120/163 97/104/146
f 112/122/165 97/104/146 113/123/166
f 111/121/164 97/104/146 112/122/165
f 55/54/94 111/121/164 112/122/165
f 104/114/157 111/121/164 55/54/94
f 72/71/111 77/76/116 103/113/156
f 69/68/108 77/76/116 72/71/111
f 75/74/114 69/68/108 81/81/122
f 77/76/116 69/68/108 75/74/114
f 112/122/165 56/55/95 55/54/94
f 103/113/156 56/55/95 112/122/165
f 113/123/166 103/113/156 112/122/165
f 72/71/111 103/113/156 113/123/166
f 110/120/163 104/114/157 106/116/159
f 111/121/164 104/114/157 110/120/163
f 110/120/163 114/124/167 115/125/168
f 106/116/159 114/124/167 110/120/163
f 50/49/169 115/125/170 51/50/171
f 110/120/163 115/125/168 50/49/89
f 113/123/166 49/48/88 96/103/144
f 97/104/146 49/48/88 113/123/166
f 96/103/144 72/71/111 113/123/166
f 70/69/109 72/71/111 96/103/144
f 94/101/142 70/69/109 96/103/144
f 89/94/134 70/69/109 94/101/142
f 89/94/134 71/70/110 70/69/109
f 88/93/133 71/70/110 89/94/134
f 88/93/133 92/97/138 99/108/150
f 52/51/91 92/97/138 88/93/133
f 84/85/126 88/93/133 99/108/150
f 71/70/110 88/93/133 84/85/126
f 84/85/126 69/68/108 71/70/110
f 81/81/122 69/68/108 84/85/126
f 59/58/118 51/50/172 60/59/173
f 78/77/117 51/50/172 59/58/118
f 60/59/173 115/125/174 114/124/175
f 51/50/172 115/125/174 60/59/173
f 63/62/102 83/84/125 64/63/103
f 52/51/91 53/52/92 93/100/141
f 98/105/147 114/124/167 106/116/159
f 60/59/99 114/124/167 98/105/147
f 91/96/137 95/102/143 47/46/135
f 108/118/161 59/58/98 58/57/97
f 46/45/176 59/58/98 108/118/161
f 80/106/148 82/83/124 63/62/102
f 47/46/177 108/118/161 90/95/136
f 46/45/176 108/118/161 47/46/177
