# Blender v2.78 (sub 0) OBJ File: 'Emmet_armR.blend'
# www.blender.org
mtllib Emmet_armR.mtl
o Mesh_0215.rip
v -0.168749 0.538679 0.196997
v -0.189729 0.448174 0.168645
v -0.189729 0.539765 0.192968
v -0.168749 0.447308 0.172508
v -0.209669 0.532940 0.218448
v -0.210709 0.538679 0.196997
v -0.228492 0.535608 0.208473
v -0.150965 0.535608 0.208473
v -0.150958 0.444236 0.183996
v -0.139086 0.439629 0.201174
v -0.139086 0.531001 0.225649
v -0.134907 0.434202 0.221443
v -0.134907 0.525573 0.245919
v -0.240372 0.520146 0.266189
v -0.220615 0.527098 0.240224
v -0.244551 0.525573 0.245919
v -0.244551 0.434202 0.221443
v -0.240379 0.428775 0.241701
v -0.220615 0.435726 0.215748
v -0.219830 0.430634 0.234749
v -0.139079 0.428775 0.241701
v -0.139086 0.520146 0.266189
v -0.159634 0.438705 0.268780
v -0.159627 0.430634 0.234749
v -0.219823 0.514038 0.288964
v -0.158842 0.527098 0.240224
v -0.169796 0.441569 0.193960
v -0.158842 0.435726 0.215748
v -0.169788 0.532940 0.218448
v -0.189729 0.448174 0.180451
v -0.160702 0.477203 0.146195
v -0.160709 0.477203 0.187947
v -0.189722 0.448174 0.146195
v -0.159634 0.514038 0.288964
v -0.209662 0.441569 0.193960
v -0.219823 0.438705 0.268780
v -0.240372 0.531001 0.225649
v -0.240372 0.439629 0.201174
v -0.228500 0.444236 0.183996
v -0.208467 0.447400 0.172104
v -0.133479 0.548379 -0.054296
v -0.125729 0.592373 -0.011552
v -0.126365 0.588759 0.020566
v -0.127850 0.580295 -0.036218
v -0.139941 0.511717 -0.050102
v -0.129674 0.569995 0.043219
v -0.174293 0.521451 0.121970
v -0.195464 0.528102 0.097132
v -0.198978 0.522433 0.121914
v -0.171394 0.526174 0.098705
v -0.150096 0.510759 0.092159
v -0.150803 0.504985 0.119863
v -0.144410 0.486406 0.114749
v -0.143406 0.492087 0.078692
v -0.147741 0.517063 0.083304
v -0.168586 0.535781 0.088429
v -0.141257 0.528899 0.069482
v -0.162682 0.549025 0.070775
v -0.189001 0.540146 0.084571
v -0.178330 0.556658 0.067020
v -0.147727 0.573921 0.046464
v -0.161904 0.577743 0.043444
v -0.144128 0.592638 0.017259
v -0.148957 0.593354 -0.004407
v -0.153610 0.580687 -0.032042
v -0.188463 0.556196 -0.000892
v -0.180494 0.572708 0.020995
v -0.209627 0.528749 0.066721
v -0.196849 0.548344 0.046335
v -0.218798 0.511913 0.051351
v -0.205229 0.531301 0.025722
v -0.220021 0.509800 0.117333
v -0.216967 0.516671 0.084015
v -0.211239 0.462296 0.022930
v -0.205059 0.512606 0.008326
v -0.198250 0.486983 -0.002190
v -0.221619 0.487203 0.034731
v -0.191037 0.536127 -0.015785
v -0.186193 0.509858 -0.024253
v -0.165553 0.487815 -0.024015
v -0.180699 0.451268 0.013825
v -0.163891 0.522340 -0.051118
v -0.159415 0.553032 -0.049073
v -0.224992 0.501717 0.076806
v -0.229716 0.488461 0.107719
v -0.230027 0.472076 0.062986
v -0.228832 0.462827 0.098080
v -0.217532 0.446315 0.050315
v -0.217066 0.444144 0.090830
v -0.187954 0.435472 0.043023
v -0.189100 0.435091 0.088637
v -0.230140 0.462492 0.167089
v -0.232078 0.484662 0.167089
v -0.217363 0.444259 0.167082
v -0.176916 0.517860 0.167082
v -0.154508 0.501867 0.167089
v -0.145429 0.480690 0.167089
v -0.149289 0.458774 0.167089
v -0.157039 0.441072 0.084155
v -0.149841 0.455633 0.082239
v -0.165065 0.441973 0.167082
v -0.155059 0.441049 0.045061
v -0.150279 0.453162 0.045888
v -0.150407 0.452365 0.006751
v -0.191207 0.477457 0.167089
v -0.222666 0.504835 0.167082
v -0.145563 0.479836 -0.021852
v -0.204437 0.517606 0.167082
v -0.137735 0.524246 0.065043
v -0.218756 0.477203 0.146195
v -0.218749 0.477203 0.187947
v -0.189729 0.506221 0.146188
v -0.189729 0.506221 0.194002
vt 0.4624 0.7229
vt 0.4768 0.7170
vt 0.4680 0.7170
vt 0.4714 0.7229
vt 0.4321 0.7117
vt 0.4624 0.7114
vt 0.4460 0.7065
vt 0.4460 0.7275
vt 0.4551 0.7275
vt 0.4309 0.7310
vt 0.4219 0.7310
vt 0.4023 0.7319
vt 0.3933 0.7319
vt 0.3647 0.7034
vt 0.4014 0.7087
vt 0.3933 0.7021
vt 0.4023 0.7021
vt 0.3738 0.7034
vt 0.4104 0.7087
vt 0.3835 0.7090
vt 0.3738 0.7310
vt 0.3647 0.7310
vt 0.3401 0.7253
vt 0.3835 0.7253
vt 0.3328 0.7090
vt 0.4014 0.7256
vt 0.4412 0.7224
vt 0.4104 0.7256
vt 0.4321 0.7224
vt 0.4761 0.7063
vt 0.4294 0.6916
vt 0.4761 0.6916
vt 0.4294 0.7063
vt 0.3328 0.7253
vt 0.4412 0.7117
vt 0.3401 0.7090
vt 0.4219 0.7034
vt 0.4309 0.7034
vt 0.4551 0.7065
vt 0.4719 0.7119
vt 0.3125 0.8141
vt 0.3110 0.8203
vt 0.3110 0.8198
vt 0.3115 0.8186
vt 0.3140 0.8088
vt 0.3118 0.8171
vt 0.2549 0.8102
vt 0.2593 0.8112
vt 0.2603 0.8103
vt 0.2544 0.8109
vt 0.2498 0.8087
vt 0.2499 0.8079
vt 0.2485 0.8052
vt 0.2483 0.8060
vt 0.2493 0.8096
vt 0.2537 0.8123
vt 0.2478 0.8113
vt 0.2524 0.8141
vt 0.2581 0.8129
vt 0.2559 0.8152
vt 0.2493 0.8177
vt 0.2522 0.8182
vt 0.2484 0.8203
vt 0.2495 0.8204
vt 0.2505 0.8186
vt 0.2578 0.8152
vt 0.2561 0.8175
vt 0.2625 0.8113
vt 0.2598 0.8141
vt 0.2644 0.8088
vt 0.2615 0.8116
vt 0.2646 0.8086
vt 0.2639 0.8096
vt 0.2627 0.8018
vt 0.2615 0.8090
vt 0.2600 0.8053
vt 0.2649 0.8053
vt 0.2585 0.8123
vt 0.2573 0.8086
vt 0.2529 0.8054
vt 0.2563 0.8002
vt 0.2527 0.8103
vt 0.2517 0.8147
vt 0.2656 0.8074
vt 0.2666 0.8055
vt 0.2668 0.8032
vt 0.2666 0.8019
vt 0.2642 0.7996
vt 0.2639 0.7992
vt 0.2578 0.7980
vt 0.2581 0.7979
vt 0.2668 0.8018
vt 0.2671 0.8049
vt 0.2642 0.7992
vt 0.2554 0.8097
vt 0.2507 0.8074
vt 0.2488 0.8044
vt 0.2495 0.8013
vt 0.2512 0.7987
vt 0.2496 0.8008
vt 0.2529 0.7988
vt 0.2507 0.7987
vt 0.2498 0.8004
vt 0.2498 0.8004
vt 0.3838 0.8087
vt 0.3865 0.8126
vt 0.3872 0.8097
vt 0.3152 0.8043
vt 0.3850 0.8145
vt 0.3809 0.8121
vt 0.3828 0.8145
vt 0.3804 0.8060
vt 0.3801 0.8092
vt 0.3135 0.8107
vt 0.2612 0.8097
vt 0.2651 0.8079
vt 0.3870 0.8065
vt 0.3860 0.8040
vt 0.3818 0.8037
vt 0.4294 0.7419
vt 0.4761 0.7419
vt 0.4294 0.7273
vt 0.4761 0.7273
vn 0.3175 0.2447 -0.9161
vn 0.0659 0.2568 -0.9642
vn -0.0630 0.2568 -0.9644
vn 0.4400 0.2324 -0.8674
vn -0.0002 0.9660 0.2587
vn -0.0002 0.9660 0.2585
vn -0.0002 0.9659 0.2588
vn 0.7071 0.1830 -0.6830
vn 0.7073 0.1830 -0.6828
vn 0.8966 0.1146 -0.4278
vn 0.9471 0.0830 -0.3099
vn 0.9978 0.0171 -0.0640
vn 0.9978 -0.0171 0.0639
vn 0.0002 0.9659 0.2588
vn -0.0001 0.9659 0.2588
vn -0.0000 0.9660 0.2586
vn -0.9978 -0.0171 0.0639
vn -0.8975 -0.1140 0.4259
vn -0.9978 0.0171 -0.0640
vn -0.8975 -0.1141 0.4259
vn 0.0000 -0.9659 -0.2588
vn 0.0562 -0.9934 -0.0996
vn -0.0001 -0.9660 -0.2587
vn 0.0847 -0.9963 -0.0161
vn 0.9330 -0.0931 0.3476
vn 0.8550 -0.1342 0.5009
vn 0.2612 -0.9276 0.2671
vn 0.1710 -0.6461 0.7438
vn -0.7379 -0.6702 -0.0799
vn 1.0000 0.0045 -0.0071
vn 0.9572 -0.2846 0.0530
vn 0.9776 -0.0532 0.2037
vn -0.9776 -0.0532 0.2037
vn -0.6926 -0.1868 0.6967
vn -0.9788 -0.0529 0.1976
vn -0.3463 -0.2427 0.9062
vn 0.7072 -0.7070 0.0001
vn -1.0000 0.0045 -0.0071
vn -0.9572 -0.2846 0.0530
vn 0.5307 -0.2194 0.8187
vn 0.9788 -0.0529 0.1976
vn -0.7629 -0.6291 0.1490
vn 0.8562 -0.5161 -0.0227
vn -0.1709 -0.6461 0.7439
vn -0.1882 -0.9760 0.1099
vn 0.5611 -0.5427 0.6249
vn 0.8252 -0.3981 0.4008
vn 0.7539 -0.1700 0.6346
vn -0.5611 -0.5427 0.6249
vn -0.7539 -0.1700 0.6346
vn -0.7050 -0.5297 0.4716
vn 0.0002 0.9660 0.2587
vn 0.0001 0.9659 0.2588
vn 0.0001 -0.9659 -0.2588
vn -0.0011 -0.9664 -0.2571
vn -0.0000 -0.9660 -0.2585
vn 0.0001 -0.9659 -0.2587
vn -0.0562 -0.9934 -0.0996
vn -0.0847 -0.9963 -0.0161
vn -0.0001 -0.9659 -0.2588
vn 0.0039 -0.9661 -0.2583
vn -0.0001 -0.9659 -0.2587
vn 0.0018 -0.9664 -0.2570
vn -0.0000 -0.9666 -0.2561
vn -0.0041 -0.9661 -0.2580
vn 0.0002 0.9660 0.2585
vn 0.9848 -0.1736 0.0001
vn 0.9591 0.2784 0.0506
vn 0.9259 0.3185 0.2034
vn 0.9848 -0.1740 0.0005
vn 0.8931 0.1619 0.4196
vn 0.2847 0.9435 0.1696
vn -0.2352 0.8962 0.3763
vn -0.3250 0.9391 0.1115
vn 0.4077 0.7636 0.5008
vn 0.8243 0.5029 0.2602
vn 0.7631 0.6355 0.1177
vn 0.9925 0.1129 0.0465
vn 0.9879 -0.0120 0.1544
vn 0.7673 0.3195 0.5560
vn 0.3206 0.6570 0.6823
vn 0.6177 0.3837 0.6865
vn 0.2841 0.6438 0.7105
vn -0.2985 0.7904 0.5349
vn -0.2874 0.7834 0.5510
vn 0.2013 0.6870 0.6983
vn -0.3567 0.8546 0.3775
vn -0.0163 0.9565 0.2912
vn 0.0505 0.9935 -0.1023
vn -0.3703 0.9162 -0.1532
vn 0.8255 0.4744 0.3057
vn 0.6399 0.7632 -0.0893
vn -0.0933 0.7442 -0.6614
vn -0.4442 0.7200 -0.5332
vn -0.8131 0.4967 -0.3035
vn -0.7183 0.6956 0.0172
vn -0.7711 0.6246 0.1238
vn -0.7595 0.6402 0.1152
vn -0.9067 0.4065 -0.1123
vn -0.8981 0.3990 -0.1847
vn -0.7735 0.6319 0.0494
vn -0.7263 0.6707 0.1507
vn -0.7017 -0.3789 -0.6033
vn -0.9011 0.1259 -0.4149
vn -0.7521 -0.2130 -0.6236
vn -0.9432 0.0718 -0.3243
vn -0.8447 0.1608 -0.5105
vn -0.7052 -0.2418 -0.6665
vn -0.3368 -0.5874 -0.7359
vn -0.3003 -0.7380 -0.6043
vn -0.4623 -0.1695 -0.8704
vn -0.4821 0.3999 -0.7795
vn -0.9316 0.3594 -0.0542
vn -0.9891 0.1464 -0.0143
vn -0.9827 -0.1373 -0.1246
vn -0.9583 -0.2841 -0.0305
vn -0.7160 -0.6116 -0.3367
vn -0.7236 -0.6888 -0.0450
vn -0.1422 -0.9618 -0.2341
vn -0.0917 -0.9942 -0.0569
vn -0.9488 -0.3150 -0.0221
vn -0.9657 0.2587 -0.0208
vn -0.8189 -0.5739 -0.0029
vn 0.3136 0.7166 0.6229
vn 0.6698 0.4122 0.6176
vn 0.6761 0.0782 0.7326
vn 0.9252 -0.3789 0.0228
vn 0.6680 -0.7442 -0.0030
vn 0.9547 -0.2974 0.0118
vn 0.2207 -0.8332 0.5069
vn 0.7807 -0.6233 0.0440
vn 0.8150 -0.3339 0.4737
vn 0.6259 -0.7791 -0.0360
vn 0.9676 -0.2526 0.0037
vn 0.5109 -0.7525 -0.4157
vn -0.0000 0.0000 1.0000
vn -0.3807 0.5797 0.7204
vn 0.0000 0.0002 1.0000
vn 0.1617 -0.8438 -0.5118
vn -0.1864 -0.6634 -0.7247
vn -0.1505 0.7773 0.6109
vn -0.1420 -0.4660 -0.8733
vn -0.0941 0.1668 -0.9815
vn 0.3153 -0.2963 0.9016
vn 0.4007 0.1717 0.9000
vn 0.8255 0.4743 0.3057
vn 0.9707 -0.0570 0.2335
vn 0.7501 -0.6345 -0.1865
vn 0.9929 0.1148 0.0319
vn -0.5626 0.5878 0.5813
vn -0.6913 0.7221 0.0239
vn 0.0001 -0.0002 1.0000
vn 0.9848 -0.1736 0.0000
vn 0.0001 -0.0003 1.0000
vn -0.0403 -0.6718 0.7397
vn 0.1879 0.8743 0.4475
vn -0.9472 0.0830 -0.3098
vn -0.8966 0.1146 -0.4278
vn 0.0003 0.9659 0.2588
vn -0.0003 0.9659 0.2588
vn -0.7071 -0.7071 0.0000
vn -0.7072 -0.7070 0.0001
vn -0.7070 -0.7072 -0.0001
vn 0.7070 0.7072 0.0001
vn 0.7071 0.7071 0.0000
vn -0.7070 0.7072 0.0001
vn -0.7071 0.7071 0.0000
vn 0.7629 -0.6291 0.1490
vn -0.3716 0.2373 -0.8975
vn -0.3826 0.2343 -0.8937
vn -0.6491 0.1929 -0.7359
vn -0.7442 0.1729 -0.6452
usemtl lego
s 1
f 1/1/1 2/2/2 3/3/3
f 4/4/4 2/2/2 1/1/1
f 5/5/5 6/6/6 7/7/7
f 8/8/8 4/4/4 1/1/1
f 9/9/9 4/4/4 8/8/8
f 10/10/10 8/8/8 11/11/11
f 9/9/9 8/8/8 10/10/10
f 12/12/12 11/11/11 13/13/13
f 10/10/10 11/11/11 12/12/12
f 14/14/14 15/15/15 16/16/16
f 17/17/17 14/14/18 16/16/19
f 18/18/20 14/14/18 17/17/17
f 19/19/21 18/18/22 17/17/23
f 20/20/24 18/18/22 19/19/21
f 21/21/25 13/13/13 22/22/26
f 12/12/12 13/13/13 21/21/25
f 21/21/27 23/23/28 24/24/29
f 25/25/30 20/20/31 15/15/32
f 26/26/33 27/27/34 28/28/35
f 29/29/36 27/27/34 26/26/33
f 30/30/37 31/31/37 32/32/37
f 33/33/37 31/31/37 30/30/37
f 34/34/38 26/26/33 24/24/39
f 15/15/32 35/35/40 5/5/40
f 19/19/41 35/35/40 15/15/32
f 19/19/41 15/15/32 20/20/31
f 24/24/39 26/26/33 28/28/35
f 34/34/38 24/24/39 23/23/42
f 20/20/43 36/36/44 18/18/45
f 22/22/26 23/23/46 21/21/47
f 34/34/48 23/23/46 22/22/26
f 14/14/20 36/36/49 25/25/50
f 18/18/51 36/36/49 14/14/20
f 29/29/52 11/11/14 8/8/52
f 26/26/53 11/11/14 29/29/52
f 26/26/53 13/13/16 11/11/14
f 26/26/53 22/22/7 13/13/16
f 15/15/15 7/7/7 37/37/15
f 5/5/5 7/7/7 15/15/15
f 15/15/15 37/37/15 16/16/16
f 38/38/54 35/35/55 19/19/21
f 39/39/56 35/35/55 38/38/54
f 19/19/21 17/17/23 38/38/54
f 12/12/57 24/24/58 28/28/21
f 21/21/59 24/24/58 12/12/57
f 10/10/60 12/12/57 28/28/21
f 4/4/61 9/9/62 27/27/63
f 27/27/63 35/35/55 2/2/64
f 40/40/65 2/2/64 35/35/55
f 39/39/56 40/40/65 35/35/55
f 29/29/52 8/8/52 1/1/66
f 3/3/16 5/5/5 29/29/52
f 5/5/5 3/3/16 6/6/6
f 29/29/36 35/35/40 27/27/34
f 5/5/40 35/35/40 29/29/36
f 41/41/67 42/42/68 43/43/69
f 44/44/70 42/42/68 41/41/67
f 45/45/67 43/43/69 46/46/71
f 41/41/67 43/43/69 45/45/67
f 47/47/72 48/48/73 49/49/74
f 50/50/75 48/48/73 47/47/72
f 47/47/72 51/51/76 50/50/75
f 52/52/77 51/51/76 47/47/72
f 51/51/76 53/53/78 54/54/79
f 52/52/77 53/53/78 51/51/76
f 55/55/80 50/50/75 51/51/76
f 56/56/81 50/50/75 55/55/80
f 57/57/82 56/56/81 55/55/80
f 58/58/83 56/56/81 57/57/82
f 58/58/83 59/59/84 56/56/81
f 60/60/85 59/59/84 58/58/83
f 60/60/85 61/61/86 62/62/87
f 58/58/83 61/61/86 60/60/85
f 63/63/88 42/42/89 64/64/90
f 43/43/91 42/42/92 63/63/88
f 64/64/90 44/44/93 65/65/94
f 42/42/89 44/44/93 64/64/90
f 64/64/90 66/66/95 67/67/96
f 65/65/94 66/66/95 64/64/90
f 60/60/85 68/68/97 59/59/84
f 69/69/98 68/68/97 60/60/85
f 69/69/98 70/70/99 68/68/97
f 71/71/100 70/70/99 69/69/98
f 72/72/101 48/48/73 73/73/102
f 49/49/74 48/48/73 72/72/101
f 59/59/84 73/73/102 48/48/73
f 68/68/97 73/73/102 59/59/84
f 71/71/100 67/67/96 66/66/95
f 69/69/98 67/67/96 71/71/100
f 69/69/98 62/62/87 67/67/96
f 60/60/85 62/62/87 69/69/98
f 62/62/87 64/64/90 67/67/96
f 63/63/88 64/64/90 62/62/87
f 74/74/103 75/75/104 76/76/105
f 77/77/106 75/75/104 74/74/103
f 76/76/105 78/78/107 79/79/108
f 75/75/104 78/78/107 76/76/105
f 76/76/105 79/79/108 80/80/109
f 74/74/103 80/80/109 81/81/110
f 76/76/105 80/80/109 74/74/103
f 82/82/111 78/78/107 83/83/112
f 79/79/108 78/78/107 82/82/111
f 82/82/111 80/80/109 79/79/108
f 75/75/104 66/66/95 78/78/107
f 71/71/100 66/66/95 75/75/104
f 83/83/112 66/66/95 65/65/94
f 78/78/107 66/66/95 83/83/112
f 68/68/97 84/84/113 73/73/102
f 70/70/99 84/84/113 68/68/97
f 85/85/114 86/86/115 87/87/116
f 84/84/113 86/86/115 85/85/114
f 77/77/106 88/88/117 86/86/115
f 74/74/103 88/88/117 77/77/106
f 86/86/115 89/89/118 87/87/116
f 88/88/117 89/89/118 86/86/115
f 88/88/117 81/81/110 90/90/119
f 74/74/103 81/81/110 88/88/117
f 90/90/119 89/89/118 88/88/117
f 91/91/120 89/89/118 90/90/119
f 85/85/114 92/92/121 93/93/122
f 87/87/116 92/92/121 85/85/114
f 92/92/121 89/89/118 94/94/123
f 87/87/116 89/89/118 92/92/121
f 52/52/77 95/95/124 96/96/125
f 47/47/72 95/95/124 52/52/77
f 53/53/78 96/96/125 97/97/126
f 52/52/77 96/96/125 53/53/78
f 98/98/127 99/99/128 100/100/129
f 101/101/130 99/99/131 98/98/132
f 100/100/129 102/102/133 103/103/134
f 99/99/128 102/102/133 100/100/129
f 103/103/134 102/102/133 104/104/135
f 105/105/136 106/106/137 93/107/138
f 104/104/139 80/80/109 107/108/140
f 81/81/110 80/80/109 104/104/139
f 106/106/137 105/105/136 108/109/141
f 80/80/109 45/45/142 107/108/140
f 82/82/111 45/45/142 80/80/109
f 90/90/119 104/104/135 102/102/133
f 83/83/112 44/44/93 41/41/143
f 65/65/94 44/44/93 83/83/112
f 54/54/79 100/100/129 103/103/134
f 105/105/136 96/110/125 95/111/124
f 98/112/144 97/113/145 105/105/136
f 61/61/86 46/46/71 43/43/146
f 109/114/147 103/103/134 104/104/148
f 61/61/86 57/57/82 46/46/71
f 58/58/83 57/57/82 61/61/86
f 46/46/71 57/57/82 109/114/147
f 91/91/120 102/102/133 99/99/128
f 90/90/119 102/102/133 91/91/120
f 55/55/80 109/114/147 57/57/82
f 54/54/79 109/114/147 55/55/80
f 53/53/78 100/100/129 54/54/79
f 53/53/78 98/98/127 100/100/129
f 97/97/149 98/98/127 53/53/78
f 104/104/135 90/90/119 81/81/110
f 51/51/76 54/54/79 55/55/80
f 47/47/72 108/115/141 95/95/124
f 49/49/74 108/115/141 47/47/72
f 108/109/141 105/105/136 95/111/124
f 49/49/74 106/116/150 108/115/141
f 72/72/101 106/116/150 49/49/74
f 72/72/101 93/93/122 106/116/151
f 85/85/114 93/93/122 72/72/101
f 105/105/136 93/107/138 92/117/152
f 107/108/153 46/46/71 109/114/147
f 45/45/67 46/46/71 107/108/153
f 84/84/113 72/72/101 73/73/102
f 85/85/114 72/72/101 84/84/113
f 94/118/154 105/105/136 92/117/152
f 48/48/73 56/56/81 59/59/84
f 50/50/75 56/56/81 48/48/73
f 105/105/136 101/119/155 98/112/144
f 105/105/136 97/113/145 96/110/125
f 84/84/113 77/77/106 86/86/115
f 70/70/99 77/77/106 84/84/113
f 82/82/111 41/41/143 45/45/142
f 77/77/106 71/71/100 75/75/104
f 70/70/99 71/71/100 77/77/106
f 54/54/79 103/103/134 109/114/147
f 61/61/86 43/43/156 63/63/88
f 107/108/153 109/114/147 104/104/148
f 38/38/157 16/16/19 37/37/158
f 17/17/17 16/16/19 38/38/157
f 14/14/14 25/25/159 15/15/15
f 26/26/53 34/34/160 22/22/7
f 3/3/16 29/29/52 1/1/66
f 2/2/64 4/4/61 27/27/63
f 9/9/62 28/28/21 27/27/63
f 10/10/60 28/28/21 9/9/62
f 110/120/161 30/30/161 111/121/162
f 33/33/163 30/30/161 110/120/161
f 112/122/164 32/32/164 31/31/164
f 113/123/165 32/32/165 112/122/165
f 112/122/166 111/121/166 113/123/167
f 110/120/166 111/121/166 112/122/166
f 25/25/30 36/36/168 20/20/31
f 3/3/3 40/40/169 6/6/170
f 2/2/2 40/40/169 3/3/3
f 7/7/171 40/40/169 39/39/172
f 6/6/170 40/40/169 7/7/171
f 39/39/172 37/37/158 7/7/171
f 38/38/157 37/37/158 39/39/172
f 63/63/88 62/62/87 61/61/86
f 82/82/111 83/83/112 41/41/143
