# Blender v2.78 (sub 0) OBJ File: 'Link_armR.blend'
# www.blender.org
mtllib Link_armR.mtl
o AdultLink
v -1.786866 8.882472 -1.202842
v -2.180250 8.348651 -0.809849
v -2.378037 8.744954 -1.112787
v -1.128491 8.537197 -1.192903
v -2.164186 9.286200 -0.921752
v -1.140323 9.363153 -0.722874
v -0.976340 9.229681 -0.783001
v -1.030671 8.905929 -0.215390
v -1.602553 9.033552 -0.249489
v -2.161825 9.287245 -0.529830
v -2.242429 8.751180 -0.251221
v -1.197865 8.114080 -0.060413
v -2.487180 9.527552 -0.716563
v -1.356945 7.985056 -0.776636
v -2.888842 8.455553 -0.698883
v -2.893279 8.663154 -1.018144
v -2.647439 8.818348 -0.326948
v -2.888109 9.180587 -0.698839
v -2.893301 8.893477 -1.017655
v -2.927364 8.659484 -1.022706
v -2.925296 8.896502 -1.023417
vt 0.1429 0.9248
vt 0.3158 0.3016
vt 0.6515 0.2977
vt 0.7837 0.7509
vt 1.3538 0.7705
vt 1.2146 0.3610
vt 1.9662 0.1169
vt 2.1877 0.8333
vt 0.2432 0.8519
vt 0.4642 0.1177
vt 1.0239 0.2977
vt 1.5768 0.2970
vt 1.2664 0.3254
vt 1.2608 0.3003
vt 0.2454 0.8495
vt 1.4882 0.3023
vt 1.6590 0.9390
vt 0.4734 0.2965
vt 0.9057 0.3239
vt 0.9103 0.3003
vt 0.5332 0.5496
vt 0.2624 0.2097
vt 0.1262 0.4621
vt 0.9865 0.3282
vt 0.2734 0.8067
vt 0.9784 0.8557
vt 1.0913 0.7692
vt 1.0539 0.5630
vt 0.6602 0.6458
vt 0.2751 0.8073
vt 0.2196 0.4660
vt 0.8812 0.0589
vt 0.0510 0.9603
vt 0.7639 -0.0233
vn -0.2071 -0.8215 -0.5313
vn -0.0452 -0.6208 -0.7826
vn -0.2422 -0.6112 0.7535
vn -0.0314 -0.8126 0.5820
vn -0.2639 0.6000 0.7552
vn -0.0864 0.4696 0.8786
vn -0.1810 0.0021 -0.9835
vn 0.1612 -0.8264 -0.5396
vn -0.1449 0.9894 -0.0018
vn -0.2996 0.7114 -0.6358
vn -0.0693 0.3563 -0.9318
vn -0.9400 0.0019 0.3411
vn 0.1774 0.0021 -0.9841
vn 0.1331 -0.0041 -0.9911
vn 0.1875 0.7284 -0.6590
vn 0.0182 -0.6014 -0.7987
vn -0.2293 -0.4618 -0.8568
vn -0.2288 0.4031 -0.8861
vn 0.2643 0.4799 -0.8366
vn 0.1020 0.6308 -0.7692
vn 0.6607 0.6231 0.4186
vn 0.0845 0.4937 -0.8655
vn -0.2122 0.4756 0.8537
vn -0.0769 0.1682 0.9827
vn 0.0557 0.7931 0.6066
vn 0.1288 0.7504 0.6483
vn -0.0149 0.1951 0.9807
vn -0.5962 -0.8028 0.0057
vn 0.0866 0.6818 0.7264
vn 0.0831 0.7077 -0.7016
vn -0.2030 -0.5345 -0.8204
vn -0.3997 -0.8825 0.2478
vn -0.5221 -0.7184 0.4596
vn 0.9604 -0.2749 -0.0456
usemtl footA
s off
f 2/1/1 15/2/1 16/3/1
f 3/4/2 2/1/2 16/3/2
f 11/5/3 17/6/3 15/7/3
f 2/8/4 11/5/4 15/7/4
f 10/9/5 18/10/5 17/6/5
f 11/5/6 10/9/6 17/6/6
f 19/11/7 3/4/7 16/3/7
f 15/12/8 20/13/8 16/14/8
f 5/15/9 18/10/9 10/9/9
f 18/16/10 5/17/10 19/11/10
f 3/4/11 19/11/11 5/17/11
f 20/13/12 15/7/12 17/6/12 18/18/12 21/19/12
f 21/19/13 19/20/13 16/14/13
f 20/13/14 21/19/14 16/14/14
f 21/19/15 18/18/15 19/20/15
usemtl kata
f 1/21/16 2/22/16 3/23/16
f 4/24/17 2/22/17 1/21/17
f 5/25/18 1/21/18 3/23/18
f 6/26/19 4/24/19 1/21/19
f 1/21/20 5/25/20 6/26/20
f 7/27/21 6/26/21 8/28/21
f 4/24/22 6/26/22 7/27/22
f 9/29/23 10/30/23 11/31/23
f 11/31/24 12/32/24 9/29/24
f 6/26/25 10/30/25 9/29/25
f 8/28/26 6/26/26 9/29/26
f 12/32/27 8/28/27 9/29/27
f 5/25/28 10/30/28 13/33/28
f 10/30/29 6/26/29 13/33/29
f 6/26/30 5/25/30 13/33/30
f 2/22/31 4/24/31 14/34/31
f 12/32/32 2/22/32 14/34/32
f 12/32/33 11/31/33 2/22/33
f 12/32/34 14/34/34 4/24/34 7/27/34 8/28/34
