# Blender v2.78 (sub 0) OBJ File: 'Link_forarmL.blend'
# www.blender.org
mtllib Link_forarmL.mtl
o AdultLink
v 3.331666 8.600987 -1.067517
v 3.331523 8.397212 -0.697029
v 2.882815 8.455553 -0.697470
v 2.921495 8.659485 -1.021273
v 2.641230 8.818348 -0.325653
v 2.882081 9.180587 -0.697426
v 3.331400 8.823285 -0.382104
v 3.331522 9.249336 -0.697029
v 3.331666 8.971477 -1.067517
v 2.919427 8.896502 -1.021986
v 2.887408 8.663154 -1.016729
v 2.887430 8.893477 -1.016240
v 4.298561 9.028151 -0.888312
v 4.285316 8.935967 -0.446324
v 4.300936 8.625113 -0.991655
v 3.331724 9.175252 -1.215708
v 3.331717 8.471318 -1.197187
v 3.331523 8.323128 -0.697029
v 3.331522 9.397549 -0.697029
v 3.331364 8.878849 -0.289477
v 4.343106 9.008518 -1.085645
v 4.343106 8.600987 -1.085645
v 4.342955 8.452797 -0.696636
v 4.342955 9.175252 -0.696636
v 4.342825 8.878849 -0.363190
v 4.598446 8.826999 -0.691756
vt 1.3555 0.6280
vt 1.6656 0.6280
vt 1.5768 0.2970
vt 1.2664 0.3254
vt 0.2162 0.4593
vt 0.1007 0.7850
vt 0.9438 0.7850
vt 1.6508 0.4588
vt 0.9340 0.2841
vt 1.7869 0.7850
vt 0.3687 0.6280
vt 0.7916 0.6280
vt 0.9057 0.3239
vt 0.4734 0.2965
vt 1.2608 0.3003
vt 0.9103 0.3003
vt 4.6198 0.9774
vt 5.4576 0.9774
vt 2.0656 0.9774
vt 3.9344 0.9774
vt 3.0254 0.9774
vt 0.7337 0.0305
vt 1.4208 0.0305
vt 1.4576 0.9774
vt 0.6198 0.9774
vt 2.0863 0.0305
vt 3.8888 0.0305
vt 4.7337 0.0305
vt 3.0303 0.0305
vt 2.6787 -0.2087
vn -0.1127 -0.8706 -0.4789
vn -0.1782 -0.8229 -0.5395
vn -0.0778 -0.5926 0.8017
vn 0.0534 0.6977 0.7144
vn 0.0637 -0.6933 0.7178
vn -0.0913 0.5919 0.8008
vn -0.2072 0.7826 -0.5870
vn -0.1128 0.7412 -0.6617
vn -0.1120 0.0000 -0.9937
vn -0.1091 -0.0039 -0.9940
vn -0.1769 0.0021 -0.9842
vn -0.1326 -0.0041 -0.9912
vn -0.1872 0.7284 -0.6591
vn -0.9544 -0.0008 -0.2985
vn -0.1609 -0.8264 -0.5397
vn -1.0000 0.0000 -0.0004
vn 0.1096 0.0000 -0.9940
vn 0.1233 -0.0261 -0.9920
vn 0.1191 -0.9279 -0.3534
vn 0.1524 -0.9476 -0.2807
vn 0.1982 0.9009 -0.3861
vn 0.1982 0.9009 -0.3860
vn 0.0573 -0.6153 0.7862
vn 0.0753 -0.5897 0.8041
vn 0.1618 0.7375 0.6556
vn 0.0572 0.6168 0.7850
vn 0.7834 0.5713 -0.2446
vn 0.8089 -0.5496 -0.2090
vn 0.8391 0.0000 -0.5440
vn 0.6637 -0.4609 0.5891
vn 0.7092 0.5268 0.4686
usemtl footA
s off
f 1/1/1 2/2/1 3/3/1
f 4/4/2 1/1/2 3/3/2
f 3/5/3 2/6/3 7/7/3
f 6/8/4 5/9/4 7/7/4
f 7/7/5 5/9/5 3/5/5
f 7/7/6 8/10/6 6/8/6
f 8/11/7 9/12/7 10/13/7
f 6/14/8 8/11/8 10/13/8
f 9/12/9 1/1/9 4/4/9
f 10/13/10 9/12/10 4/4/10
f 11/15/11 12/16/11 10/13/11
f 4/4/12 11/15/12 10/13/12
f 10/13/13 12/16/13 6/14/13
f 12/16/14 11/15/14 3/3/14 5/9/14 6/8/14
f 3/3/15 11/15/15 4/4/15
usemtl arm_grove
f 16/17/16 17/18/16 18/19/16
f 19/20/16 16/17/16 18/19/16
f 20/21/16 19/20/16 18/19/16
f 21/22/17 22/23/17 17/24/17
f 16/25/18 21/22/18 17/24/18
f 22/23/19 23/26/19 18/19/19
f 17/24/20 22/23/20 18/19/20
f 24/27/21 21/28/21 16/17/21
f 19/20/22 24/27/22 16/17/22
f 23/26/23 25/29/23 20/21/23
f 18/19/24 23/26/24 20/21/24
f 25/29/25 24/27/25 19/20/25
f 20/21/26 25/29/26 19/20/26
f 26/30/27 21/28/27 24/27/27
f 26/30/28 23/26/28 22/23/28
f 22/23/29 21/22/29 26/30/29
f 25/29/30 23/26/30 26/30/30
f 24/27/31 25/29/31 26/30/31
l 13 14
l 13 15
