# Blender v2.78 (sub 0) OBJ File: 'Link_body.blend'
# www.blender.org
mtllib Link_body.mtl
o AdultLink
v -0.002776 9.679277 -1.004177
v -1.549037 8.537197 -0.682748
v -1.561013 8.773853 -0.564665
v -0.976100 9.229681 -0.783300
v -1.551126 8.782495 -0.367342
v -1.618758 8.537686 -0.317716
v -1.553030 8.384434 -0.600822
v 1.722526 8.386584 -0.509933
v 1.594356 8.352546 -0.775948
v 1.557071 8.537197 -0.773431
v 1.627597 8.560001 -0.555402
v 1.568663 8.678788 -0.722296
v 0.970368 9.229681 -0.782506
v -0.628009 7.516760 0.380156
v -1.153448 7.585175 -0.107431
v -1.109027 7.056268 -0.154105
v -0.655372 7.081392 0.472106
v -1.232528 7.621816 -0.562196
v -0.525611 8.956779 -0.298878
v -0.604424 9.284666 -1.189011
v -0.003364 8.328952 0.440443
v -0.577361 8.617440 0.112344
v -0.670906 8.009825 0.398438
v -0.003444 7.935652 0.637171
v -1.052735 7.785171 -1.069529
v -0.649386 8.736994 -1.504954
v -0.602404 7.936363 -1.398500
v -0.555444 7.135711 -1.292024
v -0.977323 7.033122 -0.945788
v -0.002633 7.135733 -1.352120
v 0.550128 7.135711 -1.291573
v 0.610697 6.798018 -0.862296
v -0.002731 6.781987 -1.113503
v -0.616363 6.798018 -0.862796
v -0.002608 7.936363 -1.415754
v 0.597174 7.936363 -1.398011
v -0.002582 8.737016 -1.479411
v -0.002700 9.284688 -1.188788
v -0.844600 6.793259 -0.362776
v -0.616745 6.726046 0.184789
v -0.297180 6.725178 0.311143
v -0.003442 7.435760 0.631702
v 0.621329 7.516760 0.380666
v 0.664211 8.009825 0.398982
v -0.003440 7.081415 0.626232
v 0.648618 7.081392 0.472637
v 1.102783 7.056268 -0.153203
v 1.147166 7.585175 -0.106493
v 1.226616 7.621816 -0.561194
v 0.971724 7.033122 -0.944993
v 0.838526 6.793259 -0.362089
v 0.610225 6.726046 0.185289
v 0.290558 6.725178 0.311383
v 1.047238 7.785171 -1.068673
v 0.644243 8.736994 -1.504427
v 0.599023 9.284666 -1.188520
v 0.519484 8.956779 -0.298452
v -0.003311 6.725423 0.309106
v 0.461456 9.163912 -0.468589
v -0.003086 9.066193 -0.241812
v -0.003136 8.867374 -0.119280
v -0.467443 9.163912 -0.468968
v -0.499242 9.428009 -1.005269
v -0.002734 9.450088 -1.106766
v 0.493691 9.428009 -1.004864
v 0.439179 9.740955 -0.801511
v -0.444896 9.740955 -0.801871
v -0.003103 9.324331 -0.200123
v -0.421827 9.633653 -0.450384
v 0.415824 9.633653 -0.450042
v 1.360469 8.961122 -0.752401
v 1.252193 8.637094 -1.167214
v 1.213018 8.364724 -0.016925
v 1.140655 8.838201 -0.365642
v 1.296576 8.198204 -0.031744
v -1.077775 9.033581 -0.778176
v -1.038368 8.923817 -0.333110
v -1.064244 8.699967 -0.127499
v -1.098060 8.577564 -0.102686
v -1.262569 8.883439 -0.733024
v -1.268557 9.093958 -0.673983
v -1.263613 9.061756 -0.575321
vt 0.0764 0.6192
vt 0.2577 0.9266
vt 0.9784 0.8557
vt 0.9865 0.3282
vt -0.0466 0.5691
vt 1.0539 0.5630
vt 0.0764 0.6192
vt -0.0466 0.5691
vt 0.9865 0.3282
vt 0.9784 0.8557
vt 0.4936 0.3937
vt 0.0708 0.4740
vt 0.0651 0.3288
vt 0.4488 0.2315
vt 0.0092 0.4247
vt 0.4401 0.9360
vt 0.6225 0.9454
vt 0.5653 1.0727
vt 0.4115 0.9997
vt 0.2969 1.0523
vt 0.2773 0.9895
vt 0.9336 0.7046
vt 0.6291 0.8141
vt 0.5384 0.5558
vt 0.9336 0.4954
vt 0.4434 0.8704
vt 0.3527 0.7167
vt 0.1260 0.5319
vt 0.1869 0.7835
vt 0.5327 0.8601
vt 0.5327 0.5698
vt 0.5327 0.2794
vt 0.0651 0.2804
vt 0.9335 0.2824
vt 0.5327 0.2794
vt 0.3712 0.0864
vt 0.9358 0.0893
vt 0.3712 0.0864
vt 0.9336 0.5727
vt 0.5327 0.5698
vt 0.9336 0.8630
vt 0.2419 0.9179
vt 0.9148 1.0756
vt 0.3713 0.0877
vt 0.3713 0.0889
vt 0.6869 0.0889
vt 0.9347 0.3649
vt 0.4936 0.3937
vt 0.5384 0.5558
vt 0.9358 0.2344
vt 0.4488 0.2315
vt 0.0651 0.3288
vt 0.0708 0.4740
vt 0.3074 0.5875
vt 0.0092 0.4247
vt 0.0651 0.2804
vt 0.3713 0.0877
vt 0.3713 0.0889
vt 0.6869 0.0889
vt 0.1260 0.5319
vt 0.1869 0.7835
vt 0.5327 0.8601
vt 0.3598 0.8218
vt 0.5653 1.0727
vt 0.2969 1.0523
vt 0.2577 0.9266
vt 0.3980 0.7412
vt 0.6225 0.9454
vt 0.4401 0.9360
vt 0.9358 0.0918
vt 0.9147 -0.2686
vt 0.2517 0.7639
vt 0.2457 0.6012
vt 0.2865 0.9966
vt 0.3007 0.0142
vt 0.2532 0.0090
vt 0.2998 0.8791
vt 0.3007 0.0142
vt 0.2998 0.8791
vt 0.2637 0.0081
vt 0.9693 0.8496
vt 0.3296 0.9419
vt 0.2637 0.0081
vt 0.3296 0.9419
vt 0.9837 0.0174
vt 0.3334 0.9664
vt 0.8918 0.9415
vt 0.9050 0.5515
vt 0.2457 0.6012
vt 0.3334 0.9664
vt 0.1262 0.5715
vt 0.3008 0.9912
vt 0.9208 0.9908
vt 0.1262 0.5715
vt 0.3008 0.9912
vt 0.9279 0.5715
vt 1.0913 0.7692
vt 1.0349 0.8124
vt 1.0539 0.5630
vt 1.0726 0.6661
vt 1.0389 0.5487
vt 1.0913 0.7692
vt 1.0349 0.8124
vn -0.9889 0.0697 -0.1311
vn 0.9002 0.2206 -0.3755
vn -0.6836 -0.1209 0.7197
vn -0.8011 0.1715 0.5735
vn -0.9819 -0.0968 0.1629
vn -0.9218 -0.3876 -0.0042
vn -0.9021 -0.4134 0.1236
vn -0.1793 0.9358 0.3036
vn 0.7022 -0.3041 0.6438
vn -0.2660 0.4439 0.8557
vn -0.2608 0.4319 0.8634
vn -0.3845 0.2843 0.8783
vn -0.3711 0.4417 0.8168
vn -0.6299 -0.0834 0.7722
vn -0.6818 -0.1763 0.7100
vn -0.1676 0.7227 0.6705
vn 0.0222 0.7697 0.6380
vn -0.6665 -0.0576 -0.7433
vn -0.5525 -0.1416 -0.8214
vn -0.5953 -0.1882 -0.7811
vn -0.8081 -0.2619 -0.5277
vn -0.8315 -0.3704 -0.4140
vn -0.9149 -0.1532 -0.3735
vn 0.0682 -0.7794 -0.6228
vn 0.3338 -0.5272 -0.7814
vn -0.0677 -0.7794 -0.6228
vn -0.3331 -0.5272 -0.7817
vn 0.0295 -0.0792 -0.9964
vn 0.1078 -0.1372 -0.9846
vn -0.0287 -0.0792 -0.9964
vn -0.1070 -0.1372 -0.9847
vn 0.0391 -0.1294 -0.9908
vn -0.7027 0.3979 -0.5898
vn -0.6541 0.4532 -0.6056
vn 0.0003 0.4687 -0.8833
vn 0.0342 0.4973 -0.8669
vn -0.9389 -0.3112 -0.1471
vn -0.7414 -0.6629 -0.1040
vn -0.4926 -0.8385 -0.2328
vn -0.3277 -0.7194 -0.6125
vn -0.6930 -0.4974 0.5220
vn -0.6259 -0.7618 0.1670
vn -0.2898 -0.6206 0.7286
vn -0.3802 -0.0673 0.9224
vn -0.3378 -0.0103 0.9412
vn 0.3795 -0.0673 0.9227
vn 0.3370 -0.0103 0.9414
vn -0.2247 0.2149 0.9504
vn -0.3751 -0.0143 0.9269
vn 0.2293 -0.0150 0.9733
vn 0.3400 0.2147 0.9156
vn 0.6830 -0.1209 0.7203
vn 0.8006 0.1715 0.5741
vn 0.6805 -0.2498 0.6888
vn 0.6831 -0.0863 0.7252
vn 0.9817 -0.0968 0.1637
vn 0.9390 -0.3112 -0.1463
vn 0.8037 -0.4995 -0.3233
vn 0.8316 -0.5460 0.1013
vn 0.4928 -0.8385 -0.2324
vn 0.3282 -0.7194 -0.6122
vn 0.7415 -0.6629 -0.1034
vn 0.6925 -0.4974 0.5225
vn 0.6258 -0.7618 0.1675
vn 0.2892 -0.6206 0.7288
vn 0.5532 -0.1416 -0.8209
vn 0.5959 -0.1882 -0.7807
vn 0.9152 -0.1532 -0.3728
vn 0.3939 0.0920 -0.9145
vn 0.7508 -0.5035 -0.4275
vn 0.5648 -0.2712 -0.7794
vn 0.5740 -0.0688 -0.8160
vn -0.0385 -0.0792 -0.9961
vn 0.0293 -0.1334 -0.9906
vn 0.7032 0.3979 -0.5892
vn 0.5683 0.6208 -0.5400
vn 0.0004 0.4687 -0.8833
vn -0.0335 0.4973 -0.8669
vn 0.5959 0.3214 0.7359
vn 0.2601 0.4319 0.8636
vn 0.3759 0.8955 0.2384
vn -0.6794 -0.4780 0.5567
vn -0.1910 -0.5572 0.8081
vn 0.0057 -0.6652 0.7467
vn 0.1904 -0.5572 0.8082
vn -0.0063 -0.6652 0.7467
vn 0.0000 -0.9986 -0.0533
vn 0.3012 0.5949 0.7452
vn 0.2013 0.4002 -0.8940
vn 0.2808 0.5569 -0.7817
vn -0.2006 0.4002 -0.8942
vn -0.2801 0.5569 -0.7819
vn -0.5048 0.0149 0.8631
vn -0.9913 0.0926 0.0933
vn -0.9889 0.1012 0.1085
vn 0.5041 0.0149 0.8635
vn 0.9912 0.0926 0.0941
vn 0.9888 0.1012 0.1093
vn 0.4582 -0.1417 0.8775
vn -0.4589 -0.1417 0.8771
vn -0.0001 0.9311 0.3648
vn 0.2919 0.5018 0.8143
vn 0.1438 0.6519 0.7446
vn 0.1137 0.7160 0.6888
vn -0.1142 0.7160 0.6887
vn -0.2926 0.5018 0.8140
vn -0.1444 0.6519 0.7445
vn -0.1496 0.8193 -0.5535
vn -0.9020 0.3637 0.2326
vn -0.8663 0.4390 0.2384
vn 0.1500 0.8193 -0.5534
vn 0.9018 0.3637 0.2333
vn 0.8661 0.4390 0.2391
vn 0.0004 0.4443 -0.8959
vn 0.0003 0.4443 -0.8959
vn -0.6216 0.7707 0.1400
vn -0.5161 0.2728 -0.8120
vn 0.5223 0.6301 0.5746
vn 0.2442 0.1607 -0.9563
usemtl muneA
s off
f 6/1/1 5/2/1 3/3/1 2/4/1 7/5/1
f 11/6/2 8/7/2 9/8/2 10/9/2 12/10/2
f 14/11/3 15/12/3 16/13/3
f 17/14/4 14/11/4 16/13/4
f 16/13/5 15/12/5 18/15/5
f 7/5/6 18/15/6 6/1/6
f 6/1/7 18/15/7 15/12/7
f 5/2/8 77/16/8 19/17/8 20/18/8 76/19/8
f 4/20/9 82/21/9 5/2/9 76/19/9 20/18/9
f 21/22/10 22/23/10 23/24/10
f 24/25/11 21/22/11 23/24/11
f 22/23/12 78/26/12 5/2/12 6/1/12 79/27/12
f 23/24/13 22/23/13 79/27/13 6/1/13
f 14/11/14 23/24/14 6/1/14
f 15/12/15 14/11/15 6/1/15
f 5/2/16 78/26/16 22/23/16 19/17/16 77/16/16
f 19/17/17 22/23/17 21/22/17
f 25/28/18 2/29/18 26/30/18
f 27/31/19 25/28/19 26/30/19
f 25/28/19 27/31/19 28/32/19
f 29/33/20 25/28/20 28/32/20
f 2/29/21 25/28/21 7/5/21
f 7/5/22 25/28/22 18/15/22
f 18/15/23 25/28/23 29/33/23
f 30/34/24 31/35/24 32/36/24
f 33/37/25 30/34/25 32/36/25
f 34/38/26 28/32/26 30/34/26
f 33/37/27 34/38/27 30/34/27
f 30/34/28 35/39/28 36/40/28
f 31/35/29 30/34/29 36/40/29
f 27/31/30 35/39/30 30/34/30
f 28/32/31 27/31/31 30/34/31
f 27/31/32 26/30/32 37/41/32
f 35/39/30 27/31/30 37/41/30
f 4/20/33 20/18/33 26/30/33
f 2/29/34 80/42/34 4/20/34 26/30/34
f 20/18/35 38/43/35 37/41/35
f 26/30/36 20/18/36 37/41/36
f 16/13/37 18/15/37 29/33/37
f 39/44/38 16/13/38 29/33/38
f 34/38/39 39/44/39 29/33/39
f 28/32/40 34/38/40 29/33/40
f 17/14/41 16/13/41 40/45/41
f 39/44/42 40/45/42 16/13/42
f 17/14/43 40/45/43 41/46/43
f 23/24/44 14/11/44 42/47/44
f 24/25/45 23/24/45 42/47/45
f 42/47/46 43/48/46 44/49/46
f 24/25/47 42/47/47 44/49/47
f 14/11/48 17/14/48 45/50/48
f 42/47/49 14/11/49 45/50/49
f 42/47/50 45/50/50 46/51/50
f 43/48/51 42/47/51 46/51/51
f 47/52/52 48/53/52 43/48/52
f 46/51/53 47/52/53 43/48/53
f 48/53/54 8/7/54 75/54/54 44/49/54
f 43/48/55 48/53/55 44/49/55
f 47/52/56 49/55/56 48/53/56
f 47/52/57 50/56/57 49/55/57
f 8/7/58 49/55/58 9/8/58
f 8/7/59 48/53/59 49/55/59
f 32/36/60 50/56/60 51/57/60
f 31/35/61 50/56/61 32/36/61
f 51/57/62 50/56/62 47/52/62
f 46/51/63 52/58/63 47/52/63
f 51/57/64 47/52/64 52/58/64
f 46/51/65 53/59/65 52/58/65
f 31/35/66 36/40/66 54/60/66
f 50/56/67 31/35/67 54/60/67
f 54/60/68 49/55/68 50/56/68
f 10/61/69 9/8/69 54/60/69
f 54/60/70 9/8/70 49/55/70
f 36/40/71 55/62/71 72/63/71 10/61/71
f 54/60/72 36/40/72 10/61/72
f 35/39/73 37/41/73 55/62/73
f 36/40/74 35/39/74 55/62/74
f 55/62/75 56/64/75 13/65/75
f 10/61/76 72/63/76 55/62/76 13/65/76
f 37/41/77 38/43/77 56/64/77
f 55/62/78 37/41/78 56/64/78
f 44/49/79 75/54/79 8/7/79 11/66/79 73/67/79
f 24/25/80 44/49/80 21/22/80
f 56/64/81 57/68/81 74/69/81 11/66/81
f 13/65/82 56/64/82 11/66/82
f 45/50/83 17/14/83 41/46/83
f 45/50/84 41/46/84 58/70/84
f 45/50/85 53/59/85 46/51/85
f 45/50/86 58/70/86 53/59/86
f 58/70/87 41/46/87 40/45/87 39/44/87 34/38/87 33/37/87 32/36/87 51/57/87 52/58/87 53/59/87
f 21/71/88 44/49/88 73/67/88 11/66/88 74/72/88 57/73/88
usemtl neck_inner
f 1/74/89 65/75/89 64/76/89
f 65/75/90 1/74/90 66/77/90
f 1/74/91 64/76/91 63/78/91
f 63/78/92 67/79/92 1/74/92
f 62/80/93 68/81/93 69/82/93
f 62/80/94 69/82/94 67/79/94
f 67/79/95 63/78/95 62/80/95
f 59/83/96 70/84/96 68/81/96
f 59/83/97 66/77/97 70/84/97
f 66/77/98 59/83/98 65/75/98
f 68/81/99 60/85/99 59/83/99
f 68/81/100 62/80/100 60/85/100
f 70/84/101 66/77/101 1/74/101 67/79/101 69/82/101 68/81/101
usemtl innerA
f 59/86/102 60/87/102 61/88/102
f 61/88/103 57/73/103 59/86/103
f 61/88/104 21/71/104 57/73/104
f 61/88/105 19/89/105 21/71/105
f 62/90/106 61/88/106 60/87/106
f 61/88/107 62/90/107 19/89/107
f 20/91/108 63/92/108 64/93/108
f 63/92/109 20/91/109 62/90/109
f 62/90/110 20/91/110 19/89/110
f 56/94/111 64/93/111 65/95/111
f 65/95/112 59/86/112 56/94/112
f 59/86/113 57/73/113 56/94/113
f 64/93/114 56/94/114 38/96/114
f 64/93/115 38/96/115 20/91/115
usemtl kata
f 4/97/116 81/98/116 3/3/116 5/99/116 82/100/116
f 2/4/117 3/3/117 81/98/117 4/97/117 80/101/117
f 13/102/118 11/6/118 12/10/118 71/103/118
f 10/9/119 13/102/119 71/103/119 12/10/119
