# Blender v2.78 (sub 0) OBJ File: 'Link_legL.blend'
# www.blender.org
mtllib Link_legL.mtl
o AdultLink
v 1.025602 3.606503 -0.592739
v 1.150691 5.017305 -0.653703
v 0.927877 4.848903 0.084776
v 0.841368 3.490974 -0.043423
v 0.433922 3.487572 -0.035917
v 0.316557 4.867381 0.102939
v 0.154896 5.004854 -0.783856
v 0.242645 3.602078 -0.619726
v 0.632193 3.567415 -0.930564
v 0.613788 4.999940 -1.090241
v 0.279983 3.279927 -0.597731
v 0.983916 3.279927 -0.597194
v 0.632275 3.232702 -1.012719
v 0.414838 3.225142 0.064190
v 0.846982 3.224409 0.064550
vt 1.6508 0.2601
vt 1.8815 0.8969
vt 1.4999 0.7862
vt 1.3254 0.1819
vt 0.6316 0.1848
vt 0.4597 0.8024
vt 0.1860 0.8963
vt 0.3282 0.2636
vt 0.9800 0.2395
vt 0.9667 0.8912
vt 0.3756 0.0527
vt 1.5611 0.0309
vt 0.6424 0.5590
vt 1.3067 0.5616
vt 1.3323 0.4011
vt 0.6279 0.3979
vt 1.5519 0.4376
vt 0.9731 0.6091
vt 0.9789 0.4088
vt 0.4045 0.4331
vn 0.9593 -0.0733 0.2727
vn 0.9498 -0.0888 0.2999
vn -0.9815 -0.0999 0.1634
vn -0.9514 -0.0236 0.3071
vn 0.0267 -0.0956 0.9951
vn 0.0192 -0.0985 0.9950
vn 0.6305 -0.0780 -0.7723
vn 0.6540 -0.0904 -0.7511
vn -0.5515 -0.1309 -0.8239
vn -0.6260 -0.0943 -0.7741
vn -0.9515 -0.0902 0.2941
vn 0.9483 -0.1250 0.2917
vn 0.0142 0.3555 0.9346
vn -0.0001 0.3754 0.9269
vn -0.7436 0.1592 -0.6494
vn 0.7446 0.1593 -0.6482
vn 0.6539 -0.0732 -0.7530
vn -0.6256 -0.1251 -0.7701
vn -0.9663 0.1501 0.2093
vn 0.9720 0.1055 0.2100
usemtl footA
s off
f 1/1/1 2/2/1 3/3/1
f 4/4/2 1/1/2 3/3/2
f 5/5/3 6/6/3 7/7/3
f 8/8/4 5/5/4 7/7/4
f 4/4/5 3/3/5 6/6/5
f 5/5/6 4/4/6 6/6/6
f 9/9/7 10/10/7 2/2/7
f 1/1/8 9/9/8 2/2/8
f 8/8/9 7/7/9 10/10/9
f 9/9/10 8/8/10 10/10/10
f 11/11/11 5/5/11 8/8/11
f 4/4/12 12/12/12 1/1/12
f 4/13/13 5/14/13 14/15/13
f 15/16/14 4/13/14 14/15/14
f 11/17/15 9/18/15 13/19/15
f 12/20/16 13/19/16 9/18/16
f 12/12/17 9/9/17 1/1/17
f 9/9/18 11/11/18 8/8/18
f 14/15/19 5/14/19 11/17/19
f 12/20/20 4/13/20 15/16/20
