# Blender v2.78 (sub 0) OBJ File: 'Link_full_butt.blend'
# www.blender.org
mtllib Link_full_butt.mtl
o AdultLink
v -0.002826 6.454967 -1.213178
v 0.919674 6.253080 -1.074209
v 0.383701 6.114072 -1.466178
v 0.629850 6.482026 -0.919055
v 0.845523 6.457234 -0.399290
v 1.007009 6.322073 -0.397330
v 0.616259 6.380527 0.151027
v -0.002754 6.114072 -1.455397
v 0.178279 5.684486 -1.611917
v -0.002709 5.684486 -1.606523
v -0.183694 5.684486 -1.612024
v -0.389203 6.114072 -1.466406
v -0.002685 4.586696 -1.686499
v -1.045050 5.891531 -1.222225
v -1.015761 4.525908 -1.393508
v 1.039404 5.891531 -1.221608
v 1.240211 5.835612 -0.806103
v 1.010217 4.525908 -1.392909
v 1.321481 4.510188 -0.818797
v 1.247941 5.750544 -0.179475
v 1.342454 4.414137 -0.237501
v 0.774489 6.241786 0.263890
v 0.412116 6.303819 0.265072
v 0.330514 6.070471 0.423355
v 1.080455 4.282088 0.184538
v 0.927472 5.804217 0.224203
v 0.469147 5.764351 0.412724
v 0.504263 4.135631 0.462561
v 0.149623 5.236112 0.478020
v -0.003336 4.216764 0.514417
v -0.003330 5.242737 0.493094
v -0.510905 4.135631 0.462261
v -0.156275 5.236112 0.477930
v -0.475760 5.764351 0.412445
v -0.933973 5.804217 0.223652
v -1.086932 4.282088 0.183896
v -0.337133 6.070471 0.423158
v -0.781014 6.241786 0.263430
v -1.327365 4.510188 -0.819580
v -1.348681 4.414137 -0.238297
v -1.254204 5.750544 -0.180215
v -1.246103 5.835612 -0.806839
v -1.013143 6.322073 -0.397928
v -0.622718 6.380527 0.150660
v -0.418642 6.303819 0.264826
v -0.925407 6.253080 -1.074754
v -0.635675 6.482026 -0.919430
v -0.851656 6.457234 -0.399792
v -0.003262 6.304019 0.263171
v -0.003309 6.162588 0.422123
v 0.610600 6.798018 -0.862364
v -0.002855 6.781987 -1.113503
v -0.616459 6.798018 -0.862727
v -0.844641 6.793259 -0.362681
v -0.616725 6.726046 0.184858
v -0.297146 6.725178 0.311176
v 0.838486 6.793259 -0.362183
v 0.610246 6.726046 0.185221
v 0.290592 6.725178 0.311350
v -0.003276 6.725423 0.309106
vt 1.0024 0.9442
vt 1.3783 0.8352
vt 1.0582 0.7706
vt 1.2434 0.9659
vt 1.5002 0.9730
vt 1.5958 0.8689
vt 1.3465 0.9389
vt 1.0094 0.7712
vt 1.0354 0.6268
vt 1.0110 0.6271
vt 1.0354 0.6268
vt 1.0582 0.7706
vt 1.0125 0.0404
vt 0.3867 0.7271
vt 0.9897 0.2815
vt 0.4123 0.2562
vt 0.9586 0.7085
vt 0.9586 0.7085
vt 0.9335 0.8080
vt 0.6059 0.8439
vt 0.3867 0.7271
vt 0.4033 0.8479
vt 0.2210 0.7058
vt 0.4123 0.2562
vt 0.2307 0.2482
vt 0.2197 0.5207
vt 0.2190 0.2137
vt 1.3898 0.8668
vt 1.1770 0.9193
vt 1.0486 0.8189
vt 0.6180 0.8295
vt 0.3726 0.1681
vt 0.4953 0.4988
vt 0.8265 0.4528
vt 0.7097 0.1190
vt 0.9434 0.7865
vt 0.9714 0.4676
vt 0.9995 0.1487
vt 0.9996 0.2398
vt 0.7097 0.1190
vt 0.9714 0.4676
vt 0.8265 0.4528
vt 0.4953 0.4988
vt 0.3726 0.1681
vt 0.9434 0.7865
vt 0.6180 0.8295
vt 0.2307 0.2482
vt 0.2190 0.2137
vt 0.2197 0.5207
vt 0.2210 0.7058
vt 0.4033 0.8479
vt 1.3898 0.8668
vt 1.3465 0.9389
vt 1.5958 0.8689
vt 1.1770 0.9193
vt 1.0486 0.8189
vt 0.6059 0.8439
vt 0.9335 0.8080
vt 1.3783 0.8352
vt 1.2434 0.9659
vt 1.5002 0.9730
vt 0.9940 0.9193
vt 0.9997 0.8184
vt 0.9999 0.0410
vt 0.5224 1.0263
vt 0.5880 0.0398
vt 1.0607 0.0333
vt 0.9414 0.9526
vt -0.0096 0.9911
vt 0.5094 1.0268
vt 0.5049 0.0183
vt -0.0142 -0.0138
vt 0.7475 0.9959
vt 0.6099 0.0066
vt 0.9879 0.0070
vt 0.9896 0.9964
vt 0.6099 0.0066
vt 0.7475 0.9959
vt 0.2663 0.9971
vt 0.3025 0.0074
vt 0.3025 0.0074
vt 0.2663 0.9971
vt 0.1098 0.9959
vt 0.0931 0.0079
vt 0.0024 0.9960
vt 0.0128 0.0078
vt 0.0931 0.0079
vt 0.1098 0.9959
vt 0.0128 0.0078
vt 0.0024 0.9960
vn 0.2559 0.7462 -0.6145
vn 0.2558 0.7430 -0.6185
vn 0.5452 0.8171 -0.1873
vn 0.6348 0.7561 -0.1590
vn 0.5988 0.7205 0.3499
vn -0.0263 0.3324 -0.9428
vn -0.0281 0.3317 -0.9430
vn 0.0269 0.3324 -0.9428
vn 0.0287 0.3317 -0.9429
vn -0.0227 0.5791 -0.8150
vn 0.0232 0.5791 -0.8150
vn -0.0297 0.0726 -0.9969
vn 0.0303 0.0726 -0.9969
vn -0.2823 0.1134 -0.9526
vn -0.4136 -0.0064 -0.9105
vn 0.5919 -0.0096 -0.8060
vn 0.2806 0.4406 -0.8527
vn 0.7507 0.5972 -0.2824
vn 0.9170 0.3672 -0.1557
vn 0.2829 0.1134 -0.9524
vn 0.4141 -0.0064 -0.9102
vn 0.9016 0.0348 -0.4311
vn 0.8783 0.0584 -0.4746
vn 0.9971 0.0716 -0.0242
vn 0.9981 0.0612 -0.0040
vn 0.1233 0.7071 0.6963
vn 0.0945 0.5360 0.8389
vn 0.5129 0.8119 0.2789
vn 0.8117 0.4729 0.3429
vn 0.9146 0.4021 0.0433
vn 0.3793 0.0140 0.9252
vn 0.4267 0.0368 0.9037
vn 0.3280 0.0290 0.9442
vn 0.3670 0.1342 0.9205
vn 0.7857 0.0629 0.6154
vn 0.8439 0.0364 0.5353
vn 0.7782 0.2187 0.5887
vn 0.1047 0.0198 0.9943
vn 0.1468 0.0334 0.9886
vn 0.1480 0.0327 0.9885
vn 0.0989 0.0207 0.9949
vn 0.0998 0.0435 0.9941
vn -0.1053 0.0198 0.9942
vn -0.1474 0.0334 0.9885
vn -0.3799 0.0140 0.9249
vn -0.4272 0.0368 0.9034
vn -0.3285 0.0290 0.9441
vn -0.3675 0.1342 0.9203
vn -0.0995 0.0207 0.9948
vn -0.1004 0.0435 0.9940
vn -0.1486 0.0327 0.9884
vn -0.9971 0.0716 -0.0247
vn -0.9981 0.0612 -0.0046
vn -0.9146 0.4021 0.0428
vn -0.8442 0.0364 0.5348
vn -0.7861 0.0629 0.6149
vn -0.7785 0.2187 0.5883
vn -0.8119 0.4729 0.3424
vn -0.5131 0.8119 0.2786
vn -0.1237 0.7071 0.6962
vn -0.0950 0.5360 0.8389
vn -0.5914 -0.0096 -0.8063
vn -0.2801 0.4406 -0.8529
vn -0.7505 0.5972 -0.2829
vn -0.9169 0.3672 -0.1563
vn -0.8780 0.0584 -0.4751
vn -0.9014 0.0348 -0.4316
vn -0.2555 0.7462 -0.6147
vn -0.2554 0.7430 -0.6187
vn -0.5451 0.8171 -0.1876
vn -0.6347 0.7561 -0.1594
vn -0.5990 0.7205 0.3495
vn -0.0027 0.7471 0.6647
vn 0.1408 0.5216 0.8415
vn 0.0023 0.7471 0.6647
vn -0.1413 0.5216 0.8414
vn 0.0175 0.0769 0.9969
vn -0.0181 0.0769 0.9969
vn -0.0046 -0.1084 0.9941
vn -0.0077 -0.1114 0.9938
vn 0.0040 -0.1084 0.9941
vn 0.0071 -0.1114 0.9938
vn 0.4077 0.1852 -0.8941
vn 0.3585 0.2722 -0.8930
vn -0.4072 0.1852 -0.8944
vn -0.3579 0.2722 -0.8932
vn 0.9083 0.0647 -0.4132
vn 0.9187 0.1233 -0.3753
vn -0.9081 0.0647 -0.4138
vn -0.9184 0.1233 -0.3759
vn 0.9240 -0.0217 0.3819
vn 0.9237 -0.0229 0.3823
vn 0.3670 0.0037 0.9302
vn 0.5079 -0.0761 0.8580
vn -0.9242 -0.0217 0.3813
vn -0.9240 -0.0229 0.3818
vn -0.3676 0.0037 0.9300
vn -0.5084 -0.0761 0.8577
usemtl kosiB
s off
f 1/1/1 2/2/1 3/3/1
f 1/1/2 4/4/2 2/2/2
f 2/2/3 4/4/3 5/5/3
f 5/5/4 6/6/4 2/2/4
f 7/7/5 6/6/5 5/5/5
f 8/8/6 3/3/6 9/9/6
f 10/10/7 8/8/7 9/9/7
f 11/11/8 12/12/8 8/8/8
f 10/10/9 11/11/9 8/8/9
f 8/8/10 1/1/10 3/3/10
f 8/8/11 12/12/11 1/1/11
f 9/9/12 13/13/12 10/10/12
f 11/11/13 10/10/13 13/13/13
f 14/14/14 13/15/14 15/16/14
f 13/15/15 14/14/15 11/17/15
f 9/18/16 3/19/16 2/20/16
f 16/21/17 9/18/17 2/20/17
f 6/22/18 17/23/18 16/21/18
f 2/20/19 6/22/19 16/21/19
f 16/21/20 18/24/20 13/15/20
f 13/15/21 9/18/21 16/21/21
f 18/24/22 16/21/22 17/23/22
f 17/23/23 19/25/23 18/24/23
f 20/26/24 21/27/24 19/25/24
f 17/23/25 20/26/25 19/25/25
f 22/28/26 7/7/26 23/29/26
f 24/30/27 22/28/27 23/29/27
f 22/28/28 6/6/28 7/7/28
f 6/22/29 22/31/29 20/26/29
f 20/26/30 17/23/30 6/22/30
f 25/32/31 26/33/31 27/34/31
f 28/35/32 25/32/32 27/34/32
f 26/33/33 22/31/33 24/36/33
f 27/34/34 26/33/34 24/36/34
f 20/26/35 26/33/35 25/32/35
f 25/32/36 21/27/36 20/26/36
f 22/31/37 26/33/37 20/26/37
f 29/37/38 30/38/38 28/35/38
f 27/34/39 29/37/39 28/35/39
f 24/36/40 29/37/40 27/34/40
f 31/39/41 30/38/41 29/37/41
f 31/39/42 29/37/42 24/36/42
f 32/40/43 30/38/43 33/41/43
f 34/42/44 32/40/44 33/41/44
f 34/42/45 35/43/45 36/44/45
f 32/40/46 34/42/46 36/44/46
f 37/45/47 38/46/47 35/43/47
f 34/42/48 37/45/48 35/43/48
f 31/39/49 33/41/49 30/38/49
f 31/39/50 37/45/50 33/41/50
f 37/45/51 34/42/51 33/41/51
f 39/47/52 40/48/52 41/49/52
f 42/50/53 39/47/53 41/49/53
f 41/49/54 43/51/54 42/50/54
f 36/44/55 41/49/55 40/48/55
f 41/49/56 36/44/56 35/43/56
f 38/46/57 41/49/57 35/43/57
f 43/51/58 41/49/58 38/46/58
f 38/52/59 44/53/59 43/54/59
f 38/52/60 45/55/60 44/53/60
f 37/56/61 45/55/61 38/52/61
f 46/57/62 12/58/62 11/17/62
f 14/14/63 46/57/63 11/17/63
f 14/14/64 42/50/64 43/51/64
f 46/57/65 14/14/65 43/51/65
f 42/50/66 15/16/66 39/47/66
f 15/16/67 42/50/67 14/14/67
f 1/1/68 12/12/68 46/59/68
f 1/1/69 46/59/69 47/60/69
f 46/59/70 48/61/70 47/60/70
f 48/61/71 46/59/71 43/54/71
f 44/53/72 48/61/72 43/54/72
f 23/29/73 49/62/73 50/63/73
f 24/30/74 23/29/74 50/63/74
f 50/63/75 49/62/75 45/55/75
f 37/56/76 50/63/76 45/55/76
f 50/63/77 31/64/77 24/30/77
f 50/63/78 37/56/78 31/64/78
usemtl backl
f 60/65/79 49/66/79 23/67/79
f 59/68/80 60/65/80 23/67/80
f 45/69/81 49/70/81 60/71/81
f 56/72/82 45/69/82 60/71/82
usemtl belt
f 51/73/83 4/74/83 1/75/83
f 52/76/84 51/73/84 1/75/84
f 1/75/85 47/77/85 53/78/85
f 52/76/86 1/75/86 53/78/86
f 51/73/87 57/79/87 5/80/87
f 4/74/88 51/73/88 5/80/88
f 48/81/89 54/82/89 53/78/89
f 47/77/90 48/81/90 53/78/90
f 58/83/91 7/84/91 5/80/91
f 57/79/92 58/83/92 5/80/92
f 58/83/93 59/85/93 23/86/93
f 7/84/94 58/83/94 23/86/94
f 48/81/95 44/87/95 55/88/95
f 54/82/96 48/81/96 55/88/96
f 45/89/97 56/90/97 55/88/97
f 44/87/98 45/89/98 55/88/98
