# Blender v2.78 (sub 0) OBJ File: 'Link_forarmR.blend'
# www.blender.org
mtllib Link_forarmR.mtl
o AdultLink
v -2.888803 8.455553 -0.699048
v -2.893221 8.663154 -1.018309
v -2.647421 8.818348 -0.327099
v -2.888069 9.180587 -0.699004
v -2.893243 8.893477 -1.017820
v -2.927305 8.659484 -1.022873
v -3.337510 8.397210 -0.698853
v -3.337451 8.600986 -1.069341
v -2.925237 8.896502 -1.023584
v -3.337452 8.971475 -1.069341
v -3.337510 9.249334 -0.698853
v -3.337560 8.823283 -0.383928
v -4.291441 8.935966 -0.448669
v -4.304444 9.028149 -0.890665
v -4.296520 8.516541 -0.528157
v -4.306762 8.625133 -0.994009
v -3.337431 8.471316 -1.199010
v -3.337428 9.175250 -1.217531
v -3.337511 9.397547 -0.698853
v -3.337510 8.323126 -0.698853
v -3.337575 8.878847 -0.291300
v -4.348881 8.600986 -1.088022
v -4.348881 9.008516 -1.088022
v -4.348943 8.452795 -0.699013
v -4.348996 8.878847 -0.365567
v -4.348943 9.175250 -0.699013
v -4.604436 8.826997 -0.694273
vt 0.5652 0.1727
vt 0.2463 0.1770
vt 0.3170 0.1760
vt 0.6195 0.1706
vt 1.2608 0.3003
vt 0.9103 0.3003
vt 0.4734 0.2965
vt 0.9340 0.2841
vt 0.2162 0.4593
vt 1.5768 0.2970
vt 1.2664 0.3254
vt 1.6656 0.6280
vt 1.3555 0.6280
vt 0.9057 0.3239
vt 0.7916 0.6280
vt 0.3687 0.6280
vt 0.9438 0.7850
vt 0.1007 0.7850
vt 1.6508 0.4588
vt 1.7869 0.7850
vt 5.4576 0.9774
vt 4.6198 0.9774
vt 3.9344 0.9774
vt 2.0656 0.9774
vt 3.0254 0.9774
vt 1.4576 0.9774
vt 1.4208 0.0305
vt 0.7337 0.0305
vt 0.6198 0.9774
vt 2.0863 0.0305
vt 3.0303 0.0305
vt 3.8888 0.0305
vt 4.7337 0.0305
vt 2.6787 -0.2087
vn 0.9998 -0.0001 -0.0220
vn 0.9995 -0.0063 -0.0307
vn 0.9546 -0.0008 -0.2980
vn 0.1612 -0.8264 -0.5396
vn 0.1130 -0.8706 -0.4788
vn 0.1785 -0.8229 -0.5394
vn 0.2075 0.7826 -0.5869
vn 0.1132 0.7412 -0.6617
vn 0.1126 0.0000 -0.9936
vn 0.1096 -0.0039 -0.9940
vn 0.1775 0.0021 -0.9841
vn 0.1331 -0.0041 -0.9911
vn 0.0774 -0.5926 0.8018
vn -0.0538 0.6977 0.7144
vn -0.0641 -0.6933 0.7178
vn 0.0908 0.5919 0.8008
vn 0.1876 0.7284 -0.6590
vn 1.0000 0.0000 0.0002
vn -0.1091 0.0000 -0.9940
vn -0.1227 -0.0261 -0.9921
vn -0.1189 -0.9279 -0.3535
vn -0.1523 -0.9476 -0.2808
vn -0.0577 -0.6153 0.7862
vn -0.0757 -0.5897 0.8041
vn -0.1622 0.7375 0.6556
vn -0.0576 0.6168 0.7850
vn -0.1980 0.9009 -0.3862
vn -0.7833 0.5713 -0.2450
vn -0.7094 0.5268 0.4682
vn -0.6641 -0.4609 0.5887
vn -0.8088 -0.5496 -0.2095
vn -0.8388 0.0000 -0.5444
usemtl gloveB
s off
f 15/1/1 16/2/1 14/3/1
f 13/4/2 15/1/2 14/3/2
usemtl footA
f 2/5/3 5/6/3 4/7/3 3/8/3 1/9/3
f 1/10/4 6/11/4 2/5/4
f 1/10/5 7/12/5 8/13/5
f 6/11/6 1/10/6 8/13/6
f 9/14/7 10/15/7 11/16/7
f 4/7/8 9/14/8 11/16/8
f 6/11/9 8/13/9 10/15/9
f 9/14/10 6/11/10 10/15/10
f 9/14/11 5/6/11 2/5/11
f 6/11/12 9/14/12 2/5/12
f 1/9/13 12/17/13 7/18/13
f 4/19/14 12/17/14 3/8/14
f 12/17/15 1/9/15 3/8/15
f 12/17/16 4/19/16 11/20/16
f 9/14/17 4/7/17 5/6/17
usemtl arm_grove
f 17/21/18 18/22/18 19/23/18
f 20/24/18 17/21/18 19/23/18
f 21/25/18 20/24/18 19/23/18
f 17/26/19 22/27/19 23/28/19
f 18/29/20 17/26/20 23/28/20
f 20/24/21 24/30/21 22/27/21
f 17/26/22 20/24/22 22/27/22
f 21/25/23 25/31/23 24/30/23
f 20/24/24 21/25/24 24/30/24
f 19/23/25 26/32/25 25/31/25
f 21/25/26 19/23/26 25/31/26
f 18/22/27 23/33/27 26/32/27
f 19/23/27 18/22/27 26/32/27
f 27/34/28 26/32/28 23/33/28
f 26/32/29 27/34/29 25/31/29
f 25/31/30 27/34/30 24/30/30
f 27/34/31 22/27/31 24/30/31
f 22/27/32 27/34/32 23/28/32
o Mesh_00802.001
v -4.518262 9.098068 -0.308262
v -4.402102 9.101742 -0.292583
v -4.384648 8.635152 -0.293804
v -4.496751 8.631619 -0.312195
v -4.275339 9.111641 -1.183351
v -4.391500 9.107967 -1.199030
v -4.369988 8.641521 -1.202966
v -4.259951 8.643757 -1.187729
v -4.375833 9.107678 -1.307430
v -4.350413 8.525116 -1.311588
v -4.261494 9.113482 -1.291433
v -4.238225 8.529136 -1.295971
v -4.506688 8.513664 -0.204342
v -4.532108 9.096229 -0.200181
v -4.417769 9.102031 -0.184185
v -4.396651 8.515902 -0.189105
v -3.130743 9.162973 -1.396837
v -3.562812 9.143313 -1.264674
v -3.535561 9.146517 -1.455155
v -3.164032 9.158818 -1.209571
v -3.531051 8.583757 -1.161494
v -3.185268 8.536407 -1.139114
v -3.524375 8.400222 -0.944362
v -3.232876 8.350695 -0.918306
v -3.553248 8.356648 -0.617823
v -3.283858 8.308541 -0.577881
v -3.612470 8.373380 -0.318858
v -3.327290 8.325365 -0.264094
v -3.678333 8.573542 -0.111033
v -3.336009 8.543684 -0.025543
v -3.741671 9.130250 -0.000888
v -3.342976 9.145268 0.056988
v -3.766687 9.129316 0.187198
v -3.360048 9.143642 0.245197
v -1.966445 9.327436 0.721353
v -2.528412 9.173246 0.860255
v -1.961790 9.196968 0.721494
v -2.533067 9.303714 0.860115
v -3.180690 9.148031 1.093491
v -3.185430 9.278011 1.096126
v -3.688932 9.126520 1.351860
v -3.695737 9.255205 1.351341
v -4.108391 9.113087 0.964271
v -4.115197 9.241771 0.963751
v -4.670152 9.093334 0.554003
v -4.674892 9.223314 0.556637
v -5.175769 9.073522 0.265739
v -5.180424 9.203989 0.265598
v -4.739717 9.404245 0.073773
v -4.963069 9.219136 -1.016682
v -4.520835 9.433248 -0.842307
v -4.834458 9.226100 -1.527008
v -4.648837 9.235918 -1.954885
v -4.096387 9.516606 -1.544898
v -4.434949 9.245646 -2.270213
v -3.808093 9.457137 -2.271039
v -4.122852 9.259136 -2.573263
v -3.598701 9.283783 -2.936559
v -3.048064 9.304583 -3.222387
v -3.199143 9.541067 -2.220358
v -3.563429 9.628804 -1.468681
v -3.313574 9.654330 -1.433591
v -3.428902 9.688353 -0.646449
v -3.997524 9.602417 -0.727743
v -3.572445 9.561046 0.409339
v -3.911356 9.544373 0.229864
v -3.740786 9.630403 -0.219459
v -3.493081 9.654144 -0.184748
v -4.389987 9.502938 0.015962
v -3.196200 9.569754 0.330811
v -2.676810 9.568956 0.260751
v -2.349196 9.497459 0.415801
v -4.958414 9.088669 -1.016541
v -4.829804 9.095632 -1.526866
v -4.642032 9.107233 -1.954365
v -4.430209 9.115666 -2.272847
v -4.118197 9.128669 -2.573123
v -3.594046 9.153316 -2.936418
v -3.041259 9.175899 -3.221867
v -2.592297 9.190183 -2.795987
v -2.597037 9.320163 -2.793351
v -2.188504 9.203905 -2.299998
v -2.193158 9.334373 -2.300138
v -1.973500 9.211983 -1.922509
v -1.980305 9.340667 -1.923029
v -1.856947 9.212873 -1.560770
v -1.861602 9.343342 -1.560910
v -1.800678 9.344556 -1.094863
v -1.796023 9.214087 -1.094722
v -1.814596 9.209360 -0.569160
v -1.819251 9.339828 -0.569301
v -2.306783 9.517698 -0.527302
v -2.525511 9.576303 -1.322783
v -2.595705 9.505209 -2.099241
v -3.064375 9.649366 -1.398148
v -2.853389 9.646091 -0.567411
v -3.241732 9.650965 -0.148925
v -4.108391 9.113087 0.964270
v -3.180690 9.148031 1.093490
v -3.688931 9.126520 1.351860
v -2.528412 9.173246 0.860255
v -4.670152 9.093334 0.554003
v -1.961790 9.196968 0.721493
v -5.175769 9.073522 0.265738
v -1.814596 9.209361 -0.569161
v -4.958414 9.088669 -1.016542
v -1.796023 9.214088 -1.094723
v -1.856946 9.212874 -1.560770
v -4.642032 9.107233 -1.954365
v -4.829804 9.095633 -1.526867
v -2.592297 9.190183 -2.795987
v -3.594046 9.153316 -2.936418
v -3.041259 9.175900 -3.221868
v -4.118197 9.128669 -2.573123
v -2.188503 9.203905 -2.299998
v -4.430209 9.115666 -2.272848
v -1.973499 9.211983 -1.922510
vt 0.0117 0.7969
vt 0.3086 0.8750
vt 0.0039 0.8359
vt 0.3633 0.8398
vt 0.6367 0.9375
vt 0.7188 0.9062
vt 0.9102 0.9922
vt 0.9883 0.9688
vt 0.6367 0.9375
vt 0.7188 0.9062
vt 0.3086 0.8750
vt 0.3633 0.8398
vt 0.0039 0.8359
vt 0.0117 0.7969
vt 0.2344 0.7578
vt 0.0430 0.5469
vt 0.3008 0.5625
vt 0.0625 0.4336
vt 0.1641 0.3438
vt 0.4961 0.3984
vt 0.2461 0.2617
vt 0.6016 0.2305
vt 0.4180 0.1914
vt 0.6484 0.1094
vt 1.0000 0.0352
vt 0.9883 0.2305
vt 0.8242 0.3984
vt 0.9961 0.3945
vt 1.0000 0.5820
vt 0.6367 0.5781
vt 0.9883 0.8047
vt 0.7656 0.7852
vt 0.8164 0.6836
vt 0.9883 0.6797
vt 0.4336 0.7422
vt 0.7656 0.7852
vt 0.4336 0.7422
vt 0.2344 0.7578
vt 0.0078 0.5391
vt 0.0273 0.4141
vt 0.1055 0.3242
vt 0.1992 0.2461
vt 0.3555 0.1562
vt 0.6250 0.0586
vt 1.0000 -0.0039
vt 0.6250 0.0586
vt 0.6484 0.1094
vt 0.3555 0.1562
vt 0.4180 0.1914
vt 0.1992 0.2461
vt 0.2461 0.2617
vt 0.1055 0.3242
vt 0.1641 0.3438
vt 0.0625 0.4336
vt 0.0273 0.4141
vt 0.0078 0.5391
vt 0.0430 0.5469
vt 0.3008 0.5625
vt 0.4961 0.3984
vt 0.6016 0.2305
vt 0.8242 0.3984
vt 0.6367 0.5781
vt 0.8164 0.6836
vt 0.1914 0.6211
vt 0.1914 0.5312
vt 0.7500 0.5312
vt 0.7500 0.6172
vt 0.2734 0.5312
vt 0.2734 0.6211
vt 0.8320 0.6172
vt 0.8320 0.5312
vt 0.8320 0.6172
vt 0.1719 0.6172
vt 0.2969 0.5273
vt 0.8320 0.5273
vt 0.8320 0.6172
vt 0.8320 0.5273
vt 0.2969 0.5273
vt 0.1719 0.6172
vt 0.8320 0.5273
vt 0.2969 0.5273
vt 0.1719 0.6172
vt 0.8320 0.6172
vt 0.8320 0.5273
vt 0.8320 0.6172
vt 0.1719 0.6172
vt 0.2969 0.5273
vt 0.2305 0.6133
vt 0.7891 0.6094
vt 0.7930 0.5234
vt 0.2344 0.5234
vt 0.2227 0.5312
vt 0.7812 0.5312
vt 0.7812 0.6172
vt 0.2227 0.6211
vt 0.2812 0.6172
vt 0.7539 0.6172
vt 0.7539 0.5312
vt 0.2812 0.5273
vt 0.2148 0.6133
vt 0.2148 0.5273
vt 0.8047 0.5312
vt 0.8047 0.6172
vt 0.2266 0.6133
vt 0.8164 0.6133
vt 0.7617 0.5430
vt 0.2812 0.5430
vt 0.8164 0.6133
vt 0.2266 0.6133
vt 0.2812 0.5430
vt 0.7617 0.5430
vt 0.1133 0.5039
vt 0.2188 0.6445
vt 0.1133 0.6445
vt 0.2188 0.5039
vt 0.2695 0.6445
vt 0.2695 0.5039
vt 0.3633 0.6445
vt 0.3633 0.5039
vt 0.5039 0.6445
vt 0.5000 0.5039
vt 0.6484 0.6445
vt 0.6484 0.5039
vt 0.7461 0.6445
vt 0.7461 0.5039
vt 0.7969 0.6445
vt 0.7969 0.5039
vt 0.9023 0.6445
vt 0.9023 0.5039
vt 0.3555 0.9297
vt 0.6445 0.9297
vt 0.5000 1.0000
vt 0.8320 0.8594
vt 0.1680 0.8594
vt 1.0000 0.8125
vt 0.0000 0.8125
vt 0.9883 0.5312
vt 0.0117 0.5312
vt 0.9727 0.4180
vt 0.9336 0.3203
vt 0.0664 0.3203
vt 0.0273 0.4180
vt 0.6562 0.0781
vt 0.3438 0.0781
vt 0.5000 0.0000
vt 0.1992 0.1719
vt 0.8008 0.1719
vt 0.1172 0.2461
vt 0.8828 0.2461
vn 0.5167 0.5119 0.6863
vn 0.2707 0.0107 0.9626
vn 0.8797 0.0337 0.4743
vn 0.2170 0.5480 0.8078
vn 0.3773 0.0016 0.9261
vn 0.2695 0.6460 0.7142
vn 0.3687 -0.3140 0.8749
vn 0.0876 -0.0028 0.9962
vn -0.2935 0.5033 0.8128
vn -0.6491 -0.0313 0.7601
vn -0.4884 0.6166 0.6175
vn -0.5574 -0.0338 0.8295
vn -0.4568 0.5229 0.7197
vn -0.7126 -0.3994 0.5768
vn -0.5145 -0.3470 0.7842
vn -0.8562 0.4637 0.2276
vn -0.7831 -0.0348 0.6209
vn -0.3221 0.9395 0.1166
vn -0.8347 0.5219 -0.1757
vn -0.3447 0.9356 -0.0768
vn -0.8565 0.4165 -0.3048
vn -0.7389 0.5432 -0.3987
vn -0.2827 0.9496 -0.1353
vn -0.6395 0.5475 -0.5397
vn -0.2146 0.9468 -0.2397
vn -0.5733 0.4175 -0.7050
vn -0.4672 0.4268 -0.7743
vn 0.1768 0.7429 -0.6456
vn -0.0142 0.9838 -0.1785
vn -0.1358 0.9845 -0.1106
vn -0.0270 0.9949 -0.0967
vn -0.0404 0.9992 0.0057
vn -0.2115 0.9770 -0.0274
vn -0.0699 0.9694 0.2354
vn -0.1772 0.9570 0.2296
vn -0.1364 0.9867 0.0887
vn -0.0563 0.9927 0.1069
vn -0.2304 0.9596 0.1618
vn 0.0345 0.9646 0.2615
vn 0.1017 0.9723 0.2105
vn 0.2037 0.9597 0.1936
vn -0.9805 -0.0353 -0.1933
vn -0.9539 -0.0345 -0.2983
vn -0.8903 -0.0432 -0.4533
vn -0.8287 -0.3566 -0.4315
vn -0.7879 -0.0253 -0.6153
vn -0.7142 -0.5882 -0.3793
vn -0.6546 -0.0192 -0.7558
vn -0.5329 -0.0201 -0.8459
vn -0.0917 -0.0053 -0.9958
vn 0.7178 0.0382 -0.6952
vn 0.6487 0.4740 -0.5954
vn 0.8077 0.0329 -0.5887
vn 0.7352 0.4685 -0.4899
vn 0.9004 0.0414 -0.4331
vn 0.7397 0.5992 -0.3062
vn 0.9747 0.0384 -0.2202
vn 0.6900 0.7088 -0.1466
vn 0.9137 0.4043 -0.0411
vn 0.9983 0.0356 -0.0469
vn 0.9975 0.0358 0.0616
vn 0.8095 0.5825 0.0741
vn 0.2793 0.9601 0.0112
vn 0.2379 0.9694 -0.0606
vn 0.2017 0.9625 -0.1813
vn 0.0858 0.9932 -0.0786
vn 0.1379 0.9902 0.0214
vn 0.0310 0.9930 0.1137
vn 0.1475 0.0117 -0.9890
vn 0.1335 0.0076 -0.9910
vn 0.1614 0.0158 -0.9868
vn 0.5726 0.0201 -0.8196
vn -0.1352 -0.0141 0.9907
vn -0.1333 -0.0145 0.9910
vn 0.5948 0.0170 0.8037
vn -0.9895 -0.0433 -0.1380
vn -0.9264 -0.3524 -0.1326
vn -0.9895 -0.0404 -0.1391
vn -0.9888 -0.0444 -0.1428
vn -0.9895 -0.0404 -0.1390
vn 0.9892 0.0347 0.1426
vn 0.9913 0.0314 0.1275
vn 0.9893 0.0361 0.1414
vn 0.9876 0.0456 0.1499
vn 0.9892 0.0347 0.1427
vn 0.8916 0.2653 0.3669
vn -0.9901 -0.0434 -0.1337
vn -0.9892 -0.0413 -0.1403
vn -0.9257 -0.3552 -0.1303
vn -0.9909 -0.0423 -0.1277
vn -0.9257 -0.3552 -0.1302
vn 0.9882 0.0355 0.1488
vn 0.9891 0.0344 0.1429
vn 0.9888 0.0365 0.1445
vn 0.9888 0.0292 0.1466
vn 0.9882 0.0355 0.1489
vn 0.9245 0.0322 0.3798
vn -0.1372 -0.0131 0.9905
vn -0.1369 -0.0130 0.9905
vn 0.3165 0.0045 0.9486
vn -0.1379 -0.0133 0.9904
vn -0.1376 -0.0132 0.9904
vn 0.1374 0.0132 -0.9904
vn 0.1379 0.0131 -0.9904
vn -0.0269 0.9996 0.0066
vn 0.8651 0.4830 0.1357
vn -0.0326 0.9994 0.0065
vn 0.0291 -0.9996 -0.0070
vn -0.9257 -0.3553 -0.1302
vn -0.6740 -0.7318 -0.1007
vn 0.0367 -0.9993 -0.0067
vn 0.0290 -0.9996 -0.0070
vn 0.9510 0.2765 0.1383
vn 0.9507 0.0329 -0.3083
vn -0.9896 -0.0406 -0.1381
vn -0.9892 -0.0412 -0.1403
vn 0.0415 -0.9991 -0.0129
vn 0.0935 -0.9041 -0.4169
vn 0.0422 -0.9991 -0.0108
vn 0.0973 -0.5413 -0.8352
vn 0.0451 -0.3725 -0.9269
vn -0.0301 -0.5809 -0.8134
vn -0.0989 -0.8623 -0.4966
vn -0.1302 -0.9369 -0.3245
vn -0.1622 -0.9827 -0.0897
vn -0.1683 -0.9852 -0.0319
vn -0.2087 -0.9485 0.2384
vn -0.2263 -0.8580 0.4611
vn -0.2520 -0.5815 0.7735
vn -0.2160 -0.3757 0.9012
vn -0.1489 -0.5682 0.8093
vn -0.0271 -0.9092 0.4156
vn 0.0368 -0.9993 -0.0026
vn 0.0360 -0.9993 -0.0054
vn 0.0381 -0.9993 -0.0043
vn 0.0383 -0.9993 -0.0046
vn 0.0386 -0.9992 -0.0072
vn 0.0381 -0.9993 -0.0042
vn 0.0382 -0.9993 -0.0058
vn 0.1854 -0.8913 0.4139
vn 0.0382 -0.9993 -0.0044
vn 0.0383 -0.9993 -0.0045
vn 0.0387 -0.9992 -0.0050
vn -0.1189 -0.9552 0.2709
vn -0.1194 -0.9556 0.2694
vn 0.0388 -0.9992 -0.0028
vn 0.0393 -0.9992 -0.0063
vn 0.0391 -0.9992 -0.0051
vn 0.0457 -0.9989 -0.0035
vn 0.0395 -0.9992 -0.0051
vn 0.0393 -0.9992 -0.0065
vn -0.1554 -0.9783 -0.1372
vn 0.0719 -0.9974 0.0045
vn 0.0473 -0.9989 -0.0032
vn 0.0458 -0.9989 -0.0035
vn 0.0386 -0.9992 -0.0076
vn 0.0381 -0.9992 -0.0092
vn 0.0376 -0.9993 -0.0062
vn 0.0391 -0.9992 -0.0064
vn 0.0394 -0.9992 -0.0025
vn 0.0393 -0.9992 -0.0009
vn 0.0393 -0.9992 -0.0039
vn -0.3475 -0.9126 -0.2153
vn 0.0393 -0.9992 -0.0038
usemtl Mesh_0080_rip.001
s 1
f 62/35/33 63/36/34 64/37/35
f 65/38/36 63/36/34 62/35/33
f 65/38/36 66/39/37 63/36/34
f 67/40/38 66/39/39 65/38/36
f 67/40/38 68/41/40 66/39/37
f 69/42/41 68/41/40 67/40/38
f 69/42/41 70/43/42 68/41/40
f 71/44/43 70/43/42 69/42/41
f 71/44/43 72/45/44 70/43/42
f 73/46/45 72/45/44 71/44/43
f 73/46/45 74/47/46 72/45/47
f 75/48/48 74/47/49 73/46/45
f 76/49/50 77/50/51 75/48/48
f 78/51/52 77/50/51 76/49/50
f 78/51/52 79/52/53 77/50/51
f 78/51/52 80/53/54 79/52/53
f 81/54/55 80/53/54 78/51/52
f 81/54/55 82/55/56 80/53/54
f 83/56/57 82/55/56 81/54/55
f 83/56/57 84/57/58 82/55/56
f 83/56/57 85/58/59 84/57/58
f 83/56/57 86/59/60 85/58/59
f 83/56/57 87/60/61 86/59/60
f 88/61/62 87/60/61 83/56/57
f 88/61/62 89/62/63 87/60/61
f 88/61/62 90/63/64 89/62/63
f 88/61/62 91/64/65 90/63/64
f 88/61/62 81/54/55 91/64/65
f 83/56/57 81/54/55 88/61/62
f 92/65/66 71/44/43 69/42/41
f 92/65/66 93/66/67 71/44/43
f 92/65/66 94/67/68 93/66/67
f 95/68/69 94/67/68 92/65/66
f 90/63/64 94/67/68 95/68/69
f 91/64/65 94/67/68 90/63/64
f 96/69/70 94/67/68 91/64/65
f 96/69/70 93/66/67 94/67/68
f 96/69/70 71/44/43 93/66/67
f 96/69/70 73/46/45 71/44/43
f 76/49/50 73/46/45 96/69/70
f 76/49/50 75/48/48 73/46/45
f 67/40/38 92/65/66 69/42/41
f 67/40/38 97/70/71 92/65/66
f 67/40/38 98/71/72 97/70/71
f 65/38/36 98/71/72 67/40/38
f 65/38/36 99/72/73 98/71/72
f 62/35/33 99/72/73 65/38/36
f 75/48/48 100/73/74 74/47/49
f 77/50/51 100/73/74 75/48/48
f 77/50/51 101/74/75 100/73/74
f 79/52/53 101/74/75 77/50/51
f 79/52/53 102/75/76 101/74/75
f 80/53/54 102/75/77 79/52/53
f 80/53/54 103/76/78 102/75/79
f 82/55/56 103/76/78 80/53/54
f 82/55/56 104/77/80 103/76/78
f 84/57/58 104/77/80 82/55/56
f 84/57/58 105/78/81 104/77/80
f 85/58/59 105/78/81 84/57/58
f 85/58/59 106/79/82 105/78/81
f 86/59/60 106/79/82 85/58/59
f 86/59/60 107/80/83 106/79/82
f 108/81/84 107/80/83 86/59/60
f 108/81/84 109/82/85 107/80/83
f 110/83/86 109/82/85 108/81/84
f 110/83/86 111/84/87 109/82/85
f 112/85/88 111/84/87 110/83/86
f 112/85/88 113/86/89 111/84/87
f 114/87/90 113/86/89 112/85/88
f 115/88/91 113/86/89 114/87/90
f 115/88/91 116/89/92 113/86/89
f 115/88/91 117/90/93 116/89/92
f 118/91/94 117/90/93 115/88/91
f 118/91/94 64/37/35 117/90/93
f 62/35/33 64/37/35 118/91/94
f 118/91/94 99/72/73 62/35/33
f 118/91/94 119/92/95 99/72/73
f 115/88/91 119/92/95 118/91/94
f 114/87/90 119/92/95 115/88/91
f 114/87/90 120/93/96 119/92/95
f 112/85/88 120/93/96 114/87/90
f 112/85/88 121/94/97 120/93/96
f 110/83/86 121/94/97 112/85/88
f 108/81/84 121/94/97 110/83/86
f 86/59/60 121/94/97 108/81/84
f 87/60/61 121/94/97 86/59/60
f 87/60/61 122/95/98 121/94/97
f 89/62/63 122/95/98 87/60/61
f 90/63/64 122/95/98 89/62/63
f 123/96/99 122/95/98 90/63/64
f 120/93/96 122/95/98 123/96/99
f 120/93/96 121/94/97 122/95/98
f 119/92/95 98/71/72 99/72/73
f 119/92/95 123/96/99 98/71/72
f 120/93/96 123/96/99 119/92/95
f 78/51/52 91/64/65 81/54/55
f 78/51/52 96/69/70 91/64/65
f 76/49/50 96/69/70 78/51/52
f 124/97/100 98/71/72 123/96/99
f 124/97/100 97/70/71 98/71/72
f 124/97/100 92/65/66 97/70/71
f 124/97/100 95/68/69 92/65/66
f 124/97/100 90/63/64 95/68/69
f 123/96/99 90/63/64 124/97/100
usemtl Mesh_0078_rip.001
f 28/98/101 29/99/102 30/100/101
f 31/101/103 28/98/101 30/100/104
f 32/102/105 33/103/106 34/104/105
f 35/105/107 32/102/105 34/104/105
f 36/106/108 37/107/109 34/108/110
f 33/109/111 36/106/108 34/108/112
f 38/110/113 32/111/114 35/112/115
f 39/113/116 38/110/117 35/112/118
f 28/114/119 31/115/120 40/116/121
f 41/117/122 28/114/119 40/116/123
f 29/118/124 42/119/125 43/120/126
f 30/121/127 29/118/128 43/120/129
f 41/122/130 40/123/131 43/124/132
f 42/125/133 41/122/134 43/124/134
f 38/126/135 39/127/135 37/128/135
f 36/129/136 38/126/136 37/128/136
f 30/130/137 35/131/138 34/132/137
f 31/133/139 30/130/137 34/132/137
f 43/134/140 40/135/141 37/136/142
f 39/137/143 43/134/144 37/136/144
f 43/138/126 39/139/116 35/140/145
f 30/141/146 43/138/126 35/140/115
f 37/142/109 40/143/121 31/144/120
f 34/145/112 37/142/147 31/144/148
usemtl Mesh_0079_rip.001
f 44/146/149 45/147/150 46/148/151
f 47/149/152 45/147/150 44/146/149
f 47/149/152 48/150/153 45/147/150
f 49/151/154 48/150/153 47/149/152
f 49/151/154 50/152/155 48/150/153
f 51/153/156 50/152/155 49/151/154
f 51/153/156 52/154/157 50/152/155
f 53/155/158 52/154/157 51/153/156
f 53/155/158 54/156/159 52/154/157
f 55/157/160 54/156/159 53/155/158
f 55/157/160 56/158/161 54/156/159
f 57/159/162 56/158/161 55/157/160
f 57/159/162 58/160/163 56/158/161
f 59/161/164 58/160/163 57/159/162
f 59/161/164 60/162/165 58/160/163
f 61/163/166 60/162/165 59/161/164
usemtl Mesh_0081_rip.001
f 125/164/167 126/165/168 127/166/169
f 125/164/170 128/167/171 126/165/172
f 129/168/173 128/167/171 125/164/170
f 129/168/174 130/169/175 128/167/171
f 131/170/176 130/169/175 129/168/177
f 131/170/178 132/171/179 130/169/180
f 133/172/181 132/171/179 131/170/178
f 133/172/181 134/173/182 132/171/179
f 133/172/181 135/174/183 134/173/182
f 133/172/181 136/175/184 135/174/183
f 137/176/185 136/175/186 133/172/187
f 138/177/188 139/178/189 140/179/190
f 138/177/188 141/180/191 139/178/189
f 142/181/192 141/180/191 138/177/188
f 142/181/192 143/182/193 141/180/191
f 144/183/194 143/182/193 142/181/192
f 144/183/194 136/175/186 143/182/193
f 135/174/183 136/175/195 144/183/196
