# Blender v2.78 (sub 0) OBJ File: 'Link_handR.blend'
# www.blender.org
mtllib Link_handR.mtl
o AdultLink
v -4.699975 9.132427 -0.394630
v -4.291586 8.935966 -0.447282
v -4.304732 9.028149 -0.889273
v -4.739134 9.221097 -0.965042
v -5.307163 9.186300 -0.367005
v -5.255394 9.285687 -0.995039
v -4.296690 8.516541 -0.526768
v -4.307084 8.625133 -0.992617
v -4.552238 8.407126 -0.318080
v -4.923411 8.545379 -0.561372
v -4.975265 9.008405 -1.129113
v -5.051297 8.709534 -0.261412
v -4.985660 8.484146 -0.114544
v -5.040269 8.355076 -0.399622
v -5.395708 8.866684 -0.284501
v -5.359890 9.064391 -1.102814
v -5.789416 8.896723 -1.005468
v -5.774025 9.014964 -0.975321
v -5.884179 8.768099 -0.605260
v -5.859167 8.908773 -0.616136
v -5.473228 8.713913 -0.219987
v -5.502941 8.572816 -0.270387
v -5.496309 8.683497 -0.369352
v -4.604661 8.826997 -0.692784
vt 0.3098 0.8914
vt 0.3121 0.8743
vt 0.1497 0.3236
vt 0.0953 0.4432
vt 0.9186 0.7413
vt 0.8163 0.7450
vt 0.8888 0.3104
vt 0.9469 0.3881
vt 0.7936 0.8188
vt 0.9534 0.3084
vt 0.6072 -0.2910
vt 0.6480 -0.0260
vt 0.7520 -0.3322
vt 0.5983 -0.0074
vt 0.5008 -0.0115
vt 0.4710 -0.2979
vt 0.3116 -0.3713
vt 0.5652 0.1727
vt 0.2463 0.1770
vt 0.3170 0.1760
vt 0.6195 0.1706
vt 0.8596 1.0343
vt -0.3288 0.9366
vt 0.1101 1.1241
vt 0.2328 0.5955
vt 0.7625 1.1391
vt 0.0007 0.9487
vt 0.2892 1.1445
vt -0.1492 1.0204
vt 0.6689 0.4344
vt 0.7181 0.8745
vt -0.0970 0.3067
vt 0.9864 0.4132
vt 0.9818 0.6220
vt -0.0595 0.4171
vt 0.0356 0.3826
vt -0.2093 0.5201
vt -0.0359 0.5589
vt 0.7419 0.0622
vt 0.0588 0.0660
vt 0.0865 0.0207
vt 0.3977 -0.0155
vt -0.2181 -0.0257
vt 0.9307 0.0547
vt 0.0529 0.5644
vt 0.1430 0.9747
vt 0.8454 0.9571
vt 0.9590 0.5193
vt -0.0005 -0.0462
vt 0.9986 -0.0003
vn -0.1741 0.2645 -0.9485
vn -0.3817 0.5441 -0.7471
vn -0.9697 0.1708 -0.1747
vn -0.9702 0.1583 -0.1832
vn -0.4528 0.8785 0.1524
vn -0.4820 0.8707 0.0981
vn 0.3139 -0.9260 -0.2100
vn 0.3284 -0.9191 -0.2176
vn -0.5626 0.3493 0.7494
vn -0.4686 0.1506 0.8705
vn 0.0866 0.5615 0.8229
vn -0.3190 -0.2585 0.9118
vn -0.0093 0.9801 -0.1981
vn -0.9794 0.1641 0.1179
vn -0.2789 -0.8536 0.4399
vn -0.4599 -0.5764 -0.6755
vn -0.3796 -0.4527 -0.8068
vn 0.0596 0.8862 -0.4595
vn 0.9998 -0.0001 -0.0223
vn 0.9995 -0.0063 -0.0310
vn 0.6627 -0.1472 0.7343
vn -0.1208 -0.9309 -0.3448
vn 0.2215 -0.9486 -0.2261
vn 0.2684 0.2378 -0.9335
vn 0.3511 0.2956 -0.8885
vn -0.3111 -0.7502 -0.5834
vn 0.1934 0.1419 0.9708
vn 0.1964 0.1424 0.9701
vn 0.4288 0.5775 0.6947
vn 0.1896 -0.7009 -0.6876
vn 0.0292 -0.9127 0.4076
vn 0.0437 0.2383 0.9702
vn 0.0661 0.2494 0.9661
vn -0.3732 -0.8666 -0.3312
vn -0.9159 -0.3479 -0.2001
vn 0.1146 0.5239 -0.8440
vn 0.0021 0.4370 -0.8994
vn -0.1558 -0.9586 -0.2384
vn 0.4449 0.8793 0.1701
vn 0.3863 0.9151 0.1157
vn 0.0940 0.9847 0.1466
vn 0.1130 0.9799 0.1644
usemtl hand
s off
f 17/1/1 18/2/1 6/3/1
f 16/4/2 17/1/2 6/3/2
f 18/2/3 17/1/3 19/5/3
f 20/6/4 18/2/4 19/5/4
f 6/3/5 18/2/5 20/6/5
f 5/7/6 6/3/6 20/6/6
f 17/1/7 16/4/7 15/8/7
f 19/9/8 17/1/8 15/8/8
f 19/5/9 15/10/9 5/7/9
f 20/6/10 19/5/10 5/7/10
f 12/11/11 21/12/11 13/13/11
f 22/14/12 13/13/12 21/12/12
f 21/12/13 12/11/13 23/15/13
f 21/12/14 23/15/14 22/14/14
f 13/13/15 22/14/15 14/16/15
f 23/15/16 14/16/16 22/14/16
f 14/16/17 23/15/17 10/17/17
f 23/15/18 12/11/18 10/17/18
usemtl gloveB
f 7/18/19 8/19/19 3/20/19
f 2/21/20 7/18/20 3/20/20
f 2/22/21 9/23/21 7/24/21
f 10/25/22 8/26/22 9/27/22
f 9/27/23 8/26/23 7/28/23
f 8/29/24 4/30/24 3/31/24
f 8/29/25 11/32/25 4/30/25
f 11/33/26 8/26/26 10/25/26
f 9/23/27 2/22/27 1/34/27
f 1/34/28 12/35/28 9/23/28
f 12/36/29 13/37/29 9/27/29
f 9/27/30 14/38/30 10/25/30
f 14/38/31 9/27/31 13/37/31
f 12/35/32 5/39/32 15/40/32
f 5/39/33 12/35/33 1/34/33
f 12/36/34 15/41/34 11/33/34
f 12/36/35 11/33/35 10/25/35
f 11/32/36 6/42/36 4/30/36
f 16/43/37 6/42/37 11/32/37
f 11/33/38 15/41/38 16/44/38
usemtl gloveA
f 1/45/39 2/46/39 3/47/39
f 4/48/40 1/45/40 3/47/40
f 5/49/41 1/45/41 4/48/41
f 6/50/42 5/49/42 4/48/42
