# Blender v2.78 (sub 0) OBJ File: 'Cloud_legL.blend'
# www.blender.org
mtllib Cloud_legL.mtl
o 0001_r_sym307
v 0.041464 0.345144 -0.003897
v 0.022749 0.375134 -0.010409
v 0.091395 0.362823 -0.017906
v 0.083962 0.393636 -0.023985
v 0.131299 0.319776 0.060866
v 0.071367 0.308042 0.078862
v 0.100556 0.320090 -0.048537
v 0.042566 0.302773 -0.032589
v 0.131554 0.346945 0.082050
v 0.126712 0.368752 0.078408
v 0.072100 0.335386 0.098711
v 0.066700 0.355724 0.094793
v 0.091171 0.484657 0.077317
v 0.023285 0.454684 0.095164
v 0.124007 0.444559 0.006166
v 0.047321 0.568667 -0.015290
v 0.029401 0.557091 -0.041965
v 0.124007 0.444559 0.006166
v 0.124007 0.444559 0.006166
v 0.009179 0.561885 0.077162
v 0.060540 0.578408 0.076075
v -0.002597 0.497213 -0.040568
v -0.020526 0.557323 0.018180
v -0.001866 0.454159 0.044427
v -0.019436 0.565537 0.069124
v 0.022749 0.375134 -0.010409
v 0.018302 0.352698 0.043849
v -0.001866 0.454159 0.044427
v 0.049634 0.507426 -0.038776
v 0.112539 0.473483 0.011004
v 0.018302 0.352698 0.043849
v 0.018302 0.352698 0.043849
v -0.020526 0.556954 0.018180
v 0.152672 0.390873 0.006388
v -0.001866 0.454159 0.044427
v 0.035064 0.329755 0.035700
v 0.072100 0.335386 0.098711
v -0.002821 0.547193 -0.033316
v 0.054753 0.595364 0.056449
v 0.035064 0.329755 0.035700
v 0.143729 0.297409 -0.017591
v 0.159023 0.312256 -0.016755
v 0.091171 0.484657 0.077317
v 0.043975 0.289272 0.014233
v 0.142007 0.342119 -0.001263
v 0.043975 0.280097 0.014233
vt 0.7165 1.7387
vt 0.7165 1.7747
vt 0.7713 1.7502
vt 0.7713 1.7794
vt 0.7713 1.7037
vt 0.7165 1.6930
vt 0.8947 1.7077
vt 0.8947 1.7280
vt 0.9480 1.7078
vt 0.8947 1.7432
vt 0.9480 1.7291
vt 0.9480 1.7440
vt 0.8947 1.8453
vt 0.9637 1.8348
vt 0.9682 1.8822
vt 0.8947 1.8961
vt 0.7312 1.8772
vt 0.6816 1.8770
vt 0.9963 1.8379
vt 0.9895 1.8971
vt 0.6816 1.6992
vt 0.6816 1.6992
vt 0.6816 1.6992
vt 0.7781 1.8793
vt 0.8305 1.8333
vt 0.7312 1.8945
vt 0.7781 1.9001
vt 0.9963 1.7500
vt 0.6816 1.7578
vt 0.9963 1.8672
vt 0.8305 1.7596
vt 0.6816 1.8457
vt 0.9963 1.7227
vt 0.9480 1.7291
vt 0.7242 1.8808
vt 0.8305 1.9188
vt 0.6816 1.7383
vt 0.8132 1.6829
vt 0.8305 1.6992
vt 0.8947 1.8452
vt 0.6816 1.6992
vt 0.8305 1.7222
vt 0.9963 1.6836
vn -0.7656 -0.1972 -0.6123
vn -0.7096 -0.3537 -0.6094
vn -0.1057 0.1745 -0.9790
vn 0.2190 -0.0611 -0.9738
vn 0.1275 0.5395 -0.8323
vn -0.7788 0.2954 -0.5534
vn 0.8091 -0.1888 0.5565
vn 0.7768 -0.1970 0.5981
vn 0.3717 -0.4198 0.8280
vn 0.4853 0.2124 0.8482
vn -0.2182 -0.1497 0.9643
vn -0.4033 -0.1713 0.8989
vn 0.6576 0.2602 0.7070
vn -0.3918 -0.0181 0.9199
vn -0.2631 -0.1247 0.9567
vn 0.0147 0.0095 0.9998
vn -0.6311 -0.1410 -0.7628
vn -0.6990 -0.2291 -0.6775
vn -0.9411 -0.1503 0.3030
vn -0.6941 -0.2792 0.6636
vn -0.7017 -0.3709 -0.6083
vn -0.8838 -0.4361 0.1698
vn -0.9224 -0.2757 0.2706
vn 0.4711 0.1037 -0.8760
vn 0.8118 0.3671 -0.4541
vn 0.4539 0.2255 -0.8621
vn 0.9527 0.1172 -0.2803
vn -0.8837 -0.4361 0.1697
vn -0.4431 -0.3242 -0.8358
vn 0.8971 0.2570 -0.3595
vn -0.9812 -0.1800 0.0700
vn -0.9175 -0.3120 0.2466
vn -0.8773 -0.3322 0.3464
vn -0.2631 -0.1512 0.9529
vn -0.7651 0.0317 -0.6431
vn 0.9516 0.2754 -0.1361
vn -0.9020 -0.3556 0.2447
vn 0.3689 -0.1869 -0.9105
vn 0.7540 0.3392 -0.5625
vn 0.7143 0.2923 0.6358
vn 0.9499 0.3119 -0.0207
vn -0.8758 -0.4585 0.1510
vn 0.9797 0.0717 -0.1870
vn -0.7750 -0.5866 0.2350
usemtl diss_00.png
s 1
f 1/1/1 2/2/2 3/3/3
f 4/4/4 3/3/3 2/2/2
f 7/5/5 8/6/6 3/3/3
f 1/1/1 3/3/3 8/6/6
f 5/7/7 9/8/8 6/9/9
f 9/8/8 10/10/10 11/11/11
f 11/11/11 6/9/9 9/8/8
f 12/12/12 11/11/11 10/10/10
f 13/13/13 14/14/14 10/10/10
f 12/12/12 10/10/10 14/14/14
f 13/13/13 20/15/15 14/14/14
f 20/15/15 13/13/13 21/16/16
f 22/17/17 4/4/4 2/2/2
f 2/2/2 23/18/18 22/17/17
f 14/14/14 20/15/15 24/19/19
f 25/20/20 24/19/19 20/15/15
f 26/21/21 27/22/22 28/23/23
f 22/17/17 29/24/24 4/4/4
f 30/25/25 4/4/4 29/24/24
f 29/24/24 22/17/17 17/26/26
f 29/24/24 17/26/26 16/27/27
f 24/19/19 31/28/28 14/14/14
f 31/28/28 12/12/12 14/14/14
f 32/29/28 2/2/2 1/1/1
f 24/19/19 25/20/20 33/30/29
f 34/31/30 10/10/10 9/8/8
f 34/31/30 4/4/4 30/25/25
f 4/4/4 34/31/30 3/3/3
f 3/3/3 34/31/30 7/5/5
f 23/18/18 2/2/2 35/32/31
f 12/12/12 31/28/28 36/33/32
f 36/33/32 6/9/33 37/34/34
f 12/12/12 36/33/32 37/34/34
f 38/35/35 22/17/17 23/18/18
f 22/17/17 38/35/35 17/26/26
f 39/36/36 29/24/24 16/27/27
f 29/24/24 39/36/36 30/25/25
f 1/1/1 40/37/37 32/29/28
f 40/37/37 1/1/1 8/6/6
f 41/38/38 7/5/5 42/39/39
f 34/31/30 30/25/25 43/40/40
f 10/10/10 34/31/30 43/40/40
f 43/40/40 39/36/36 21/16/41
f 43/40/40 30/25/25 39/36/36
f 8/6/6 44/41/42 40/37/37
f 45/42/43 34/31/30 9/8/8
f 45/42/43 7/5/5 34/31/30
f 42/39/39 7/5/5 45/42/43
f 5/7/7 42/39/39 45/42/43
f 9/8/8 5/7/7 45/42/43
f 46/43/44 6/9/33 36/33/32
