# Blender v2.78 (sub 0) OBJ File: 'Cloud_Body.blend'
# www.blender.org
mtllib Cloud_Body.mtl
o 0002_r_sym307
v -0.069017 0.706693 0.052427
v -0.080377 0.663534 0.074075
v -0.095285 0.697267 0.006240
v -0.092808 0.674411 0.012656
v 0.040487 0.689713 0.057667
v 0.066847 0.672103 0.013993
v 0.036196 0.645453 0.079656
v 0.057000 0.651171 0.019810
v 0.037576 0.641396 -0.024320
v -0.013847 0.667294 -0.054088
v 0.042684 0.661156 -0.035360
v 0.026544 0.682648 0.067047
v -0.018019 0.681214 0.078337
v 0.038093 0.619659 -0.031435
v 0.059711 0.625500 0.026207
v -0.022623 0.655228 0.090440
v -0.017807 0.645470 -0.042172
v -0.058800 0.695886 0.062972
v -0.025843 0.617036 -0.046653
v 0.016228 0.705696 0.065039
v -0.011149 0.721837 0.066695
v -0.080472 0.632075 -0.028122
v -0.041869 0.714720 0.062257
v -0.102795 0.650541 0.019153
v -0.073227 0.658585 -0.029609
v -0.071074 0.678801 -0.040793
vt 1.2735 1.2148
vt 1.2995 1.0039
vt 1.5078 1.2148
vt 1.5078 1.1172
vt 1.2735 1.2148
vt 1.5078 1.2148
vt 1.2995 1.0039
vt 1.5078 1.1172
vt 1.7383 1.1172
vt 1.9961 1.2148
vt 1.7383 1.2148
vt 1.2070 1.1640
vt 1.0087 1.1250
vt 1.7383 1.0039
vt 1.5078 1.0039
vt 1.0087 1.0039
vt 1.9961 1.1172
vt 1.2070 1.1640
vt 1.9961 1.0039
vt 1.1445 1.2500
vt 1.0087 1.3008
vt 1.7383 1.0039
vt 1.1445 1.2500
vt 1.5078 1.0039
vt 1.7383 1.1172
vt 1.7383 1.2148
vn -0.9387 -0.0084 0.3447
vn 0.9400 0.0025 -0.3411
vn 0.9437 -0.3187 -0.0884
vn -0.7445 0.4286 0.5119
vn 0.8558 -0.2867 0.4305
vn -0.9834 -0.0196 -0.1804
vn -0.8593 0.2816 -0.4270
vn 0.7882 0.1906 0.5851
vn 0.4847 0.4082 -0.7735
vn 0.4847 0.4083 -0.7735
vn 0.1468 -0.0000 -0.9892
vn 0.6038 0.7071 -0.3680
vn -0.3819 0.8944 0.2327
vn -0.4656 -0.4472 -0.7637
vn -0.0000 1.0000 0.0000
vn -0.9946 -0.1040 0.0039
vn 0.2700 -0.9487 -0.1646
vn 0.9400 0.0025 -0.3412
vn -0.0827 -0.1475 -0.9856
vn 0.1468 0.0001 -0.9892
vn 0.1925 0.5774 -0.7935
vn -0.0827 -0.1474 -0.9856
vn 0.0001 1.0000 0.0000
vn 0.2272 0.0886 -0.9698
vn 0.7638 -0.4471 -0.4655
vn -0.4655 -0.4472 -0.7637
vn 0.7637 -0.4472 -0.4655
vn 0.2581 -0.2212 0.9405
vn 0.1926 0.5774 -0.7935
vn 0.8524 -0.2120 0.4779
vn -0.7444 0.4286 0.5120
vn 0.9267 -0.3514 0.1333
vn -0.2199 0.0054 -0.9755
vn -0.0816 -0.2182 -0.9725
vn 0.9437 -0.3186 -0.0884
vn -0.2862 -0.4403 -0.8510
vn 0.9015 0.1320 0.4122
usemtl diss_01.png
s 1
f 1/1/1 2/2/2 3/3/3
f 4/4/4 3/3/3 2/2/2
f 1/1/1 3/3/3 4/4/4
f 4/4/4 2/2/2 1/1/1
f 5/5/5 6/6/6 7/7/7
f 8/8/8 7/7/7 6/6/6
f 7/7/7 8/8/8 5/5/5
f 8/8/8 6/6/6 5/5/5
f 6/6/6 9/9/9 8/8/8
f 9/9/10 10/10/11 11/11/12
f 9/9/9 6/6/6 11/11/12
f 5/5/5 12/12/13 7/7/7
f 7/7/7 12/12/13 13/13/14
f 14/14/15 8/8/8 9/9/9
f 8/8/8 15/15/16 7/7/7
f 8/8/8 14/14/15 15/15/16
f 7/7/7 13/13/14 16/16/17
f 13/13/14 2/2/18 16/16/17
f 17/17/19 9/9/9 10/10/20
f 9/9/9 17/17/19 14/14/15
f 18/18/21 2/2/18 13/13/14
f 18/18/21 2/2/2 1/1/1
f 17/17/22 14/14/23 19/19/24
f 13/13/14 12/12/13 20/20/25
f 20/20/25 13/13/26 21/21/27
f 17/17/19 22/22/28 19/19/28
f 13/13/26 18/18/29 23/23/12
f 13/13/26 23/23/12 21/21/27
f 22/22/30 4/4/31 24/24/32
f 24/24/32 4/4/31 2/2/18
f 17/17/19 22/22/33 25/25/34
f 25/25/34 4/4/31 22/22/30
f 4/4/31 25/25/34 3/3/35
f 10/10/20 25/25/34 17/17/19
f 10/10/11 25/25/34 26/26/36
f 3/3/35 25/25/34 26/26/37
o 0001_r_sym307
v 0.029248 0.636674 -0.022091
v -0.023410 0.635957 -0.036279
v -0.062955 0.799778 0.040129
v -0.059182 0.774526 0.036541
v -0.011849 0.799183 0.047973
v -0.012280 0.780035 0.045552
v 0.038124 0.796490 0.046164
v 0.034867 0.771850 0.041022
v -0.075248 0.639087 -0.020861
v -0.079982 0.788988 0.024458
v 0.069801 0.830275 0.016083
v 0.057507 0.785071 0.030991
v -0.091367 0.788551 -0.074421
v -0.096244 0.791996 -0.031452
v -0.101481 0.822231 -0.088899
v 0.096660 0.809501 -0.063733
v 0.078794 0.798956 -0.025811
v 0.071908 0.775540 -0.009592
v 0.074486 0.805321 0.001493
v 0.078793 0.830380 0.008022
v 0.069801 0.830275 0.016083
v -0.095077 0.843496 -0.011765
v -0.109405 0.883839 -0.048374
v -0.110915 0.855667 -0.026728
v 0.098489 0.857381 -0.053912
v 0.099166 0.863379 -0.027701
v 0.070740 0.791139 0.016985
v -0.055363 0.839596 0.019692
v -0.008465 0.861315 0.014044
v -0.041072 0.870041 -0.006119
v 0.042183 0.777237 -0.076771
v 0.038446 0.821497 -0.080986
v 0.078122 0.790947 -0.065418
v -0.008291 0.737698 -0.055488
v -0.006601 0.774666 -0.077142
v 0.047795 0.695938 0.011394
v 0.030166 0.704752 0.048025
v 0.032800 0.644089 0.070422
v 0.070868 0.859986 -0.000377
v 0.038762 0.881373 -0.031782
v 0.023563 0.866422 0.001341
v 0.046231 0.739691 -0.043215
v -0.011993 0.754083 0.050559
v -0.092644 0.887581 -0.056358
v -0.083951 0.880446 -0.041054
v 0.093625 0.831010 -0.066123
v 0.096660 0.809501 -0.063733
v 0.078122 0.790947 -0.065418
v -0.020733 0.643756 0.085377
v 0.051806 0.641186 0.023284
v 0.032800 0.644089 0.070422
v 0.035563 0.688261 -0.026616
v -0.011586 0.686163 -0.039390
v 0.030019 0.835277 0.029170
v -0.010027 0.835137 0.030970
v 0.070868 0.859986 -0.000377
v -0.020733 0.643756 0.085377
v -0.013332 0.711117 0.057334
v -0.056424 0.711904 0.043889
v -0.031261 0.886987 -0.063236
v -0.072119 0.886130 -0.068950
v -0.046699 0.886112 -0.040045
v -0.095077 0.843496 -0.011765
v -0.077744 0.755010 -0.001707
v 0.077831 0.866247 -0.056926
v 0.078296 0.832444 -0.071484
v -0.074534 0.646764 0.071599
v 0.047795 0.695938 0.011394
v 0.056562 0.750324 0.004677
v 0.078794 0.798956 -0.025811
v 0.097124 0.797714 -0.061661
v -0.064310 0.877841 -0.091384
v -0.084021 0.864341 -0.100034
v -0.091015 0.881216 -0.084630
v -0.111658 0.875865 -0.073589
v 0.079365 0.796350 -0.008177
v -0.020772 0.883786 -0.008498
v -0.010889 0.913855 0.000694
v -0.022637 0.918411 -0.003122
v 0.077729 0.774141 -0.046174
v -0.108508 0.835466 -0.079051
v -0.115810 0.848182 -0.080958
v -0.104050 0.825694 -0.048627
v 0.080144 0.787064 -0.038716
v 0.078794 0.798956 -0.025811
v 0.056562 0.750324 0.004677
v 0.080144 0.787064 -0.038716
v -0.072119 0.886130 -0.068950
v 0.085722 0.857870 -0.000031
v 0.075719 0.870916 -0.030756
v -0.063371 0.744133 -0.048416
v -0.072220 0.706186 0.005677
v 0.075719 0.870916 -0.030756
v -0.081072 0.807734 -0.097080
v -0.086960 0.839107 -0.098775
v -0.068832 0.843636 -0.101222
v -0.051907 0.782850 -0.086861
v -0.005052 0.821165 -0.081793
v 0.028417 0.883664 -0.058264
v 0.038762 0.881373 -0.031782
v 0.075719 0.870916 -0.030756
v -0.101481 0.822231 -0.088899
v -0.104050 0.825694 -0.048627
v -0.010889 0.913525 0.000694
v 0.033421 0.913655 -0.030533
v 0.019273 0.894821 -0.047796
v 0.022096 0.892408 -0.032784
v -0.077744 0.755010 -0.001707
v -0.099689 0.802978 -0.008176
v -0.096244 0.791996 -0.031452
v 0.033168 0.750201 0.041525
v 0.026641 0.919697 -0.025663
v 0.021502 0.916882 -0.014134
v 0.015299 0.884451 -0.013999
v 0.015539 0.923587 -0.049083
v 0.019273 0.894821 -0.047796
v -0.010105 0.892775 -0.058397
v 0.007564 0.898178 -0.001420
v 0.021502 0.912776 -0.014134
v -0.001262 0.878313 -0.002225
v 0.007564 0.914963 -0.001420
v -0.104050 0.825694 -0.048627
v -0.010294 0.926141 -0.061866
v -0.040143 0.920615 -0.044512
v -0.035036 0.893824 -0.039493
v 0.022096 0.892408 -0.032784
v -0.058527 0.696253 -0.031094
v 0.077729 0.774141 -0.046174
v 0.078296 0.832444 -0.071484
v 0.033487 0.863431 -0.074339
v 0.077831 0.866247 -0.056926
v 0.022196 0.921646 -0.053551
v -0.110915 0.855667 -0.026728
v 0.026641 0.919705 -0.025663
v -0.044115 0.912361 -0.019276
v -0.033152 0.891376 -0.024340
v -0.033152 0.891376 -0.024340
v 0.028597 0.901816 -0.000211
v -0.022637 0.918411 -0.003122
v -0.032921 0.924497 -0.026918
v -0.010294 0.926141 -0.061866
v -0.036691 0.900364 -0.050036
v -0.040143 0.920615 -0.044512
v -0.044115 0.912361 -0.019276
v -0.029419 0.882422 0.001441
v -0.030434 0.900819 0.008409
v 0.069801 0.830275 0.016083
v 0.070740 0.791139 0.016985
v 0.074486 0.805321 0.001493
v -0.030434 0.900819 0.008409
v -0.020772 0.883786 -0.008498
v -0.010287 0.924328 -0.050934
v -0.086960 0.839107 -0.098775
v -0.056320 0.754363 0.037274
v -0.075248 0.639087 -0.020861
v -0.095564 0.645313 0.024698
v -0.072220 0.706186 0.005677
v -0.035036 0.893824 -0.039493
v -0.068832 0.843636 -0.101222
v -0.074534 0.646764 0.071599
v 0.078794 0.798956 -0.025811
v 0.071908 0.775540 -0.009592
v -0.042512 0.826463 -0.089188
v 0.022196 0.921646 -0.053551
v 0.033421 0.913655 -0.030533
v 0.019728 0.900924 -0.056593
v 0.031468 0.897164 -0.034442
v -0.064310 0.877841 -0.091384
v 0.025291 0.883087 -0.005467
v 0.000831 0.895450 0.015320
v -0.001219 0.876809 0.009135
v -0.083951 0.880446 -0.041054
v -0.003819 0.877299 -0.074393
v -0.046699 0.886112 -0.040045
v -0.072119 0.886130 -0.068950
v -0.042923 0.896272 -0.025184
v -0.041072 0.870041 -0.006119
v -0.034441 0.867541 -0.080549
v -0.031261 0.886987 -0.063236
v -0.003819 0.877299 -0.074393
v 0.028597 0.901816 -0.000211
v -0.046699 0.886112 -0.040045
v -0.009580 0.903162 -0.063549
v 0.028417 0.883664 -0.058264
v -0.008465 0.861315 0.014044
v 0.023563 0.866422 0.001341
v 0.038762 0.881373 -0.031782
v 0.000831 0.895450 0.015320
v 0.015299 0.884451 -0.013999
v -0.001262 0.878313 -0.002225
v -0.010105 0.892775 -0.058397
v -0.095564 0.645313 0.024698
v 0.051806 0.641186 0.023284
v 0.029248 0.636674 -0.022091
v -0.023410 0.635957 -0.036279
v 0.051806 0.641186 0.023284
v -0.104050 0.825694 -0.048627
v -0.095564 0.645313 0.024698
v 0.074486 0.805321 0.001493
vt 0.3457 1.2187
vt 0.3437 1.1797
vt 0.4333 1.2187
vt 0.4333 1.1875
vt 0.3457 1.2187
vt 0.3437 1.1797
vt 0.3023 1.2125
vt 0.2924 1.2910
vt 0.3023 1.2125
vt 0.1496 1.1866
vt 0.1923 1.1496
vt 0.1936 1.2533
vt 0.1936 1.2533
vt 0.2130 1.1928
vt 0.1923 1.1496
vt 0.4277 1.9777
vt 0.4277 1.9517
vt 0.4345 1.9638
vt 0.6746 1.9653
vt 0.6578 1.9561
vt 0.6797 1.9277
vt 0.2712 1.2316
vt 0.3623 1.2862
vt 0.4333 1.3203
vt 0.3756 1.3342
vt 0.0851 1.2097
vt 0.0762 1.2776
vt 0.1507 1.2261
vt 0.0033 1.1367
vt 0.0033 1.2031
vt 0.2715 1.0683
vt 0.3496 1.0683
vt 0.3496 1.0019
vt 0.2921 1.3355
vt 0.3575 1.3809
vt 0.3756 1.3342
vt 0.0978 1.1343
vt 0.4333 1.1445
vt 0.6355 1.9672
vt 0.6418 1.9878
vt 0.4257 1.8485
vt 0.4158 1.8404
vt 0.4322 1.8176
vt 0.0884 1.0594
vt 0.0033 1.0527
vt 0.3623 1.2862
vt 0.4333 1.2832
vt 0.4345 1.9297
vt 0.4333 1.0019
vt 0.4333 1.0683
vt 0.3496 1.0683
vt 0.0519 1.3506
vt 0.1504 1.3808
vt 0.0724 1.3809
vt 0.2924 1.2910
vt 0.1699 1.1133
vt 0.4277 1.8736
vt 0.4345 1.8730
vt 0.4277 1.8989
vt 0.4345 1.8375
vt 0.1699 1.0566
vt 0.1699 1.1133
vt 0.4145 1.8213
vt 0.4059 1.8408
vt 0.5459 1.9981
vt 0.5508 1.9648
vt 0.5919 1.9665
vt 0.6245 1.9262
vt 0.4173 1.9667
vt 0.7851 1.0026
vt 0.7745 1.0411
vt 0.8139 1.0469
vt 0.1496 1.1866
vt 0.0000 0.0000
vt 0.5919 1.9228
vt 0.5508 1.9277
vt 0.5214 1.9300
vt 0.3999 1.9878
vt 0.4160 1.9980
vt 0.2715 1.1582
vt 0.3987 1.8099
vt 0.5937 1.9981
vt 0.4277 1.9295
vt 0.4345 1.8955
vt 0.0978 1.1343
vt 0.1699 1.0566
vt 0.2921 1.3809
vt 0.1507 1.2261
vt 0.1753 1.2921
vt 0.5098 1.9729
vt 0.0851 1.2097
vt 0.0033 1.2754
vt 0.0519 1.3506
vt 0.0724 1.3809
vt 0.1504 1.3808
vt 0.6857 1.9409
vt 0.7173 1.9631
vt 0.7173 1.9409
vt 0.2715 1.1582
vt 0.2712 1.2316
vt 0.2234 1.2111
vt 0.3496 1.1445
vt 0.8139 1.0469
vt 0.7745 1.0411
vt 0.7851 1.0026
vt 0.9026 1.0478
vt 0.9047 1.0026
vt 0.9980 1.0026
vt 0.7188 1.0026
vt 0.7291 1.0408
vt 0.2004 1.2558
vt 0.6857 1.9987
vt 0.6857 1.9631
vt 0.7173 1.9631
vt 0.8720 1.0026
vt 0.0884 1.0594
vt 0.4135 1.8027
vt 0.1504 1.2969
vt 0.0672 1.3262
vt 0.1504 1.3457
vt 0.6857 1.9631
vt 0.2486 1.2623
vt 0.6857 1.9409
vt 0.7173 1.9409
vt 0.8720 1.0026
vt 0.6857 1.9119
vt 0.9026 1.0478
vt 0.4395 1.9980
vt 0.4668 1.9316
vt 0.4395 1.9316
vt 0.4395 1.8770
vt 0.4668 1.8125
vt 0.4395 1.8125
vt 0.2925 1.2911
vt 0.2712 1.2315
vt 0.2486 1.2623
vt 0.6857 1.9119
vt 0.7173 1.9119
vt 0.9981 1.0293
vt 0.5169 1.9570
vt 0.3496 1.1445
vt 0.0879 1.0019
vt 0.1699 1.0019
vt 0.2715 1.0683
vt 0.9047 1.0026
vt 0.1504 1.2969
vt 0.3496 1.0019
vt 0.2004 1.2558
vt 0.2234 1.2111
vt 0.0762 1.2776
vt 0.4395 1.9316
vt 0.4395 1.8770
vt 0.4668 1.9316
vt 0.4668 1.8770
vt 0.1504 1.3457
vt 0.4668 1.8125
vt 0.4395 1.7519
vt 0.4668 1.7519
vt 0.2921 1.3355
vt 0.0033 1.3320
vt 0.3575 1.3809
vt 0.2921 1.3809
vt 0.4668 1.8770
vt 0.4942 1.8125
vt 0.0672 1.3262
vt 0.4942 1.9316
vt 0.5117 1.9980
vt 0.4395 1.8125
vt 0.4942 1.8770
vt 0.4668 1.9980
vt 0.4942 1.9316
vt 0.4942 1.7519
vt 0.4942 1.8125
vt 0.4942 1.8770
vt 0.6857 1.8834
vt 0.7173 1.9119
vt 0.7173 1.8834
vt 0.7173 1.9987
vt 0.1699 1.0019
vt 0.0879 1.0019
vt 0.0033 1.0019
vt 0.2715 1.0019
vt 0.2130 1.1928
vt 0.2715 1.0019
vt 0.2486 1.2623
vn -0.4159 0.2234 0.8816
vn -0.4548 -0.1384 0.8798
vn -0.0780 0.0935 0.9926
vn -0.0343 -0.0172 0.9993
vn 0.2565 0.1186 0.9592
vn 0.4191 -0.1471 0.8960
vn -0.7750 -0.1391 0.6165
vn 0.6539 0.1681 0.7377
vn 0.6627 -0.2177 0.7166
vn -0.7035 -0.5691 -0.4256
vn -0.9393 -0.3417 -0.0311
vn -0.6453 -0.5979 -0.4755
vn 0.6351 -0.3045 -0.7098
vn 0.4599 0.3309 -0.8240
vn 0.9289 -0.2833 0.2387
vn 0.5913 -0.4409 0.6753
vn 0.5845 0.1961 0.7873
vn 0.6538 0.1681 0.7377
vn -0.5321 0.4293 0.7298
vn -0.2293 0.9369 0.2638
vn -0.1017 0.7665 0.6341
vn 0.9170 -0.1732 0.3594
vn -0.3162 0.5952 0.7387
vn -0.0150 0.4357 0.9000
vn -0.5693 0.5125 0.6428
vn 0.2365 -0.4008 -0.8851
vn 0.1642 0.0075 -0.9864
vn 0.3837 -0.3016 -0.8728
vn 0.0360 -0.4987 -0.8660
vn 0.0844 -0.3120 -0.9463
vn 0.9956 -0.0366 0.0859
vn 0.6193 0.1723 0.7660
vn 0.7565 0.2822 0.5900
vn 0.2459 0.6915 0.6793
vn 0.5262 0.8172 0.2353
vn 0.4685 0.5694 0.6755
vn 0.6319 -0.4867 -0.6031
vn -0.0423 0.1163 0.9923
vn -0.0995 0.9949 0.0143
vn -0.1465 0.8538 0.4995
vn 0.3049 0.0526 -0.9509
vn 0.4799 -0.5424 -0.6896
vn 0.7429 -0.1975 -0.6396
vn 0.0171 -0.2118 -0.9772
vn 0.1744 0.5393 0.8238
vn -0.0539 0.4734 0.8792
vn 0.2459 0.6914 0.6793
vn 0.0109 0.2801 0.9599
vn -0.0288 0.2290 0.9730
vn -0.6402 0.2573 0.7239
vn -0.2153 0.8020 -0.5572
vn 0.0107 0.9969 -0.0776
vn -0.4526 0.8854 0.1063
vn -0.9257 -0.3012 0.2287
vn 0.3349 0.6884 -0.6434
vn 0.3516 0.7618 -0.5442
vn 0.2946 0.9536 0.0615
vn 0.2936 0.1715 -0.9404
vn 0.8788 -0.3250 0.3494
vn 0.4599 0.3310 -0.8240
vn -0.6158 -0.2652 -0.7419
vn -0.9343 0.0404 -0.3542
vn 0.1929 0.6514 -0.7338
vn -0.2914 0.1849 -0.9386
vn -0.2962 0.7490 -0.5926
vn -0.4640 0.6171 -0.6355
vn -0.7844 -0.5220 0.3350
vn -0.1153 0.8743 0.4715
vn -0.2153 -0.7123 0.6681
vn -0.6848 -0.4262 0.5912
vn 0.7506 -0.6064 -0.2624
vn -0.8783 -0.4774 -0.0246
vn -0.5975 -0.1885 -0.7794
vn -0.8796 -0.2199 -0.4218
vn -0.9710 -0.0747 -0.2272
vn -0.8937 -0.3670 -0.2580
vn -0.8295 0.0686 -0.5543
vn 0.1049 0.7031 0.7033
vn 0.2655 0.9562 0.1231
vn -0.5910 -0.4711 -0.6549
vn -0.9931 0.1157 0.0196
vn 0.2655 0.9562 0.1232
vn -0.1701 -0.2989 -0.9390
vn -0.3434 -0.0652 -0.9369
vn 0.2018 0.0381 -0.9787
vn -0.0135 -0.4211 -0.9069
vn 0.1061 0.0235 -0.9941
vn 0.5134 0.6880 -0.5130
vn 0.8411 0.5392 0.0437
vn -0.4608 0.5188 0.7201
vn 0.2018 0.9763 -0.0775
vn -0.9356 -0.1676 0.3106
vn 0.5015 0.0529 0.8635
vn 0.9069 -0.4210 -0.0136
vn 0.6101 -0.6901 0.3892
vn 0.4154 0.9052 0.0901
vn 0.6253 0.0042 -0.7804
vn -0.3155 0.4795 -0.8189
vn 0.3829 0.2496 0.8895
vn 0.1369 -0.9896 0.0433
vn -0.4813 -0.7395 0.4707
vn 0.0295 0.9918 -0.1240
vn -0.1778 0.9802 0.0872
vn 0.5883 0.6098 0.5311
vn 0.1937 0.9780 -0.0767
vn -0.7242 -0.0609 -0.6869
vn 0.7506 -0.6064 -0.2625
vn 0.1818 0.3671 -0.9123
vn 0.3515 0.7618 -0.5442
vn 0.1767 0.9829 0.0523
vn -0.3837 0.2600 0.8861
vn -0.8245 0.5266 0.2069
vn -0.1631 0.9175 0.3629
vn -0.1631 0.9175 0.3628
vn -0.4129 0.8723 0.2619
vn -0.9660 0.1171 -0.2307
vn 0.0296 0.9918 -0.1240
vn -0.7287 0.1524 -0.6676
vn -0.1779 0.9802 0.0872
vn -0.6182 -0.0493 0.7845
vn 0.4324 0.8917 0.1339
vn 0.5913 -0.4409 0.6752
vn 0.4325 0.8916 0.1339
vn -0.1293 0.8682 0.4791
vn -0.4113 0.1895 -0.8916
vn -0.4775 -0.0093 -0.8786
vn -0.5640 0.0585 0.8237
vn -0.6317 0.2140 -0.7451
vn -0.9509 0.2908 -0.1062
vn -0.9931 0.1156 0.0196
vn 0.5882 0.6099 0.5311
vn -0.7190 0.3785 0.5830
vn 0.4598 0.3309 -0.8240
vn 0.9289 -0.2833 0.2386
vn 0.2837 -0.0301 -0.9584
vn 0.8411 0.5391 0.0437
vn 0.5871 0.2054 -0.7830
vn 0.9789 0.1979 -0.0509
vn 0.7779 -0.0995 0.6204
vn 0.0420 0.7984 0.6006
vn 0.1432 -0.0454 0.9887
vn 0.0672 0.4278 -0.9014
vn -0.9852 0.1637 0.0502
vn 0.2825 0.3171 -0.9053
vn -0.4128 0.8723 0.2619
vn -0.1151 0.2180 -0.9691
vn 0.4685 0.5693 0.6756
vn 0.0420 0.7985 0.6006
vn 0.4545 0.8849 0.1013
vn 0.3817 0.1941 0.9037
vn -0.3131 0.4971 -0.8092
vn 0.9858 0.1315 -0.1043
vn 0.5646 0.2020 -0.8003
vn -0.0472 0.2224 -0.9738
vn -0.9509 0.2908 -0.1063
usemtl diss_00.png
s 1
f 29/27/38 30/28/39 31/29/40
f 32/30/41 31/29/40 30/28/39
f 31/29/40 32/30/41 33/31/42
f 34/32/43 33/31/42 32/30/41
f 36/33/44 30/28/39 29/27/38
f 37/34/45 33/31/42 38/35/46
f 33/31/42 34/32/43 38/35/46
f 39/36/47 40/37/48 41/38/49
f 42/39/50 43/40/51 44/41/52
f 45/42/53 46/43/54 47/44/55
f 48/45/56 49/46/57 50/47/58
f 53/48/59 37/34/45 38/35/46
f 54/49/60 55/50/61 56/51/62
f 57/52/63 58/53/64 59/54/65
f 57/52/63 60/55/66 61/56/67
f 62/57/68 63/58/69 64/59/70
f 65/60/71 66/61/72 67/62/73
f 60/55/66 57/52/63 68/63/74
f 69/64/75 32/30/41 30/28/39
f 32/30/41 69/64/75 34/32/43
f 70/65/76 49/46/57 71/66/77
f 49/46/57 48/45/56 71/66/77
f 72/67/78 73/68/79 74/69/65
f 68/63/74 78/70/80 79/71/81
f 79/71/81 60/55/66 68/63/74
f 55/50/61 80/72/82 67/62/73
f 80/72/82 33/31/42 37/34/45
f 65/60/71 67/62/73 80/72/82
f 65/60/71 80/72/82 37/34/45
f 54/49/60 81/73/83 55/50/61
f 33/31/42 81/73/83 31/29/40
f 29/27/38 31/29/40 81/73/83
f 80/72/82 55/50/61 81/73/83
f 54/49/60 29/27/38 81/73/83
f 33/31/42 80/72/82 81/73/83
f 82/74/84 47/44/55 46/43/54
f 63/58/69 83/75/85 64/59/70
f 83/75/85 63/58/69 84/76/86
f 85/77/87 83/75/85 84/76/86
f 86/78/88 87/79/89 88/80/90
f 29/27/38 54/49/60 89/81/56
f 29/27/38 89/81/56 36/33/44
f 39/36/47 90/82/91 40/37/48
f 51/83/92 91/84/93 52/85/94
f 51/83/92 72/67/78 92/86/95
f 74/69/65 92/86/95 72/67/78
f 91/84/93 51/83/92 92/86/95
f 94/87/68 78/70/80 68/63/74
f 68/63/74 95/88/96 94/87/68
f 96/89/97 73/68/98 97/90/99
f 98/91/100 99/92/101 100/93/102
f 49/46/57 70/65/76 101/94/103
f 101/94/103 70/65/76 100/93/102
f 46/43/54 45/42/53 102/95/104
f 103/96/105 104/97/106 105/98/107
f 44/41/52 106/99/108 42/39/50
f 106/99/108 44/41/52 95/88/96
f 106/99/108 68/63/74 57/52/63
f 95/88/96 68/63/74 106/99/108
f 57/52/63 59/54/65 106/99/108
f 109/100/109 108/101/110 107/102/111 128/103/112
f 107/102/111 108/101/110 99/92/101
f 108/101/110 100/93/102 99/92/101
f 108/101/110 101/94/103 100/93/102
f 110/104/113 102/95/104 45/42/53
f 45/42/53 111/105/51 110/104/113
f 63/58/69 62/57/68 112/106/96
f 112/106/96 38/35/46 34/32/43
f 38/35/46 112/106/96 53/48/59
f 97/90/99 113/107/114 96/89/97
f 100/93/102 114/108/89 98/91/100
f 114/108/89 100/93/102 70/65/76
f 71/66/77 114/108/89 70/65/76
f 46/43/54 115/109/115 82/74/84
f 115/109/115 52/85/94 116/110/116
f 82/74/84 115/109/115 116/110/116
f 91/84/93 116/110/116 52/85/94
f 90/82/91 39/36/47 117/111/117
f 60/55/66 79/71/81 117/111/117
f 117/111/117 118/112/118 90/82/91
f 66/61/72 65/60/71 119/113/119
f 41/38/49 120/114/120 39/36/47
f 120/114/120 41/38/49 121/115/121
f 99/92/101 98/91/100 122/116/122
f 123/117/123 60/55/66 117/111/117
f 123/117/123 39/36/47 120/114/120
f 123/117/123 61/56/67 60/55/66
f 39/36/47 123/117/123 117/111/117
f 123/117/123 124/118/124 61/56/67
f 58/53/64 57/52/63 124/118/124
f 124/118/124 57/52/63 61/56/67
f 125/119/125 126/120/72 127/121/116
f 131/122/126 132/123/127 133/124/128
f 30/28/39 36/33/44 134/125/91
f 89/81/56 135/126/129 36/33/44
f 135/126/129 134/125/91 36/33/44
f 136/127/48 134/125/91 135/126/129
f 84/76/86 63/58/69 137/128/130
f 84/76/86 137/128/130 69/64/75
f 34/32/43 137/128/130 112/106/96
f 69/64/75 137/128/130 34/32/43
f 63/58/69 112/106/96 137/128/130
f 138/129/131 139/130/132 140/131/133
f 141/132/134 142/133/127 143/134/135
f 146/135/136 104/97/106 103/96/105
f 146/135/136 140/131/133 139/130/132
f 146/135/136 147/136/137 104/97/106
f 146/135/136 139/130/132 147/136/137
f 148/137/138 136/127/48 135/126/129
f 149/138/139 150/139/140 151/140/141
f 138/129/131 140/131/133 152/141/142
f 141/132/134 138/129/131 152/141/142
f 152/141/142 142/133/127 141/132/134
f 118/112/118 117/111/117 153/142/143
f 79/71/81 153/142/143 117/111/117
f 154/143/144 74/69/65 73/68/79
f 58/53/64 155/144/95 59/54/65
f 156/145/145 58/53/64 124/118/124
f 58/53/64 156/145/145 155/144/95
f 125/119/125 127/121/116 157/146/146
f 155/144/95 156/145/145 157/146/146
f 156/145/145 125/119/125 157/146/146
f 131/122/126 158/147/147 132/123/127
f 132/123/127 158/147/147 149/138/139
f 159/148/148 135/126/129 89/81/56
f 159/148/148 148/137/138 135/126/129
f 151/140/141 150/139/140 161/149/149
f 151/140/141 161/149/149 162/150/150
f 103/96/105 105/98/107 163/151/151
f 164/152/152 131/122/126 133/124/128
f 105/98/107 166/153/153 163/151/151
f 167/154/154 168/155/155 169/156/156
f 169/156/156 168/155/155 170/157/149
f 171/158/157 172/159/158 170/157/149
f 173/160/55 174/161/59 175/162/159
f 162/150/150 161/149/149 176/163/160
f 177/164/161 162/150/150 176/163/160
f 143/134/135 178/165/162 141/132/134
f 178/165/162 143/134/135 166/153/153
f 107/102/111 99/92/101 179/166/163
f 107/102/111 179/166/163 128/103/112
f 122/116/122 179/166/163 99/92/101
f 180/167/164 84/76/86 69/64/75
f 180/167/164 30/28/39 134/125/91
f 134/125/91 85/77/87 180/167/164
f 30/28/39 180/167/164 69/64/75
f 84/76/86 180/167/164 85/77/87
f 79/71/81 181/168/165 153/142/143
f 153/142/143 182/169/166 118/112/118
f 153/142/143 181/168/165 182/169/166
f 85/77/87 134/125/91 183/170/167
f 143/134/135 184/171/168 166/153/153
f 166/153/153 184/171/168 163/151/151
f 121/115/121 185/172/122 120/114/120
f 85/77/87 186/173/169 83/75/85
f 183/170/167 186/173/169 85/77/87
f 187/174/170 53/48/59 188/175/171
f 112/106/96 188/175/171 53/48/59
f 123/117/123 189/176/172 124/118/124
f 120/114/120 185/172/122 189/176/172
f 189/176/172 123/117/123 120/114/120
f 190/177/147 191/178/173 192/179/174
f 192/179/174 167/154/154 190/177/147
f 191/178/173 193/180/175 192/179/174
f 86/78/88 194/181/100 87/79/89
f 195/182/176 193/180/175 191/178/173
f 171/158/157 196/183/177 172/159/158
f 195/182/176 196/183/177 197/184/178
f 171/158/157 197/184/178 196/183/177
f 198/185/77 89/81/56 54/49/60
f 198/185/77 54/49/60 56/51/62
f 124/118/124 199/186/179 156/145/145
f 156/145/145 199/186/179 125/119/125
f 198/185/77 56/51/62 200/187/90
f 200/187/90 201/188/89 198/185/77
f 202/189/180 171/158/157 170/157/149
f 168/155/155 202/189/180 170/157/149
f 171/158/157 202/189/180 203/190/62
f 204/191/181 185/172/122 194/181/100
f 189/176/172 204/191/181 124/118/124
f 124/118/124 204/191/181 199/186/179
f 86/78/88 204/191/181 194/181/100
f 204/191/181 86/78/88 199/186/179
f 204/191/181 189/176/172 185/172/122
f 202/189/180 168/155/155 205/192/88
f 168/155/155 206/193/179 205/192/88
f 191/178/173 207/194/182 195/182/176
f 196/183/177 195/182/176 207/194/182
f 203/190/62 202/189/180 208/195/90
f 202/189/180 205/192/88 208/195/90
f 192/179/174 209/196/183 167/154/154
f 168/155/155 209/196/183 206/193/179
f 209/196/183 192/179/174 206/193/179
f 209/196/183 168/155/155 167/154/154
f 193/180/175 210/197/125 192/179/174
f 192/179/174 210/197/125 206/193/179
f 195/182/176 197/184/178 211/198/61
f 211/198/61 171/158/157 203/190/62
f 171/158/157 211/198/61 197/184/178
f 195/182/176 211/198/61 212/199/184
f 193/180/175 195/182/176 212/199/184
f 193/180/175 213/200/72 210/197/125
f 212/199/184 213/200/72 193/180/175
f 214/201/185 177/164/161 176/163/160
f 133/124/128 215/202/186 164/152/152
f 215/202/186 214/201/185 164/152/152
f 215/202/186 216/203/187 214/201/185
f 177/164/161 214/201/185 216/203/187
f 151/140/141 217/204/188 149/138/139
f 217/204/188 132/123/127 149/138/139
f 219/205/189 78/70/80 94/87/68
f 78/70/80 219/205/189 220/206/190
f 79/71/81 78/70/80 220/206/190
f 79/71/81 220/206/190 221/207/191
f 181/168/165 79/71/81 221/207/191
f 62/57/68 64/59/70 222/208/189
f 40/37/48 223/209/138 41/38/49
f 186/173/169 183/170/167 224/210/192
f 53/48/59 187/174/170 225/211/53
l 27 28
l 35 218
l 130 144
l 27 76
l 75 77
l 75 93
l 130 165
l 28 35
l 50 129
l 145 160
l 93 218
l 76 77
l 144 145
