# Blender v2.78 (sub 0) OBJ File: 'Cloud_footR.blend'
# www.blender.org
mtllib Cloud_footR.mtl
o 0002_r_sym307
v -0.107961 0.194229 -0.096808
v -0.053017 0.192428 -0.082129
v -0.109184 0.159429 -0.111381
v -0.048625 0.156666 -0.094882
v -0.030554 0.181655 -0.037515
v -0.023139 0.145439 -0.045476
v -0.142413 0.181218 -0.050885
v -0.144917 0.145702 -0.065210
v -0.062520 0.132306 -0.002098
v -0.067722 0.169065 0.006336
v -0.102751 0.129299 0.002189
v -0.109309 0.164361 0.010180
v -0.136509 0.168820 -0.010657
v -0.137498 0.134947 -0.024410
vt 1.6133 1.7031
vt 1.6133 1.6367
vt 1.5352 1.7031
vt 1.5352 1.6367
vt 1.6133 1.7031
vt 1.5352 1.7031
vt 1.6133 1.7734
vt 1.5352 1.7734
vt 1.5352 1.7734
vt 1.6133 1.7734
vt 1.5352 1.8633
vt 1.6133 1.8633
vt 1.6133 1.8633
vt 1.5352 1.8633
vn -0.3360 0.3738 -0.8645
vn 0.5061 0.3492 -0.7886
vn -0.3303 0.3758 -0.8658
vn 0.7318 0.3124 -0.6057
vn 0.9769 0.1430 0.1586
vn 0.9724 0.1622 0.1678
vn -0.9249 0.1907 -0.3289
vn -0.9931 0.0871 -0.0788
vn 0.5780 -0.0855 0.8116
vn 0.3561 -0.1585 0.9209
vn 0.1156 -0.2032 0.9723
vn 0.1127 -0.2007 0.9732
vn -0.9872 -0.0149 0.1585
vn -0.9849 -0.0397 0.1686
usemtl diss_01.png
s 1
f 1/1/1 2/2/2 3/3/3
f 4/4/4 3/3/3 2/2/2
f 2/2/2 5/5/5 4/4/4
f 6/6/6 4/4/4 5/5/5
f 1/1/1 3/3/3 7/7/7
f 8/8/8 7/7/7 3/3/3
f 6/6/6 5/5/5 9/9/9
f 10/10/10 9/9/9 5/5/5
f 9/9/9 10/10/10 11/11/11
f 12/12/12 11/11/11 10/10/10
f 7/7/7 8/8/8 13/13/13
f 14/14/14 13/13/13 8/8/8
o 0001_r_sym307
v -0.097813 0.310904 0.056154
v -0.108057 0.327167 0.073785
v -0.147634 0.317182 0.017054
v -0.157658 0.333497 0.035820
v -0.012839 0.225478 -0.070206
v -0.067522 0.234397 -0.112077
v -0.028165 0.303402 -0.035880
v -0.078588 0.316517 -0.073650
v -0.119648 0.194299 0.053325
v -0.174242 0.203165 0.011502
v -0.104565 0.360561 0.060502
v -0.154862 0.371552 0.034260
v -0.105376 0.093257 -0.035449
v -0.075287 0.088763 -0.039003
v -0.108880 0.144285 -0.022315
v -0.073957 0.144687 -0.018945
v -0.152132 0.034623 0.070791
v -0.178470 0.043628 0.063968
v -0.146426 -0.000002 0.073334
v -0.178874 -0.000002 0.064583
v -0.113249 0.093170 -0.068457
v -0.122125 0.152522 -0.055837
v -0.148408 0.186954 -0.012743
v -0.103475 0.179382 0.021328
v -0.041427 0.363965 -0.011003
v -0.083981 0.365956 -0.043186
v -0.059831 -0.000002 -0.044389
v -0.123276 -0.000002 -0.088907
v -0.050173 -0.000002 -0.084149
v -0.086190 -0.000002 -0.108767
v -0.091580 0.162577 -0.091269
v -0.087075 0.095251 -0.092008
v -0.059717 0.091229 -0.070980
v -0.044552 0.154917 -0.055239
v -0.194803 0.032681 0.037306
v -0.197449 -0.000002 0.033267
v -0.085546 0.066082 -0.102975
v -0.086190 -0.000002 -0.108767
v -0.050173 -0.000002 -0.084149
v -0.055227 0.066082 -0.081254
v -0.040443 0.353433 0.044102
v -0.049055 0.327289 0.028729
v -0.135062 0.328706 -0.045780
v -0.047247 0.283729 0.008949
v -0.029913 0.212328 0.002377
v -0.143937 0.304818 -0.064845
v -0.153744 0.377425 -0.019227
v -0.029913 0.212328 0.002377
v -0.047247 0.283729 0.008949
v -0.129314 0.290514 -0.057989
v -0.136923 0.218046 -0.082063
v -0.049055 0.327289 0.028729
v -0.172694 0.040428 -0.014385
v -0.184788 -0.000002 -0.013260
v -0.112722 0.042929 0.031491
v -0.082518 -0.000002 -0.019584
v -0.184788 -0.000002 -0.013260
v -0.123276 -0.000002 -0.088907
v -0.110886 -0.000002 0.043643
v -0.057225 0.185100 -0.078316
v -0.058127 0.158153 -0.029127
v -0.044552 0.154917 -0.055239
v -0.146426 -0.000002 0.073334
v -0.178874 -0.000002 0.064583
v -0.197449 -0.000002 0.033267
v -0.074981 0.073497 -0.030772
v -0.121497 0.073147 -0.069388
v -0.108472 0.084916 -0.032027
v -0.058127 0.158153 -0.029127
v -0.103037 0.141889 -0.030670
v -0.148408 0.186954 -0.012743
v -0.113445 0.166739 -0.071634
v -0.131665 0.171513 0.012072
v -0.040443 0.353433 0.044102
v -0.048625 0.156666 -0.094882
v -0.044552 0.154917 -0.055239
v -0.091580 0.162577 -0.091269
v -0.113445 0.166739 -0.071634
v -0.152995 0.050116 0.027141
v -0.055227 0.066082 -0.081254
v -0.059717 0.091229 -0.070980
v -0.131665 0.171513 0.012072
v -0.103475 0.179382 0.021328
v -0.148408 0.186954 -0.012743
v -0.110886 -0.000002 0.043643
v -0.108057 0.327167 0.073785
v -0.059831 -0.000002 -0.044389
v -0.050173 -0.000002 -0.084149
v -0.082518 -0.000002 -0.019584
v -0.103475 0.179382 0.021328
v -0.058127 0.158153 -0.029127
v -0.030554 0.181655 -0.037515
v -0.053017 0.192428 -0.082129
v -0.108880 0.144285 -0.022315
v -0.107961 0.194229 -0.096808
v -0.067722 0.169065 0.006336
v -0.142413 0.181218 -0.050885
v -0.109309 0.164361 0.010180
v -0.136509 0.168820 -0.010657
v -0.137498 0.134947 -0.024410
v -0.122125 0.152522 -0.055837
v -0.136509 0.168820 -0.010657
v -0.109309 0.164361 0.010180
v -0.062520 0.132306 -0.002098
v -0.073957 0.144687 -0.018945
v -0.023139 0.145439 -0.045476
v -0.091580 0.162577 -0.091269
v -0.109184 0.159429 -0.111381
v -0.144917 0.145702 -0.065210
v -0.102751 0.129299 0.002189
v -0.109309 0.164361 0.010180
v -0.136509 0.168820 -0.010657
vt 0.9480 1.7078
vt 0.9480 1.7291
vt 0.8947 1.7077
vt 0.8947 1.7280
vt 0.7165 1.6203
vt 0.7713 1.6203
vt 0.7165 1.6930
vt 0.7713 1.7037
vt 0.9480 1.6089
vt 0.8947 1.6089
vt 0.9480 1.7440
vt 0.8947 1.7432
vt 0.4043 1.7051
vt 0.4353 1.6938
vt 0.4043 1.7558
vt 0.4353 1.7458
vt 0.3083 1.6368
vt 0.2832 1.6429
vt 0.3086 1.6152
vt 0.2832 1.6152
vt 0.4353 1.6938
vt 0.4353 1.7458
vt 0.8947 1.5760
vt 0.9480 1.5760
vt 0.7165 1.7387
vt 0.7713 1.7502
vt 0.3529 1.7129
vt 0.3991 1.7129
vt 0.3615 1.6918
vt 0.3859 1.6918
vt 0.4627 1.7423
vt 0.4627 1.6851
vt 0.4942 1.6851
vt 0.4942 1.7423
vt 0.3083 1.6368
vt 0.3086 1.6152
vt 0.4627 1.6638
vt 0.4629 1.6152
vt 0.4942 1.6152
vt 0.4942 1.6638
vt 0.9963 1.7227
vt 0.9963 1.7500
vt 0.8305 1.7222
vt 0.6816 1.6992
vt 0.6816 1.6367
vt 0.8305 1.6992
vt 0.8305 1.7596
vt 0.9963 1.6094
vt 0.9963 1.6836
vt 0.8132 1.6829
vt 0.8132 1.6089
vt 0.6816 1.7383
vt 0.3622 1.6523
vt 0.3516 1.6152
vt 0.3622 1.6523
vt 0.3529 1.7318
vt 0.3991 1.7670
vt 0.4317 1.6152
vt 0.3516 1.6152
vt 0.7501 1.5804
vt 0.7038 1.5804
vt 0.4627 1.7423
vt 0.3563 1.7949
vt 0.3740 1.8011
vt 0.3925 1.7925
vt 0.4305 1.6696
vt 0.4361 1.6619
vt 0.4043 1.6894
vt 0.9963 1.5605
vt 0.2949 1.6933
vt 0.3496 1.7558
vt 0.3496 1.6933
vt 0.2949 1.7558
vt 0.6816 1.7578
vt 0.0313 1.3457
vt 0.0137 1.3613
vt 0.0469 1.3613
vt 0.8132 1.5616
vt 0.3144 1.6894
vt 0.4627 1.6638
vt 0.4627 1.6851
vt 0.9213 1.5648
vt 0.8943 1.5760
vt 0.9480 1.5760
vt 0.3529 1.7700
vt 0.9480 1.7291
vt 0.4317 1.6152
vt 0.4629 1.6152
vt 0.4043 1.6152
vt 0.3496 1.7558
vt 0.3496 1.6933
vt 0.3692 1.3652
vt 0.3692 1.3926
vt 0.4355 1.3926
vt 0.3692 1.3652
vt 0.4199 1.3652
vt 0.4199 1.3652
vt 0.4355 1.3652
vt 0.4355 1.3652
vt 0.0254 1.3926
vt 0.0137 1.3808
vt 0.0254 1.3808
vt 0.4043 1.7910
vt 0.0019 1.3926
vt 0.0137 1.3808
vt 0.0019 1.3594
vt 0.0137 1.3613
vt 0.0019 1.3594
vt 0.0019 1.3926
vt 0.0254 1.3926
vt 0.0254 1.3808
vt 0.4043 1.7910
vn 0.1726 -0.4052 0.8978
vn -0.0753 -0.4141 0.9071
vn -0.9056 -0.1857 0.3814
vn -0.9153 -0.2048 0.3468
vn 0.9547 -0.2016 -0.2189
vn 0.1117 0.0348 -0.9931
vn 0.9516 0.2332 -0.2001
vn 0.0899 0.3718 -0.9239
vn -0.0617 -0.4914 0.8687
vn -0.9173 -0.3736 -0.1380
vn -0.1977 0.8172 0.5413
vn -0.6907 0.6596 0.2964
vn -0.5611 0.1501 0.8140
vn 0.6257 -0.0787 0.7760
vn -0.3309 0.5312 0.7800
vn -0.1000 -0.9933 -0.0573
vn 0.3736 0.3910 0.8412
vn -0.3551 0.7306 0.5832
vn 0.0408 -0.5536 0.8318
vn -0.6660 -0.3243 0.6718
vn -0.9436 0.1714 -0.2834
vn -0.3357 -0.9418 -0.0180
vn -0.7493 -0.6605 0.0480
vn 0.1001 -0.6923 0.7147
vn 0.6720 0.7253 -0.1492
vn 0.2853 0.7417 -0.6070
vn 0.7709 -0.5207 0.3669
vn -0.5182 -0.6495 -0.5564
vn 0.6812 -0.5768 -0.4508
vn 0.0485 -0.4469 -0.8933
vn -0.0517 -0.7084 -0.7039
vn -0.1898 0.2234 -0.9561
vn 0.8763 0.1025 -0.4708
vn 0.4198 -0.9048 -0.0718
vn -0.9510 0.2982 0.0821
vn -0.5321 -0.8435 0.0729
vn 0.0943 0.2455 -0.9648
vn 0.9840 0.1731 -0.0420
vn 0.5457 0.0520 0.8364
vn 0.7318 -0.2118 0.6478
vn 0.4756 -0.2703 0.8371
vn -0.7806 0.3096 -0.5430
vn 0.7938 -0.0592 0.6054
vn 0.7378 -0.3647 0.5680
vn -0.6585 0.0814 -0.7482
vn -0.6061 0.7122 -0.3541
vn 0.7379 -0.3647 0.5680
vn 0.7938 -0.0592 0.6053
vn -0.4730 -0.0369 -0.8803
vn -0.7426 -0.1892 -0.6425
vn 0.7992 -0.2119 0.5625
vn -0.7007 0.6598 -0.2713
vn -0.6946 -0.6419 -0.3247
vn 0.5180 0.6420 0.5653
vn 0.6094 -0.6907 0.3892
vn 0.5794 -0.6479 0.4945
vn 0.4458 -0.5751 -0.6860
vn 0.6300 -0.7253 0.2775
vn -0.6659 -0.3243 0.6718
vn 0.6484 0.3218 0.6899
vn -0.7791 0.3931 -0.4883
vn -0.4447 0.7820 0.4368
vn -0.3415 -0.8933 0.2923
vn -0.7493 -0.6605 0.0481
vn -0.5104 -0.5640 -0.6491
vn -0.5636 -0.4726 0.6775
vn 0.8005 0.4123 0.4351
vn -0.2223 -0.9721 0.0747
vn -0.1770 0.9586 0.2229
vn 0.1002 -0.6923 0.7146
vn -0.0815 -0.3710 0.9250
vn 0.6812 -0.5769 -0.4507
vn 0.6095 -0.6907 0.3892
vn -0.4060 0.9044 0.1314
vn -0.2314 0.8520 0.4696
vn 0.1441 0.8211 0.5523
vn -0.3048 0.8921 -0.3336
vn 0.5598 0.7613 0.3271
vn -0.7118 0.0497 -0.7006
vn 0.8546 -0.1906 0.4830
vn 0.7803 -0.6245 0.0324
vn 0.8546 -0.1906 0.4831
vn -0.1185 -0.8368 -0.5346
vn -0.0999 -0.9933 -0.0573
vn -0.2880 -0.9087 -0.3021
vn 0.1501 -0.9876 0.0472
vn -0.2223 -0.9721 0.0746
vn 0.3477 -0.9210 -0.1754
vn -0.3659 -0.4410 -0.8196
usemtl diss_00.png
s 1
f 15/15/15 16/16/16 17/17/17
f 18/18/18 17/17/17 16/16/16
f 19/19/19 20/20/20 21/21/21
f 22/22/22 21/21/21 20/20/20
f 15/15/15 17/17/17 23/23/23
f 24/24/24 23/23/23 17/17/17
f 16/16/16 25/25/25 18/18/18
f 26/26/26 18/18/18 25/25/25
f 27/27/27 28/28/28 29/29/29
f 30/30/30 29/29/29 28/28/28
f 31/31/31 32/32/32 33/33/33
f 34/34/34 33/33/33 32/32/32
f 35/35/35 27/27/27 36/36/36
f 29/29/29 36/36/36 27/27/27
f 24/24/24 37/37/37 23/23/23
f 38/38/38 23/23/23 37/37/37
f 21/21/21 22/22/22 39/39/39
f 40/40/40 39/39/39 22/22/22
f 41/41/41 42/42/42 43/43/43
f 44/44/44 43/43/43 42/42/42
f 45/45/45 46/46/46 35/35/35
f 35/35/35 36/36/36 45/45/45
f 46/46/46 45/45/45 47/47/47
f 48/48/48 47/47/47 45/45/45
f 32/32/32 49/49/49 34/34/34
f 50/50/50 34/34/34 49/49/49
f 47/47/47 51/51/51 46/46/46
f 52/52/44 51/51/51 53/53/43
f 51/51/51 47/47/47 54/54/52
f 54/54/52 53/53/43 51/51/51
f 25/25/53 56/55/54 55/56/55
f 17/17/17 18/18/18 57/57/56
f 58/58/57 19/19/19 21/21/21
f 58/58/57 59/59/58 19/19/19
f 17/17/17 57/57/56 60/60/59
f 17/17/17 60/60/59 24/24/24
f 60/60/59 57/57/56 22/22/22
f 18/18/18 26/26/26 61/61/60
f 18/18/18 61/61/60 57/57/56
f 40/40/40 22/22/22 61/61/60
f 57/57/56 61/61/60 22/22/22
f 23/23/23 38/38/38 62/62/61
f 63/63/62 15/15/15 23/23/23
f 23/23/23 62/62/61 63/63/62
f 63/63/62 56/55/54 15/15/15
f 64/64/63 22/22/22 20/20/20
f 24/24/24 60/60/59 64/64/63
f 64/64/63 60/60/59 22/22/22
f 20/20/20 65/65/64 64/64/63
f 24/24/24 65/65/64 37/37/37
f 64/64/63 65/65/64 24/24/24
f 66/66/65 21/21/21 39/39/39
f 21/21/21 66/66/65 58/58/57
f 67/67/66 49/49/49 32/32/32
f 49/49/49 67/67/66 68/68/67
f 68/68/67 50/50/50 49/49/49
f 32/32/32 31/31/31 69/69/68
f 41/41/41 70/70/69 42/42/42
f 70/70/69 71/71/67 42/42/42
f 72/72/42 68/68/67 67/67/66
f 51/51/51 52/52/44 72/72/42
f 33/33/33 73/73/70 31/31/31
f 73/73/70 69/69/68 31/31/31
f 19/19/19 74/74/71 20/20/20
f 59/59/58 75/75/72 19/19/19
f 74/74/71 19/19/19 75/75/72
f 76/76/48 30/30/30 28/28/28
f 77/77/33 78/78/73 79/79/50
f 80/80/74 28/28/28 27/27/27
f 72/72/42 81/81/75 51/51/51
f 81/81/75 35/35/35 46/46/46
f 67/67/66 81/81/75 72/72/42
f 46/46/46 51/51/51 81/81/75
f 27/27/27 82/82/76 80/80/74
f 69/69/68 80/80/74 82/82/76
f 35/35/35 81/81/75 82/82/76
f 82/82/76 81/81/75 67/67/66
f 82/82/76 27/27/27 35/35/35
f 83/83/72 62/62/61 38/38/38
f 84/84/77 85/85/78 86/86/79
f 87/87/80 85/85/78 84/84/77
f 39/39/39 88/88/81 66/66/65
f 89/89/82 90/90/48 91/91/45
f 65/65/64 92/92/79 37/37/37
f 74/74/71 92/92/79 20/20/20
f 65/65/64 20/20/20 92/92/79
f 93/93/83 32/32/32 69/69/68
f 93/93/83 69/69/68 82/82/76
f 32/32/32 93/93/83 67/67/66
f 67/67/66 93/93/83 82/82/76
f 28/28/28 80/80/74 94/94/52
f 94/94/52 95/95/47 28/28/28
f 95/95/47 76/76/48 28/28/28
f 96/96/80 97/97/84 98/98/78
f 79/79/50 71/71/67 99/99/70
f 70/70/69 99/99/70 71/71/67
f 99/99/70 77/77/33 79/79/50
f 56/55/54 25/25/53 100/100/85
f 100/100/85 15/15/15 56/55/54
f 94/94/52 80/80/74 101/101/41
f 101/101/41 102/102/86 94/94/52
f 69/69/68 73/73/70 103/103/87
f 80/80/74 103/103/87 101/101/41
f 69/69/68 103/103/87 80/80/74
f 87/87/80 84/84/77 104/104/84
f 84/84/77 105/105/72 104/104/84
f 106/106/88 107/107/89 108/108/29
f 107/107/89 109/109/90 108/108/29
f 110/110/91 106/106/88 108/108/29
f 109/109/90 111/111/92 108/108/29
f 112/112/93 110/110/91 108/108/29
f 113/113/94 108/108/29 111/111/92
f 114/114/95 115/115/36 116/116/96
f 29/29/29 30/30/30 117/117/93
f 118/118/97 119/119/98 120/120/99
f 90/90/48 89/89/82 120/120/99
f 90/90/48 120/120/99 119/119/98
f 121/121/45 115/115/36 122/122/100
f 121/121/45 122/122/100 89/89/101
f 123/123/102 122/122/100 115/115/36
f 115/115/36 114/114/95 123/123/102
f 124/124/103 119/119/98 118/118/97
f 119/119/98 124/124/103 125/125/93
f 36/36/36 29/29/29 126/126/94
f 40/40/40 61/61/60 26/26/26 25/25/25 88/88/81 39/39/39
