# Blender v2.78 (sub 0) OBJ File: 'Cloud_forarmL.blend'
# www.blender.org
mtllib Cloud_forarmL.mtl
o 0002_r_sym307
v 0.115489 0.595789 -0.014529
v 0.113709 0.592186 -0.038348
v 0.117319 0.572461 -0.009746
v 0.115267 0.568561 -0.035222
v 0.135658 0.631743 -0.063993
v 0.159507 0.639699 -0.031754
v 0.137500 0.617665 -0.061880
v 0.161348 0.625622 -0.029641
v 0.140257 0.576693 -0.002756
v 0.136600 0.599688 -0.008084
v 0.135695 0.641535 0.001417
v 0.137536 0.627458 0.003531
v 0.137366 0.594005 -0.046173
v 0.152023 0.599251 -0.026660
v 0.141034 0.570520 -0.043985
v 0.156875 0.576238 -0.022532
v 0.105994 0.567075 -0.042103
v 0.144545 0.570152 -0.055361
v 0.107850 0.552997 -0.039998
v 0.146400 0.556075 -0.053257
v 0.097107 0.628665 -0.050735
v 0.098964 0.614570 -0.048631
v 0.097134 0.634715 -0.010304
v 0.098975 0.620638 -0.008191
v 0.153347 0.625447 -0.029126
v 0.134412 0.625937 -0.007038
v 0.097107 0.628665 -0.050735
v 0.098964 0.614570 -0.048631
v 0.166084 0.660334 -0.034371
v 0.136420 0.662625 0.006976
v 0.168635 0.640941 -0.031461
v 0.138972 0.643214 0.009885
v 0.136367 0.650436 -0.074522
v 0.138919 0.631026 -0.071613
v 0.088349 0.646589 -0.058013
v 0.090902 0.627178 -0.055104
v 0.088380 0.654126 -0.007631
v 0.090937 0.634733 -0.004746
v 0.088349 0.646589 -0.058013
v 0.090902 0.627178 -0.055104
v 0.106021 0.573125 -0.001672
v 0.105994 0.567075 -0.042103
v 0.107877 0.559048 0.000432
v 0.107850 0.552997 -0.039998
v 0.135249 0.618837 -0.054283
v 0.108018 0.621075 -0.015095
v 0.105448 0.616616 -0.043737
v 0.137366 0.594005 -0.046173
v 0.141034 0.570520 -0.043985
v 0.144581 0.579945 0.010049
v 0.146437 0.565868 0.012154
v 0.149634 0.555586 -0.060921
v 0.179350 0.565501 -0.020769
v 0.152186 0.536175 -0.058012
v 0.181903 0.546090 -0.017859
v 0.101617 0.551738 -0.044412
v 0.104168 0.532345 -0.041502
v 0.101638 0.559293 0.005955
v 0.101617 0.551738 -0.044412
v 0.104189 0.539882 0.008864
v 0.104168 0.532345 -0.041502
v 0.149687 0.567774 0.020577
v 0.152229 0.548381 0.023472
v 0.168394 0.578109 -0.023122
v 0.170249 0.564032 -0.021018
v 0.135249 0.618837 -0.054283
v 0.128429 0.686708 -0.041311
v 0.132149 0.659460 -0.009406
v 0.152140 0.659128 -0.028452
v 0.119237 0.682091 -0.036345
v 0.103056 0.653759 -0.020446
v 0.115761 0.680848 -0.054808
v 0.129753 0.686043 -0.051132
v 0.145159 0.653724 -0.056267
v 0.118721 0.649020 -0.063255
v 0.097847 0.648968 -0.046128
v 0.120369 0.679661 -0.048967
v 0.123498 0.681619 -0.055556
v 0.118721 0.649020 -0.063255
v 0.128626 0.687915 -0.035417
vt 1.5664 1.5508
vt 1.6524 1.5508
vt 1.5664 1.6289
vt 1.6524 1.6289
vt 1.8125 1.4180
vt 1.6329 1.4180
vt 1.8125 1.4570
vt 1.6329 1.4570
vt 1.4805 1.6289
vt 1.4805 1.5508
vt 1.4531 1.4180
vt 1.4531 1.4570
vt 1.6524 1.5508
vt 1.5664 1.5508
vt 1.6524 1.6289
vt 1.5664 1.6289
vt 1.9922 1.4570
vt 1.8125 1.4570
vt 1.9922 1.4180
vt 1.8125 1.4180
vt 1.9922 1.4180
vt 1.9922 1.4570
vt 1.6329 1.4180
vt 1.6329 1.4570
vt 1.5664 1.4648
vt 1.4805 1.4648
vt 1.8125 1.4180
vt 1.8125 1.4570
vt 1.6211 1.4101
vt 1.4336 1.4101
vt 1.6211 1.3555
vt 1.4336 1.3555
vt 1.8086 1.4101
vt 1.8086 1.3555
vt 1.9961 1.4101
vt 1.9961 1.3555
vt 1.6211 1.4101
vt 1.6211 1.3555
vt 1.8086 1.4101
vt 1.8086 1.3555
vt 1.6329 1.4570
vt 1.8125 1.4570
vt 1.6329 1.4180
vt 1.8125 1.4180
vt 1.6524 1.4648
vt 1.5664 1.4648
vt 1.6524 1.4648
vt 1.7305 1.5508
vt 1.7305 1.6289
vt 1.4531 1.4570
vt 1.4531 1.4180
vt 1.8086 1.4101
vt 1.6211 1.4101
vt 1.8086 1.3555
vt 1.6211 1.3555
vt 1.9961 1.4101
vt 1.9961 1.3555
vt 1.6211 1.4101
vt 1.8086 1.4101
vt 1.6211 1.3555
vt 1.8086 1.3555
vt 1.4336 1.4101
vt 1.4336 1.3555
vt 1.6329 1.4570
vt 1.6329 1.4180
vt 1.7305 1.4648
vt 1.7051 1.2226
vt 1.7051 1.3476
vt 1.6094 1.3476
vt 1.8047 1.2226
vt 1.8047 1.3476
vt 1.4102 1.2226
vt 1.5117 1.2226
vt 1.5117 1.3476
vt 1.4102 1.3476
vt 1.9004 1.3476
vt 1.9004 1.2226
vt 1.9961 1.2226
vt 1.9961 1.3476
vt 1.6094 1.2226
vn -0.7680 -0.0733 0.6362
vn -0.8127 -0.2504 -0.5261
vn -0.9014 0.0204 0.4326
vn -0.6601 -0.1376 -0.7385
vn 0.0753 -0.1382 -0.9875
vn 0.9638 0.0883 -0.2517
vn 0.5195 -0.0600 -0.8524
vn 0.9640 0.1583 0.2139
vn 0.0433 0.2322 0.9717
vn 0.2783 0.1230 0.9526
vn 0.5202 0.1929 0.8320
vn 0.0765 0.1578 0.9845
vn 0.3157 -0.1530 -0.9364
vn 0.9968 0.0766 0.0224
vn 0.5092 -0.0040 -0.8607
vn 0.9359 0.2409 0.2569
vn -0.9171 -0.1744 -0.3584
vn 0.0753 -0.1377 -0.9876
vn -0.6430 -0.1955 -0.7405
vn 0.5193 -0.0589 -0.8526
vn -0.9172 -0.1739 -0.3586
vn -0.6428 -0.1954 -0.7407
vn -0.6421 0.0310 0.7660
vn -0.9168 -0.0610 0.3948
vn 0.9766 -0.0760 -0.2010
vn 0.4856 -0.0000 0.8742
vn -0.6429 -0.1954 -0.7407
vn 0.9636 0.0890 -0.2521
vn 0.5203 0.1931 0.8319
vn 0.9639 0.1587 0.2136
vn 0.0764 0.1572 0.9846
vn 0.0753 -0.1381 -0.9875
vn 0.5193 -0.0594 -0.8525
vn -0.6429 -0.1955 -0.7406
vn -0.6421 0.0298 0.7660
vn -0.9166 -0.0620 0.3949
vn -0.6419 0.0299 0.7662
vn -0.9171 -0.1745 -0.3584
vn -0.9166 -0.0617 0.3950
vn -0.6430 -0.1956 -0.7405
vn 0.0989 -0.2938 -0.9507
vn -0.5879 -0.1559 0.7938
vn -0.8949 -0.3559 -0.2694
vn 0.3158 -0.1530 -0.9364
vn 0.5202 0.1930 0.8320
vn 0.0765 0.1571 0.9846
vn 0.0753 -0.1381 -0.9876
vn 0.5193 -0.0597 -0.8525
vn 0.9640 0.1584 0.2138
vn -0.9170 -0.1745 -0.3586
vn -0.6428 -0.1956 -0.7406
vn -0.6421 0.0302 0.7660
vn -0.9171 -0.1744 -0.3586
vn -0.9167 -0.0615 0.3947
vn -0.6428 -0.1953 -0.7407
vn 0.5202 0.1927 0.8320
vn 0.0764 0.1571 0.9846
vn 0.9636 0.0893 -0.2519
vn 0.9639 0.1590 0.2138
vn -0.5231 0.1573 0.8376
vn 0.0318 0.7623 0.6464
vn 0.7448 0.6499 0.1512
vn -0.3408 0.7097 0.6167
vn -0.5469 0.6946 0.4674
vn -0.2889 0.1739 -0.9415
vn 0.6689 0.5958 -0.4446
vn 0.4486 0.3881 -0.8051
vn -0.2646 0.2096 -0.9413
vn -0.8155 0.4800 -0.3234
vn -0.8019 0.5743 -0.1648
vn -0.3687 0.4544 -0.8109
vn -0.1883 0.2595 -0.9472
vn -0.1130 0.1957 0.9741
usemtl diss_01.png
s 1
f 1/1/1 2/2/2 3/3/3
f 4/4/4 3/3/3 2/2/2
f 5/5/5 6/6/6 7/7/7
f 8/8/8 7/7/7 6/6/6
f 3/3/3 9/9/9 1/1/1
f 10/10/10 1/1/1 9/9/9
f 6/6/6 11/11/11 8/8/8
f 12/12/12 8/8/8 11/11/11
f 13/13/13 14/14/14 15/15/15
f 9/9/9 16/16/16 10/10/10
f 16/16/16 15/15/15 14/14/14
f 14/14/14 10/10/10 16/16/16
f 17/17/17 18/18/18 19/19/19
f 20/20/20 19/19/19 18/18/18
f 21/21/21 5/5/5 22/22/22
f 7/7/7 22/22/22 5/5/5
f 11/11/11 23/23/23 12/12/12
f 24/24/24 12/12/12 23/23/23
f 14/14/14 13/13/13 25/25/25
f 10/10/10 14/14/14 26/26/26
f 25/25/25 26/26/26 14/14/14
f 23/23/23 27/27/21 24/24/24
f 28/28/27 24/24/24 27/27/21
f 29/29/28 30/30/29 31/31/30
f 32/32/31 31/31/30 30/30/29
f 33/33/32 29/29/28 34/34/33
f 31/31/30 34/34/33 29/29/28
f 35/35/17 33/33/32 36/36/34
f 34/34/33 36/36/34 33/33/32
f 30/30/29 37/37/35 32/32/31
f 38/38/36 32/32/31 37/37/35
f 37/37/35 39/39/17 38/38/36
f 40/40/34 38/38/36 39/39/17
f 41/41/37 42/42/38 43/43/39
f 44/44/40 43/43/39 42/42/38
f 45/45/41 25/25/25 13/13/13
f 1/1/1 10/10/10 46/46/42
f 26/26/26 46/46/42 10/10/10
f 46/46/42 47/47/43 1/1/1
f 2/2/2 1/1/1 47/47/43
f 2/2/2 48/48/44 4/4/4
f 49/49/15 4/4/4 48/48/44
f 50/50/45 41/41/37 51/51/46
f 43/43/39 51/51/46 41/41/37
f 52/52/47 53/53/28 54/54/48
f 55/55/49 54/54/48 53/53/28
f 56/56/50 52/52/47 57/57/51
f 54/54/48 57/57/51 52/52/47
f 58/58/52 59/59/53 60/60/54
f 61/61/55 60/60/54 59/59/53
f 53/53/28 62/62/56 55/55/49
f 62/62/56 58/58/52 63/63/57
f 63/63/57 55/55/49 62/62/56
f 60/60/54 63/63/57 58/58/52
f 18/18/18 64/64/58 20/20/20
f 51/51/46 65/65/59 50/50/45
f 64/64/58 50/50/45 65/65/59
f 65/65/59 20/20/20 64/64/58
f 48/48/44 2/2/2 66/66/41
f 47/47/43 66/66/41 2/2/2
f 67/67/60 68/68/61 69/69/62
f 70/70/63 71/71/64 67/67/60
f 71/71/64 68/68/61 67/67/60
f 72/72/65 73/73/66 74/74/67
f 69/69/62 74/74/67 73/73/66
f 74/74/67 75/75/68 72/72/65
f 76/76/69 71/71/64 70/70/63
f 77/77/70 76/76/69 70/70/63
f 78/78/71 76/76/69 77/77/70
f 78/78/71 79/79/72 76/76/69
f 67/67/60 69/69/62 80/80/73
f 80/80/73 69/69/62 73/73/66
o 0001_r_sym307
v 0.129451 0.438736 0.006328
v 0.124007 0.444559 0.006166
v 0.135458 0.444944 -0.033377
v 0.130112 0.450400 -0.034420
v 0.168394 0.578109 -0.023122
v 0.105994 0.567075 -0.042103
v 0.144581 0.579945 0.010049
v 0.106021 0.573125 -0.001672
v 0.179350 0.565501 -0.020769
v 0.101617 0.551738 -0.044412
v 0.149687 0.567774 0.020577
v 0.101638 0.559293 0.005955
v 0.098964 0.614570 -0.048631
v 0.161348 0.625622 -0.029641
v 0.098975 0.620638 -0.008191
v 0.137536 0.627458 0.003531
v 0.090902 0.627178 -0.055104
v 0.168635 0.640941 -0.031461
v 0.090937 0.634733 -0.004746
v 0.138972 0.643214 0.009885
v 0.166084 0.660334 -0.034371
v 0.088349 0.646589 -0.058013
v 0.136420 0.662625 0.006976
v 0.088380 0.654126 -0.007631
v 0.140832 0.472294 -0.038639
v 0.139484 0.465981 -0.037858
v 0.140864 0.475127 0.005597
v 0.138381 0.469706 0.005657
v 0.111949 0.493838 0.021829
v 0.125265 0.491809 0.023113
v 0.112001 0.476438 0.022924
v 0.124094 0.474864 0.024687
v 0.110882 0.498210 0.034829
v 0.111949 0.493838 0.021829
v 0.111142 0.477907 0.032132
v 0.112001 0.476438 0.022924
v 0.142634 0.481405 0.006116
v 0.145526 0.470527 0.009146
v 0.140717 0.483783 0.020309
v 0.143618 0.472696 0.021572
v 0.130112 0.450400 -0.034420
v 0.124007 0.444559 0.006166
v 0.164521 0.499556 0.006005
v 0.141822 0.481982 0.005423
v 0.151826 0.463025 0.006043
v 0.140864 0.475127 0.005597
v 0.157359 0.468551 0.024093
v 0.144355 0.466051 0.022413
v 0.150413 0.440991 0.026606
v 0.142945 0.445136 0.024769
v 0.159871 0.501707 0.020554
v 0.146082 0.463987 0.010732
v 0.144324 0.443457 0.015306
v 0.159174 0.466418 0.012051
v 0.151768 0.439313 0.017137
v 0.150413 0.440991 0.026606
v 0.142945 0.445136 0.024769
v 0.151768 0.439313 0.017137
v 0.144324 0.443457 0.015306
v 0.144324 0.443457 0.015306
v 0.146082 0.463987 0.010732
v 0.159174 0.466418 0.012051
v 0.138381 0.469706 0.005657
v 0.124007 0.444559 0.006166
v 0.124635 0.496199 0.036359
v 0.123269 0.476246 0.034119
v 0.132895 0.523566 -0.045208
v 0.131292 0.522360 -0.015315
v 0.132010 0.541875 -0.040512
v 0.126515 0.544201 -0.021270
v 0.152010 0.464984 -0.037568
v 0.112001 0.476438 0.022924
v 0.124094 0.474864 0.024687
v 0.111142 0.477907 0.032132
v 0.110882 0.498210 0.034829
v 0.104168 0.532345 -0.041502
v 0.181903 0.546090 -0.017859
v 0.104189 0.539882 0.008864
v 0.152229 0.548381 0.023472
v 0.112539 0.473483 0.011004
v 0.139692 0.500186 -0.042491
v 0.150436 0.552700 -0.001077
v 0.159871 0.501707 0.020554
v 0.133378 0.524283 0.019623
v 0.135760 0.497790 0.017720
v 0.130759 0.505537 0.013949
v 0.136795 0.496741 0.003122
v 0.135760 0.497790 0.017720
v 0.136795 0.496741 0.003122
v 0.130759 0.505537 0.013949
v 0.135760 0.497790 0.017720
v 0.155953 0.554012 -0.037350
v 0.157847 0.545653 -0.037132
v 0.149127 0.557422 -0.003023
v 0.127299 0.552683 -0.023141
v 0.125157 0.550129 -0.004816
v 0.149634 0.555586 -0.060921
v 0.161722 0.502599 -0.040621
v 0.136795 0.496741 0.003122
v 0.164521 0.499556 0.006005
v 0.142634 0.481405 0.006116
v 0.111995 0.522447 0.007794
v 0.111995 0.522447 0.007794
v 0.164521 0.499556 0.006005
v 0.111995 0.522447 0.007794
v 0.130759 0.505537 0.013949
v 0.141822 0.481982 0.005423
v 0.125157 0.550129 -0.004816
v 0.116642 0.528620 0.018642
v 0.145526 0.470527 0.009146
v 0.142634 0.481405 0.006116
v 0.127299 0.552683 -0.023141
v 0.133378 0.524283 0.019623
v 0.116642 0.528620 0.018642
v 0.116642 0.528620 0.018642
v 0.116642 0.528620 0.018642
v 0.164521 0.499556 0.006005
v 0.141822 0.481982 0.005423
v 0.137500 0.617665 -0.061880
v 0.138919 0.631026 -0.071613
v 0.144545 0.570152 -0.055361
v 0.136367 0.650436 -0.074522
v 0.152186 0.536175 -0.058012
vt 0.2461 1.3965
vt 0.2463 1.3849
vt 0.3379 1.3965
vt 0.3379 1.3848
vt 0.8211 1.0892
vt 0.7604 1.0892
vt 0.8095 1.0535
vt 0.7719 1.0536
vt 0.6582 1.4922
vt 0.5586 1.4922
vt 0.6387 1.5527
vt 0.5781 1.5527
vt 0.7604 1.0892
vt 0.8211 1.0892
vt 0.7719 1.0536
vt 0.8095 1.0535
vt 0.5586 1.4922
vt 0.6582 1.4922
vt 0.5781 1.5527
vt 0.6387 1.5527
vt 0.6582 1.4922
vt 0.5586 1.4922
vt 0.6387 1.5527
vt 0.5781 1.5527
vt 0.3613 1.4609
vt 0.3613 1.4492
vt 0.4355 1.4609
vt 0.4355 1.4492
vt 0.1738 1.0625
vt 0.2051 1.0625
vt 0.1738 1.1113
vt 0.2051 1.1113
vt 0.2344 1.0621
vt 0.2051 1.0625
vt 0.2344 1.1113
vt 0.2051 1.1113
vt 0.1738 1.0332
vt 0.1738 1.0625
vt 0.2051 1.0332
vt 0.2051 1.0625
vt 0.3613 1.3965
vt 0.4355 1.3965
vt 0.2461 1.5176
vt 0.2246 1.4805
vt 0.2461 1.4492
vt 0.2246 1.4609
vt 0.2344 1.0621
vt 0.2051 1.0781
vt 0.2344 1.1113
vt 0.2051 1.1113
vt 0.2345 1.0019
vt 0.1738 1.0781
vt 0.1738 1.1113
vt 0.2676 1.0621
vt 0.2676 1.1113
vt 0.2676 1.1113
vt 0.2676 1.1343
vt 0.2344 1.1113
vt 0.2344 1.1343
vt 0.2051 1.1113
vt 0.2051 1.0781
vt 0.2344 1.0621
vt 0.2246 1.4492
vt 0.2246 1.3965
vt 0.2344 1.0621
vt 0.2344 1.1113
vt 0.3622 1.5565
vt 0.4105 1.5561
vt 0.3652 1.5898
vt 0.3965 1.5898
vt 0.3379 1.4492
vt 0.2676 1.1343
vt 0.2344 1.1343
vt 0.2676 1.1113
vt 0.2676 1.0621
vt 0.5586 1.4922
vt 0.6582 1.4922
vt 0.5781 1.5527
vt 0.6387 1.5527
vt 0.3613 1.5176
vt 0.2402 1.5898
vt 0.2246 1.5176
vt 0.1973 1.5410
vt 0.1973 1.5176
vt 0.1816 1.5176
vt 0.1738 1.0019
vt 0.2051 1.0019
vt 0.4355 1.5176
vt 0.4629 1.5352
vt 0.4629 1.5176
vt 0.3223 1.6035
vt 0.3223 1.5898
vt 0.2422 1.6035
vt 0.3692 1.6035
vt 0.4196 1.6074
vt 0.6094 1.4570
vt 0.3379 1.5176
vt 0.6621 1.5332
vt 0.7188 1.5332
vt 0.6719 1.5566
vt 0.2051 1.0019
vt 0.4629 1.5683
vt 0.2676 1.0019
vt 0.1738 1.0019
vt 0.2051 1.0019
vt 0.4355 1.4746
vt 0.1934 1.5898
vt 0.1698 1.5502
vt 0.2051 1.0625
vt 0.2051 1.0332
vt 0.1992 1.6035
vt 0.2345 1.0019
vt 0.2676 1.0019
vt 0.4629 1.5937
vt 0.2345 1.0019
vt 0.2345 1.0019
vt 0.6719 1.5566
vt 0.7907 1.1113
vt 0.6094 1.4570
vt 0.7907 1.1113
vt 0.6094 1.4570
vt 0.6094 1.4570
vn 0.0018 -0.5868 0.8098
vn -0.9139 -0.3464 0.2118
vn 0.0257 -0.7920 -0.6099
vn -0.8800 0.0321 -0.4738
vn -0.1288 0.9808 -0.1468
vn -0.1288 0.9808 -0.1467
vn -0.1289 0.9808 -0.1467
vn -0.1291 0.9807 -0.1466
vn -0.1288 0.9807 -0.1468
vn -0.1284 0.9808 -0.1471
vn 0.1290 -0.9807 0.1469
vn 0.1290 -0.9807 0.1468
vn 0.1289 -0.9807 0.1470
vn 0.1288 -0.9807 0.1468
vn 0.1289 -0.9808 0.1466
vn 0.1286 -0.9809 0.1462
vn -0.1288 0.9808 -0.1466
vn -0.1289 0.9808 -0.1466
vn -0.7008 -0.0340 -0.7126
vn -0.6584 0.1405 -0.7394
vn -0.8739 0.1723 0.4545
vn -0.6436 0.3565 0.6772
vn -0.7945 -0.1506 -0.5883
vn 0.4668 -0.3370 -0.8177
vn -0.3814 -0.4734 -0.7940
vn 0.6250 -0.7575 -0.1886
vn -0.7394 0.1141 0.6635
vn -0.7945 -0.1505 -0.5883
vn -0.7237 -0.6144 0.3144
vn -0.3814 -0.4733 -0.7940
vn -0.4077 -0.3397 -0.8476
vn -0.8042 -0.2748 -0.5270
vn -0.8303 -0.1835 0.5262
vn -0.7894 -0.0735 0.6094
vn 0.9925 -0.0472 0.1126
vn -0.5711 -0.0102 0.8208
vn 0.4854 -0.3198 0.8137
vn 0.5640 -0.0341 0.8250
vn -0.8795 0.0432 0.4739
vn 0.0570 -0.3534 0.9337
vn -0.7609 -0.5478 0.3477
vn 0.3830 0.1717 0.9076
vn -0.4366 -0.2015 -0.8768
vn -0.8358 -0.3499 -0.4231
vn 0.5595 -0.2742 -0.7821
vn 0.3648 -0.8199 -0.4412
vn 0.0569 -0.3534 0.9337
vn -0.8359 -0.3498 -0.4230
vn -0.8358 -0.3498 -0.4231
vn -0.4366 -0.2016 -0.8768
vn 0.5595 -0.2743 -0.7821
vn -0.6436 0.3565 0.6773
vn 0.7635 0.0492 0.6439
vn 0.2055 -0.4974 0.8429
vn -0.4528 -0.0167 -0.8915
vn -0.9048 -0.3413 -0.2547
vn -0.6856 0.1711 -0.7076
vn -0.9535 -0.0319 -0.2997
vn 0.5328 -0.3428 -0.7737
vn 0.6249 -0.7575 -0.1887
vn -0.7236 -0.6144 0.3143
vn 0.1288 -0.9808 0.1468
vn 0.1288 -0.9807 0.1469
vn -0.8157 -0.1954 -0.5444
vn 0.5194 0.5243 0.6748
vn 0.1425 0.2342 0.9617
vn -0.6994 -0.2445 0.6716
vn -0.4052 -0.8994 -0.1639
vn -0.9231 -0.3751 -0.0849
vn -0.6994 -0.2444 0.6716
vn -0.4053 -0.8994 -0.1638
vn 0.4146 0.5298 -0.7399
vn 0.8349 0.2443 -0.4932
vn 0.5367 0.6823 0.4963
vn -0.7883 0.5573 -0.2608
vn -0.7236 0.6174 0.3085
vn -0.1290 0.9807 -0.1467
vn 0.6093 -0.0655 -0.7902
vn -0.9231 -0.3751 -0.0851
vn 0.9925 -0.0473 0.1126
vn -0.4076 -0.3397 -0.8476
vn -0.8722 -0.1573 -0.4632
vn -0.4053 -0.8994 -0.1639
vn -0.7237 0.6174 0.3084
vn -0.3655 0.6053 0.7072
vn -0.7883 0.5573 -0.2609
vn -0.3655 0.6052 0.7072
vn -0.3654 0.6053 0.7072
vn 0.1291 -0.9807 0.1465
vn 0.1290 -0.9807 0.1467
vn -0.1289 0.9808 -0.1464
vn 0.1287 -0.9807 0.1469
usemtl diss_00.png
s 1
f 81/81/74 82/82/75 83/83/76
f 84/84/77 83/83/76 82/82/75
f 85/85/78 86/86/79 87/87/79
f 88/88/80 87/87/79 86/86/79
f 89/89/81 90/90/82 91/91/79
f 92/92/83 91/91/79 90/90/82
f 93/93/84 94/94/85 95/95/86
f 96/96/87 95/95/86 94/94/85
f 97/97/84 98/98/88 99/99/87
f 100/100/89 99/99/87 98/98/88
f 101/101/90 102/102/91 103/103/79
f 104/104/91 103/103/79 102/102/91
f 105/105/92 106/106/93 107/107/94
f 108/108/95 107/107/94 106/106/93
f 109/109/96 110/110/97 111/111/98
f 112/112/99 111/111/98 110/110/97
f 113/113/100 114/114/101 115/115/102
f 116/116/103 115/115/102 114/114/101
f 117/117/104 118/118/105 119/119/106
f 120/120/107 119/119/106 118/118/105
f 121/121/77 106/106/93 83/83/76
f 106/106/93 121/121/77 108/108/95
f 122/122/75 108/108/95 121/121/77
f 123/123/108 124/124/109 125/125/110
f 125/125/110 81/81/74 83/83/76
f 126/126/94 125/125/110 124/124/109
f 120/120/107 127/127/111 119/119/106
f 128/128/112 127/127/111 120/120/107
f 120/120/107 118/118/105 128/128/112
f 127/127/111 128/128/112 129/129/113
f 130/130/114 129/129/113 128/128/112
f 131/131/115 119/119/106 127/127/111
f 132/132/116 128/128/112 118/118/105
f 132/132/116 133/133/117 128/128/112
f 130/130/114 128/128/112 133/133/117
f 134/134/118 127/127/111 135/135/119
f 129/129/113 135/135/119 127/127/111
f 136/136/120 137/137/114 138/138/119
f 139/139/121 138/138/119 137/137/114
f 140/140/122 141/141/123 138/138/119
f 142/142/124 138/138/119 141/141/123
f 125/125/110 126/126/94 143/143/125
f 144/144/75 81/81/74 143/143/125
f 125/125/110 143/143/125 81/81/74
f 110/110/97 145/145/126 112/112/99
f 146/146/127 112/112/99 145/145/126
f 147/147/128 148/148/129 149/149/130
f 150/150/131 149/149/130 148/148/129
f 151/151/132 83/83/76 106/106/93
f 83/83/76 151/151/132 125/125/110
f 151/151/132 106/106/93 105/105/92
f 125/125/110 151/151/132 123/123/108
f 152/152/103 153/153/133 154/154/134
f 146/146/127 154/154/134 153/153/133
f 145/145/126 155/155/100 146/146/127
f 154/154/134 146/146/127 155/155/100
f 156/156/135 157/157/87 158/158/87
f 159/159/136 158/158/87 157/157/87
f 148/148/129 147/147/128 161/160/137
f 105/105/92 107/107/94 161/160/137
f 151/151/132 105/105/92 161/160/137
f 162/161/138 163/162/115 123/123/108
f 164/163/139 165/164/140 163/162/115
f 162/161/138 164/163/139 163/162/115
f 165/164/140 164/163/139 166/165/141
f 167/166/142 117/117/104 119/119/106
f 167/166/142 119/119/106 168/167/143
f 131/131/115 168/167/143 119/119/106
f 169/168/142 170/169/144 148/148/129
f 148/148/129 161/160/137 169/168/142
f 170/169/144 169/168/142 171/170/143
f 172/171/145 173/172/146 149/149/130
f 147/147/128 149/149/130 173/172/146
f 173/172/146 162/161/138 123/123/108
f 174/173/147 162/161/138 173/172/146
f 172/171/145 174/173/147 173/172/146
f 175/174/148 172/171/145 149/149/130
f 150/150/131 176/175/149 175/174/148
f 175/174/148 149/149/130 150/150/131
f 177/176/150 90/90/82 89/89/81
f 147/147/128 178/177/151 161/160/137
f 173/172/146 178/177/151 147/147/128
f 123/123/108 178/177/151 173/172/146
f 178/177/151 151/151/132 161/160/137
f 151/151/132 178/177/151 123/123/108
f 179/178/152 180/179/153 181/180/154
f 113/113/100 182/181/155 114/114/101
f 150/150/131 148/148/129 183/182/155
f 183/182/155 176/175/149 150/150/131
f 170/169/144 183/182/155 148/148/129
f 127/127/111 134/134/118 184/183/108
f 184/183/108 131/131/115 127/127/111
f 110/110/97 109/109/96 185/184/155
f 145/145/126 110/110/97 186/185/156
f 185/184/155 186/185/156 110/110/97
f 161/160/137 187/186/109 169/168/142
f 107/107/94 187/186/109 161/160/137
f 188/187/157 162/161/138 174/173/147
f 162/161/138 188/187/157 189/188/158
f 162/161/138 189/188/158 164/163/139
f 190/189/105 142/142/124 141/141/123
f 142/142/124 190/189/105 191/190/154
f 174/173/147 192/191/159 188/187/157
f 186/185/156 193/192/139 145/145/126
f 194/193/160 155/155/100 145/145/126
f 145/145/126 193/192/139 194/193/160
f 183/182/155 195/194/161 176/175/149
f 113/113/100 196/195/161 182/181/155
f 197/196/153 142/142/124 191/190/154
f 180/179/153 179/178/152 198/197/109
f 93/93/84 199/198/162 94/94/85
f 97/97/84 200/199/163 98/98/88
f 201/200/82 86/86/79 85/85/78
f 202/201/164 102/102/91 101/101/90
f 156/156/135 203/202/165 157/157/87
