# Blender v2.78 (sub 0) OBJ File: 'Cloud_armL.blend'
# www.blender.org
mtllib Cloud_armL.mtl
o 0001_r_sym307
v 0.137051 0.694994 -0.060767
v 0.140222 0.676492 -0.057211
v 0.113014 0.689101 -0.067947
v 0.115761 0.672068 -0.063642
v 0.098103 0.752125 -0.069528
v 0.130036 0.757686 -0.060382
v 0.103267 0.699418 -0.031020
v 0.122421 0.703703 -0.022645
v 0.091396 0.726891 -0.016391
v 0.113818 0.732312 -0.007694
v 0.100922 0.691496 -0.051095
v 0.135868 0.698019 -0.041676
v 0.065524 0.839985 0.001493
v 0.078793 0.830380 0.008022
v 0.074395 0.854789 -0.002093
v 0.070732 0.857381 -0.024343
v 0.080479 0.848948 -0.027701
v 0.126361 0.815184 -0.020583
v 0.133697 0.753017 -0.031628
v 0.070589 0.831010 -0.037370
v 0.072375 0.839805 -0.027538
v 0.073748 0.859986 -0.000377
v 0.085537 0.738502 -0.045997
v 0.100922 0.691496 -0.051095
v 0.144147 0.678364 -0.035417
v 0.076321 0.849910 -0.034949
v 0.122090 0.820413 -0.049764
v 0.107972 0.810952 0.003815
v 0.107647 0.788289 -0.002868
v 0.122724 0.785910 -0.020065
v 0.069344 0.815713 -0.025811
v 0.097124 0.797714 -0.061661
v 0.079365 0.796350 -0.008177
v 0.080144 0.787064 -0.038716
v 0.065107 0.838960 -0.025811
v 0.080144 0.787064 -0.038716
v 0.069638 0.857870 -0.000031
v 0.090495 0.848846 -0.030756
v 0.113818 0.732312 -0.007694
v 0.090495 0.850701 -0.030756
v 0.120714 0.792835 -0.052325
v 0.133697 0.753017 -0.031628
v 0.130036 0.757686 -0.060382
v 0.085537 0.738502 -0.045997
v 0.091396 0.726891 -0.016391
v 0.098103 0.752125 -0.069528
v 0.085537 0.738502 -0.045997
v 0.104459 0.672540 -0.027855
v 0.128429 0.677157 -0.019406
v 0.099516 0.670110 -0.048967
v 0.099516 0.670110 -0.048967
v 0.085537 0.738502 -0.045997
vt 0.5508 1.7910
vt 0.5508 1.7598
vt 0.5215 1.7890
vt 0.5215 1.7598
vt 0.5215 1.8535
vt 0.5508 1.8555
vt 0.6563 1.7930
vt 0.6230 1.7969
vt 0.6563 1.8320
vt 0.6230 1.8340
vt 0.4980 1.7812
vt 0.5860 1.7852
vt 0.4277 1.9777
vt 0.4277 1.9517
vt 0.4345 1.9638
vt 0.4277 1.8736
vt 0.4277 1.8989
vt 0.4162 1.9036
vt 0.5860 1.8496
vt 0.4345 1.9297
vt 0.6758 1.8379
vt 0.6758 1.7812
vt 0.5860 1.7598
vt 0.4345 1.8730
vt 0.4158 1.8404
vt 0.4257 1.8485
vt 0.4162 1.8745
vt 0.4162 1.9323
vt 0.4035 1.9380
vt 0.4003 1.9067
vt 0.4145 1.8213
vt 0.4059 1.8408
vt 0.4173 1.9667
vt 0.3999 1.9878
vt 0.4160 1.9980
vt 0.3987 1.8099
vt 0.4277 1.9295
vt 0.4345 1.8955
vt 0.3512 1.9358
vt 0.4036 1.8700
vt 0.3667 1.8972
vt 0.3707 1.8631
vt 0.3544 1.9877
vt 0.3476 1.9679
vt 0.3695 1.8335
vt 0.4980 1.8379
vt 0.6563 1.7598
vt 0.6230 1.7598
vt 0.4980 1.7578
vt 0.6758 1.7578
vt 0.3544 1.8099
vn 0.7978 0.0553 -0.6004
vn 0.7735 0.0565 -0.6313
vn -0.3201 -0.1971 -0.9266
vn -0.4629 -0.1899 -0.8658
vn -0.3573 0.0204 -0.9338
vn 0.6790 0.2120 -0.7028
vn -0.8200 -0.2849 0.4963
vn 0.2279 -0.1499 0.9621
vn -0.6306 -0.4259 0.6488
vn 0.3157 -0.1602 0.9352
vn -0.9618 -0.1433 -0.2334
vn 0.9317 0.2110 0.2956
vn -0.7342 -0.0244 0.6784
vn -0.2795 0.0974 0.9552
vn -0.9523 0.0438 0.3019
vn -0.5647 -0.0348 -0.8245
vn -0.1704 -0.9449 0.2795
vn 0.8744 0.4490 0.1837
vn 0.9601 0.0922 0.2641
vn 0.1684 -0.9759 -0.1389
vn -0.9578 -0.2225 -0.1823
vn 0.8618 0.4421 0.2486
vn -0.3984 -0.9132 0.0857
vn -0.7884 -0.2427 -0.5652
vn -0.3131 -0.6150 -0.7237
vn 0.4388 0.6987 -0.5650
vn 0.6033 0.2321 0.7630
vn 0.2152 -0.2273 0.9497
vn 0.8950 -0.0098 0.4460
vn 0.0805 0.9967 -0.0095
vn -0.1192 0.2473 -0.9616
vn -0.6794 -0.2100 0.7031
vn -0.9550 -0.1653 -0.2462
vn 0.2417 0.0989 -0.9653
vn -0.9184 -0.2017 -0.3405
vn 0.8982 -0.3123 -0.3092
vn 0.0629 -0.9757 0.2097
vn 0.9015 0.1541 -0.4044
vn -0.9577 -0.2225 -0.1823
vn -0.7776 0.0523 0.6266
vn 0.4447 0.3026 0.8430
vn -0.9518 0.0322 -0.3051
vn -0.9518 0.0323 -0.3051
usemtl diss_00.png
s 1
f 1/1/1 2/2/2 3/3/3
f 4/4/4 3/3/3 2/2/2
f 3/3/3 5/5/5 1/1/1
f 6/6/6 1/1/1 5/5/5
f 7/7/7 8/8/8 9/9/9
f 10/10/10 9/9/9 8/8/8
f 3/3/3 4/4/4 11/11/11
f 12/12/12 2/2/2 1/1/1
f 13/13/13 14/14/14 15/15/15
f 16/16/16 17/17/17 18/18/18
f 19/19/19 12/12/12 1/1/1
f 8/8/8 12/12/12 19/19/19
f 19/19/19 10/10/10 8/8/8
f 6/6/6 19/19/19 1/1/1
f 22/20/20 15/15/15 14/14/14
f 7/7/7 9/9/9 23/21/21
f 23/21/21 24/22/11 7/7/7
f 2/2/2 12/12/12 25/23/22
f 16/16/16 26/24/23 17/17/17
f 21/25/24 20/26/25 27/27/26
f 20/26/25 16/16/16 27/27/26
f 18/18/18 27/27/26 16/16/16
f 28/28/27 18/18/18 17/17/17
f 29/29/28 28/28/27 14/14/14
f 28/28/27 30/30/29 18/18/18
f 28/28/27 29/29/28 30/30/29
f 31/31/30 21/25/24 32/32/31
f 32/32/31 21/25/24 27/27/26
f 33/33/32 29/29/28 14/14/14
f 14/14/14 13/13/13 33/33/32
f 34/34/33 33/33/32 13/13/13
f 13/13/13 35/35/34 34/34/33
f 32/32/31 36/36/35 31/31/30
f 14/14/14 37/37/36 22/20/20
f 28/28/27 37/37/36 14/14/14
f 17/17/17 37/37/36 28/28/27
f 37/37/36 17/17/17 38/38/37
f 22/20/20 37/37/36 38/38/37
f 26/24/23 38/38/37 17/17/17
f 29/29/28 33/33/32 39/39/10
f 30/30/29 29/29/28 39/39/10
f 18/18/18 30/30/29 41/40/38
f 32/32/31 27/27/26 41/40/38
f 41/40/38 27/27/26 18/18/18
f 30/30/29 42/41/19 41/40/38
f 42/41/19 30/30/29 39/39/10
f 41/40/38 43/42/6 32/32/31
f 42/41/19 43/42/6 41/40/38
f 33/33/32 34/34/33 44/43/39
f 44/43/39 45/44/9 33/33/32
f 33/33/32 45/44/9 39/39/10
f 43/42/6 46/45/5 32/32/31
f 36/36/35 32/32/31 46/45/5
f 3/3/3 11/11/11 47/46/39
f 47/46/39 5/5/5 3/3/3
f 8/8/8 7/7/7 48/47/40
f 7/7/7 24/22/11 48/47/40
f 12/12/12 8/8/8 49/48/41
f 48/47/40 49/48/41 8/8/8
f 25/23/22 12/12/12 49/48/41
f 11/11/11 4/4/4 50/49/42
f 48/47/40 24/22/11 51/50/43
f 46/45/5 52/51/21 36/36/35
