# Blender v2.78 (sub 0) OBJ File: 'Cloud_legR.blend'
# www.blender.org
mtllib Cloud_legR.mtl
o 0001_r_sym307
v -0.097813 0.310904 0.056154
v -0.108057 0.327167 0.073785
v -0.147634 0.317182 0.017054
v -0.157658 0.333497 0.035820
v -0.023664 0.601560 -0.050235
v -0.078588 0.316517 -0.039218
v -0.104565 0.346560 0.072393
v -0.154862 0.353905 0.034260
v -0.086979 0.554344 -0.044677
v -0.030507 0.550409 -0.054439
v -0.081460 0.529197 -0.043453
v -0.028150 0.520191 -0.044593
v -0.079869 0.449298 0.092648
v -0.139445 0.471961 0.050647
v -0.085650 0.603151 -0.035779
v -0.041427 0.342940 -0.011003
v -0.083981 0.355479 -0.043186
v -0.026075 0.378107 -0.008563
v -0.079292 0.389876 -0.044631
v -0.009078 0.517656 -0.051773
v -0.012858 0.549343 -0.058378
v -0.040443 0.353433 0.044102
v -0.049055 0.327289 0.028729
v -0.135062 0.328706 -0.045780
v -0.109871 0.595159 0.024409
v -0.017891 0.497213 -0.040568
v -0.020526 0.498892 0.018180
v -0.072060 0.504435 0.096019
v -0.096006 0.581379 0.082537
v -0.125187 0.529180 0.061105
v -0.019436 0.526102 0.069124
v -0.124497 0.558803 0.005757
v -0.076103 0.507723 -0.037216
v -0.023167 0.550514 -0.055064
v -0.020526 0.498892 0.018180
v -0.153744 0.377425 -0.042462
v -0.019508 0.580435 0.090713
v -0.049055 0.327289 0.028729
v -0.022055 0.507758 -0.033316
v -0.029599 0.500413 -0.032118
v -0.139445 0.471961 0.050647
v -0.131954 0.463882 -0.019044
v -0.038032 0.455576 0.053467
v -0.040443 0.353433 0.044102
v -0.038032 0.455576 0.053467
v -0.108057 0.327167 0.073785
vt 0.9480 1.7078
vt 0.9480 1.7291
vt 0.8947 1.7077
vt 0.8947 1.7280
vt 0.9480 1.7440
vt 0.8947 1.7432
vt 0.7781 1.9205
vt 0.7242 1.9648
vt 0.7312 1.9199
vt 0.7781 1.9001
vt 0.7312 1.8945
vt 0.9637 1.8348
vt 0.8947 1.8453
vt 0.7781 1.9637
vt 0.8947 1.9455
vt 0.9746 1.9453
vt 0.8305 1.9575
vt 0.7312 1.8772
vt 0.7312 1.8945
vt 0.7312 1.9199
vt 0.7713 1.7502
vt 0.7165 1.7387
vt 0.7713 1.7037
vt 0.7165 1.7747
vt 0.7713 1.7794
vt 0.9963 1.7500
vt 0.9963 1.7227
vt 0.8305 1.7222
vt 0.9895 1.8971
vt 0.9963 1.8672
vt 0.9682 1.8822
vt 0.8947 1.8961
vt 0.8305 1.9188
vt 0.7781 1.8793
vt 0.7242 1.9180
vt 0.8305 1.7596
vt 0.7242 1.8808
vt 0.6816 1.8770
vt 0.7312 1.8772
vt 0.8947 1.8452
vt 0.8305 1.8333
vt 0.6816 1.8457
vt 0.6816 1.7578
vt 0.6816 1.7383
vt 0.9963 1.8379
vt 0.9480 1.7291
vn -0.4950 -0.7537 0.4324
vn -0.0866 -0.5036 0.8596
vn -0.7711 -0.6035 0.2031
vn -0.9221 -0.2009 0.3306
vn -0.0772 -0.1218 0.9895
vn -0.8343 0.0794 0.5456
vn -0.5518 0.1171 -0.8257
vn 0.4562 0.6921 -0.5594
vn -0.1168 -0.1058 -0.9875
vn -0.4197 -0.2720 -0.8659
vn 0.1360 -0.4049 -0.9042
vn 0.0063 -0.1074 0.9942
vn -0.9164 0.1165 0.3830
vn -0.3860 0.7701 -0.5080
vn -0.4396 0.6130 0.6565
vn 0.6192 0.3936 0.6795
vn -0.6068 0.7793 0.1565
vn 0.1581 -0.2862 -0.9450
vn 0.4347 -0.1451 -0.8888
vn 0.5720 -0.0435 -0.8191
vn 0.2655 -0.2216 -0.9383
vn 0.8215 -0.2340 -0.5200
vn 0.2920 0.0730 -0.9536
vn 0.9231 -0.1715 -0.3441
vn 0.1319 0.0201 -0.9911
vn 0.8054 -0.3174 0.5006
vn 0.6902 -0.5368 0.4853
vn -0.2797 -0.0780 -0.9569
vn 0.8920 -0.2492 0.3772
vn 0.3818 -0.6629 -0.6440
vn -0.0057 -0.1105 0.9939
vn -0.8211 0.1632 0.5469
vn -0.9420 0.1772 -0.2851
vn -0.2942 -0.1468 -0.9444
vn -0.1560 -0.1984 -0.9676
vn -0.6988 0.1184 -0.7054
vn -0.3012 -0.5828 -0.7547
vn 0.7575 -0.5692 0.3195
vn 0.5410 -0.3726 -0.7540
vn -0.6711 0.2331 -0.7038
vn 0.8402 -0.1723 0.5141
vn 0.6825 -0.6577 0.3188
vn 0.8402 -0.1724 0.5141
vn 0.5471 -0.3872 0.7421
usemtl diss_00.png
s 1
f 1/1/1 2/2/2 3/3/3
f 4/4/4 3/3/3 2/2/2
f 2/2/2 7/5/5 4/4/4
f 8/6/6 4/4/4 7/5/5
f 9/7/7 5/8/8 10/9/9
f 9/7/7 10/9/9 11/10/10
f 12/11/11 11/10/10 10/9/9
f 7/5/5 13/12/12 8/6/6
f 14/13/13 8/6/6 13/12/12
f 5/8/8 9/7/7 15/14/14
f 29/15/15 37/16/16 5/8/8 15/14/14 25/17/17
f 37/16/16 26/18/18 20/19/19 21/20/20 5/8/8
f 17/21/21 16/22/22 6/23/23
f 16/22/22 17/21/21 18/24/24
f 19/25/25 18/24/24 17/21/21
f 7/5/5 22/26/26 13/12/12
f 7/5/5 23/27/27 22/26/26
f 3/3/3 4/4/4 24/28/28
f 25/17/17 15/14/14 9/7/7
f 37/16/16 31/29/29 35/30/30
f 28/31/31 14/13/13 13/12/12
f 28/31/31 29/15/15 30/32/32
f 30/32/32 14/13/13 28/31/31
f 11/10/10 32/33/33 9/7/7
f 30/32/32 29/15/15 32/33/33
f 32/33/33 25/17/17 9/7/7
f 32/33/33 29/15/15 25/17/17
f 12/11/11 33/34/34 11/10/10
f 32/33/33 11/10/10 33/34/34
f 34/35/35 21/20/20 20/19/19
f 34/35/35 12/11/11 10/9/9
f 34/35/35 5/8/8 21/20/20
f 34/35/35 10/9/9 5/8/8
f 4/4/4 8/6/6 36/36/36
f 4/4/4 36/36/36 24/28/28
f 36/36/36 19/25/25 17/21/21
f 17/21/21 6/23/23 36/36/36
f 24/28/28 36/36/36 6/23/23
f 31/29/29 37/16/16 28/31/31
f 28/31/31 37/16/16 29/15/15
f 39/37/37 26/18/18 27/38/38
f 20/19/19 39/37/37 34/35/35
f 39/37/37 12/11/11 34/35/35
f 26/18/18 39/37/37 20/19/19
f 40/39/39 39/37/37 27/38/38
f 27/38/38 18/24/24 40/39/39
f 40/39/39 18/24/24 19/25/25
f 39/37/37 40/39/39 12/11/11
f 40/39/39 19/25/25 33/34/34
f 33/34/34 12/11/11 40/39/39
f 36/36/36 8/6/6 41/40/13
f 32/33/33 41/40/13 30/32/32
f 42/41/40 33/34/34 19/25/25
f 36/36/36 42/41/40 19/25/25
f 32/33/33 42/41/40 41/40/13
f 33/34/34 42/41/40 32/33/33
f 41/40/13 42/41/40 36/36/36
f 27/38/38 43/42/41 18/24/24
f 16/22/22 44/43/26 38/44/42
f 16/22/22 18/24/24 44/43/26
f 18/24/24 43/42/41 44/43/26
f 31/29/29 45/45/43 35/30/30
f 45/45/43 28/31/31 13/12/12
f 45/45/43 31/29/29 28/31/31
f 22/26/26 45/45/43 13/12/12
f 26/18/18 37/16/16 35/30/30
f 23/27/27 7/5/5 46/46/2
f 46/46/2 1/1/44 23/27/27
