# Blender v2.78 (sub 0) OBJ File: 'Full_remake.blend'
# www.blender.org
mtllib goku_butt.mtl
o Mesh.404_DrawCall_231.001
v 1.616103 17.341854 4.480275
v 0.188419 17.247728 4.756474
v 0.902027 17.150394 4.398479
v 1.071702 19.730114 3.968482
v -0.200778 19.500820 4.262344
v 0.586488 21.389040 3.648927
v -0.439901 21.248520 3.833491
v 0.320544 22.620878 3.365453
v -0.425680 22.958309 3.395656
v 0.565887 23.184364 2.942127
v 0.392772 23.808897 2.805059
v 2.628906 16.839628 4.294509
v 2.873350 19.272690 3.991040
v 3.243209 17.214165 4.390433
v 2.292082 19.146423 3.817207
v 2.548214 20.997963 3.586757
v 2.027883 20.982191 3.429010
v 2.071926 22.722879 3.220697
v 1.733754 22.539450 3.111899
v 1.154029 23.824097 2.700791
v 1.120912 23.472078 2.647358
v 1.382990 22.407881 3.292220
v 1.024882 23.280434 2.850587
v 1.475702 21.017168 3.595812
v 1.655590 19.122326 3.987480
v 1.939966 16.620815 4.586800
v 0.438052 19.500032 3.909142
v 0.078423 21.252878 3.544878
v -0.063167 22.733036 3.205906
v 0.484459 23.438690 2.738298
v -2.539894 22.478489 1.527400
v -2.718103 21.368885 1.809618
v -1.644854 22.501722 2.575643
v -2.609145 22.363094 0.301541
v -2.799328 21.142761 0.396445
v -2.278096 22.258610 -1.007332
v -2.379014 20.503141 -1.193532
v -1.226837 22.186907 -2.017861
v -1.308661 20.071186 -2.205563
v -0.035475 22.185963 -2.409292
v 0.026224 19.925837 -2.495602
v 1.149692 20.261526 3.202955
v 2.208791 21.111845 3.103804
v 1.001133 22.182037 3.011284
v 0.805619 22.131508 2.867160
v 0.676687 20.145206 3.267953
v 0.925615 19.925190 3.108492
v 0.575585 22.182049 3.052952
v -0.533122 21.109041 3.369638
v -0.513235 22.362934 3.008684
v -1.816515 21.424541 2.843145
v 0.414026 23.470362 2.712298
v 0.744416 23.914894 2.640716
v -0.223276 23.926605 2.714834
v 1.112859 23.465179 2.637968
v 1.716207 23.910683 2.506320
v 1.752701 23.463530 2.539555
v 2.562049 23.962908 2.119124
v 2.535412 23.488415 2.155116
v 3.453072 24.045626 1.439564
v 3.470700 23.545376 1.428554
v 4.051860 24.198910 0.293493
v 4.111827 23.652754 0.259917
v 4.141086 24.370419 -1.082073
v 4.206143 23.793577 -1.139133
v 3.432938 24.504501 -2.023211
v 3.464571 23.902895 -2.079194
v 2.213860 24.564562 -2.289173
v 2.233420 23.955507 -2.374976
v 1.075668 24.589104 -2.287292
v 1.119223 23.976366 -2.380152
v -0.012529 23.972157 -2.136110
v 0.031445 23.564764 -2.063749
v -1.183927 23.543268 -1.556099
v 2.228558 23.550289 -2.294968
v 1.138353 23.566479 -2.294273
v 3.388140 23.513149 -2.037247
v 4.174881 23.430939 -1.128694
v 4.080179 23.326933 0.228052
v 3.381941 23.277012 1.354833
v 2.521959 23.262997 2.050224
v 1.751473 23.260941 2.432629
v -0.079011 24.583393 -2.042677
v -1.304180 23.938257 -1.571987
v -1.352421 24.543793 -1.508775
v -2.190249 23.841003 -0.458805
v -2.199720 24.422482 -0.400416
v -2.292947 23.700245 0.941142
v -2.297368 24.251053 0.976070
v -1.807868 23.584517 1.989989
v -1.844096 24.089121 2.009056
v -0.961507 23.514351 2.527071
v -1.031052 23.992413 2.505393
v -0.221504 23.478165 2.749548
v -2.116246 23.472395 -0.466636
v -2.219334 23.368441 0.890990
v -1.679001 23.310352 1.887424
v -0.911005 23.285612 2.411492
v -0.186677 23.273708 2.636585
v 0.779063 23.263807 2.580487
v 0.442026 23.267307 2.599436
v 1.118516 23.262856 2.528251
v 3.703337 22.186802 -2.500582
v 4.589627 22.258469 -1.679756
v 4.957042 20.510628 -1.904795
v 5.024763 21.150759 -0.362123
v 1.399657 19.922546 -2.394680
v 1.635674 18.402954 -2.380980
v 1.472725 18.491434 -2.167398
v 1.605927 19.890820 -2.612563
v 1.255055 22.196583 -2.464102
v 1.368639 22.188927 -2.557286
v 1.231906 19.890442 -2.576297
v 1.313143 18.296383 -2.351412
v 0.127134 18.260059 -2.363865
v 4.688212 22.362944 -0.412959
v 3.299674 22.501617 2.091519
v 4.392587 22.478340 0.848632
v 2.092585 22.362873 2.753547
v 2.750013 18.736845 -2.691362
v 2.813106 19.928679 -2.765799
v 4.003302 19.116348 -2.734004
v 4.667258 21.376427 1.093580
v 1.156540 22.188927 -2.536521
v 1.231356 23.500708 2.395423
v 0.999226 23.148327 2.886768
v 0.923545 23.132334 2.343906
v 1.053172 23.386143 2.993472
v 0.868359 23.139874 2.902590
v 0.874503 23.386810 3.037464
v 0.847152 23.080141 2.900197
v 0.844900 23.341362 3.107776
v 0.588758 23.067217 2.927354
v 0.476364 23.302727 3.145663
v 0.425463 23.432112 2.478909
v 0.345340 23.721218 3.087684
v 0.308320 23.920977 2.829189
v 0.887040 24.016903 2.771198
v 0.938742 23.943024 2.480943
v 0.906481 24.047441 2.488766
v 0.914690 23.962860 2.715264
v 1.201567 23.881845 2.450207
v 1.183786 23.900490 2.702145
v 1.126935 23.660482 2.908590
v 0.864308 23.782919 3.034650
v 0.315813 23.951612 2.548050
v 0.899682 23.761871 2.937196
v 0.669069 23.126320 2.370919
v 2.559237 22.185911 -2.663343
v 4.100954 20.076706 -2.730047
v 4.967063 19.819008 -2.004174
v -1.256234 18.796360 -2.137421
v 3.563852 21.430037 2.321510
v -2.351681 19.922205 -1.240142
vt 0.0273 0.7688
vt 0.0984 0.7703
vt 0.0625 0.7570
vt 0.0211 0.8313
vt 0.1055 0.8320
vt 0.0164 0.9078
vt 0.1102 0.9094
vt 0.0133 0.9625
vt 0.1141 0.9617
vt 0.0117 0.9953
vt 0.1156 0.9937
vt 0.0625 0.7570
vt 0.1055 0.8320
vt 0.0984 0.7703
vt 0.0602 0.8305
vt 0.1102 0.9094
vt 0.0609 0.9086
vt 0.1141 0.9617
vt 0.0617 0.9625
vt 0.1156 0.9937
vt 0.0602 0.9937
vt 0.0133 0.9625
vt 0.0117 0.9953
vt 0.0164 0.9078
vt 0.0211 0.8313
vt 0.0273 0.7688
vt 0.0602 0.8305
vt 0.0609 0.9086
vt 0.0617 0.9625
vt 0.0602 0.9937
vt 0.4668 0.9043
vt 0.4707 0.8496
vt 0.3769 0.9004
vt 0.5488 0.9082
vt 0.5488 0.8496
vt 0.6504 0.9082
vt 0.6504 0.8418
vt 0.7402 0.9082
vt 0.7402 0.8184
vt 0.8301 0.9082
vt 0.8301 0.8027
vt 0.2012 0.7949
vt 0.2871 0.8193
vt 0.2012 0.8691
vt 0.1816 0.8691
vt 0.2012 0.7949
vt 0.1816 0.7949
vt 0.2012 0.8691
vt 0.2876 0.8193
vt 0.2832 0.8887
vt 0.3789 0.8384
vt 0.0781 0.0045
vt 0.0092 0.0162
vt 0.0088 0.0767
vt 0.0781 0.0278
vt 0.0088 0.0767
vt 0.0781 0.0767
vt 0.0095 0.1275
vt 0.0742 0.1275
vt 0.0091 0.1729
vt 0.0703 0.1729
vt 0.0085 0.2250
vt 0.0703 0.2250
vt 0.0085 0.2794
vt 0.0703 0.2794
vt 0.0085 0.3397
vt 0.0703 0.3397
vt 0.0085 0.3978
vt 0.0703 0.3978
vt 0.0090 0.4788
vt 0.0703 0.4788
vt 0.0703 0.3978
vt 0.1261 0.3978
vt 0.1261 0.3397
vt 0.0703 0.4795
vt 0.1260 0.3984
vt 0.1260 0.4795
vt 0.0703 0.3984
vt 0.1260 0.3398
vt 0.0703 0.3398
vt 0.1260 0.2803
vt 0.0703 0.2803
vt 0.1260 0.2256
vt 0.0703 0.2256
vt 0.1250 0.1738
vt 0.0703 0.1738
vt 0.1250 0.1279
vt 0.0742 0.1279
vt 0.1250 0.0772
vt 0.0781 0.0772
vt 0.0781 0.0283
vt 0.0085 0.3978
vt 0.0703 0.3397
vt 0.0085 0.3397
vt 0.0703 0.2794
vt 0.0085 0.2794
vt 0.0703 0.2250
vt 0.0085 0.2250
vt 0.0703 0.1729
vt 0.0091 0.1729
vt 0.0742 0.1275
vt 0.0095 0.1275
vt 0.0781 0.0767
vt 0.0781 0.0278
vt 0.1260 0.3398
vt 0.0703 0.3398
vt 0.0703 0.3979
vt 0.1260 0.2798
vt 0.0703 0.2798
vt 0.1260 0.2251
vt 0.0703 0.2251
vt 0.1255 0.1738
vt 0.0703 0.1733
vt 0.1255 0.1279
vt 0.0742 0.1279
vt 0.1255 0.0772
vt 0.1260 0.4790
vt 0.1260 0.3979
vt 0.0703 0.4790
vt 0.0781 0.0049
vt 0.1255 0.0161
vt 0.1255 0.0049
vt 0.1255 0.0278
vt 0.1255 0.0772
vt 0.1255 0.0278
vt 0.7402 0.9668
vt 0.7402 0.9082
vt 0.8340 0.9668
vt 0.6504 0.9082
vt 0.6504 0.8418
vt 0.5488 0.8496
vt 0.9277 0.8027
vt 0.9121 0.7480
vt 0.9277 0.7480
vt 0.9121 0.8027
vt 0.9277 0.9082
vt 0.9121 0.9082
vt 0.9121 0.8027
vt 0.9121 0.7480
vt 0.8301 0.7480
vt 0.1816 0.9668
vt 0.2363 0.9668
vt 0.5996 0.9668
vt 0.4902 0.9668
vt 0.5488 0.9082
vt 0.4121 0.9668
vt 0.3301 0.9668
vt 0.3769 0.9004
vt 0.4668 0.9043
vt 0.2754 0.9668
vt 0.2363 0.9668
vt 0.2832 0.8887
vt 0.8301 0.7480
vt 0.8301 0.8027
vt 0.7402 0.7715
vt 0.4707 0.8496
vt 0.8340 0.9668
vt 0.9277 0.9668
vt 0.9121 0.9082
vt 0.1348 0.6621
vt 0.1123 0.6060
vt 0.1035 0.6035
vt 0.1196 0.6299
vt 0.1035 0.6035
vt 0.1025 0.6313
vt 0.0864 0.5913
vt 0.0791 0.6289
vt 0.0449 0.5894
vt 0.0547 0.6270
vt 0.0288 0.6631
vt 0.0439 0.6611
vt 0.0337 0.6714
vt 0.0947 0.6841
vt 0.1025 0.6699
vt 0.0923 0.6773
vt 0.1035 0.6743
vt 0.1265 0.6685
vt 0.1269 0.6733
vt 0.1206 0.6533
vt 0.0833 0.6685
vt 0.0442 0.6611
vt 0.0923 0.6773
vt 0.0339 0.6714
vt 0.0947 0.6838
vt 0.0286 0.6775
vt 0.0830 0.6685
vt 0.1011 0.6602
vt 0.0684 0.6001
vt 0.1074 0.6001
vt 0.1074 0.6001
vt 0.0283 0.6777
vt 0.8301 0.9082
vt 0.7402 0.8184
vt 0.6504 0.8105
vt 0.2754 0.9668
vt 0.3301 0.9668
vt 0.4121 0.9668
vt 0.4902 0.9668
vt 0.5996 0.9668
vt 0.7402 0.9668
vt 0.7402 0.7715
vt 0.3789 0.8384
vt 0.2876 0.8191
vt 0.6504 0.8105
vn 0.9297 -0.3603 0.0761
vn -0.7374 -0.5350 0.4123
vn -0.0008 -0.8953 -0.4454
vn 0.9769 0.2059 -0.0573
vn -0.9301 -0.0845 0.3575
vn 0.9702 0.2421 0.0129
vn -0.9491 -0.0067 0.3149
vn 0.9802 0.0819 0.1804
vn -0.8456 0.4759 0.2418
vn 0.7925 -0.6027 0.0930
vn -0.7538 0.6475 -0.1120
vn 0.2549 -0.8078 -0.5315
vn 0.9770 0.1511 0.1507
vn 0.9781 -0.1599 0.1331
vn 0.0325 -0.2064 -0.9779
vn 0.9643 0.2514 0.0838
vn 0.0077 -0.1928 -0.9812
vn 0.8578 0.5036 0.1026
vn 0.0920 -0.2614 -0.9608
vn 0.8090 0.5630 0.1690
vn 0.4268 -0.1419 -0.8932
vn -0.9432 -0.1279 0.3066
vn -0.8733 -0.2763 0.4012
vn -0.9839 -0.0485 0.1721
vn -0.9785 -0.1495 0.1423
vn -0.6573 -0.6919 0.2988
vn -0.1639 -0.2322 -0.9588
vn -0.1403 -0.2244 -0.9643
vn -0.2568 -0.3008 -0.9185
vn -0.4195 -0.2138 -0.8822
vn -0.8775 0.3480 0.3299
vn -0.9034 0.2329 0.3601
vn -0.5191 0.3895 0.7608
vn -0.9663 0.2361 -0.1026
vn -0.9820 0.1296 -0.1374
vn -0.8388 0.1996 -0.5065
vn -0.7711 0.0777 -0.6320
vn -0.5011 0.1859 -0.8452
vn -0.4667 0.0044 -0.8844
vn -0.1992 0.1506 -0.9683
vn -0.1414 -0.0278 -0.9896
vn -0.3494 0.0796 0.9336
vn 0.2111 0.2129 0.9540
vn -0.2410 0.2204 0.9452
vn 0.0312 0.1670 0.9855
vn 0.4978 0.1194 0.8591
vn 0.1664 0.1162 0.9792
vn 0.3406 0.2416 0.9086
vn -0.0415 0.2108 0.9767
vn -0.1507 0.3465 0.9259
vn -0.5260 0.2809 0.8028
vn 0.0711 -0.1967 0.9779
vn 0.1061 0.0943 0.9899
vn -0.0957 0.0813 0.9921
vn 0.1332 -0.1891 0.9729
vn 0.2775 0.0980 0.9557
vn 0.2883 -0.1880 0.9389
vn 0.5285 0.0424 0.8479
vn 0.5169 -0.1835 0.8361
vn 0.7707 0.0158 0.6370
vn 0.7593 -0.1890 0.6227
vn 0.9562 0.0823 0.2808
vn 0.9570 -0.0263 0.2888
vn 0.9501 0.1350 -0.2811
vn 0.9550 0.0171 -0.2961
vn 0.5216 0.1137 -0.8456
vn 0.5357 -0.0300 -0.8438
vn 0.1133 0.1364 -0.9841
vn 0.1157 -0.0216 -0.9930
vn -0.1085 0.1388 -0.9844
vn -0.1012 -0.0303 -0.9944
vn -0.2997 -0.0390 -0.9532
vn -0.2769 0.0219 -0.9607
vn -0.5740 0.0563 -0.8170
vn 0.0840 0.0356 -0.9958
vn -0.1054 -0.0185 -0.9943
vn 0.4872 0.1244 -0.8644
vn 0.9359 0.2128 -0.2807
vn 0.9318 0.2234 0.2860
vn 0.7537 0.0970 0.6500
vn 0.5236 0.0544 0.8502
vn 0.2983 -0.0211 0.9543
vn -0.3113 0.1059 -0.9444
vn -0.6006 -0.0783 -0.7957
vn -0.6147 0.0396 -0.7878
vn -0.9271 -0.0787 -0.3665
vn -0.9347 0.0211 -0.3547
vn -0.9734 -0.1395 0.1815
vn -0.9864 -0.0246 0.1627
vn -0.7374 -0.2914 0.6093
vn -0.7777 -0.0750 0.6242
vn -0.4050 -0.2564 0.8776
vn -0.4215 -0.0104 0.9068
vn -0.1167 -0.2213 0.9682
vn -0.9221 0.0835 -0.3779
vn -0.9780 0.1216 0.1698
vn -0.7549 0.0302 0.6552
vn -0.4108 0.0030 0.9117
vn -0.1012 -0.0536 0.9934
vn 0.1045 -0.0330 0.9940
vn 0.0520 -0.0545 0.9972
vn 0.1522 -0.0453 0.9873
vn 0.4019 0.2693 -0.8752
vn 0.8355 0.3345 -0.4359
vn 0.7656 0.1959 -0.6128
vn 0.9669 0.2548 0.0130
vn -0.0006 -0.0802 -0.9968
vn -0.5572 -0.1510 -0.8165
vn 0.0778 -0.1525 -0.9852
vn -0.4502 -0.0732 -0.8899
vn -0.0356 0.0583 -0.9977
vn -0.3620 0.0675 -0.9297
vn 0.3677 -0.0360 -0.9293
vn 0.3521 -0.1171 -0.9286
vn -0.0933 -0.1052 -0.9901
vn 0.9345 0.3523 0.0504
vn 0.5591 0.4052 0.7233
vn 0.8201 0.4084 0.4007
vn 0.2999 0.3523 0.8865
vn -0.1162 -0.0923 -0.9889
vn -0.0504 -0.0067 -0.9987
vn 0.2237 -0.0403 -0.9738
vn 0.8555 0.3033 0.4196
vn 0.2438 0.1115 -0.9634
vn 0.9517 -0.2897 0.1019
vn 0.5076 -0.7495 0.4250
vn 0.4330 -0.8976 -0.0828
vn 0.6291 -0.1810 0.7560
vn 0.6579 -0.5707 0.4914
vn 0.7171 -0.0948 0.6905
vn 0.5111 -0.7906 0.3373
vn 0.5590 -0.2132 0.8013
vn -0.4017 -0.8672 0.2941
vn -0.5229 -0.3794 0.7633
vn -0.9170 -0.3923 -0.0717
vn -0.6736 0.2392 0.6993
vn -0.7644 0.5781 0.2854
vn 0.4873 0.7961 0.3587
vn 0.6188 0.7855 0.0072
vn 0.5705 0.8112 0.1283
vn 0.7243 0.6425 0.2503
vn 0.8196 0.5727 0.0147
vn 0.7071 0.6310 0.3191
vn 0.7139 0.1808 0.6765
vn 0.5360 0.4018 0.7425
vn -0.7996 0.5990 0.0440
vn 0.7183 0.3345 0.6100
vn -0.3606 -0.9216 -0.1440
vn 0.0194 0.1680 -0.9856
vn 0.3806 0.0603 -0.9228
vn 0.6510 0.0555 -0.7571
vn -0.3632 -0.0757 -0.9286
vn 0.5802 0.3029 0.7560
vn -0.6789 -0.0046 -0.7342
usemtl pants.png
s 1
f 1/1/1 2/2/2 3/3/3
f 4/4/4 2/2/2 1/1/1
f 4/4/4 5/5/5 2/2/2
f 6/6/6 5/5/5 4/4/4
f 6/6/6 7/7/7 5/5/5
f 8/8/8 7/7/7 6/6/6
f 8/8/8 9/9/9 7/7/7
f 10/10/10 9/9/9 8/8/8
f 10/10/10 11/11/11 9/9/9
f 12/12/12 13/13/13 14/14/14
f 15/15/15 13/13/13 12/12/12
f 15/15/15 16/16/16 13/13/13
f 17/17/17 16/16/16 15/15/15
f 17/17/17 18/18/18 16/16/16
f 19/19/19 18/18/18 17/17/17
f 19/19/19 20/20/20 18/18/18
f 21/21/21 20/20/20 19/19/19
f 21/21/21 22/22/22 23/23/23
f 19/19/19 22/22/22 21/21/21
f 19/19/19 24/24/24 22/22/22
f 17/17/17 24/24/24 19/19/19
f 17/17/17 25/25/25 24/24/24
f 15/15/15 25/25/25 17/17/17
f 15/15/15 26/26/26 25/25/25
f 12/12/12 26/26/26 15/15/15
f 2/2/2 27/27/27 3/3/3
f 5/5/5 27/27/27 2/2/2
f 5/5/5 28/28/28 27/27/27
f 7/7/7 28/28/28 5/5/5
f 7/7/7 29/29/29 28/28/28
f 9/9/9 29/29/29 7/7/7
f 9/9/9 30/30/30 29/29/29
f 11/11/11 30/30/30 9/9/9
f 14/14/14 25/25/25 26/26/26
f 13/13/13 25/25/25 14/14/14
f 13/13/13 24/24/24 25/25/25
f 16/16/16 24/24/24 13/13/13
f 16/16/16 22/22/22 24/24/24
f 18/18/18 22/22/22 16/16/16
f 18/18/18 23/23/23 22/22/22
f 20/20/20 23/23/23 18/18/18
f 8/8/8 29/29/29 30/30/30
f 6/6/6 29/29/29 8/8/8
f 6/6/6 28/28/28 29/29/29
f 4/4/4 28/28/28 6/6/6
f 4/4/4 27/27/27 28/28/28
f 1/1/1 27/27/27 4/4/4
f 1/1/1 3/3/3 27/27/27
f 10/10/10 8/8/8 30/30/30
f 14/14/14 26/26/26 12/12/12
f 31/31/31 32/32/32 33/33/33
f 34/34/34 32/32/32 31/31/31
f 34/34/34 35/35/35 32/32/32
f 36/36/36 35/35/35 34/34/34
f 36/36/36 37/37/37 35/35/35
f 38/38/38 37/37/37 36/36/36
f 38/38/38 39/39/39 37/37/37
f 40/40/40 39/39/39 38/38/38
f 40/40/40 41/41/41 39/39/39
f 42/42/42 43/43/43 44/44/44
f 45/45/45 46/46/46 47/47/47
f 48/48/48 46/46/46 45/45/45
f 48/48/48 49/49/49 46/46/46
f 50/50/50 49/49/49 48/48/48
f 50/50/50 51/51/51 49/49/49
f 33/33/33 51/51/51 50/50/50
f 33/33/33 32/32/32 51/51/51
f 52/52/52 53/53/53 54/54/54
f 55/55/55 53/53/53 52/52/52
f 55/55/55 56/56/56 53/53/53
f 57/57/57 56/56/56 55/55/55
f 57/57/57 58/58/58 56/56/56
f 59/59/59 58/58/58 57/57/57
f 59/59/59 60/60/60 58/58/58
f 61/61/61 60/60/60 59/59/59
f 61/61/61 62/62/62 60/60/60
f 63/63/63 62/62/62 61/61/61
f 63/63/63 64/64/64 62/62/62
f 65/65/65 64/64/64 63/63/63
f 65/65/65 66/66/66 64/64/64
f 67/67/67 66/66/66 65/65/65
f 67/67/67 68/68/68 66/66/66
f 69/69/69 68/68/68 67/67/67
f 69/69/69 70/70/70 68/68/68
f 71/71/71 70/70/70 69/69/69
f 71/71/71 72/72/72 70/70/70
f 73/73/73 72/72/72 71/71/71
f 73/73/73 74/74/74 72/72/72
f 71/75/71 75/76/75 76/77/76
f 69/78/69 75/76/75 71/75/71
f 69/78/69 77/79/77 75/76/75
f 67/80/67 77/79/77 69/78/69
f 67/80/67 78/81/78 77/79/77
f 65/82/65 78/81/78 67/80/67
f 65/82/65 79/83/79 78/81/78
f 63/84/63 79/83/79 65/82/65
f 63/84/63 80/85/80 79/83/79
f 61/86/61 80/85/80 63/84/63
f 61/86/61 81/87/81 80/85/80
f 59/88/59 81/87/81 61/86/61
f 59/88/59 82/89/82 81/87/81
f 57/90/57 82/89/82 59/88/59
f 57/90/57 55/91/55 82/89/82
f 72/72/72 83/92/83 70/70/70
f 84/93/84 83/92/83 72/72/72
f 84/93/84 85/94/85 83/92/83
f 86/95/86 85/94/85 84/93/84
f 86/95/86 87/96/87 85/94/85
f 88/97/88 87/96/87 86/95/86
f 88/97/88 89/98/89 87/96/87
f 90/99/90 89/98/89 88/97/88
f 90/99/90 91/100/91 89/98/89
f 92/101/92 91/100/91 90/99/90
f 92/101/92 93/102/93 91/100/91
f 94/103/94 93/102/93 92/101/92
f 94/103/94 54/54/54 93/102/93
f 52/104/52 54/54/54 94/103/94
f 74/105/74 84/106/84 72/107/72
f 95/108/95 84/106/84 74/105/74
f 95/108/95 86/109/86 84/106/84
f 96/110/96 86/109/86 95/108/95
f 96/110/96 88/111/88 86/109/86
f 97/112/97 88/111/88 96/110/96
f 97/112/97 90/113/90 88/111/88
f 98/114/98 90/113/90 97/112/97
f 98/114/98 92/115/92 90/113/90
f 99/116/99 92/115/92 98/114/98
f 99/116/99 94/103/94 92/115/92
f 52/104/52 94/103/94 99/116/99
f 76/117/76 73/118/73 71/119/71
f 52/120/52 100/121/100 55/55/55
f 101/122/101 100/121/100 52/120/52
f 102/123/102 82/124/82 55/55/55
f 102/123/102 55/55/55 100/121/100
f 101/125/101 52/104/52 99/116/99
f 77/126/77 103/127/103 75/128/75
f 104/129/104 103/127/103 77/126/77
f 104/129/104 105/130/105 103/127/103
f 106/131/106 105/130/105 104/129/104
f 107/132/107 108/133/108 109/134/109
f 107/132/107 110/135/110 108/133/108
f 111/136/111 110/135/110 107/132/107
f 111/136/111 112/137/112 110/135/110
f 107/132/107 113/138/113 111/136/111
f 114/139/114 113/138/113 107/132/107
f 114/139/114 115/140/115 113/138/113
f 48/48/48 45/45/45 100/141/100
f 101/142/101 48/48/48 100/141/100
f 48/48/48 101/142/101 50/50/50
f 78/143/78 79/144/79 116/145/116
f 116/145/116 106/131/106 104/129/104
f 80/146/80 81/147/81 117/148/117
f 117/148/117 118/149/118 80/146/80
f 82/150/82 102/151/102 119/152/119
f 78/143/78 104/129/104 77/126/77
f 104/129/104 78/143/78 116/145/116
f 120/153/120 121/154/121 122/155/122
f 118/149/118 117/148/117 123/156/123
f 73/157/73 76/158/76 124/159/124
f 125/160/125 126/161/126 127/162/127
f 128/163/128 126/161/126 125/160/125
f 128/163/128 129/164/129 126/161/126
f 130/165/130 129/164/129 128/163/128
f 130/165/130 131/166/131 129/164/129
f 132/167/132 131/166/131 130/165/130
f 132/167/132 133/168/133 131/166/131
f 134/169/134 133/168/133 132/167/132
f 134/169/134 135/170/135 133/168/133
f 136/171/136 135/170/135 134/169/134
f 136/171/136 137/172/137 135/170/135
f 138/173/138 139/174/139 140/175/140
f 141/176/141 139/174/139 138/173/138
f 141/176/141 142/177/142 139/174/139
f 143/178/143 142/177/142 141/176/141
f 143/178/143 125/160/125 142/177/142
f 144/179/144 125/160/125 143/178/143
f 144/179/144 128/163/128 125/160/125
f 130/165/130 128/163/128 144/179/144
f 145/180/145 136/181/136 134/169/134
f 138/182/138 136/181/136 145/180/145
f 138/182/138 137/183/137 136/181/136
f 140/184/140 137/183/137 138/182/138
f 140/184/140 146/185/146 137/183/137
f 145/186/145 141/176/141 138/182/138
f 147/187/147 141/176/141 145/186/145
f 147/187/147 143/178/143 141/176/141
f 144/179/144 143/178/143 147/187/147
f 148/188/148 127/162/127 131/166/131
f 129/164/129 127/189/127 126/161/126
f 133/168/133 148/188/148 131/166/131
f 129/190/129 131/166/131 127/162/127
f 146/191/146 135/170/135 137/172/137
f 130/165/130 147/187/147 132/167/132
f 132/167/132 145/186/145 134/169/134
f 147/187/147 130/165/130 144/179/144
f 145/186/145 132/167/132 147/187/147
f 148/188/148 133/168/133 135/170/135
f 149/192/149 121/154/121 112/137/112
f 150/193/150 121/154/121 149/192/149
f 150/193/150 122/155/122 121/154/121
f 151/194/151 122/155/122 150/193/150
f 116/145/116 123/156/123 106/131/106
f 116/145/116 118/149/118 123/156/123
f 79/144/79 118/149/118 116/145/116
f 79/144/79 80/146/80 118/149/118
f 99/195/99 50/50/50 101/142/101
f 98/196/98 50/50/50 99/195/99
f 98/196/98 33/33/33 50/50/50
f 97/197/97 33/33/33 98/196/98
f 97/197/97 31/31/31 33/33/33
f 96/198/96 31/31/31 97/197/97
f 96/198/96 34/34/34 31/31/31
f 95/199/95 34/34/34 96/198/96
f 95/199/95 36/36/36 34/34/34
f 74/200/74 36/36/36 95/199/95
f 74/200/74 38/38/38 36/36/36
f 73/157/73 38/38/38 74/200/74
f 73/157/73 40/40/40 38/38/38
f 124/159/124 40/40/40 73/157/73
f 124/159/124 41/41/41 40/40/40
f 150/193/150 105/130/105 151/194/151
f 150/193/150 103/127/103 105/130/105
f 149/192/149 103/127/103 150/193/150
f 149/192/149 75/128/75 103/127/103
f 112/137/112 75/128/75 149/192/149
f 112/137/112 76/158/76 75/128/75
f 111/136/111 76/158/76 112/137/112
f 111/136/111 124/159/124 76/158/76
f 113/138/113 124/159/124 111/136/111
f 113/138/113 41/41/41 124/159/124
f 115/140/115 41/41/41 113/138/113
f 115/140/115 152/201/152 41/41/41
f 117/148/117 153/202/153 123/156/123
f 117/148/117 119/152/119 153/202/153
f 81/147/81 119/152/119 117/148/117
f 81/147/81 82/150/82 119/152/119
f 107/132/107 109/134/109 114/139/114
f 119/152/119 43/203/43 153/202/153
f 119/152/119 44/44/44 43/203/43
f 102/151/102 44/44/44 119/152/119
f 102/151/102 100/141/100 44/44/44
f 121/154/121 110/135/110 112/137/112
f 120/153/120 110/135/110 121/154/121
f 120/153/120 108/133/108 110/135/110
f 152/201/152 39/39/39 41/41/41
f 154/204/154 39/39/39 152/201/152
f 154/204/154 37/37/37 39/39/39
f 42/42/42 45/45/45 47/47/47
f 44/44/44 45/45/45 42/42/42
f 44/44/44 100/141/100 45/45/45
