# Blender v2.78 (sub 0) OBJ File: 'goku_but.blend'
# www.blender.org
mtllib goku_but.mtl
o Mesh.404_DrawCall_231
v 0.475495 -6.851077 5.927885
v -0.974058 -6.994266 5.969336
v -0.207846 -7.075940 5.738859
v -0.059468 -4.511393 5.219516
v -1.354284 -4.782181 5.310412
v -0.542549 -2.889269 4.745246
v -1.579777 -3.065513 4.764746
v -0.800596 -1.682663 4.363117
v -1.552796 -1.376293 4.253779
v -0.508107 -1.127298 3.959467
v -0.677767 -0.516909 3.765977
v 1.728195 -4.890497 5.560431
v 2.098316 -6.913107 6.113510
v 1.188761 -5.048457 5.299483
v 1.414638 -3.198853 5.025880
v 0.928703 -3.243254 4.785519
v 0.945782 -1.512402 4.504103
v 0.637077 -1.714396 4.350008
v 0.089218 -0.473704 3.787919
v 0.077814 -0.828726 3.746697
v 0.266019 -1.853164 4.476185
v -0.043930 -1.015683 3.940284
v 0.355578 -3.224892 4.857217
v 0.534047 -5.092503 5.363545
v 0.802175 -7.552659 6.120742
v -0.665942 -4.770462 5.067711
v -1.021117 -3.051101 4.565580
v -1.156086 -1.593628 4.137355
v -0.563330 -0.885333 3.733055
v -3.308380 -2.022602 2.087972
v -3.492086 -3.126119 2.389845
v -2.601696 -1.917898 3.266991
v -3.168515 -2.191569 0.874412
v -3.328959 -3.413897 0.995084
v -2.620748 -2.336073 -0.355519
v -2.627681 -4.100455 -0.471426
v -1.414081 -2.404872 -1.174468
v -1.389324 -4.528122 -1.271440
v -0.174890 -2.371409 -1.363810
v -0.020520 -4.628504 -1.330331
v -0.499228 -4.816451 4.570999
v 0.098619 -6.442481 4.623457
v 0.126197 -4.009347 4.452708
v 1.156566 -3.119626 4.488718
v -0.055592 -2.106488 4.147342
v 0.395704 -4.520350 4.633654
v 1.400530 -5.985281 -0.699964
v -0.222493 -2.171215 3.975572
v -0.346658 -4.142872 4.444407
v -0.067103 -4.358532 4.338860
v -0.481874 -2.122838 4.118295
v -1.589537 -3.227942 4.299101
v -1.553793 -1.990388 3.886665
v -2.777637 -2.989382 3.553890
v -0.629519 -0.857790 3.694321
v -0.307605 -0.402968 3.656911
v -1.273941 -0.429334 3.569972
v 0.071683 -0.836344 3.736451
v 0.672540 -0.371441 3.684782
v 0.718640 -0.814875 3.744971
v 1.568678 -0.299411 3.440147
v 1.553067 -0.772707 3.493965
v 2.556939 -0.207146 2.913464
v 2.593673 -0.706221 2.929502
v 3.332409 -0.076207 1.875667
v 3.416229 -0.620244 1.878649
v 3.643308 0.041751 0.526969
v 3.737131 -0.533674 0.509125
v 3.097449 0.106469 -0.523290
v 3.159023 -0.495051 -0.544392
v 1.938309 0.103580 -0.988993
v 1.993210 -0.507127 -1.041104
v 0.815532 0.079779 -1.175797
v 0.895383 -0.533877 -1.230732
v -0.260349 -0.576063 -1.176527
v -0.214785 -0.977867 -1.078466
v -1.496195 -1.029932 -0.777505
v 1.989301 -0.908518 -0.943658
v 0.914303 -0.938666 -1.123326
v 3.090381 -0.885620 -0.496972
v 3.717294 -0.896569 0.531643
v 3.401765 -0.948156 1.857662
v 2.527884 -0.980940 2.855119
v 1.565170 -1.002648 3.399217
v 0.742328 -1.021590 3.649139
v -0.362836 0.035144 -1.124733
v -1.625893 -0.641410 -0.831901
v -1.705173 -0.036372 -0.806600
v -2.680944 -0.729993 0.123489
v -2.720374 -0.147523 0.151577
v -3.010256 -0.816816 1.492513
v -3.039730 -0.265718 1.499789
v -2.702787 -0.868227 2.611261
v -2.759346 -0.365266 2.599886
v -1.955709 -0.880026 3.283155
v -2.037385 -0.406662 3.227425
v -1.262259 -0.875469 3.625961
v -2.593800 -1.095131 0.145633
v -2.917739 -1.146985 1.471137
v -2.549117 -1.140685 2.544586
v -1.878688 -1.111006 3.188574
v -1.201970 -1.082768 3.530210
v -0.240621 -1.053930 3.634494
v -0.576023 -1.063976 3.597478
v 0.102612 -1.042618 3.638991
v 2.853081 -6.387684 -0.817067
v 3.524593 -2.215441 -0.837937
v 4.258815 -2.072193 0.113274
v 4.719586 -3.810664 0.035879
v 4.296258 -3.109034 1.849905
v 1.636792 -6.294012 -0.814885
v 1.316209 -4.569225 -1.004517
v 1.556854 -4.601165 -1.183673
v 1.105581 -2.308226 -1.205743
v 1.233290 -2.314905 -1.278469
v 1.182262 -4.615935 -1.209534
v 1.280740 -6.194402 -0.898185
v 0.115364 -6.281590 -1.104070
v 4.141424 -1.911180 1.372520
v 4.081901 -5.957349 -0.670831
v 2.351356 -1.727915 3.604504
v 3.636052 -1.756237 2.561181
v 1.056519 -1.890267 4.064539
v 2.770620 -4.518417 -1.137609
v 3.693731 -2.838596 3.214322
v 1.020825 -2.323059 -1.292949
v 0.227584 -0.805898 3.515318
v -0.070606 -1.147150 3.978035
v -0.054255 -1.188841 3.431521
v -0.043541 -0.903034 4.080644
v -0.201903 -1.160494 3.972472
v -0.226954 -0.908139 4.094521
v -0.220308 -1.221120 3.969484
v -0.266237 -0.951848 4.161092
v -0.479005 -1.243878 3.954295
v -0.634355 -1.004509 4.139565
v -0.578056 -0.905165 3.468109
v -0.768481 -0.594731 4.040802
v -0.768932 -0.407617 3.770466
v -0.192356 -0.289666 3.804061
v -0.090501 -0.373252 3.530167
v -0.127254 -0.270066 3.527554
v -0.153904 -0.344757 3.756101
v 0.175753 -0.424427 3.546111
v 0.115639 -0.396125 3.790492
v 0.033661 -0.629563 3.996018
v -0.250412 -0.513280 4.071080
v -0.715823 -0.388374 3.493260
v -0.198594 -0.536828 3.981906
v -0.309309 -1.204541 3.416506
v 2.424294 -2.271708 -1.186696
v 4.028558 -4.314429 -0.897350
v 4.770242 -4.504759 -0.027220
v -1.304330 -5.795643 -1.134559
v -2.572629 -4.681137 -0.484993
v 2.610950 -2.776841 3.925970
vt 0.0273 0.7688
vt 0.0984 0.7703
vt 0.0625 0.7570
vt 0.0211 0.8313
vt 0.1055 0.8320
vt 0.0164 0.9078
vt 0.1102 0.9094
vt 0.0133 0.9625
vt 0.1141 0.9617
vt 0.0117 0.9953
vt 0.1156 0.9937
vt 0.0602 0.8305
vt 0.1102 0.9094
vt 0.1055 0.8320
vt 0.0609 0.9086
vt 0.1141 0.9617
vt 0.0617 0.9625
vt 0.1156 0.9937
vt 0.0602 0.9937
vt 0.0133 0.9625
vt 0.0117 0.9953
vt 0.0164 0.9078
vt 0.0211 0.8313
vt 0.0273 0.7688
vt 0.0602 0.8305
vt 0.0609 0.9086
vt 0.0617 0.9625
vt 0.0602 0.9937
vt 0.0984 0.7703
vt 0.4668 0.9043
vt 0.4707 0.8496
vt 0.3769 0.9004
vt 0.5488 0.9082
vt 0.5488 0.8496
vt 0.6504 0.9082
vt 0.6504 0.8418
vt 0.7402 0.9082
vt 0.7402 0.8184
vt 0.8301 0.9082
vt 0.8301 0.8027
vt 0.2012 0.7949
vt 0.2871 0.8193
vt 0.2012 0.8691
vt 0.2168 0.7559
vt 0.1816 0.8691
vt 0.2012 0.7949
vt 0.1816 0.7949
vt 0.2012 0.8691
vt 0.2876 0.8193
vt 0.2832 0.8887
vt 0.3789 0.8384
vt 0.0781 0.0045
vt 0.0092 0.0162
vt 0.0088 0.0767
vt 0.0781 0.0278
vt 0.0088 0.0767
vt 0.0781 0.0767
vt 0.0095 0.1275
vt 0.0742 0.1275
vt 0.0091 0.1729
vt 0.0703 0.1729
vt 0.0085 0.2250
vt 0.0703 0.2250
vt 0.0085 0.2794
vt 0.0703 0.2794
vt 0.0085 0.3397
vt 0.0703 0.3397
vt 0.0085 0.3978
vt 0.0703 0.3978
vt 0.0090 0.4788
vt 0.0703 0.4788
vt 0.0703 0.3978
vt 0.1261 0.3978
vt 0.1261 0.3397
vt 0.0703 0.4795
vt 0.1260 0.3984
vt 0.1260 0.4795
vt 0.0703 0.3984
vt 0.1260 0.3398
vt 0.0703 0.3398
vt 0.1260 0.2803
vt 0.0703 0.2803
vt 0.1260 0.2256
vt 0.0703 0.2256
vt 0.1250 0.1738
vt 0.0703 0.1738
vt 0.1250 0.1279
vt 0.0742 0.1279
vt 0.1250 0.0772
vt 0.0781 0.0772
vt 0.0781 0.0283
vt 0.0085 0.3978
vt 0.0703 0.3397
vt 0.0085 0.3397
vt 0.0703 0.2794
vt 0.0085 0.2794
vt 0.0703 0.2250
vt 0.0085 0.2250
vt 0.0703 0.1729
vt 0.0091 0.1729
vt 0.0742 0.1275
vt 0.0095 0.1275
vt 0.0781 0.0767
vt 0.0781 0.0278
vt 0.1260 0.3398
vt 0.0703 0.3398
vt 0.0703 0.3979
vt 0.1260 0.2798
vt 0.0703 0.2798
vt 0.1260 0.2251
vt 0.0703 0.2251
vt 0.1255 0.1738
vt 0.0703 0.1733
vt 0.1255 0.1279
vt 0.0742 0.1279
vt 0.1255 0.0772
vt 0.1260 0.4790
vt 0.1260 0.3979
vt 0.0703 0.4790
vt 0.0781 0.0049
vt 0.1255 0.0161
vt 0.1255 0.0049
vt 0.1255 0.0278
vt 0.1255 0.0772
vt 0.1255 0.0278
vt 0.7402 0.9668
vt 0.7402 0.9082
vt 0.8340 0.9668
vt 0.6504 0.9082
vt 0.6504 0.8418
vt 0.5488 0.8496
vt 0.9277 0.8027
vt 0.9121 0.7480
vt 0.9277 0.7480
vt 0.9121 0.8027
vt 0.9277 0.9082
vt 0.9121 0.9082
vt 0.9121 0.8027
vt 0.9121 0.7480
vt 0.8301 0.7480
vt 0.1816 0.6777
vt 0.1816 0.9668
vt 0.2363 0.9668
vt 0.3789 0.8384
vt 0.5996 0.9668
vt 0.4902 0.9668
vt 0.5488 0.9082
vt 0.4121 0.9668
vt 0.3301 0.9668
vt 0.3769 0.9004
vt 0.4668 0.9043
vt 0.2754 0.9668
vt 0.2363 0.9668
vt 0.2832 0.8887
vt 0.8301 0.7480
vt 0.8301 0.8027
vt 0.7402 0.7715
vt 0.4707 0.8496
vt 0.8340 0.9668
vt 0.9277 0.9668
vt 0.9121 0.9082
vt 0.1348 0.6621
vt 0.1123 0.6060
vt 0.1035 0.6035
vt 0.1196 0.6299
vt 0.1035 0.6035
vt 0.1025 0.6313
vt 0.0864 0.5913
vt 0.0791 0.6289
vt 0.0449 0.5894
vt 0.0547 0.6270
vt 0.0288 0.6631
vt 0.0439 0.6611
vt 0.0337 0.6714
vt 0.0947 0.6841
vt 0.1025 0.6699
vt 0.0923 0.6773
vt 0.1035 0.6743
vt 0.1265 0.6685
vt 0.1269 0.6733
vt 0.1206 0.6533
vt 0.0833 0.6685
vt 0.0442 0.6611
vt 0.0923 0.6773
vt 0.0339 0.6714
vt 0.0947 0.6838
vt 0.0286 0.6775
vt 0.0830 0.6685
vt 0.1011 0.6602
vt 0.0684 0.6001
vt 0.1074 0.6001
vt 0.1074 0.6001
vt 0.0283 0.6777
vt 0.8301 0.9082
vt 0.7402 0.8184
vt 0.6504 0.8105
vt 0.2754 0.9668
vt 0.3301 0.9668
vt 0.4121 0.9668
vt 0.4902 0.9668
vt 0.5996 0.9668
vt 0.7402 0.9668
vt 0.7402 0.7715
vt 0.6504 0.8105
vt 0.2876 0.8191
vt 0.2168 0.7559
vt 0.2876 0.8191
vn 0.9161 -0.3170 0.2454
vn -0.7765 -0.5483 0.3103
vn 0.1047 -0.9123 -0.3960
vn 0.9650 0.2446 0.0946
vn -0.9731 -0.1090 0.2031
vn 0.9454 0.2834 0.1610
vn -0.9874 -0.0340 0.1542
vn 0.9330 0.1309 0.3352
vn -0.8902 0.4491 0.0761
vn 0.7866 -0.5641 0.2511
vn -0.7468 0.6097 -0.2655
vn 0.1219 -0.2632 -0.9570
vn 0.9274 0.2954 0.2293
vn 0.0732 0.2648 0.9615
vn 0.1777 -0.2328 -0.9561
vn 0.8106 0.5434 0.2182
vn 0.2598 -0.2969 -0.9189
vn 0.7494 0.6034 0.2727
vn 0.5742 -0.1606 -0.8028
vn -0.9760 -0.1551 0.1528
vn -0.9177 -0.2963 0.2647
vn -0.9965 -0.0831 0.0098
vn -0.9826 -0.1849 -0.0138
vn -0.1828 0.2709 0.9451
vn 0.0062 -0.2785 -0.9604
vn 0.0301 -0.2700 -0.9624
vn -0.0896 -0.3493 -0.9327
vn -0.2590 -0.2678 -0.9280
vn -0.1497 0.2639 0.9528
vn -0.9319 0.3237 0.1638
vn -0.9460 -0.2186 0.2394
vn -0.6518 0.3983 0.6453
vn -0.9434 0.1903 -0.2716
vn -0.9311 -0.3258 -0.1640
vn -0.7492 0.1426 -0.6467
vn -0.8591 -0.1747 -0.4810
vn -0.3596 0.1292 -0.9241
vn -0.3128 -0.0521 -0.9484
vn -0.0403 0.1017 -0.9940
vn 0.0263 -0.0748 -0.9968
vn -0.4323 0.1310 0.8921
vn 0.1582 0.1225 0.9798
vn -0.4025 0.2490 0.8809
vn -0.0660 0.0340 0.9972
vn -0.1391 0.2088 0.9680
vn 0.2502 0.1738 0.9525
vn -0.0812 0.1360 0.9874
vn 0.1759 0.2933 0.9397
vn -0.3452 0.0598 0.9366
vn -0.3148 0.3779 0.8707
vn -0.7243 -0.0864 0.6840
vn -0.0858 -0.1528 0.9845
vn -0.0635 0.1397 0.9881
vn -0.2008 0.6745 0.7104
vn -0.0240 -0.1427 0.9894
vn 0.0544 0.6937 0.7182
vn 0.1344 -0.1365 0.9815
vn 0.2347 0.6938 0.6808
vn 0.3767 -0.1265 0.9177
vn 0.4449 0.6703 0.5939
vn 0.6511 -0.1306 0.7476
vn 0.6072 0.7093 0.3581
vn 0.8959 0.0264 0.4434
vn 0.7013 0.7117 -0.0407
vn 0.9898 0.0454 -0.1352
vn 0.4785 0.7056 -0.5225
vn 0.6695 -0.0421 -0.7416
vn 0.1734 0.7514 -0.6366
vn 0.2801 -0.0578 -0.9582
vn 0.0141 0.7481 -0.6634
vn 0.0669 -0.0758 -0.9949
vn -0.1352 -0.0912 -0.9866
vn -0.1137 -0.0298 -0.9930
vn -0.4316 -0.0021 -0.9021
vn 0.2473 -0.0021 -0.9689
vn 0.0623 -0.0641 -0.9960
vn 0.6196 0.1090 -0.7773
vn 0.9615 0.2405 -0.1325
vn 0.8628 0.2745 0.4245
vn 0.6311 0.1558 0.7598
vn 0.3725 0.1118 0.9212
vn 0.1358 0.0312 0.9902
vn -0.1373 0.7334 -0.6657
vn -0.4566 -0.1366 -0.8791
vn -0.3979 0.6671 -0.6297
vn -0.8498 -0.1332 -0.5100
vn -0.6943 0.6380 -0.3328
vn -0.9846 -0.1731 0.0252
vn -0.7815 0.6211 0.0590
vn -0.8179 -0.2970 0.4928
vn -0.6873 0.5827 0.4336
vn -0.5362 -0.2368 0.8101
vn -0.4210 0.6447 0.6380
vn -0.2683 -0.1857 0.9452
vn -0.8486 0.0285 -0.5282
vn -0.9962 0.0869 0.0003
vn -0.8540 0.0252 0.5197
vn -0.5567 0.0233 0.8304
vn -0.2632 -0.0166 0.9646
vn -0.0613 0.0127 0.9980
vn -0.1128 -0.0108 0.9935
vn -0.0128 0.0021 0.9999
vn 0.5323 0.2496 -0.8089
vn 0.8967 0.3361 -0.2880
vn 0.9868 -0.0342 -0.1581
vn 0.9194 -0.1041 0.3791
vn 0.1713 -0.1273 -0.9769
vn -0.3731 -0.6956 -0.6139
vn 0.1020 -0.6857 -0.7206
vn -0.2874 -0.1433 -0.9470
vn 0.1290 0.0154 -0.9915
vn -0.2043 0.0134 -0.9788
vn 0.5183 -0.0589 -0.8532
vn 0.5652 -0.6543 -0.5024
vn -0.0447 -0.7643 -0.6433
vn -0.0779 -0.7083 0.7015
vn 0.4602 0.1130 0.8806
vn 0.9224 0.3386 0.1857
vn 0.4049 0.4664 0.7865
vn 0.7439 0.4522 0.4919
vn 0.1357 0.4012 0.9059
vn 0.1751 -0.7953 -0.5803
vn 0.1223 -0.0837 -0.9890
vn 0.6684 -0.6293 -0.3965
vn 0.7685 -0.0051 0.6398
vn 0.3967 0.0817 -0.9143
vn 0.9310 -0.2445 0.2710
vn 0.4557 -0.7089 0.5382
vn 0.4719 -0.8810 0.0328
vn 0.5004 -0.1226 0.8571
vn 0.5864 -0.5213 0.6199
vn 0.5950 -0.0355 0.8029
vn 0.4752 -0.7534 0.4543
vn 0.4250 -0.1558 0.8917
vn -0.4144 -0.8706 0.2651
vn -0.6290 -0.3693 0.6840
vn -0.8780 -0.4336 -0.2029
vn -0.7886 0.2392 0.5665
vn -0.8210 0.5564 0.1275
vn 0.3926 0.8303 0.3955
vn 0.5811 0.8107 0.0713
vn 0.5124 0.8393 0.1815
vn 0.6495 0.6825 0.3351
vn 0.7852 0.6071 0.1220
vn 0.6215 0.6731 0.4006
vn 0.5845 0.2389 0.7754
vn 0.3905 0.4547 0.8005
vn -0.8162 0.5657 -0.1171
vn 0.5946 0.3897 0.7033
vn -0.2991 -0.9412 -0.1570
vn 0.1773 0.1276 -0.9758
vn 0.5179 0.0168 -0.8553
vn 0.9443 -0.3258 -0.0456
vn -0.4507 -0.6381 -0.6242
vn -0.9122 -0.3293 -0.2437
vn -0.2213 -0.0496 0.9739
usemtl pants.png
s 1
f 1/1/1 2/2/2 3/3/3
f 4/4/4 2/2/2 1/1/1
f 4/4/4 5/5/5 2/2/2
f 6/6/6 5/5/5 4/4/4
f 6/6/6 7/7/7 5/5/5
f 8/8/8 7/7/7 6/6/6
f 8/8/8 9/9/9 7/7/7
f 10/10/10 9/9/9 8/8/8
f 10/10/10 11/11/11 9/9/9
f 14/12/12 15/13/13 12/14/14
f 16/15/15 15/13/13 14/12/12
f 16/15/15 17/16/16 15/13/13
f 18/17/17 17/16/16 16/15/15
f 18/17/17 19/18/18 17/16/16
f 20/19/19 19/18/18 18/17/17
f 20/19/19 21/20/20 22/21/21
f 18/17/17 21/20/20 20/19/19
f 18/17/17 23/22/22 21/20/20
f 16/15/15 23/22/22 18/17/17
f 16/15/15 24/23/23 23/22/22
f 14/12/12 24/23/23 16/15/15
f 14/12/12 25/24/24 24/23/23
f 2/2/2 26/25/25 3/3/3
f 5/5/5 26/25/25 2/2/2
f 5/5/5 27/26/26 26/25/25
f 7/7/7 27/26/26 5/5/5
f 7/7/7 28/27/27 27/26/26
f 9/9/9 28/27/27 7/7/7
f 9/9/9 29/28/28 28/27/27
f 11/11/11 29/28/28 9/9/9
f 13/29/29 24/23/23 25/24/24
f 12/14/14 24/23/23 13/29/29
f 12/14/14 23/22/22 24/23/23
f 15/13/13 23/22/22 12/14/14
f 15/13/13 21/20/20 23/22/22
f 17/16/16 21/20/20 15/13/13
f 17/16/16 22/21/21 21/20/20
f 19/18/18 22/21/21 17/16/16
f 8/8/8 28/27/27 29/28/28
f 6/6/6 28/27/27 8/8/8
f 6/6/6 27/26/26 28/27/27
f 4/4/4 27/26/26 6/6/6
f 4/4/4 26/25/25 27/26/26
f 1/1/1 26/25/25 4/4/4
f 1/1/1 3/3/3 26/25/25
f 10/10/10 8/8/8 29/28/28
f 30/30/30 31/31/31 32/32/32
f 33/33/33 31/31/31 30/30/30
f 33/33/33 34/34/34 31/31/31
f 35/35/35 34/34/34 33/33/33
f 35/35/35 36/36/36 34/34/34
f 37/37/37 36/36/36 35/35/35
f 37/37/37 38/38/38 36/36/36
f 39/39/39 38/38/38 37/37/37
f 39/39/39 40/40/40 38/38/38
f 43/41/41 44/42/42 45/43/43
f 46/44/44 44/42/42 43/41/41
f 48/45/45 49/46/46 50/47/47
f 51/48/48 49/46/46 48/45/45
f 51/48/48 52/49/49 49/46/46
f 53/50/50 52/49/49 51/48/48
f 53/50/50 54/51/51 52/49/49
f 32/32/32 54/51/51 53/50/50
f 32/32/32 31/31/31 54/51/51
f 55/52/52 56/53/53 57/54/54
f 58/55/55 56/53/53 55/52/52
f 58/55/55 59/56/56 56/53/53
f 60/57/57 59/56/56 58/55/55
f 60/57/57 61/58/58 59/56/56
f 62/59/59 61/58/58 60/57/57
f 62/59/59 63/60/60 61/58/58
f 64/61/61 63/60/60 62/59/59
f 64/61/61 65/62/62 63/60/60
f 66/63/63 65/62/62 64/61/61
f 66/63/63 67/64/64 65/62/62
f 68/65/65 67/64/64 66/63/63
f 68/65/65 69/66/66 67/64/64
f 70/67/67 69/66/66 68/65/65
f 70/67/67 71/68/68 69/66/66
f 72/69/69 71/68/68 70/67/67
f 72/69/69 73/70/70 71/68/68
f 74/71/71 73/70/70 72/69/69
f 74/71/71 75/72/72 73/70/70
f 76/73/73 75/72/72 74/71/71
f 76/73/73 77/74/74 75/72/72
f 74/75/71 78/76/75 79/77/76
f 72/78/69 78/76/75 74/75/71
f 72/78/69 80/79/77 78/76/75
f 70/80/67 80/79/77 72/78/69
f 70/80/67 81/81/78 80/79/77
f 68/82/65 81/81/78 70/80/67
f 68/82/65 82/83/79 81/81/78
f 66/84/63 82/83/79 68/82/65
f 66/84/63 83/85/80 82/83/79
f 64/86/61 83/85/80 66/84/63
f 64/86/61 84/87/81 83/85/80
f 62/88/59 84/87/81 64/86/61
f 62/88/59 85/89/82 84/87/81
f 60/90/57 85/89/82 62/88/59
f 60/90/57 58/91/55 85/89/82
f 75/72/72 86/92/83 73/70/70
f 87/93/84 86/92/83 75/72/72
f 87/93/84 88/94/85 86/92/83
f 89/95/86 88/94/85 87/93/84
f 89/95/86 90/96/87 88/94/85
f 91/97/88 90/96/87 89/95/86
f 91/97/88 92/98/89 90/96/87
f 93/99/90 92/98/89 91/97/88
f 93/99/90 94/100/91 92/98/89
f 95/101/92 94/100/91 93/99/90
f 95/101/92 96/102/93 94/100/91
f 97/103/94 96/102/93 95/101/92
f 97/103/94 57/54/54 96/102/93
f 55/104/52 57/54/54 97/103/94
f 77/105/74 87/106/84 75/107/72
f 98/108/95 87/106/84 77/105/74
f 98/108/95 89/109/86 87/106/84
f 99/110/96 89/109/86 98/108/95
f 99/110/96 91/111/88 89/109/86
f 100/112/97 91/111/88 99/110/96
f 100/112/97 93/113/90 91/111/88
f 101/114/98 93/113/90 100/112/97
f 101/114/98 95/115/92 93/113/90
f 102/116/99 95/115/92 101/114/98
f 102/116/99 97/103/94 95/115/92
f 55/104/52 97/103/94 102/116/99
f 79/117/76 76/118/73 74/119/71
f 55/120/52 103/121/100 58/55/55
f 104/122/101 103/121/100 55/120/52
f 105/123/102 85/124/82 58/55/55
f 105/123/102 58/55/55 103/121/100
f 104/125/101 55/104/52 102/116/99
f 80/126/77 107/127/103 78/128/75
f 108/129/104 107/127/103 80/126/77
f 108/129/104 109/130/105 107/127/103
f 110/131/106 109/130/105 108/129/104
f 112/132/107 111/133/108 47/134/109
f 112/132/107 113/135/110 111/133/108
f 114/136/111 113/135/110 112/132/107
f 114/136/111 115/137/112 113/135/110
f 112/132/107 116/138/113 114/136/111
f 117/139/114 116/138/113 112/132/107
f 117/139/114 118/140/115 116/138/113
f 43/41/41 42/141/116 46/44/44
f 51/48/48 48/45/45 103/142/100
f 104/143/101 51/48/48 103/142/100
f 51/48/48 104/143/101 53/50/50
f 156/144/117 46/44/44 42/141/116
f 81/145/78 82/146/79 119/147/118
f 47/134/109 42/141/116 117/139/114
f 119/147/118 110/131/106 108/129/104
f 83/148/80 84/149/81 121/150/119
f 121/150/119 122/151/120 83/148/80
f 85/152/82 105/153/102 123/154/121
f 81/145/78 108/129/104 80/126/77
f 108/129/104 81/145/78 119/147/118
f 106/155/122 124/156/123 120/157/124
f 122/151/120 121/150/119 125/158/125
f 76/159/73 79/160/76 126/161/126
f 127/162/127 128/163/128 129/164/129
f 130/165/130 128/163/128 127/162/127
f 130/165/130 131/166/131 128/163/128
f 132/167/132 131/166/131 130/165/130
f 132/167/132 133/168/133 131/166/131
f 134/169/134 133/168/133 132/167/132
f 134/169/134 135/170/135 133/168/133
f 136/171/136 135/170/135 134/169/134
f 136/171/136 137/172/137 135/170/135
f 138/173/138 137/172/137 136/171/136
f 138/173/138 139/174/139 137/172/137
f 140/175/140 141/176/141 142/177/142
f 143/178/143 141/176/141 140/175/140
f 143/178/143 144/179/144 141/176/141
f 145/180/145 144/179/144 143/178/143
f 145/180/145 127/162/127 144/179/144
f 146/181/146 127/162/127 145/180/145
f 146/181/146 130/165/130 127/162/127
f 132/167/132 130/165/130 146/181/146
f 147/182/147 138/183/138 136/171/136
f 140/184/140 138/183/138 147/182/147
f 140/184/140 139/185/139 138/183/138
f 142/186/142 139/185/139 140/184/140
f 142/186/142 148/187/148 139/185/139
f 147/188/147 143/178/143 140/184/140
f 149/189/149 143/178/143 147/188/147
f 149/189/149 145/180/145 143/178/143
f 146/181/146 145/180/145 149/189/149
f 150/190/150 129/164/129 133/168/133
f 131/166/131 129/191/129 128/163/128
f 135/170/135 150/190/150 133/168/133
f 131/192/131 133/168/133 129/164/129
f 148/193/148 137/172/137 139/174/139
f 132/167/132 149/189/149 134/169/134
f 134/169/134 147/188/147 136/171/136
f 149/189/149 132/167/132 146/181/146
f 147/188/147 134/169/134 149/189/149
f 150/190/150 135/170/135 137/172/137
f 151/194/151 124/156/123 115/137/112
f 152/195/152 124/156/123 151/194/151
f 152/195/152 120/157/124 124/156/123
f 153/196/153 120/157/124 152/195/152
f 119/147/118 125/158/125 110/131/106
f 119/147/118 122/151/120 125/158/125
f 82/146/79 122/151/120 119/147/118
f 82/146/79 83/148/80 122/151/120
f 102/197/99 53/50/50 104/143/101
f 101/198/98 53/50/50 102/197/99
f 101/198/98 32/32/32 53/50/50
f 100/199/97 32/32/32 101/198/98
f 100/199/97 30/30/30 32/32/32
f 99/200/96 30/30/30 100/199/97
f 99/200/96 33/33/33 30/30/30
f 98/201/95 33/33/33 99/200/96
f 98/201/95 35/35/35 33/33/33
f 77/202/74 35/35/35 98/201/95
f 77/202/74 37/37/37 35/35/35
f 76/159/73 37/37/37 77/202/74
f 76/159/73 39/39/39 37/37/37
f 126/161/126 39/39/39 76/159/73
f 126/161/126 40/40/40 39/39/39
f 152/195/152 109/130/105 153/196/153
f 152/195/152 107/127/103 109/130/105
f 151/194/151 107/127/103 152/195/152
f 151/194/151 78/128/75 107/127/103
f 115/137/112 78/128/75 151/194/151
f 115/137/112 79/160/76 78/128/75
f 114/136/111 79/160/76 115/137/112
f 114/136/111 126/161/126 79/160/76
f 116/138/113 126/161/126 114/136/111
f 116/138/113 40/40/40 126/161/126
f 118/140/115 40/40/40 116/138/113
f 118/140/115 154/203/154 40/40/40
f 155/204/155 154/203/154 42/141/116
f 42/141/116 154/203/154 118/140/115
f 121/150/119 156/144/117 125/158/125
f 121/150/119 123/154/121 156/144/117
f 84/149/81 123/154/121 121/150/119
f 84/149/81 85/152/82 123/154/121
f 112/132/107 47/134/109 117/139/114
f 123/154/121 44/205/42 156/144/117
f 123/154/121 45/43/43 44/205/42
f 105/153/102 45/43/43 123/154/121
f 105/153/102 103/142/100 45/43/43
f 124/156/123 113/135/110 115/137/112
f 106/155/122 113/135/110 124/156/123
f 106/155/122 111/133/108 113/135/110
f 154/203/154 38/38/38 40/40/40
f 155/204/155 38/38/38 154/203/154
f 155/204/155 36/36/36 38/38/38
f 41/206/156 49/46/46 52/207/49
f 42/141/116 49/46/46 41/206/156
f 42/141/116 50/47/47 49/46/46
f 43/41/41 50/47/47 42/141/116
f 43/41/41 48/45/45 50/47/47
f 45/43/43 48/45/45 43/41/41
f 45/43/43 103/142/100 48/45/45
f 73/70/70 86/92/83 88/94/85 90/96/87 92/98/89 94/100/91 96/102/93 57/54/54 59/56/56 61/58/58 63/60/60 65/62/62 67/64/64 69/66/66 71/68/68
f 156/144/117 44/42/42 46/44/44
f 52/49/49 54/51/51 41/206/156
f 54/51/51 31/31/31 41/206/156
f 41/206/156 31/31/31 42/141/116
f 31/31/31 34/34/34 42/141/116
f 36/36/36 42/141/116 34/34/34
f 155/204/155 42/141/116 36/36/36
f 42/141/116 118/140/115 117/139/114
f 47/134/109 111/133/108 42/141/116
f 111/133/108 106/155/122 42/141/116
f 120/157/124 42/141/116 106/155/122
f 153/196/153 42/141/116 120/157/124
f 153/196/153 109/130/105 110/131/106 125/158/125 42/141/116
f 156/144/117 42/141/116 125/158/125
