# Blender v2.78 (sub 0) OBJ File: 'Full_remake.blend'
# www.blender.org
mtllib goku_legR.mtl
o Mesh.404_DrawCall_231.005
v -2.868948 19.284849 -1.103089
v -2.654046 21.448448 -0.748653
v -1.165034 21.336220 -1.480672
v -3.508905 19.204569 0.382987
v -3.114214 21.340710 0.734748
v -3.196019 19.022778 1.944768
v -2.784688 21.083992 2.223972
v -1.657984 20.915960 3.037105
v 1.062518 24.174778 1.291783
v 1.441321 24.604208 1.567713
v -1.155969 18.692434 3.127156
v 0.231306 20.440346 3.520150
v -2.164540 18.854668 2.723790
v -1.481101 16.080057 2.925763
v -3.636201 16.413776 1.605575
v -1.942717 13.761362 2.654280
v -4.003160 13.816885 1.160168
v -3.904684 16.539463 -0.003838
v 3.010944 23.962084 1.126976
v 2.424584 24.342396 1.971204
v 2.424892 18.370289 2.032597
v 1.591134 14.259579 0.531490
v 1.723407 13.986858 2.138353
v 1.991736 14.738779 0.899303
v 2.137142 15.749077 2.087034
v 2.764485 15.821661 0.564137
v 2.943390 18.491846 0.567412
v 3.207965 20.773058 0.546177
v 3.109288 24.463417 1.025765
v 1.688580 15.062572 -0.733291
v 1.650308 15.149340 -0.726290
v 1.084263 14.257994 -0.976946
v 2.341531 15.953905 -1.019494
v 0.681627 21.169943 -1.795449
v 1.506531 25.279507 0.183840
v 1.710903 25.248650 -0.023350
v -1.298309 19.204132 -1.749426
v -3.105738 16.545378 -1.486282
v -4.181901 13.979244 -0.430913
v -1.417017 16.395271 -2.071722
v -1.396514 14.390347 -2.214160
v -3.133063 14.270258 -1.822084
v 0.550150 16.204372 -2.107341
v 0.599899 18.983505 -1.955046
v 2.393082 18.688004 -0.983614
v 2.460543 21.020260 -0.907571
v 2.768272 24.840399 0.853376
v 0.538071 14.475813 -2.068935
v 1.136643 25.552120 0.396969
v 1.115064 25.622540 0.620813
v 0.630953 25.271051 0.430549
v 0.284704 24.663168 0.913682
v 0.537529 24.913460 1.369058
v 0.369551 15.904594 2.742700
v -0.118277 13.860155 2.606006
v 0.692037 18.520206 2.819758
v 2.013036 24.324469 1.548359
vt 0.4707 0.5410
vt 0.4707 0.6895
vt 0.5488 0.6895
vt 0.3848 0.5410
vt 0.3809 0.6855
vt 0.3066 0.5410
vt 0.3066 0.6816
vt 0.2519 0.6777
vt 0.2168 0.7559
vt 0.1816 0.6777
vt 0.2090 0.5410
vt 0.2090 0.6152
vt 0.2559 0.5410
vt 0.2090 0.4473
vt 0.3066 0.4473
vt 0.2129 0.3613
vt 0.3066 0.3613
vt 0.3848 0.4473
vt 0.9199 0.6387
vt 0.9707 0.6387
vt 0.9199 0.5410
vt 0.8262 0.3613
vt 0.9082 0.3613
vt 0.8268 0.3073
vt 0.9082 0.4473
vt 0.8262 0.4473
vt 0.8262 0.5410
vt 0.8574 0.6426
vt 0.9160 0.6797
vt 0.7357 0.3073
vt 0.7354 0.2803
vt 0.7363 0.3613
vt 0.7363 0.4473
vt 0.6543 0.6855
vt 0.6504 0.8105
vt 0.7402 0.7480
vt 0.5488 0.5410
vt 0.4707 0.4473
vt 0.3848 0.3613
vt 0.5488 0.4473
vt 0.5488 0.3613
vt 0.4707 0.3613
vt 0.6426 0.4473
vt 0.6465 0.5410
vt 0.7363 0.5410
vt 0.7598 0.6699
vt 0.8418 0.6855
vt 0.6426 0.3613
vt 0.6504 0.8418
vt 0.5488 0.8496
vt 0.4707 0.8496
vt 0.3789 0.8384
vt 0.2876 0.8191
vt 0.9863 0.4473
vt 0.9863 0.3613
vt 0.9824 0.5410
vt 0.9941 0.6426
vt 0.1660 0.6230
vt 0.1465 0.5410
vt 0.1465 0.4473
vt 0.1504 0.3613
vn -0.6888 0.1735 -0.7039
vn -0.6944 0.4337 -0.5742
vn -0.2736 0.3363 -0.9011
vn -0.9823 0.1677 -0.0833
vn -0.8921 0.4510 0.0286
vn -0.8369 0.0810 0.5413
vn -0.7299 0.3756 0.5712
vn -0.3836 0.3089 0.8703
vn -0.5159 0.5919 0.6193
vn -0.1509 0.5710 0.8070
vn -0.1525 -0.0886 0.9843
vn 0.2753 0.0691 0.9589
vn -0.5011 -0.0187 0.8652
vn -0.2182 -0.0658 0.9737
vn -0.8325 0.0432 0.5524
vn -0.2176 -0.7147 0.6647
vn -0.6878 -0.6544 0.3142
vn -0.9781 0.1443 -0.1500
vn 0.8332 -0.0304 0.5521
vn -0.0573 0.0103 0.9983
vn 0.7276 -0.0130 0.6859
vn 0.2104 0.1776 0.9613
vn 0.5705 -0.6285 0.5286
vn -0.8310 0.5195 0.1990
vn 0.7312 -0.1966 0.6532
vn 0.9401 -0.3390 0.0360
vn 0.9987 -0.0514 0.0004
vn 0.9942 -0.0419 0.0995
vn 0.6838 0.1120 -0.7210
vn -0.9577 0.1333 0.2550
vn -0.9088 -0.4079 0.0878
vn -0.3935 -0.8866 0.2432
vn 0.7969 -0.2412 -0.5538
vn 0.1504 0.2248 -0.9627
vn -0.3300 0.4715 -0.8178
vn -0.0036 0.4514 -0.8923
vn -0.2374 0.1271 -0.9631
vn -0.6357 0.1498 -0.7573
vn -0.7552 -0.5990 -0.2663
vn -0.1649 0.0966 -0.9816
vn -0.0383 -0.6107 -0.7910
vn -0.4190 -0.5560 -0.7178
vn 0.2670 0.0197 -0.9635
vn 0.2077 0.0671 -0.9759
vn 0.7601 0.0069 -0.6497
vn 0.7041 0.0951 -0.7037
vn 0.6832 0.2074 -0.7001
vn 0.2598 -0.5923 -0.7627
vn -0.6175 0.5758 -0.5359
vn -0.6379 0.5507 -0.5384
vn 0.2270 0.1476 -0.9626
vn -0.7079 0.6693 0.2258
vn -0.3191 0.4616 0.8277
vn 0.2162 -0.0804 0.9730
vn 0.1366 -0.7594 0.6361
vn 0.3450 -0.0665 0.9363
vn -0.1245 0.2003 0.9718
usemtl pants.png.002
s 1
f 1/1/1 2/2/2 3/3/3
f 4/4/4 2/2/2 1/1/1
f 4/4/4 5/5/5 2/2/2
f 6/6/6 5/5/5 4/4/4
f 6/6/6 7/7/7 5/5/5
f 8/8/8 7/7/7 6/6/6
f 8/8/8 9/9/9 7/7/7
f 10/10/10 9/9/9 8/8/8
f 8/8/8 11/11/11 12/12/12
f 13/13/13 11/11/11 8/8/8
f 13/13/13 14/14/14 11/11/11
f 15/15/15 14/14/14 13/13/13
f 15/15/15 16/16/16 14/14/14
f 17/17/17 16/16/16 15/15/15
f 18/18/18 4/4/4 1/1/1
f 15/15/15 4/4/4 18/18/18
f 15/15/15 6/6/6 4/4/4
f 13/13/13 6/6/6 15/15/15
f 13/13/13 8/8/8 6/6/6
f 10/10/10 8/8/8 12/12/12
f 19/19/19 20/20/20 21/21/21
f 15/15/15 18/18/18 17/17/17
f 22/22/22 23/23/23 24/24/24
f 22/22/22 25/25/25 23/23/23
f 26/26/26 25/25/25 22/22/22
f 26/26/26 21/21/21 25/25/25
f 27/27/27 21/21/21 26/26/26
f 27/27/27 19/19/19 21/21/21
f 28/28/28 19/19/19 27/27/27
f 28/28/28 29/29/29 19/19/19
f 30/30/30 24/24/24 31/31/31
f 30/30/30 22/22/22 24/24/24
f 32/32/32 22/22/22 30/30/30
f 32/32/32 26/26/26 22/22/22
f 33/33/33 26/26/26 32/32/32
f 33/33/33 27/27/27 26/26/26
f 34/34/34 35/35/35 36/36/36
f 34/34/34 3/3/3 35/35/35
f 37/37/37 3/3/3 34/34/34
f 37/37/37 1/1/1 3/3/3
f 38/38/38 1/1/1 37/37/37
f 38/38/38 18/18/18 1/1/1
f 39/39/39 18/18/18 38/38/38
f 39/39/39 17/17/17 18/18/18
f 40/40/40 41/41/41 42/42/42
f 40/40/40 43/43/43 41/41/41
f 44/44/44 43/43/43 40/40/40
f 44/44/44 45/45/45 43/43/43
f 34/34/34 45/45/45 44/44/44
f 34/34/34 46/46/46 45/45/45
f 36/36/36 46/46/46 34/34/34
f 36/36/36 47/47/47 46/46/46
f 43/43/43 48/48/48 41/41/41
f 43/43/43 33/33/33 48/48/48
f 45/45/45 33/33/33 43/43/43
f 45/45/45 27/27/27 33/33/33
f 46/46/46 27/27/27 45/45/45
f 46/46/46 28/28/28 27/27/27
f 47/47/47 28/28/28 46/46/46
f 47/47/47 29/29/29 28/28/28
f 3/3/3 49/49/49 35/35/35
f 3/3/3 50/50/50 49/49/49
f 2/2/2 50/50/50 3/3/3
f 2/2/2 51/51/51 50/50/50
f 5/5/5 51/51/51 2/2/2
f 5/5/5 52/52/52 51/51/51
f 7/7/7 52/52/52 5/5/5
f 7/7/7 53/53/53 52/52/52
f 9/9/9 53/53/53 7/7/7
f 23/23/23 54/54/54 55/55/55
f 25/25/25 54/54/54 23/23/23
f 25/25/25 56/56/56 54/54/54
f 21/21/21 56/56/56 25/25/25
f 21/21/21 57/57/57 56/56/56
f 20/20/20 57/57/57 21/21/21
f 12/12/12 57/58/57 10/10/10
f 12/12/12 56/59/56 57/58/57
f 11/11/11 56/59/56 12/12/12
f 11/11/11 54/60/54 56/59/56
f 14/14/14 54/60/54 11/11/11
f 14/14/14 55/61/55 54/60/54
f 16/16/16 55/61/55 14/14/14
f 38/38/38 42/42/42 39/39/39
f 38/38/38 40/40/40 42/42/42
f 37/37/37 40/40/40 38/38/38
f 37/37/37 44/44/44 40/40/40
f 34/34/34 44/44/44 37/37/37
f 48/48/48 32/32/32 30/30/30
f 33/33/33 32/32/32 48/48/48
f 42/42/42 41/41/41 23/23/23 55/55/55 16/16/16 17/17/17 39/39/39
f 41/41/41 48/48/48 23/23/23
