# Blender v2.78 (sub 0) OBJ File: 'Full_remake.blend'
# www.blender.org
mtllib goku_armR.mtl
o Mesh.404_DrawCall_231.004
v -4.507466 26.438381 0.027778
v -4.720042 26.654282 1.135935
v -2.958314 29.298828 0.551798
v -4.197267 28.257317 -2.693100
v -4.223093 27.302990 -2.398139
v -4.933190 28.617506 2.205531
v -4.928545 29.783146 2.085109
v -4.558659 30.997616 -0.221199
v -4.424991 30.544125 -1.208357
v -4.849218 27.323874 1.892649
v -4.793163 30.619118 1.343805
v -4.273772 29.586262 -2.065097
v -4.329271 26.706078 -1.147491
v -3.875263 28.781473 2.554148
v -2.282316 27.643038 1.953808
v -1.910625 27.651237 1.756921
v -2.845012 29.819901 2.250033
v -3.869132 29.864700 2.221217
v -3.689856 30.734810 1.436998
v -2.610967 30.638735 1.423382
v -3.504878 31.052767 -0.110780
v -2.972713 30.048750 0.341682
v -3.485097 30.582060 -1.194455
v -1.949640 28.573792 -0.076468
v -3.506695 29.718418 -2.017391
v -1.894075 28.429546 -0.498253
v -1.627194 28.382219 -0.529952
v -3.753138 28.440434 -1.896832
v -2.066799 27.784142 0.216131
v -4.271706 27.637871 -1.594802
v -2.066062 27.268932 0.068326
v -4.331521 26.965801 -0.506515
v -2.071629 27.187605 0.475346
v -3.870790 26.866322 0.597508
v -1.911272 27.750607 0.802956
v -3.039744 27.314701 1.368658
v -2.135048 27.874666 0.872663
v -1.766661 27.625944 0.308063
v -1.878356 27.950029 0.718793
v -2.101083 28.345510 0.107603
v -2.153122 28.913883 -1.260620
v -3.086219 28.683788 -0.654512
v -9.442138 28.117689 -1.423226
v -9.917809 27.714905 0.147225
v -9.770914 28.106983 0.279833
v -9.415603 27.678383 -1.536062
v -8.131079 27.905611 -1.970639
v -3.772214 29.405848 -1.741174
v -3.804229 28.397469 -2.342467
v -4.349892 29.474463 -2.008948
v -7.662369 29.066236 1.119202
v -7.541385 29.620743 0.634450
v -8.211474 29.092747 0.439252
v -8.100657 28.482931 -2.030023
v -4.382310 27.515114 1.500215
v -4.311834 28.473614 1.747120
v -5.417560 28.360193 2.058946
v -8.171260 26.831711 -0.415807
v -7.799791 26.788773 -0.195431
v -8.148176 27.125513 0.256477
v -5.258473 29.335098 1.465845
v -5.490200 27.360535 1.757766
v -4.505558 30.085159 -0.844889
v -9.323773 29.125431 -1.339008
v -9.381889 28.348286 -1.651589
v -9.541522 29.006725 -1.031689
v -7.352421 27.316053 1.553080
v -9.589530 28.338562 -1.298439
v -9.225705 29.260090 -0.726990
v -8.842771 29.393517 -1.056541
v -9.751132 28.490303 0.427209
v -9.151074 29.302494 0.660235
v -9.047484 29.669804 -0.403026
v -8.886648 29.630657 0.751362
v -8.819536 29.908720 -0.080543
v -8.336628 29.336330 0.549335
v -8.233618 29.824833 0.428478
v -7.484751 29.552355 0.521691
v -7.824249 29.420393 0.739676
v -5.351085 30.143425 -0.128731
v -4.943822 30.493134 -0.040778
v -5.493062 29.888845 0.822543
v -5.111501 30.222343 1.019037
v -4.930445 29.460188 1.808211
v -4.397921 28.855026 2.092654
v -9.674992 28.838236 0.554190
v -9.487906 29.193716 0.665514
v -8.562266 29.975685 -0.331103
v -8.747894 29.779064 -0.706585
v -6.390043 27.825867 -2.039718
v -6.078811 27.825188 -2.259776
v -7.000998 27.088949 -1.412148
v -6.055105 28.448959 -2.059965
v -5.724370 28.532282 -2.359975
v -6.101111 29.312681 -1.739075
v -5.754775 29.486143 -1.988972
v -9.052270 26.999067 -1.362653
v -9.093128 26.971935 -0.270806
v -9.805703 27.142567 -0.092996
v -8.162832 27.215584 -1.511808
v -7.603264 27.198891 -1.401912
v -8.050561 28.960106 1.111065
v -8.091116 28.365721 1.037302
v -7.892217 28.274736 1.521565
v -8.139701 27.523485 0.707808
v -7.943907 27.396936 1.193701
v -7.779099 27.092619 0.391430
v -7.253756 26.932840 0.452588
v -5.391467 26.965826 0.688048
v -4.342408 27.123114 0.836111
v -7.294569 28.258692 1.887880
v -7.123948 29.254227 1.377906
v -6.990266 29.751976 0.738466
v -6.840508 30.040556 -0.201971
v -7.399535 29.878910 -0.270297
v -6.758279 29.952181 -0.925898
v -7.330767 29.798969 -0.869277
v -6.757167 29.648886 -1.188650
v -7.331409 29.508556 -1.117954
v -6.713450 29.431515 -1.715441
v -7.277449 29.357834 -1.670300
v -6.768166 28.485861 -2.077731
v -7.326405 28.482548 -2.018240
v -6.860663 27.757898 -1.958599
v -7.408885 27.820086 -1.922122
v -7.948726 27.017504 -0.426735
v -8.278044 26.755230 -0.606522
v -4.850730 30.046534 -1.068152
v -6.060554 30.029636 -1.142610
v -4.782435 29.465988 -2.052136
v -4.843395 28.504114 -2.422082
v -4.937014 27.753033 -2.237375
v -5.129682 27.008286 -1.344864
v -8.053450 29.299492 -1.693971
v -8.039216 29.457666 -1.141843
v -8.012881 29.837490 -0.840430
v -8.003974 29.961079 -0.378038
v -8.007833 29.705917 0.508211
v -4.331306 26.627798 0.329211
v -4.089869 26.992544 -1.272211
v -5.359608 26.609766 0.136676
v -7.213345 26.660599 -0.096140
v -3.905087 27.701260 -2.133913
v -3.939390 30.348423 -1.137767
v -4.139470 30.737585 -0.085398
v -4.337634 30.453163 1.240669
v -4.426858 29.610235 2.094019
vt 0.8207 0.4848
vt 0.8083 0.4910
vt 0.8361 0.5184
vt 0.8734 0.5065
vt 0.8662 0.4917
vt 0.8009 0.5337
vt 0.8100 0.5438
vt 0.8499 0.5525
vt 0.8643 0.5446
vt 0.8009 0.5043
vt 0.8231 0.5525
vt 0.8734 0.5322
vt 0.8523 0.4848
vt 0.8926 0.1660
vt 0.8926 0.0840
vt 0.8574 0.1660
vt 0.8574 0.2129
vt 0.8926 0.2129
vt 0.9668 0.2129
vt 0.8926 0.2441
vt 0.8574 0.2441
vt 0.8926 0.2441
vt 0.8574 0.2441
vt 0.8926 0.2129
vt 0.8574 0.2129
vt 0.8926 0.2129
vt 0.8574 0.2129
vt 0.8926 0.0840
vt 0.8223 0.0840
vt 0.8926 0.0410
vt 0.8223 0.0410
vt 0.8926 0.0059
vt 0.8223 0.0059
vt 0.8926 0.0059
vt 0.8223 0.0059
vt 0.8926 0.0410
vt 0.8223 0.0410
vt 0.8223 0.0840
vt 0.8223 0.2129
vt 0.8223 0.2441
vt 0.8223 0.2441
vt 0.8223 0.2129
vt 0.8223 0.2129
vt 0.9746 0.2441
vt 0.9746 0.2441
vt 0.9668 0.2129
vt 0.9629 0.1660
vt 0.9590 0.0840
vt 0.9590 0.0410
vt 0.9590 0.0059
vt 0.9590 0.0059
vt 0.9590 0.0410
vt 0.9590 0.0840
vt 0.9629 0.1660
vt 0.5879 0.7715
vt 0.5840 0.7402
vt 0.5645 0.7402
vt 0.6074 0.7715
vt 0.6074 0.8027
vt 0.5527 0.9902
vt 0.5840 0.9902
vt 0.5527 0.9668
vt 0.4356 0.8301
vt 0.4707 0.8301
vt 0.4434 0.8027
vt 0.5840 0.8027
vt 0.3769 0.9902
vt 0.4082 0.9902
vt 0.4082 0.9355
vt 0.3262 0.8027
vt 0.3262 0.8301
vt 0.3496 0.8027
vt 0.4356 0.9355
vt 0.3769 0.9355
vt 0.5293 0.9551
vt 0.5527 0.7793
vt 0.5762 0.7793
vt 0.5527 0.7676
vt 0.3769 0.8691
vt 0.5723 0.7676
vt 0.5332 0.7676
vt 0.5332 0.7793
vt 0.5527 0.7402
vt 0.5098 0.7402
vt 0.5137 0.7676
vt 0.4981 0.7402
vt 0.4981 0.7676
vt 0.4707 0.7402
vt 0.4707 0.7754
vt 0.4434 0.7402
vt 0.4434 0.7754
vt 0.5020 0.9355
vt 0.5020 0.9512
vt 0.4707 0.9355
vt 0.4707 0.9512
vt 0.4394 0.9512
vt 0.4199 0.9902
vt 0.5332 0.7402
vt 0.5215 0.7402
vt 0.4981 0.7793
vt 0.5137 0.7793
vt 0.6074 0.8848
vt 0.6074 0.8965
vt 0.6309 0.8691
vt 0.5840 0.8965
vt 0.5840 0.9082
vt 0.5527 0.8965
vt 0.5527 0.9082
vt 0.6309 0.7715
vt 0.6309 0.7402
vt 0.6074 0.7402
vt 0.6309 0.8027
vt 0.6309 0.8301
vt 0.4277 0.8027
vt 0.4082 0.8027
vt 0.4082 0.8301
vt 0.3769 0.8027
vt 0.3769 0.8301
vt 0.3496 0.8301
vt 0.3496 0.8691
vt 0.3496 0.9355
vt 0.3496 0.9902
vt 0.4082 0.8691
vt 0.4356 0.8691
vt 0.4707 0.8691
vt 0.5020 0.8691
vt 0.4981 0.8301
vt 0.5215 0.8691
vt 0.5137 0.8301
vt 0.5332 0.8691
vt 0.5332 0.8301
vt 0.5527 0.8691
vt 0.5527 0.8301
vt 0.5840 0.8691
vt 0.5840 0.8301
vt 0.6074 0.8691
vt 0.6074 0.8301
vt 0.3066 0.7754
vt 0.3262 0.7402
vt 0.3066 0.7402
vt 0.3262 0.7754
vt 0.5293 0.9355
vt 0.5293 0.9004
vt 0.5527 0.9355
vt 0.5840 0.9355
vt 0.6074 0.9355
vt 0.6309 0.9355
vt 0.5527 0.8027
vt 0.5332 0.8027
vt 0.5137 0.8027
vt 0.4981 0.8027
vt 0.4707 0.8027
vt 0.3262 0.9902
vt 0.3066 0.9355
vt 0.3066 0.9902
vt 0.3262 0.9355
vt 0.3066 0.8691
vt 0.3262 0.8691
vt 0.3066 0.8301
vt 0.3066 0.8027
vt 0.6074 0.9902
vt 0.6309 0.9902
vt 0.5293 0.9902
vt 0.5020 0.9902
vt 0.4707 0.9902
vt 0.4394 0.9902
vn -0.7074 -0.6948 -0.1299
vn -0.7393 -0.6145 0.2755
vn -0.9634 -0.1498 -0.2224
vn -0.5030 -0.0857 -0.8600
vn -0.4752 -0.5472 -0.6890
vn -0.9370 -0.1558 0.3126
vn -0.9174 0.2590 0.3021
vn -0.8490 0.5052 -0.1547
vn -0.8485 0.3805 -0.3678
vn -0.7999 -0.4458 0.4017
vn -0.8994 0.4204 0.1197
vn -0.8373 0.2610 -0.4804
vn -0.6312 -0.6559 -0.4140
vn -0.0498 -0.1663 0.9848
vn 0.3543 -0.6683 0.6541
vn 0.7437 -0.5728 0.3447
vn 0.4877 0.3441 0.8023
vn -0.0767 0.4985 0.8635
vn -0.0256 0.8712 0.4903
vn 0.6851 0.6881 0.2391
vn 0.4177 0.8948 -0.1576
vn 0.8700 0.4155 -0.2654
vn 0.4535 0.7405 -0.4960
vn 0.9963 -0.0485 0.0704
vn 0.4197 0.4707 -0.7761
vn -0.2386 0.1880 0.9528
vn 0.9575 0.1491 0.2469
vn -0.5887 0.3816 0.7126
vn 0.1391 -0.6350 0.7599
vn -0.4482 0.6537 0.6098
vn 0.0094 0.8647 -0.5023
vn -0.2156 0.8978 0.3841
vn 0.9763 -0.2106 -0.0497
vn -0.2272 0.9738 -0.0046
vn -0.5293 0.1379 0.8372
vn -0.3429 0.9224 -0.1777
vn 0.9750 -0.2220 -0.0012
vn 0.8472 0.1269 0.5158
vn -0.9559 -0.0725 -0.2846
vn 0.9520 0.2269 0.2055
vn -0.0129 0.8140 0.5807
vn -0.2403 -0.7424 0.6254
vn -0.7724 -0.1933 -0.6050
vn -0.7937 -0.1386 0.5923
vn -0.7737 -0.1192 0.6222
vn -0.6766 -0.1540 -0.7201
vn -0.1196 -0.2883 -0.9500
vn 0.2313 0.6735 -0.7021
vn 0.1361 0.0518 -0.9893
vn 0.2062 0.6563 -0.7257
vn -0.4824 0.5982 0.6399
vn -0.2874 0.7733 0.5652
vn -0.8662 0.3409 0.3654
vn -0.1574 0.1298 -0.9790
vn 0.2220 -0.6397 0.7359
vn -0.0677 -0.1599 0.9848
vn 0.0686 0.1129 0.9912
vn -0.1368 -0.9668 -0.2160
vn -0.2053 -0.9746 0.0895
vn -0.7518 -0.5390 0.3799
vn -0.3678 0.4340 0.8224
vn 0.0834 -0.6685 0.7390
vn -0.2909 0.7886 -0.5417
vn -0.5568 0.6355 -0.5348
vn -0.5390 -0.1488 -0.8291
vn -0.8521 0.4972 -0.1637
vn -0.2654 -0.6688 0.6945
vn -0.9414 -0.1015 -0.3216
vn -0.6933 0.7105 -0.1205
vn -0.3441 0.8241 -0.4500
vn -0.7309 -0.0973 0.6755
vn -0.4857 0.4604 0.7431
vn -0.7697 0.6205 -0.1500
vn -0.1352 0.5478 0.8256
vn -0.4500 0.8783 0.1614
vn 0.0721 0.1340 0.9884
vn -0.1019 0.7233 0.6830
vn -0.3276 -0.9383 -0.1109
vn 0.2818 -0.5040 -0.8164
vn -0.3111 0.9477 -0.0707
vn -0.4734 0.8641 -0.1709
vn -0.4045 0.8030 0.4376
vn -0.5514 0.7306 0.4026
vn -0.6510 0.1339 0.7472
vn -0.7415 -0.3989 0.5395
vn -0.7415 0.0377 0.6699
vn -0.5075 0.4440 0.7385
vn -0.1681 0.9802 -0.1041
vn -0.3980 0.7713 -0.4967
vn -0.3588 -0.1479 -0.9216
vn -0.3067 -0.2809 -0.9094
vn -0.0992 -0.8278 -0.5521
vn -0.4145 0.2341 -0.8794
vn -0.3214 0.1472 -0.9354
vn -0.4100 0.3195 -0.8543
vn -0.2873 0.5543 -0.7812
vn -0.2971 -0.8031 -0.5165
vn 0.0024 -0.8568 0.5157
vn -0.6440 -0.6467 0.4088
vn 0.0878 -0.7609 -0.6430
vn -0.0483 -0.8134 -0.5798
vn -0.5749 0.3907 0.7189
vn -0.9346 0.0626 0.3502
vn -0.7235 0.1218 0.6795
vn -0.9198 -0.2987 0.2544
vn -0.6893 -0.5463 0.4758
vn -0.3438 -0.8441 0.4115
vn -0.1642 -0.9104 0.3798
vn 0.0230 -0.8873 0.4606
vn 0.0058 -0.8199 0.5725
vn -0.2986 0.0817 0.9509
vn -0.2853 0.6412 0.7123
vn -0.2125 0.8722 0.4406
vn -0.1769 0.9817 0.0712
vn -0.0883 0.9939 0.0654
vn -0.2626 0.8696 -0.4181
vn -0.1203 0.8574 -0.5004
vn -0.2974 0.7298 -0.6156
vn -0.1286 0.8233 -0.5528
vn -0.0252 0.7244 -0.6889
vn -0.0942 0.7418 -0.6640
vn -0.0546 0.1317 -0.9898
vn -0.0463 0.1201 -0.9917
vn -0.0989 -0.4156 -0.9042
vn -0.0533 -0.3978 -0.9159
vn -0.0782 -0.5589 0.8255
vn 0.1828 0.9749 0.1272
vn 0.0421 0.9439 -0.3275
vn -0.1122 0.9317 -0.3454
vn 0.0232 0.6295 -0.7766
vn 0.0139 0.0628 -0.9979
vn 0.0104 -0.5195 -0.8544
vn 0.0004 -0.8884 -0.4592
vn -0.1344 0.7163 -0.6848
vn -0.0943 0.8404 -0.5337
vn -0.0561 0.8276 -0.5585
vn 0.0726 0.9973 -0.0142
vn 0.1924 0.7501 0.6328
vn -0.0487 -0.9570 0.2861
vn 0.0161 -0.8921 -0.4516
vn -0.0152 -0.9872 0.1588
vn -0.1235 -0.9901 0.0667
vn 0.0449 -0.5401 -0.8404
vn -0.5225 0.5428 -0.6575
vn -0.3034 0.9424 -0.1409
vn -0.3916 0.8182 0.4209
vn -0.5389 0.3450 0.7685
usemtl shirt.png.003
s 1
f 1/1/1 2/2/2 3/3/3
f 4/4/4 5/5/5 3/3/3
f 6/6/6 7/7/7 3/3/3
f 8/8/8 9/9/9 3/3/3
f 6/6/6 3/3/3 10/10/10
f 11/11/11 3/3/3 7/7/7
f 8/8/8 3/3/3 11/11/11
f 12/12/12 3/3/3 9/9/9
f 4/4/4 3/3/3 12/12/12
f 13/13/13 3/3/3 5/5/5
f 1/1/1 3/3/3 13/13/13
f 10/10/10 3/3/3 2/2/2
f 14/14/14 15/15/15 16/16/16
f 14/14/14 16/16/16 17/17/17
f 14/14/14 18/18/18 7/19/7
f 17/17/17 18/18/18 14/14/14
f 17/17/17 19/20/19 18/18/18
f 20/21/20 19/20/19 17/17/17
f 20/21/20 21/22/21 19/20/19
f 22/23/22 21/22/21 20/21/20
f 22/23/22 23/24/23 21/22/21
f 24/25/24 23/24/23 22/23/22
f 24/25/24 25/26/25 23/24/23
f 26/27/26 25/26/25 24/25/24
f 26/27/26 27/28/27 25/26/25
f 28/29/28 27/28/27 26/27/26
f 28/29/28 29/30/29 27/28/27
f 30/31/30 29/30/29 28/29/28
f 30/31/30 31/32/31 29/30/29
f 32/33/32 31/32/31 30/31/30
f 32/33/32 33/34/33 31/32/31
f 34/35/34 33/34/33 32/33/32
f 34/35/34 35/36/35 33/34/33
f 36/37/36 35/36/35 34/35/34
f 36/37/36 15/15/15 35/36/35
f 37/38/37 15/15/15 36/37/36
f 37/38/37 16/16/16 15/15/15
f 38/39/38 20/21/20 17/17/17
f 39/40/39 20/21/20 38/39/38
f 39/40/39 22/23/22 20/21/20
f 40/41/40 22/23/22 39/40/39
f 40/41/40 24/25/24 22/23/22
f 41/42/41 24/25/24 40/41/40
f 41/42/41 26/27/26 24/25/24
f 42/43/42 26/27/26 41/42/41
f 42/43/42 28/29/28 26/27/26
f 18/18/18 11/44/11 7/19/7
f 19/20/19 11/44/11 18/18/18
f 19/20/19 8/45/8 11/44/11
f 21/22/21 8/45/8 19/20/19
f 21/22/21 9/46/9 8/45/8
f 23/24/23 9/46/9 21/22/21
f 23/24/23 12/47/12 9/46/9
f 25/26/25 12/47/12 23/24/23
f 25/26/25 4/48/4 12/47/12
f 27/28/27 4/48/4 25/26/25
f 27/28/27 5/49/5 4/48/4
f 29/30/29 5/49/5 27/28/27
f 29/30/29 13/50/13 5/49/5
f 31/32/31 13/50/13 29/30/29
f 31/32/31 1/51/1 13/50/13
f 33/34/33 1/51/1 31/32/31
f 33/34/33 2/52/2 1/51/1
f 35/36/35 2/52/2 33/34/33
f 35/36/35 10/53/10 2/52/2
f 15/15/15 10/53/10 35/36/35
f 15/15/15 6/54/6 10/53/10
f 14/14/14 6/54/6 15/15/15
f 14/14/14 7/19/7 6/54/6
f 38/39/38 17/17/17 16/16/16 37/38/37
f 43/55/43 44/56/44 45/57/45
f 43/55/43 46/58/46 44/56/44
f 47/59/47 46/58/46 43/55/43
f 48/60/48 49/61/49 50/62/50
f 51/63/51 52/64/52 53/65/53
f 54/66/54 47/59/47 43/55/43
f 55/67/55 56/68/56 57/69/57
f 58/70/58 59/71/59 60/72/60
f 56/68/56 61/73/61 57/69/57
f 62/74/62 55/67/55 57/69/57
f 48/60/48 50/62/50 63/75/63
f 64/76/64 65/77/65 66/78/66
f 62/74/62 57/69/57 67/79/67
f 68/80/68 66/78/66 65/77/65
f 64/76/64 69/81/69 70/82/70
f 66/78/66 69/81/69 64/76/64
f 66/78/66 71/83/71 69/81/69
f 68/80/68 71/83/71 66/78/66
f 72/84/72 73/85/73 69/81/69
f 74/86/74 73/85/73 72/84/72
f 74/86/74 75/87/75 73/85/73
f 76/88/76 75/87/75 74/86/74
f 76/88/76 77/89/77 75/87/75
f 78/90/78 77/89/77 76/88/76
f 78/90/78 79/91/79 77/89/77
f 80/92/80 81/93/81 63/75/63
f 82/94/82 81/93/81 80/92/80
f 82/94/82 83/95/83 81/93/81
f 61/73/61 83/95/83 82/94/82
f 61/73/61 84/96/84 83/95/83
f 56/68/56 84/96/84 61/73/61
f 56/68/56 85/97/85 84/96/84
f 86/98/86 69/81/69 71/83/71
f 87/99/87 69/81/69 86/98/86
f 87/99/87 72/84/72 69/81/69
f 88/100/88 75/87/75 77/89/77
f 89/101/89 75/87/75 88/100/88
f 89/101/89 73/85/73 75/87/75
f 70/82/70 73/85/73 89/101/89
f 70/82/70 69/81/69 73/85/73
f 90/102/90 91/103/91 92/104/92
f 93/105/93 91/103/91 90/102/90
f 93/105/93 94/106/94 91/103/91
f 95/107/95 94/106/94 93/105/93
f 95/107/95 96/108/96 94/106/94
f 97/109/97 98/110/98 99/111/99
f 100/112/100 47/59/47 101/113/101
f 97/109/97 47/59/47 100/112/100
f 97/109/97 46/58/46 47/59/47
f 99/111/99 46/58/46 97/109/97
f 99/111/99 44/56/44 46/58/46
f 102/114/102 51/63/51 53/65/53
f 103/115/103 51/63/51 102/114/102
f 103/115/103 104/116/104 51/63/51
f 105/117/105 104/116/104 103/115/103
f 105/117/105 106/118/106 104/116/104
f 107/119/107 106/118/106 105/117/105
f 107/119/107 108/120/108 106/118/106
f 55/67/55 109/121/109 110/122/110
f 62/74/62 109/121/109 55/67/55
f 62/74/62 108/120/108 109/121/109
f 67/79/67 108/120/108 62/74/62
f 67/79/67 106/118/106 108/120/108
f 111/123/111 106/118/106 67/79/67
f 111/123/111 104/116/104 106/118/106
f 112/124/112 104/116/104 111/123/111
f 112/124/112 51/63/51 104/116/104
f 113/125/113 51/63/51 112/124/112
f 113/125/113 52/64/52 51/63/51
f 114/126/114 52/64/52 113/125/113
f 114/126/114 115/127/115 52/64/52
f 116/128/116 115/127/115 114/126/114
f 116/128/116 117/129/117 115/127/115
f 118/130/118 117/129/117 116/128/116
f 118/130/118 119/131/119 117/129/117
f 120/132/120 119/131/119 118/130/118
f 120/132/120 121/133/121 119/131/119
f 122/134/122 121/133/121 120/132/120
f 122/134/122 123/135/123 121/133/121
f 124/136/124 123/135/123 122/134/122
f 124/136/124 125/137/125 123/135/123
f 101/113/101 125/137/125 124/136/124
f 101/113/101 47/59/47 125/137/125
f 97/138/97 126/139/126 98/140/98
f 97/138/97 127/141/127 126/139/126
f 58/70/58 127/141/127 97/138/97
f 57/69/57 111/123/111 67/79/67
f 61/73/61 111/123/111 57/69/57
f 61/73/61 112/124/112 111/123/111
f 82/94/82 112/124/112 61/73/61
f 82/94/82 113/125/113 112/124/112
f 80/92/80 113/125/113 82/94/82
f 80/92/80 114/126/114 113/125/113
f 128/142/128 114/126/114 80/92/80
f 128/142/128 129/143/129 114/126/114
f 130/144/130 129/143/129 128/142/128
f 130/144/130 96/108/96 129/143/129
f 131/145/131 96/108/96 130/144/130
f 131/145/131 94/106/94 96/108/96
f 132/146/132 94/106/94 131/145/131
f 132/146/132 91/103/91 94/106/94
f 133/147/133 91/103/91 132/146/132
f 133/147/133 92/104/92 91/103/91
f 68/80/68 45/57/45 71/83/71
f 68/80/68 43/55/43 45/57/45
f 65/77/65 43/55/43 68/80/68
f 65/77/65 54/66/54 43/55/43
f 64/76/64 54/66/54 65/77/65
f 64/76/64 134/148/134 54/66/54
f 70/82/70 134/148/134 64/76/64
f 70/82/70 135/149/135 134/148/134
f 89/101/89 135/149/135 70/82/70
f 89/101/89 136/150/136 135/149/135
f 88/100/88 136/150/136 89/101/89
f 88/100/88 137/151/137 136/150/136
f 77/89/77 137/151/137 88/100/88
f 77/89/77 138/152/138 137/151/137
f 79/91/79 138/152/138 77/89/77
f 79/91/79 53/65/53 138/152/138
f 52/64/52 138/152/138 53/65/53
f 115/127/115 138/152/138 52/64/52
f 115/127/115 137/151/137 138/152/138
f 117/129/117 137/151/137 115/127/115
f 117/129/117 136/150/136 137/151/137
f 119/131/119 136/150/136 117/129/117
f 119/131/119 135/149/135 136/150/136
f 121/133/121 135/149/135 119/131/119
f 121/133/121 134/148/134 135/149/135
f 123/135/123 134/148/134 121/133/121
f 123/135/123 54/66/54 134/148/134
f 125/137/125 54/66/54 123/135/123
f 125/137/125 47/59/47 54/66/54
f 129/143/129 116/128/116 114/126/114
f 96/108/96 116/128/116 129/143/129
f 96/108/96 118/130/118 116/128/116
f 95/107/95 118/130/118 96/108/96
f 95/107/95 120/132/120 118/130/118
f 93/105/93 120/132/120 95/107/95
f 93/105/93 122/134/122 120/132/120
f 90/102/90 122/134/122 93/105/93
f 90/102/90 124/136/124 122/134/122
f 92/104/92 124/136/124 90/102/90
f 92/104/92 101/113/101 124/136/124
f 139/153/139 133/154/133 140/155/140
f 141/156/141 133/154/133 139/153/139
f 141/156/141 92/157/92 133/154/133
f 142/158/142 92/157/92 141/156/141
f 142/158/142 101/159/101 92/157/92
f 59/71/59 101/159/101 142/158/142
f 59/71/59 100/160/100 101/159/101
f 58/70/58 100/160/100 59/71/59
f 58/70/58 97/138/97 100/160/100
f 63/75/63 128/142/128 80/92/80
f 50/62/50 128/142/128 63/75/63
f 50/62/50 130/144/130 128/142/128
f 49/61/49 130/144/130 50/62/50
f 49/61/49 131/145/131 130/144/130
f 143/161/143 131/145/131 49/61/49
f 143/161/143 132/146/132 131/145/131
f 140/162/140 132/146/132 143/161/143
f 140/162/140 133/147/133 132/146/132
f 110/122/110 141/156/141 139/153/139
f 109/121/109 141/156/141 110/122/110
f 109/121/109 142/158/142 141/156/141
f 108/120/108 142/158/142 109/121/109
f 108/120/108 59/71/59 142/158/142
f 107/119/107 59/71/59 108/120/108
f 107/119/107 60/72/60 59/71/59
f 105/117/105 60/72/60 107/119/107
f 63/75/63 144/163/144 48/60/48
f 81/93/81 144/163/144 63/75/63
f 81/93/81 145/164/145 144/163/144
f 83/95/83 145/164/145 81/93/81
f 83/95/83 146/165/146 145/164/145
f 84/96/84 146/165/146 83/95/83
f 84/96/84 147/166/147 146/165/146
f 85/97/85 147/166/147 84/96/84
f 98/110/98 126/139/126 44/56/44 99/111/99
f 45/57/45 44/56/44 126/139/126 87/99/87 86/98/86 71/83/71
f 72/84/72 87/99/87 126/139/126 76/88/76 74/86/74
f 53/65/53 60/72/60 105/117/105 103/115/103 102/114/102
f 60/72/60 53/65/53 58/70/58
