# Blender v2.78 (sub 0) OBJ File: 'goku_armL.blend'
# www.blender.org
mtllib goku_armL.mtl
o Mesh.404_DrawCall_231
v 1.339008 -2.659707 0.501096
v 0.579128 0.089968 0.023051
v 1.374805 -2.541679 -0.506430
v 1.552234 -1.959747 -1.499553
v 1.812884 -1.027433 -2.317753
v 2.037630 -0.055240 -2.446640
v 2.250616 0.983063 -1.879586
v 2.346445 1.635794 -0.985869
v 2.298026 1.785944 -0.053572
v 2.054801 0.990918 1.265470
v 1.852012 -0.005861 1.795832
v 1.619873 -1.129982 1.730459
v 0.729853 -1.251194 1.812404
v 1.332592 -2.555530 0.538303
v -0.571599 -0.790837 1.328471
v 0.828111 -0.091103 1.873501
v -0.564361 -0.043239 1.132191
v 0.973029 1.011670 1.415711
v -0.527975 1.059364 0.872201
v -0.368138 1.357710 0.452140
v -0.250491 1.429712 -0.582385
v -0.316068 0.969881 -1.017938
v -0.390175 0.526026 -1.096900
v -0.554507 -0.475376 -0.936418
v -0.412811 -1.082326 -0.439370
v -0.311523 -1.225275 0.203885
v -0.236350 -1.498782 0.464980
v 1.029869 -1.032053 1.273243
v 2.197882 -0.795499 1.631639
v 2.380384 0.154177 0.975967
v 7.706022 -1.380644 -1.091436
v 7.638426 -2.060673 -0.849939
v 7.364569 -0.965902 -1.049291
v 2.145856 -1.792485 1.501359
v 1.010324 -1.881398 0.922938
v 7.436851 -2.287349 -0.794102
v 7.317358 -2.690284 -0.594233
v 6.161059 -2.214572 -1.431573
v 6.036517 -2.627881 -1.033806
v 5.550882 -0.473435 0.643057
v 5.260905 -0.022111 0.124470
v 5.643524 0.033580 0.321225
v 5.141415 -0.559999 0.356929
v 5.181261 -0.774437 0.389257
v 4.797668 -1.044608 0.087374
v 4.729606 -1.428411 0.228435
v 5.147205 -1.365274 0.581613
v 5.442942 -1.902520 0.904286
v 5.451365 -1.325168 0.951913
v 4.984680 -1.942248 0.938745
v 1.568581 0.826240 -1.654922
v 2.301534 0.492222 -2.061786
v 1.865882 0.027067 -2.322861
v 2.285544 0.990744 -1.046285
v 1.259479 -0.075902 1.747809
v 1.095657 -0.778130 1.634508
v 1.924249 0.155587 1.346573
v 4.346411 -1.082629 0.913336
v 5.518607 -2.532931 0.648421
v 5.050807 -2.499093 0.691470
v 7.458583 -2.237470 -1.087800
v 7.534275 -1.444884 -1.367163
v 7.023065 -1.011656 -1.343921
v 2.490299 0.911744 0.633183
v 2.926851 0.628932 0.355626
v 2.641119 1.265547 -0.323302
v 3.069169 0.860007 -0.519830
v 1.546387 0.947093 1.123913
v 1.746739 1.586599 0.000957
v 1.750575 1.525747 -0.982656
v 6.073462 0.408568 -0.415087
v 5.292993 0.223808 -0.370453
v 4.136614 -0.475895 -1.867359
v 3.682974 -1.309624 -2.166794
v 3.849149 -0.323456 -2.150619
v 3.961850 -1.362667 -1.870579
v 3.891713 -2.003383 -1.842799
v 4.187428 -1.993543 -1.640463
v 4.501191 -2.751805 -0.535852
v 7.213765 -0.435680 -1.092021
v 6.954817 -0.494875 -1.355557
v 6.965566 -0.032226 -1.029218
v 6.733483 -0.098104 -1.233845
v 6.206437 0.276145 -0.642561
v 6.716011 -3.067826 -0.056702
v 5.668210 -2.713521 0.591998
v 4.790322 -2.010936 0.448697
v 5.195483 -1.972700 0.719640
v 4.534278 -1.674350 1.180911
v 5.082941 -1.294801 1.347614
v 4.341730 -2.118788 0.965689
v 5.180363 -0.393213 1.093772
v 5.205054 0.080071 0.361315
v 5.722419 0.198467 0.038221
v 5.598942 0.198154 -0.185924
v 4.809081 -0.120720 -0.268703
v 4.390378 0.133218 0.431837
v 5.810767 -2.889886 -0.305320
v 5.180503 -2.760463 -0.398765
v 5.225958 -2.492973 -1.119119
v 4.627883 -2.383480 -1.276004
v 5.320849 -1.985070 -1.556205
v 4.730199 -1.785843 -1.717714
v 5.416619 -1.075487 -1.794311
v 4.824400 -0.795529 -1.896001
v 5.402549 -0.671636 -1.483401
v 4.813039 -0.384363 -1.597734
v 5.424627 -0.302818 -1.467264
v 4.832395 -0.006087 -1.542807
v 5.399732 0.064839 -1.083611
v 4.789532 0.372055 -1.031621
v 5.308762 0.302333 -0.293495
v 4.682157 0.504815 -0.173293
v 4.570507 0.327109 0.555507
v 4.404555 -0.346551 1.425045
v 4.308661 -1.322789 1.622932
v 2.229966 -2.205113 0.608661
v 1.083535 -2.073309 0.286077
v 4.650517 -0.637821 -0.069015
v 4.212820 -0.354287 0.600701
v 2.474538 -2.206076 -1.194818
v 2.648627 -1.487414 -2.085269
v 2.750839 -0.749118 -2.350022
v 2.790051 0.212065 -2.153883
v 4.114271 0.350733 -1.593945
v 2.733518 0.806868 -1.362236
v 5.898077 0.253885 -0.536256
v 6.123519 -0.077740 -1.273133
v 6.187798 -0.450003 -1.498038
v 6.176250 -0.925800 -1.458331
v 6.254357 -1.378882 -1.720182
v 4.347974 -2.587844 0.677077
v 2.262292 -2.569369 0.169455
v 1.126765 -2.407274 -0.227489
v 1.370082 -1.614613 -1.580644
v 1.765187 -0.697361 -2.237194
vt 0.8207 0.4848
vt 0.8523 0.4848
vt 0.8361 0.5184
vt 0.8662 0.4917
vt 0.8734 0.5065
vt 0.8734 0.5322
vt 0.8643 0.5446
vt 0.8499 0.5525
vt 0.8231 0.5525
vt 0.8100 0.5438
vt 0.9629 0.1660
vt 0.9668 0.2129
vt 0.8926 0.1660
vt 0.8083 0.4910
vt 0.8009 0.5337
vt 0.8926 0.0840
vt 0.8574 0.1660
vt 0.8926 0.2129
vt 0.8574 0.2129
vt 0.8926 0.2441
vt 0.8574 0.2441
vt 0.8926 0.2441
vt 0.9746 0.2441
vt 0.9746 0.2441
vt 0.9668 0.2129
vt 0.8926 0.2129
vt 0.9629 0.1660
vt 0.8926 0.1660
vt 0.9590 0.0840
vt 0.8926 0.0840
vt 0.9590 0.0410
vt 0.8926 0.0410
vt 0.9590 0.0059
vt 0.8926 0.0059
vt 0.9590 0.0059
vt 0.8926 0.0059
vt 0.9590 0.0410
vt 0.8926 0.0410
vt 0.4082 0.9902
vt 0.4082 0.9355
vt 0.4356 0.9355
vt 0.3769 0.9355
vt 0.3769 0.9902
vt 0.5840 0.8027
vt 0.5879 0.7715
vt 0.6074 0.8027
vt 0.4082 0.8027
vt 0.4277 0.7754
vt 0.4277 0.8027
vt 0.4082 0.7754
vt 0.3965 0.7754
vt 0.3887 0.7402
vt 0.3769 0.7402
vt 0.3769 0.7754
vt 0.3496 0.8027
vt 0.3769 0.8027
vt 0.3496 0.8301
vt 0.5527 0.9902
vt 0.5527 0.9668
vt 0.5840 0.9902
vt 0.5293 0.9551
vt 0.4394 0.9902
vt 0.4199 0.9902
vt 0.4394 0.9512
vt 0.3769 0.6855
vt 0.6074 0.7715
vt 0.3262 0.8027
vt 0.3262 0.8301
vt 0.5762 0.7793
vt 0.5527 0.7676
vt 0.5723 0.7676
vt 0.5527 0.7793
vt 0.5332 0.7676
vt 0.5332 0.7793
vt 0.4707 0.9512
vt 0.4707 0.9355
vt 0.5020 0.9512
vt 0.5020 0.9355
vt 0.4707 0.9902
vt 0.5020 0.9902
vt 0.5293 0.9902
vt 0.5527 0.8965
vt 0.5840 0.9082
vt 0.5527 0.9082
vt 0.5840 0.8965
vt 0.6074 0.8965
vt 0.6074 0.8848
vt 0.6309 0.8691
vt 0.5137 0.7676
vt 0.5137 0.7793
vt 0.4981 0.7676
vt 0.4981 0.7793
vt 0.4707 0.7754
vt 0.3262 0.7754
vt 0.3496 0.7402
vt 0.3496 0.7754
vt 0.3769 0.8301
vt 0.3496 0.8691
vt 0.4082 0.8301
vt 0.4356 0.8301
vt 0.4434 0.8027
vt 0.4434 0.7754
vt 0.4277 0.7402
vt 0.4434 0.7402
vt 0.4277 0.6855
vt 0.6309 0.7715
vt 0.6309 0.8027
vt 0.6309 0.8301
vt 0.6074 0.8301
vt 0.6074 0.8691
vt 0.5840 0.8301
vt 0.5840 0.8691
vt 0.5527 0.8301
vt 0.5527 0.8691
vt 0.5332 0.8301
vt 0.5332 0.8691
vt 0.5137 0.8301
vt 0.5215 0.8691
vt 0.4981 0.8301
vt 0.5020 0.8691
vt 0.4707 0.8301
vt 0.4707 0.8691
vt 0.4356 0.8691
vt 0.4082 0.8691
vt 0.3769 0.8691
vt 0.3496 0.9355
vt 0.3496 0.9902
vt 0.3066 0.7754
vt 0.4082 0.7402
vt 0.4082 0.6855
vt 0.6309 0.9355
vt 0.6074 0.9355
vt 0.5840 0.9355
vt 0.5527 0.9355
vt 0.5293 0.9004
vt 0.5293 0.9355
vt 0.4707 0.8027
vt 0.4981 0.8027
vt 0.5137 0.8027
vt 0.5332 0.8027
vt 0.5527 0.8027
vt 0.3496 0.6855
vt 0.3066 0.8027
vt 0.3066 0.8301
vt 0.3262 0.8691
vt 0.3066 0.8691
vt 0.3262 0.9355
vt 0.3066 0.9355
vt 0.3262 0.9902
vt 0.3066 0.9902
vt 0.6309 0.9902
vt 0.6074 0.9902
vt 0.4707 0.7402
vn 0.4877 -0.8459 -0.2155
vn 0.5612 -0.6955 -0.4487
vn 0.9421 -0.3330 0.0378
vn 0.5728 -0.4243 -0.7013
vn 0.6562 -0.0435 -0.7533
vn 0.7964 0.2917 -0.5297
vn 0.8422 0.5025 -0.1956
vn 0.8249 0.5561 0.1009
vn 0.8783 0.2239 0.4224
vn 0.8471 0.0154 0.5312
vn 0.4744 -0.4196 0.7739
vn -0.1900 -0.4430 0.8761
vn 0.3422 -0.9234 -0.1736
vn -0.2764 -0.7474 0.6041
vn -0.8084 -0.2153 0.5478
vn -0.1668 0.1972 0.9660
vn -0.8448 0.2084 0.4928
vn -0.0865 0.6395 0.7638
vn -0.7486 0.4654 0.4721
vn -0.5884 0.7933 0.1563
vn -0.5622 0.7849 -0.2604
vn -0.7164 0.3991 -0.5722
vn -0.8158 0.0998 -0.5697
vn -0.8545 -0.2134 -0.4736
vn -0.7827 -0.5729 -0.2432
vn -0.8313 -0.5409 -0.1278
vn -0.7083 -0.6993 -0.0957
vn 0.0927 -0.3460 0.9336
vn -0.2017 0.2389 0.9499
vn 0.3094 0.4219 0.8521
vn -0.1898 -0.5462 0.8159
vn -0.2534 -0.7346 0.6294
vn 0.1279 -0.5542 -0.8224
vn 0.3870 -0.8139 -0.4333
vn 0.0379 -0.8190 -0.5725
vn 0.9956 0.0885 -0.0302
vn 0.5014 -0.7024 -0.5051
vn 0.9514 0.1168 0.2848
vn 0.6208 -0.2230 -0.7515
vn 0.6683 -0.1496 -0.7286
vn -0.0093 -0.3610 -0.9325
vn -0.2708 -0.3200 -0.9079
vn 0.7096 -0.1732 -0.6829
vn 0.9180 -0.1762 0.3551
vn 0.9701 -0.1693 0.1737
vn 0.1969 -0.4179 0.8869
vn 0.1791 0.7577 -0.6276
vn 0.0967 0.6952 -0.7123
vn -0.0298 0.2779 -0.9601
vn 0.3740 0.7906 -0.4848
vn 0.5319 -0.0641 0.8443
vn 0.7397 -0.5277 0.4174
vn 0.5609 0.0061 0.8278
vn -0.8848 -0.2984 -0.3579
vn 0.2115 -0.6701 -0.7115
vn 0.3252 -0.4948 0.8058
vn 0.0592 -0.7400 0.6700
vn 0.4847 -0.7079 -0.5137
vn 0.8226 0.1556 -0.5469
vn 0.8484 -0.4058 -0.3398
vn 0.5973 0.0803 -0.7979
vn 0.5919 0.4058 -0.6964
vn 0.3806 0.2914 -0.8776
vn 0.5379 0.5880 0.6041
vn 0.3958 0.7585 0.5176
vn 0.5680 0.8227 -0.0241
vn 0.3812 0.9240 -0.0281
vn 0.3793 0.5687 0.7298
vn 0.3602 0.8987 0.2501
vn 0.4754 0.7484 -0.4624
vn 0.4019 -0.2392 -0.8839
vn 0.3507 -0.2243 -0.9092
vn 0.3760 0.1772 -0.9095
vn 0.4508 -0.1498 -0.8799
vn 0.2419 -0.5802 -0.7776
vn 0.2576 -0.5433 -0.7990
vn -0.0369 -0.9789 -0.2011
vn 0.6420 0.2704 -0.7173
vn 0.4349 0.2178 -0.8737
vn 0.3675 0.7016 -0.6105
vn 0.2340 0.6629 -0.7112
vn -0.0190 0.8761 -0.4817
vn -0.4558 -0.1358 -0.8796
vn 0.0141 -0.1965 -0.9804
vn 0.5711 0.1494 -0.8072
vn 0.5134 -0.1931 0.8361
vn 0.0689 -0.5788 0.8125
vn 0.5673 0.4479 0.6910
vn 0.3331 0.8032 0.4939
vn 0.9590 0.1910 0.2093
vn 0.2047 -0.9577 -0.2023
vn -0.2370 -0.0742 -0.9687
vn 0.1051 -0.6023 -0.7913
vn -0.7953 0.2327 -0.5597
vn -0.0570 -0.9590 -0.2777
vn -0.1723 -0.9825 -0.0704
vn -0.0876 -0.9912 -0.0990
vn -0.0483 -0.8270 -0.5601
vn -0.0977 -0.7921 -0.6025
vn 0.0406 -0.4735 -0.8798
vn 0.0826 -0.3877 -0.9181
vn 0.2003 0.1809 -0.9629
vn 0.2064 0.2349 -0.9498
vn 0.2129 0.3211 -0.9228
vn 0.3487 0.2745 -0.8961
vn 0.1464 0.3731 -0.9161
vn 0.3871 0.5084 -0.7692
vn 0.2114 0.8520 -0.4790
vn 0.3324 0.8900 -0.3121
vn 0.1996 0.9783 0.0544
vn 0.2723 0.9555 0.1134
vn 0.2514 0.8550 0.4535
vn 0.1929 0.4946 0.8474
vn 0.1881 -0.2313 0.9545
vn -0.1513 -0.8414 0.5188
vn -0.2397 -0.8784 0.4133
vn -0.2750 -0.3385 -0.8998
vn -0.8612 -0.1285 -0.4917
vn -0.1635 -0.8628 -0.4784
vn -0.1410 -0.5400 -0.8298
vn 0.0212 -0.0886 -0.9958
vn 0.1887 0.5084 -0.8401
vn 0.2907 0.7535 -0.5896
vn 0.1933 0.9070 -0.3741
vn -0.0156 0.9919 -0.1255
vn 0.0398 0.7343 -0.6776
vn 0.0917 0.2081 -0.9738
vn 0.1667 0.2670 -0.9491
vn 0.1821 0.0565 -0.9816
vn -0.9192 -0.3619 -0.1550
vn -0.0199 -0.8290 0.5588
vn -0.1708 -0.9588 0.2270
vn -0.2345 -0.9720 0.0106
vn -0.2452 -0.7036 -0.6669
vn -0.1819 -0.2868 -0.9405
vn -0.1589 0.8100 -0.5644
usemtl shirt.png
s 1
f 3/1/1 4/2/2 2/3/3
f 4/2/2 5/4/4 2/3/3
f 6/5/5 7/6/6 2/3/3
f 7/6/6 8/7/7 2/3/3
f 9/8/8 10/9/9 2/3/3
f 10/9/9 11/10/10 2/3/3
f 12/11/11 11/12/10 13/13/12
f 6/5/5 2/3/3 5/4/4
f 3/1/1 2/3/3 1/14/13
f 9/8/8 2/3/3 8/7/7
f 12/15/11 2/3/3 11/10/10
f 13/13/12 14/16/14 12/11/11
f 13/13/12 15/17/15 14/16/14
f 16/18/16 15/17/15 13/13/12
f 16/18/16 17/19/17 15/17/15
f 18/20/18 17/19/17 16/18/16
f 18/20/18 19/21/19 17/19/17
f 20/22/20 19/21/19 18/20/18
f 11/12/10 16/18/16 13/13/12
f 10/23/9 16/18/16 11/12/10
f 10/23/9 18/20/18 16/18/16
f 9/24/8 18/20/18 10/23/9
f 9/24/8 20/22/20 18/20/18
f 8/25/7 20/22/20 9/24/8
f 8/25/7 21/26/21 20/22/20
f 7/27/6 21/26/21 8/25/7
f 7/27/6 22/28/22 21/26/21
f 6/29/5 22/28/22 7/27/6
f 6/29/5 23/30/23 22/28/22
f 5/31/4 23/30/23 6/29/5
f 5/31/4 24/32/24 23/30/23
f 4/33/2 24/32/24 5/31/4
f 4/33/2 25/34/25 24/32/24
f 3/35/1 25/34/25 4/33/2
f 3/35/1 26/36/26 25/34/25
f 1/37/13 26/36/26 3/35/1
f 1/37/13 27/38/27 26/36/26
f 28/39/28 29/40/29 30/41/30
f 34/42/31 29/40/29 35/43/32
f 38/44/33 36/45/34 39/46/35
f 40/47/36 41/48/37 42/49/38
f 43/50/39 44/51/40 45/52/41
f 46/53/42 45/52/41 47/54/43
f 48/55/44 49/56/45 50/57/46
f 51/58/47 52/59/48 53/60/49
f 51/58/47 54/61/50 52/59/48
f 55/62/51 56/63/52 57/64/53
f 46/53/42 58/65/54 45/52/41
f 37/66/55 39/46/35 36/45/34
f 59/67/56 48/55/44 60/68/57
f 47/54/43 45/52/41 44/51/40
f 35/43/32 29/40/29 28/39/28
f 61/69/58 31/70/59 32/71/60
f 62/72/61 31/70/59 61/69/58
f 62/72/61 33/73/62 31/70/59
f 63/74/63 33/73/62 62/72/61
f 28/39/28 57/64/53 56/63/52
f 30/41/30 57/64/53 28/39/28
f 30/41/30 64/75/64 57/64/53
f 65/76/65 64/75/64 30/41/30
f 65/76/65 66/77/66 64/75/64
f 67/78/67 66/77/66 65/76/65
f 67/78/67 54/61/50 66/77/66
f 57/64/53 68/79/68 55/62/51
f 64/75/64 68/79/68 57/64/53
f 64/75/64 69/80/69 68/79/68
f 66/77/66 69/80/69 64/75/64
f 66/77/66 70/81/70 69/80/69
f 54/61/50 70/81/70 66/77/66
f 54/61/50 51/58/47 70/81/70
f 73/82/71 74/83/72 75/84/73
f 76/85/74 74/83/72 73/82/71
f 76/85/74 77/86/75 74/83/72
f 78/87/76 77/86/75 76/85/74
f 78/87/76 79/88/77 77/86/75
f 63/74/63 80/89/78 33/73/62
f 81/90/79 80/89/78 63/74/63
f 81/90/79 82/91/80 80/89/78
f 83/92/81 82/91/80 81/90/79
f 83/92/81 84/93/82 82/91/80
f 86/94/83 87/95/84 88/96/85
f 50/57/46 90/97/86 91/98/87
f 49/56/45 90/97/86 50/57/46
f 49/56/45 92/99/88 90/97/86
f 40/47/36 92/99/88 49/56/45
f 40/47/36 93/100/89 92/99/88
f 42/49/38 93/100/89 40/47/36
f 42/49/38 94/101/90 93/100/89
f 41/48/37 94/101/90 42/49/38
f 41/48/37 95/102/91 94/101/90
f 96/103/92 95/102/91 41/48/37
f 96/103/92 72/104/93 95/102/91
f 97/105/94 72/104/93 96/103/92
f 85/106/95 39/46/35 37/66/55
f 98/107/96 39/46/35 85/106/95
f 98/107/96 99/108/97 39/46/35
f 99/108/97 100/109/98 39/46/35
f 101/110/99 100/109/98 99/108/97
f 101/110/99 102/111/100 100/109/98
f 103/112/101 102/111/100 101/110/99
f 103/112/101 104/113/102 102/111/100
f 105/114/103 104/113/102 103/112/101
f 105/114/103 106/115/104 104/113/102
f 107/116/105 106/115/104 105/114/103
f 107/116/105 108/117/106 106/115/104
f 109/118/107 108/117/106 107/116/105
f 109/118/107 110/119/108 108/117/106
f 111/120/109 110/119/108 109/118/107
f 111/120/109 112/121/110 110/119/108
f 113/122/111 112/121/110 111/120/109
f 113/122/111 93/100/89 112/121/110
f 114/123/112 93/100/89 113/122/111
f 114/123/112 92/99/88 93/100/89
f 115/124/113 92/99/88 114/123/112
f 115/124/113 90/97/86 92/99/88
f 116/125/114 90/97/86 115/124/113
f 116/125/114 91/98/87 90/97/86
f 34/42/31 91/98/87 116/125/114
f 34/42/31 117/126/115 91/98/87
f 35/43/32 117/126/115 34/42/31
f 35/43/32 118/127/116 117/126/115
f 86/94/83 59/67/56 85/128/95
f 88/96/85 59/67/56 86/94/83
f 88/96/85 48/55/44 59/67/56
f 47/54/43 48/55/44 88/96/85
f 47/54/43 49/56/45 48/55/44
f 44/51/40 49/56/45 47/54/43
f 44/51/40 40/47/36 49/56/45
f 43/50/39 40/47/36 44/51/40
f 43/50/39 41/48/37 40/47/36
f 119/129/117 41/48/37 43/50/39
f 119/129/117 96/103/92 41/48/37
f 120/130/118 96/103/92 119/129/117
f 120/130/118 97/105/94 96/103/92
f 121/131/119 77/86/75 79/88/77
f 122/132/120 77/86/75 121/131/119
f 122/132/120 74/83/72 77/86/75
f 123/133/121 74/83/72 122/132/120
f 123/133/121 75/84/73 74/83/72
f 124/134/122 75/84/73 123/133/121
f 124/134/122 125/135/123 75/84/73
f 126/136/124 125/135/123 124/134/122
f 126/136/124 111/120/109 125/135/123
f 67/78/67 111/120/109 126/136/124
f 67/78/67 113/122/111 111/120/109
f 65/76/65 113/122/111 67/78/67
f 65/76/65 114/123/112 113/122/111
f 30/41/30 114/123/112 65/76/65
f 30/41/30 115/124/113 114/123/112
f 29/40/29 115/124/113 30/41/30
f 29/40/29 116/125/114 115/124/113
f 34/42/31 116/125/114 29/40/29
f 95/102/91 127/137/125 94/101/90
f 84/93/82 127/137/125 95/102/91
f 84/93/82 128/138/126 127/137/125
f 83/92/81 128/138/126 84/93/82
f 83/92/81 129/139/127 128/138/126
f 81/90/79 129/139/127 83/92/81
f 81/90/79 130/140/128 129/139/127
f 63/74/63 130/140/128 81/90/79
f 63/74/63 131/141/129 130/140/128
f 62/72/61 131/141/129 63/74/63
f 62/72/61 38/44/33 131/141/129
f 61/69/58 38/44/33 62/72/61
f 61/69/58 36/45/34 38/44/33
f 32/71/60 36/45/34 61/69/58
f 100/109/98 38/44/33 39/46/35
f 102/111/100 38/44/33 100/109/98
f 102/111/100 131/141/129 38/44/33
f 104/113/102 131/141/129 102/111/100
f 104/113/102 130/140/128 131/141/129
f 106/115/104 130/140/128 104/113/102
f 106/115/104 129/139/127 130/140/128
f 108/117/106 129/139/127 106/115/104
f 108/117/106 128/138/126 129/139/127
f 110/119/108 128/138/126 108/117/106
f 110/119/108 127/137/125 128/138/126
f 112/121/110 127/137/125 110/119/108
f 112/121/110 94/101/90 127/137/125
f 93/100/89 94/101/90 112/121/110
f 79/88/77 101/110/99 99/108/97
f 78/87/76 101/110/99 79/88/77
f 78/87/76 103/112/101 101/110/99
f 76/85/74 103/112/101 78/87/76
f 76/85/74 105/114/103 103/112/101
f 73/82/71 105/114/103 76/85/74
f 73/82/71 107/116/105 105/114/103
f 75/84/73 107/116/105 73/82/71
f 75/84/73 109/118/107 107/116/105
f 125/135/123 109/118/107 75/84/73
f 125/135/123 111/120/109 109/118/107
f 88/96/85 46/53/42 47/54/43
f 87/95/84 46/53/42 88/96/85
f 87/95/84 58/65/54 46/53/42
f 89/142/130 58/65/54 87/95/84
f 59/67/56 98/143/96 85/128/95
f 60/68/57 98/143/96 59/67/56
f 60/68/57 99/144/97 98/143/96
f 132/145/131 99/144/97 60/68/57
f 132/145/131 79/146/77 99/144/97
f 133/147/132 79/146/77 132/145/131
f 133/147/132 121/148/119 79/146/77
f 134/149/133 121/148/119 133/147/132
f 134/149/133 135/150/134 121/148/119
f 135/151/134 122/132/120 121/131/119
f 136/152/135 122/132/120 135/151/134
f 136/152/135 123/133/121 122/132/120
f 53/60/49 123/133/121 136/152/135
f 53/60/49 124/134/122 123/133/121
f 52/59/48 124/134/122 53/60/49
f 52/59/48 126/136/124 124/134/122
f 54/61/50 126/136/124 52/59/48
f 54/61/50 67/78/67 126/136/124
f 50/57/46 60/68/57 48/55/44
f 91/98/87 60/68/57 50/57/46
f 91/98/87 132/145/131 60/68/57
f 117/126/115 132/145/131 91/98/87
f 117/126/115 133/147/132 132/145/131
f 118/127/116 133/147/132 117/126/115
f 118/127/116 134/149/133 133/147/132
f 72/104/93 84/93/82 95/102/91
f 71/153/136 84/93/82 72/104/93
f 71/153/136 82/91/80 84/93/82
f 45/52/41 119/129/117 43/50/39
f 58/65/54 119/129/117 45/52/41
f 58/65/54 120/130/118 119/129/117
f 21/26/21 22/28/22 19/21/19 20/22/20
f 27/38/27 14/16/14 15/17/15
f 22/28/22 23/30/23 17/19/17 19/21/19
f 23/30/23 24/32/24 15/17/15 17/19/17
f 24/32/24 25/34/25 26/36/26 15/17/15
f 27/38/27 15/17/15 26/36/26
