# Blender v2.78 (sub 0) OBJ File: 'goku_legL.blend'
# www.blender.org
mtllib goku_legL.mtl
o Mesh.404_DrawCall_231
v 0.424893 -10.608627 4.949482
v 2.236749 -10.923356 2.956954
v 1.169725 -9.011127 -0.536196
v 2.509670 -8.868757 1.008370
v 1.049754 -8.268933 -0.005599
v 1.336176 -7.799356 -0.805991
v 2.665817 -7.434734 0.781920
v 1.501240 -5.455472 -1.018057
v 2.770802 -5.046062 0.535011
v 2.838188 -3.110165 0.227148
v -1.588822 1.188293 -0.093029
v -1.166129 1.249268 0.275240
v -3.113583 -0.984687 2.190746
v -1.514320 -1.537658 4.393212
v -2.640762 -1.843260 3.331730
v -1.555381 -3.301793 4.753983
v -2.541874 -3.484594 3.894073
v -1.607124 -5.540161 5.168834
v -0.888409 1.444823 -1.392287
v 0.170019 2.047507 -0.962185
v 0.781002 2.110733 -1.081212
v 0.111911 -2.952235 -2.014582
v 1.661732 -3.315480 -1.315830
v -0.361378 -5.381123 -1.299529
v 1.400618 -0.598601 -1.848615
v 2.924168 -0.350000 -0.431315
v 1.129401 1.959420 -0.423583
v 0.997167 1.953464 0.024818
v 0.895570 2.129233 0.449503
v 0.611979 1.588895 0.574292
v 2.639492 -2.567126 2.103298
v -2.738574 -11.042049 2.151810
v -2.548887 -10.313929 0.389402
v -2.808148 -11.313427 1.404513
v 2.900565 -10.085162 1.398479
v -2.055000 -5.035690 -0.575956
v 1.462533 2.027933 0.151416
v 2.388088 -9.022149 1.137576
v 1.046068 -8.154587 0.049234
v 0.012781 1.741028 0.989278
v -3.081303 -9.788935 1.474140
v -2.728865 -10.762455 -0.307974
v -2.593912 -1.784508 -1.300813
v -1.455562 -10.656979 4.847445
v -3.303941 -2.376185 0.239862
v -2.855936 -4.356300 1.193287
v -3.088882 -3.744618 2.998609
v -3.055365 -6.594646 1.479124
v -3.224320 -6.004218 3.260995
v -3.107483 -8.328135 1.860465
v -3.258180 -8.009151 3.607301
v -3.082253 -9.356806 1.952987
v -3.271134 -9.322953 3.659410
v -3.173038 -10.107235 3.269696
v 1.408831 1.879226 0.512200
v 3.161309 -0.949660 0.948460
v -0.542306 -7.658642 -1.037759
v -0.740115 -8.892838 -0.741831
v -0.900984 -8.294271 -0.214678
v -0.894387 -8.247567 -0.174009
v 2.494693 -9.458380 2.851106
v 1.969406 -9.493563 4.496408
v 2.035431 -10.179667 4.065444
v 2.583841 -8.552948 2.851421
v 2.029069 -8.202947 4.530171
v 2.673131 -6.838091 2.659020
v 2.027262 -6.216575 4.329606
v 2.665550 -4.405717 2.370766
v 2.010479 -3.852947 3.966494
v 1.955416 -1.981083 3.662743
v -2.328866 -7.253160 -0.274087
v -2.458092 -8.710184 0.077790
v -2.434717 -8.933702 0.297064
v -2.330808 -8.902542 0.338142
v -1.738756 -9.552923 -1.188127
v -2.335021 -8.866680 0.006010
v -0.527923 -8.719878 -1.668589
v -0.711917 -8.044925 -0.872505
v 1.262752 -7.918886 -0.634314
v 2.659429 -8.823822 0.889056
v 2.429645 -8.918675 1.162346
v 2.779288 -9.764681 2.420541
v -1.828040 -9.749414 -1.624528
v 0.289565 -9.603724 5.558864
v 0.306160 -7.950502 5.601969
v 0.298832 -5.725500 5.250430
v 0.304699 -3.441369 4.807540
v 0.272662 -1.613887 4.400406
v -0.719593 1.218324 0.594728
v -1.605539 -9.570544 5.472885
v -1.581856 -7.812755 5.506594
vt 0.7363 0.3613
vt 0.6426 0.3613
vt 0.7357 0.3073
vt 0.7363 0.4473
vt 0.6426 0.4473
vt 0.7363 0.5410
vt 0.6465 0.5410
vt 0.6543 0.6855
vt 0.2168 0.7559
vt 0.2871 0.8193
vt 0.2012 0.7949
vt 0.3066 0.6816
vt 0.2519 0.6777
vt 0.3066 0.5410
vt 0.2559 0.5410
vt 0.3066 0.4473
vt 0.8574 0.6426
vt 0.7598 0.6699
vt 0.8262 0.5410
vt 0.8418 0.6855
vt 0.7402 0.7480
vt 0.8340 0.7168
vt 0.8301 0.7480
vt 0.5488 0.8496
vt 0.5488 0.6895
vt 0.6504 0.8418
vt 0.2156 0.2549
vt 0.1504 0.2139
vt 0.2148 0.2197
vt 0.7402 0.7715
vt 0.7356 0.3074
vt 0.6418 0.3074
vt 0.7354 0.2803
vt 0.1504 0.2817
vt 0.1514 0.1807
vt 0.1465 0.5410
vt 0.2090 0.6152
vt 0.1660 0.6230
vt 0.2090 0.5410
vt 0.1465 0.4473
vt 0.2090 0.4473
vt 0.1504 0.3613
vt 0.2129 0.3613
vt 0.1504 0.3086
vt 0.2168 0.3203
vt 0.1504 0.2822
vt 0.2158 0.2949
vt 0.2148 0.2549
vt 0.3057 0.2939
vt 0.6504 0.8105
vt 0.7402 0.8184
vt 0.8262 0.4473
vt 0.8262 0.3613
vt 0.7354 0.3076
vt 0.8267 0.3076
vt 0.8262 0.2803
vt 0.5501 0.3074
vt 0.4688 0.3257
vt 0.4692 0.2944
vt 0.5488 0.3613
vt 0.4707 0.3613
vt 0.5488 0.4473
vt 0.4707 0.4473
vt 0.5488 0.5410
vt 0.4707 0.5410
vt 0.4707 0.6895
vt 0.4707 0.8496
vt 0.9199 0.5410
vt 0.9824 0.5410
vt 0.9941 0.6426
vt 0.9082 0.4473
vt 0.9863 0.4473
vt 0.9082 0.3613
vt 0.9863 0.3613
vt 0.9043 0.3073
vt 0.9857 0.3073
vt 0.9043 0.2816
vt 0.9855 0.2806
vt 0.9852 0.2109
vt 0.9039 0.1727
vt 0.9852 0.1727
vt 0.9043 0.2559
vt 0.8258 0.1727
vt 0.8258 0.2555
vt 0.5501 0.2122
vt 0.4692 0.2559
vt 0.6418 0.2566
vt 0.6419 0.2819
vt 0.6419 0.2565
vt 0.7354 0.2559
vt 0.5501 0.2816
vt 0.5501 0.3073
vt 0.4694 0.2943
vt 0.9854 0.2808
vt 0.9851 0.2109
vt 0.9043 0.2817
vt 0.8257 0.2556
vt 0.6418 0.2820
vt 0.9038 0.1728
vt 0.9038 0.1445
vt 0.9851 0.1728
vt 0.3875 0.2947
vt 0.5501 0.2817
vt 0.3857 0.3259
vt 0.3848 0.3613
vt 0.3848 0.4473
vt 0.3848 0.5410
vt 0.3809 0.6855
vt 0.3789 0.8384
vt 0.3061 0.2939
vt 0.3069 0.3242
vt 0.3066 0.3613
vt 0.2876 0.8191
vt 0.9160 0.7090
vt 0.9160 0.6797
vt 0.9199 0.6387
vt 0.9043 0.3076
vt 0.3066 0.3242
vn 0.1846 -0.9355 -0.3012
vn 0.7562 -0.5071 -0.4135
vn -0.4051 -0.5140 0.7561
vn 0.4735 -0.1828 -0.8616
vn 0.9387 -0.1089 -0.3271
vn 0.5015 -0.1293 -0.8554
vn 0.9532 -0.0685 -0.2945
vn 0.9536 -0.1176 -0.2770
vn -0.9402 0.2535 0.2274
vn -0.2537 0.9206 0.2968
vn -0.7170 0.6922 -0.0820
vn -0.3204 0.5013 0.8038
vn -0.8419 0.2339 0.4862
vn -0.3647 0.1949 0.9105
vn -0.7684 0.1360 0.6254
vn -0.4227 0.1415 0.8951
vn -0.1847 -0.1311 -0.9740
vn 0.5766 -0.1788 -0.7972
vn -0.1531 -0.1168 -0.9813
vn 0.3055 0.1726 -0.9364
vn 0.8748 0.2641 -0.4061
vn 0.5843 0.8094 -0.0597
vn 0.3875 0.9021 -0.1898
vn 0.0936 0.7341 0.6725
vn 0.9394 0.1533 0.3067
vn -0.1686 0.8457 0.5062
vn -0.7846 -0.5973 0.1662
vn -0.9617 0.1619 -0.2212
vn -0.7074 -0.6988 -0.1058
vn 0.4909 0.7984 -0.3486
vn -0.3170 -0.9480 0.0287
vn -0.2055 0.5493 0.8099
vn -0.9649 -0.0257 -0.2611
vn -0.9107 -0.0302 -0.4119
vn -0.9644 -0.1058 -0.2422
vn -0.9570 0.1869 -0.2218
vn -0.5590 0.0414 -0.8281
vn -0.9695 0.0764 0.2328
vn -0.9685 0.0169 -0.2485
vn -0.9610 0.0656 0.2686
vn -0.9761 -0.0388 -0.2137
vn -0.9477 0.0378 0.3169
vn -0.9769 0.0806 -0.1979
vn -0.9295 -0.1241 0.3473
vn -0.8719 -0.4219 0.2485
vn -0.2878 -0.7669 0.5735
vn 0.8988 0.2443 0.3638
vn 0.3529 0.6057 0.7131
vn -0.1522 -0.1532 -0.9764
vn -0.1722 -0.9218 -0.3472
vn 0.1889 -0.6662 0.7214
vn -0.1122 0.4147 0.9030
vn 0.9580 0.0975 0.2697
vn 0.7539 -0.1837 0.6307
vn 0.7445 -0.3990 0.5352
vn 0.9851 -0.0672 0.1582
vn 0.7786 0.0022 0.6275
vn 0.9832 -0.0040 0.1825
vn 0.7621 0.0892 0.6413
vn 0.9757 0.0329 0.2166
vn 0.7472 0.1189 0.6539
vn 0.7128 0.3806 0.5891
vn -0.1260 0.8733 0.4705
vn -0.6724 -0.0772 -0.7362
vn -0.7138 -0.0568 -0.6980
vn -0.6067 -0.4550 -0.6518
vn -0.3312 -0.8443 -0.4212
vn -0.8336 -0.4769 -0.2788
vn -0.7863 0.4833 -0.3849
vn -0.7678 0.5807 -0.2706
vn -0.5975 0.5342 -0.5980
vn -0.4077 0.9032 -0.1342
vn 0.8061 -0.4397 -0.3959
vn 0.5621 -0.8156 0.1372
vn 0.6139 0.7853 -0.0800
vn -0.2513 0.7544 0.6064
vn 0.0295 0.9428 0.3320
vn 0.9616 0.1184 0.2474
vn -0.8042 0.5860 -0.0993
vn 0.2093 -0.7597 0.6156
vn 0.2328 -0.2588 0.9374
vn 0.2468 0.0570 0.9674
vn 0.2379 0.1624 0.9576
vn 0.2289 0.1929 0.9541
vn 0.2045 0.5013 0.8407
vn -0.4382 0.8181 0.3724
vn -0.4119 -0.2544 0.8750
vn -0.4185 0.0657 0.9058
vn 0.2815 0.7696 -0.5730
vn -0.2490 0.8579 -0.4495
vn -0.3760 0.6124 -0.6953
usemtl pants.png
s 1
f 3/1/1 4/2/2 5/3/3
f 6/4/4 4/2/2 3/1/1
f 6/4/4 7/5/5 4/2/2
f 8/6/6 7/5/5 6/4/4
f 8/6/6 9/7/7 7/5/5
f 10/8/8 9/7/7 8/6/6
f 13/9/9 12/10/10 11/11/11
f 13/9/9 14/12/12 12/10/10
f 15/13/13 14/12/12 13/9/9
f 15/13/13 16/14/14 14/12/12
f 17/15/15 16/14/14 15/13/13
f 17/15/15 18/16/16 16/14/14
f 22/17/17 23/18/18 24/19/19
f 25/20/20 23/18/18 22/17/17
f 25/20/20 26/21/21 23/18/18
f 27/22/22 26/21/21 25/20/20
f 27/22/22 28/23/23 26/21/21
f 30/24/24 31/25/25 29/26/26
f 32/27/27 33/28/28 34/29/29
f 37/30/30 26/21/21 28/23/23
f 5/31/3 38/32/31 39/33/32
f 38/32/31 5/31/3 4/2/2
f 33/28/28 32/27/27 41/34/33
f 42/35/34 34/29/29 33/28/28
f 46/36/35 45/37/36 43/38/37
f 46/36/35 47/39/38 45/37/36
f 48/40/39 47/39/38 46/36/35
f 48/40/39 49/41/40 47/39/38
f 50/42/41 49/41/40 48/40/39
f 50/42/41 51/43/42 49/41/40
f 52/44/43 51/43/42 50/42/41
f 52/44/43 53/45/44 51/43/42
f 41/46/33 53/45/44 52/44/43
f 41/46/33 54/47/45 53/45/44
f 32/48/27 54/47/45 41/46/33
f 32/48/27 44/49/46 54/47/45
f 34/29/29 44/49/46 32/48/27
f 56/50/47 37/30/30 55/51/48
f 56/50/47 26/21/21 37/30/30
f 10/8/8 26/21/21 56/50/47
f 10/8/8 23/18/18 26/21/21
f 8/6/6 23/18/18 10/8/8
f 8/6/6 24/19/19 23/18/18
f 6/4/4 24/19/19 8/6/6
f 6/4/4 57/52/49 24/19/19
f 3/1/1 57/52/49 6/4/4
f 3/1/1 58/53/50 57/52/49
f 5/54/3 58/53/50 3/1/1
f 5/54/3 59/55/51 58/53/50
f 39/33/32 59/55/51 5/54/3
f 39/33/32 60/56/52 59/55/51
f 61/57/53 62/58/54 63/59/55
f 64/60/56 62/58/54 61/57/53
f 64/60/56 65/61/57 62/58/54
f 66/62/58 65/61/57 64/60/56
f 66/62/58 67/63/59 65/61/57
f 68/64/60 67/63/59 66/62/58
f 68/64/60 69/65/61 67/63/59
f 31/25/25 69/65/61 68/64/60
f 31/25/25 70/66/62 69/65/61
f 30/24/24 70/66/62 31/25/25
f 30/24/24 40/67/63 70/66/62
f 36/68/64 46/69/35 43/70/37
f 71/71/65 46/69/35 36/68/64
f 71/71/65 48/72/39 46/69/35
f 72/73/66 48/72/39 71/71/65
f 72/73/66 50/74/41 48/72/39
f 73/75/67 50/74/41 72/73/66
f 73/75/67 52/76/43 50/74/41
f 74/77/68 52/76/43 73/75/67
f 74/77/68 41/78/33 52/76/43
f 33/79/28 75/80/69 42/81/34
f 76/82/70 75/80/69 33/79/28
f 76/82/70 77/83/71 75/80/69
f 78/84/72 77/83/71 76/82/70
f 42/35/34 35/85/73 2/86/74 34/29/29
f 80/87/75 35/85/73 42/35/34
f 81/88/76 80/89/75 79/90/77
f 81/88/76 82/91/78 80/89/75
f 61/92/53 82/91/78 81/88/76
f 61/92/53 63/93/55 82/91/78
f 41/94/33 76/82/70 33/95/28
f 74/96/68 76/82/70 41/94/33
f 74/96/68 78/97/72 76/82/70
f 60/56/52 78/97/72 74/96/68
f 60/56/52 79/90/77 78/97/72
f 39/33/32 79/90/77 60/56/52
f 39/33/32 81/98/76 79/90/77
f 38/32/31 81/98/76 39/33/32
f 38/32/31 61/57/53 81/98/76
f 4/2/2 61/57/53 38/32/31
f 4/2/2 64/60/56 61/57/53
f 7/5/5 64/60/56 4/2/2
f 7/5/5 66/62/58 64/60/56
f 9/7/7 66/62/58 7/5/5
f 9/7/7 68/64/60 66/62/58
f 10/8/8 68/64/60 9/7/7
f 10/8/8 31/25/25 68/64/60
f 56/50/47 31/25/25 10/8/8
f 56/50/47 29/26/26 31/25/25
f 55/51/48 29/26/26 56/50/47
f 75/99/69 83/100/79 42/101/34
f 44/49/46 34/29/29 1/102/80
f 2/86/74 1/102/80 34/29/29
f 82/103/78 35/85/73 80/87/75
f 82/103/78 2/86/74 35/85/73
f 63/59/55 2/86/74 82/103/78
f 63/59/55 1/102/80 2/86/74
f 62/58/54 1/102/80 63/59/55
f 62/58/54 84/104/81 1/102/80
f 65/61/57 84/104/81 62/58/54
f 65/61/57 85/105/82 84/104/81
f 67/63/59 85/105/82 65/61/57
f 67/63/59 86/106/83 85/105/82
f 69/65/61 86/106/83 67/63/59
f 69/65/61 87/107/84 86/106/83
f 70/66/62 87/107/84 69/65/61
f 70/66/62 88/108/85 87/107/84
f 40/67/63 88/108/85 70/66/62
f 40/67/63 89/109/86 88/108/85
f 84/104/81 44/110/46 1/102/80
f 84/104/81 90/111/87 44/110/46
f 85/105/82 90/111/87 84/104/81
f 85/105/82 91/112/88 90/111/87
f 86/106/83 91/112/88 85/105/82
f 86/106/83 18/16/16 91/112/88
f 87/107/84 18/16/16 86/106/83
f 87/107/84 16/14/14 18/16/16
f 88/108/85 16/14/14 87/107/84
f 88/108/85 14/12/12 16/14/14
f 89/109/86 14/12/12 88/108/85
f 89/109/86 12/113/10 14/12/12
f 25/20/20 21/114/89 27/22/22
f 25/20/20 20/115/90 21/114/89
f 22/17/17 20/115/90 25/20/20
f 22/17/17 19/116/91 20/115/90
f 24/19/19 19/116/91 22/17/17
f 24/19/19 36/68/64 19/116/91
f 57/52/49 36/68/64 24/19/19
f 57/52/49 71/71/65 36/68/64
f 58/53/50 71/71/65 57/52/49
f 58/53/50 72/73/66 71/71/65
f 59/55/51 72/73/66 58/53/50
f 59/55/51 73/117/67 72/73/66
f 60/56/52 73/117/67 59/55/51
f 60/56/52 74/96/68 73/117/67
f 36/68/64 43/70/37 19/116/91
f 47/39/38 15/13/13 45/37/36
f 47/39/38 17/15/15 15/13/13
f 49/41/40 17/15/15 47/39/38
f 49/41/40 18/16/16 17/15/15
f 51/43/42 18/16/16 49/41/40
f 51/43/42 91/112/88 18/16/16
f 53/45/44 91/112/88 51/43/42
f 53/45/44 90/118/87 91/112/88
f 54/47/45 90/118/87 53/45/44
f 54/47/45 44/49/46 90/118/87
f 55/51/48 37/30/30 28/23/23 29/26/26
f 27/22/22 21/114/89 20/115/90 28/23/23
f 28/23/23 20/115/90 29/26/26
f 30/24/24 29/26/26 20/115/90
f 40/67/63 30/24/24 20/115/90
f 89/109/86 40/67/63 20/115/90
f 20/115/90 19/116/91 89/109/86
f 89/109/86 19/116/91 12/113/10
f 12/113/10 19/116/91 11/11/11
f 13/9/9 11/11/11 19/116/91
f 19/116/91 43/70/37 13/9/9
f 13/9/9 43/70/37 15/13/13
f 45/37/36 15/13/13 43/38/37
